<?xml version="1.0" encoding="UTF-8" standalone="no"?>
<svg width="41px" height="41px" viewBox="0 0 41 41" version="1.1" xmlns="http://www.w3.org/2000/svg" xmlns:xlink="http://www.w3.org/1999/xlink" xmlns:sketch="http://www.bohemiancoding.com/sketch/ns">
    <!-- Generator: Sketch 3.3.3 (12081) - http://www.bohemiancoding.com/sketch -->
    <title>Fill 9732 + Fill 9733 + Fill 9734</title>
    <desc>Created with Sketch.</desc>
    <defs></defs>
    <g id="Notices" stroke="none" stroke-width="1" fill="none" fill-rule="evenodd" sketch:type="MSPage">
        <g id="4.2-Gallery-view---My-collection---Favourited-Copy-2" sketch:type="MSArtboardGroup" transform="translate(-1664.000000, -360.000000)" fill="#FFFFFF">
            <g id="Fill-9732-+-Fill-9733-+-Fill-9734" sketch:type="MSLayerGroup" transform="translate(1664.000000, 360.000000)">
                <path d="M20.3173333,0.28 C9.27333333,0.28 0.317333333,9.22666667 0.317333333,20.28 C0.317333333,31.32 9.27333333,40.28 20.3173333,40.28 C31.3626667,40.28 40.3173333,31.32 40.3173333,20.28 C40.3173333,9.22666667 31.3626667,0.28 20.3173333,0.28 L20.3173333,0.28 Z M20.3173333,1.61333333 C30.6106667,1.61333333 38.984,9.988 38.984,20.28 C38.984,30.56 30.6106667,38.9466667 20.3173333,38.9466667 C10.0253333,38.9466667 1.65066667,30.56 1.65066667,20.28 C1.65066667,9.988 10.0253333,1.61333333 20.3173333,1.61333333 L20.3173333,1.61333333 Z" id="Fill-9732" sketch:type="MSShapeGroup"></path>
                <path d="M12.8173333,28.4413333 C12.6466667,28.4413333 12.476,28.3746667 12.3466667,28.2413333 C12.0853333,27.988 12.0853333,27.56 12.3466667,27.3066667 L27.3466667,12.3066667 C27.6066667,12.04 28.028,12.04 28.2893333,12.3066667 C28.5493333,12.56 28.5493333,12.988 28.2893333,13.2413333 L13.2893333,28.2413333 C13.1586667,28.3746667 12.988,28.4413333 12.8173333,28.4413333" id="Fill-9733" sketch:type="MSShapeGroup"></path>
                <path d="M27.8173333,28.4413333 C27.6466667,28.4413333 27.476,28.3746667 27.3466667,28.2413333 L12.3466667,13.2413333 C12.0853333,12.988 12.0853333,12.56 12.3466667,12.3066667 C12.6066667,12.04 13.028,12.04 13.2893333,12.3066667 L28.2893333,27.3066667 C28.5493333,27.56 28.5493333,27.988 28.2893333,28.2413333 C28.1586667,28.3746667 27.988,28.4413333 27.8173333,28.4413333" id="Fill-9734" sketch:type="MSShapeGroup"></path>
            </g>
        </g>
    </g>
</svg>