<?xml version="1.0" encoding="UTF-8" standalone="no"?>
<svg width="17px" height="17px" viewBox="0 0 17 17" version="1.1" xmlns="http://www.w3.org/2000/svg" xmlns:xlink="http://www.w3.org/1999/xlink" xmlns:sketch="http://www.bohemiancoding.com/sketch/ns">
    <!-- Generator: Sketch 3.3.3 (12081) - http://www.bohemiancoding.com/sketch -->
    <title>Fill 9732 + Fill 9733 + Fill 9734 Copy 3</title>
    <desc>Created with Sketch.</desc>
    <defs></defs>
    <g id="Elements" stroke="none" stroke-width="1" fill="none" fill-rule="evenodd" sketch:type="MSPage">
        <g id="Login-modal" sketch:type="MSArtboardGroup" transform="translate(-1124.000000, -1337.000000)" fill="#D0021B">
            <g id="Fill-9732-+-Fill-9733-+-Fill-9734-Copy-3" sketch:type="MSLayerGroup" transform="translate(1124.000000, 1337.200000)">
                <path d="M0.817333333,16.4413333 C0.646666667,16.4413333 0.476,16.3746667 0.346666667,16.2413333 C0.0853333333,15.988 0.0853333333,15.56 0.346666667,15.3066667 L15.3466667,0.306666667 C15.6066667,0.04 16.028,0.04 16.2893333,0.306666667 C16.5493333,0.56 16.5493333,0.988 16.2893333,1.24133333 L1.28933333,16.2413333 C1.15866667,16.3746667 0.988,16.4413333 0.817333333,16.4413333" id="Fill-9733" sketch:type="MSShapeGroup"></path>
                <path d="M15.8173333,16.4413333 C15.6466667,16.4413333 15.476,16.3746667 15.3466667,16.2413333 L0.346666667,1.24133333 C0.0853333333,0.988 0.0853333333,0.56 0.346666667,0.306666667 C0.606666667,0.04 1.028,0.04 1.28933333,0.306666667 L16.2893333,15.3066667 C16.5493333,15.56 16.5493333,15.988 16.2893333,16.2413333 C16.1586667,16.3746667 15.988,16.4413333 15.8173333,16.4413333" id="Fill-9734" sketch:type="MSShapeGroup"></path>
            </g>
        </g>
    </g>
</svg>