<?xml version="1.0" encoding="utf-8"?>
<!-- Generator: Adobe Illustrator 17.0.0, SVG Export Plug-In . SVG Version: 6.00 Build 0)  -->
<!DOCTYPE svg PUBLIC "-//W3C//DTD SVG 1.1//EN" "http://www.w3.org/Graphics/SVG/1.1/DTD/svg11.dtd">
<svg version="1.1" id="Layer_1" xmlns="http://www.w3.org/2000/svg" xmlns:xlink="http://www.w3.org/1999/xlink" x="0px" y="0px"
	 width="71px" height="74.619px" viewBox="339 276 71 74.619" enable-background="new 339 276 71 74.619" xml:space="preserve">
<title>Headset Icon</title>
<path d="M409.098,310.125c-0.681-2.641-1.702-4.997-3.041-7c-0.212-0.374-0.727-0.85-1.96-0.85c-0.357,0-0.769,0.047-1.197,0.121
	C402.342,287.231,387.614,276,374.409,276c-13.197,0-27.916,11.215-28.489,26.367c-0.369-0.055-0.719-0.092-1.017-0.092
	c-1.227,0-1.739,0.49-1.948,0.832c-1.345,2.011-2.373,4.371-3.056,7.02c-0.791,3.098-1.063,6.38-0.805,9.754
	c0.25,3.379,1.009,6.585,2.257,9.527c1.063,2.511,2.429,4.689,4.06,6.47c0.215,0.267,0.544,0.429,0.893,0.429
	c0.031,0,0.06-0.002,0.09-0.003l1.78-0.133c0.838-0.064,1.498-0.466,1.863-1.081c1.244-0.031,2.351-0.504,3.125-1.34
	c0.84-0.905,1.243-2.177,1.137-3.58l-0.696-9.261c-0.487-6.484-0.986-13.131-1.089-14.531c-0.195-2.574-1.847-3.963-4.298-3.664
	c0.363-14.014,13.979-24.423,26.193-24.423c12.205,0,25.806,10.395,26.191,24.391c-2.373-0.217-3.927,1.185-4.115,3.698
	c-0.157,2.125-1.232,16.431-1.786,23.791c-0.104,1.405,0.301,2.678,1.139,3.582c0.776,0.835,1.879,1.308,3.124,1.339
	c0.281,0.472,0.736,0.812,1.311,0.979c-2.522,2.545-6.226,5.669-10.6,7.134c-0.847-1.643-2.544-2.78-4.516-2.78
	c-2.811,0-5.098,2.287-5.098,5.098s2.287,5.098,5.098,5.098c2.812,0,5.099-2.287,5.099-5.098c0-0.032-0.009-0.063-0.011-0.095
	c7.075-2.31,12.406-8.438,14.452-10.799c0.104-0.118,0.176-0.25,0.221-0.389c1.052-1.429,1.973-3.04,2.73-4.831
	c1.244-2.936,2.003-6.142,2.257-9.524C410.163,316.501,409.893,313.219,409.098,310.125L409.098,310.125z M348.894,304.938
	c0.424,0,1.214,0,1.336,1.611c0.102,1.395,0.602,8.046,1.089,14.531l0.695,9.261c0.058,0.763-0.13,1.42-0.531,1.853
	c-0.369,0.397-0.916,0.609-1.58,0.609c-0.136,0-0.275-0.009-0.353-0.017c-0.034-0.006-0.206-0.031-0.241-0.034
	c-0.31-0.026-0.664,0.075-0.901,0.292c-0.238,0.217-0.4,0.521-0.4,0.843l-1.221,0.092c-1.318-1.524-2.435-3.359-3.327-5.464
	c-1.15-2.713-1.85-5.673-2.081-8.805c-0.235-3.084,0.02-6.202,0.739-9.014c0.597-2.311,1.476-4.371,2.617-6.125
	c0.211-0.02,0.641,0.009,1.202,0.115c0.244,0.463,0.783,0.708,1.304,0.569l0.734-0.185
	C348.317,304.982,348.627,304.938,348.894,304.938L348.894,304.938z M385.157,348.329c-1.548,0-2.808-1.26-2.808-2.808
	c0-1.548,1.26-2.808,2.808-2.808c1.55,0,2.809,1.26,2.809,2.808C387.966,347.069,386.707,348.329,385.157,348.329L385.157,348.329z
	 M407.621,319.712c-0.232,3.136-0.934,6.096-2.079,8.803c-0.893,2.107-2.011,3.945-3.331,5.466l-1.273-0.087
	c0-0.322-0.136-0.629-0.374-0.847c-0.211-0.192-0.486-0.298-0.769-0.298c-0.035,0-0.072,0.002-0.107,0.006
	c-0.011,0-0.159,0.021-0.169,0.021c-0.849,0.102-1.556-0.102-2-0.582c-0.403-0.434-0.592-1.09-0.534-1.853
	c0.556-7.36,1.631-21.667,1.786-23.791c0.122-1.612,0.911-1.612,1.334-1.612c0.269,0,0.579,0.044,0.928,0.134l0.731,0.183
	c0.518,0.134,1.057-0.108,1.302-0.569c0.518-0.101,0.983-0.133,1.202-0.115c1.139,1.751,2.015,3.812,2.612,6.125
	C407.602,313.504,407.858,316.622,407.621,319.712L407.621,319.712z" fill="#7ed321" />
</svg>