<?xml version="1.0" encoding="UTF-8" standalone="no"?>
<svg width="45px" height="58px" viewBox="0 0 45 58" version="1.1" xmlns="http://www.w3.org/2000/svg" xmlns:xlink="http://www.w3.org/1999/xlink">
    <title>Group Copy 12</title>
    <desc>Created with Sketch.</desc>
    <defs></defs>
    <g stroke="none" stroke-width="1" fill="none" fill-rule="evenodd">
        <g fill="#f9e900">
            <path d="M38.52,22 L36.52,21.882 C36.54,21.68 36.54,21.44 36.54,21.222 C36.54,15.02 31.494,9.982 25.29,9.982 C21.32,9.982 17.718,12 15.656,15.4 L13.946,14.382 C16.374,10.36 20.614,7.98 25.29,7.98 C32.598,7.98 38.54,13.92 38.54,21.222 C38.54,21.48 38.54,21.742 38.52,22"></path>
            <path d="M25,4.66 C24.448,4.66 24,4.222 24,3.66 L24,1.66 C24,1.1 24.448,0.66 25,0.66 C25.552,0.66 26,1.1 26,1.66 L26,3.66 C26,4.222 25.552,4.66 25,4.66"></path>
            <path d="M44,21.66 L42,21.66 C41.44,21.66 41,21.222 41,20.662 C41,20.102 41.44,19.66 42,19.66 L44,19.66 C44.56,19.66 45,20.102 45,20.662 C45,21.222 44.56,21.66 44,21.66"></path>
            <path d="M13.268,11.142 C13.012,11.142 12.756,11.042 12.56,10.86 L9.92,8.22 C9.53,7.822 9.53,7.18 9.92,6.802 C10.31,6.4 10.944,6.4 11.334,6.802 L13.974,9.44 C14.366,9.82 14.366,10.462 13.974,10.86 C13.78,11.042 13.524,11.142 13.268,11.142"></path>
            <path d="M36.64,10.48 C36.38,10.48 36.14,10.38 35.94,10.18 C35.54,9.802 35.54,9.16 35.94,8.78 L37.92,6.802 C38.3,6.4 38.94,6.4 39.32,6.802 C39.72,7.18 39.72,7.822 39.32,8.22 L37.36,10.18 C37.16,10.38 36.9,10.48 36.64,10.48"></path>
            <path d="M15.082,15.882 C8.016,15.882 2.266,21.66 2.266,28.78 C2.266,35.88 8.016,41.662 15.082,41.662 L32.088,41.662 C37.6,41.662 41.72,35.98 41.72,30.9 C41.72,25.562 37.4,21.2 32.088,21.2 C30.478,21.2 28.904,21.622 27.406,22.48 L26.56,22.94 L26.058,22.122 C23.712,18.222 19.608,15.882 15.082,15.882 L15.082,15.882 Z M32.088,43.66 L15.082,43.66 C6.912,43.66 0.266,36.982 0.266,28.78 C0.266,20.562 6.912,13.882 15.082,13.882 C20.004,13.882 24.492,16.26 27.266,20.302 C28.814,19.562 30.432,19.2 32.088,19.2 C38.5,19.2 43.72,24.44 43.72,30.9 C43.72,37.7 38.28,43.66 32.088,43.66 L32.088,43.66 Z"></path>
            <path d="M3,52.66 C2.448,52.66 2,52.222 2,51.66 L2,47.662 C2,47.102 2.448,46.66 3,46.66 C3.552,46.66 4,47.102 4,47.662 L4,51.66 C4,52.222 3.552,52.66 3,52.66" transform="translate(3.000000, 49.660000) rotate(40.000000) translate(-3.000000, -49.660000) "></path>
            <path d="M11,58.66 C10.448,58.66 10,58.222 10,57.66 L10,51.66 C10,51.1 10.448,50.662 11,50.662 C11.552,50.662 12,51.1 12,51.66 L12,57.66 C12,58.222 11.552,58.66 11,58.66" transform="translate(11.000000, 54.661000) rotate(40.000000) translate(-11.000000, -54.661000) "></path>
            <path d="M25,58.66 C24.448,58.66 24,58.222 24,57.66 L24,51.66 C24,51.1 24.448,50.662 25,50.662 C25.552,50.662 26,51.1 26,51.66 L26,57.66 C26,58.222 25.552,58.66 25,58.66" transform="translate(25.000000, 54.661000) rotate(40.000000) translate(-25.000000, -54.661000) "></path>
            <path d="M19,52.66 C18.448,52.66 18,52.222 18,51.66 L18,47.662 C18,47.102 18.448,46.66 19,46.66 C19.552,46.66 20,47.102 20,47.662 L20,51.66 C20,52.222 19.552,52.66 19,52.66" transform="translate(19.000000, 49.660000) rotate(40.000000) translate(-19.000000, -49.660000) "></path>
            <path d="M33,52.66 C32.448,52.66 32,52.222 32,51.66 L32,47.662 C32,47.102 32.448,46.66 33,46.66 C33.552,46.66 34,47.102 34,47.662 L34,51.66 C34,52.222 33.552,52.66 33,52.66" transform="translate(33.000000, 49.660000) rotate(40.000000) translate(-33.000000, -49.660000) "></path>
            <path d="M39,58.66 C38.44,58.66 38,58.222 38,57.66 L38,51.66 C38,51.1 38.44,50.662 39,50.662 C39.56,50.662 40,51.1 40,51.66 L40,57.66 C40,58.222 39.56,58.66 39,58.66" transform="translate(39.000000, 54.661000) rotate(40.000000) translate(-39.000000, -54.661000) "></path>
        </g>
    </g>
</svg>