<?xml version="1.0" encoding="UTF-8" standalone="no"?>
<svg width="81px" height="45px" viewBox="0 0 81 45" version="1.1" xmlns="http://www.w3.org/2000/svg" xmlns:xlink="http://www.w3.org/1999/xlink" xmlns:sketch="http://www.bohemiancoding.com/sketch/ns">
    <!-- Generator: Sketch 3.3.3 (12072) - http://www.bohemiancoding.com/sketch -->
    <title>Group Copy 2</title>
    <desc>Created with Sketch.</desc>
    <defs></defs>
    <g id="Page-1" stroke="none" stroke-width="1" fill="none" fill-rule="evenodd" sketch:type="MSPage">
        <g id="Group-Copy-2-+-Rectangle-3" sketch:type="MSLayerGroup" fill="#F8E81C">
            <g id="Group-Copy-2" sketch:type="MSShapeGroup">
                <path d="M40.5,15 C39.672,15 39,14.343 39,13.5 L39,1.5 C39,0.66 39.672,0 40.5,0 C41.328,0 42,0.66 42,1.5 L42,13.5 C42,14.343 41.328,15 40.5,15" id="Fill-8873"></path>
                <path d="M72.0001055,37.5 C71.3281244,37.5 70.7191415,37.0588781 70.5451464,36.4550926 C70.344152,35.7106994 70.8331383,34.9663063 71.6371157,34.7705585 L79.1369047,33.0336411 C79.9408821,32.8709774 80.7538593,33.3120993 80.9548536,34.0564924 C81.155848,34.8008856 80.6668617,35.5452787 79.8628843,35.7382695 L72.3630953,37.4476168 C72.2400987,37.4724299 72.1171022,37.5 72.0001055,37.5" id="Fill-8874"></path>
                <path d="M61.4998929,22.5 C61.1159203,22.5 60.7319477,22.3471528 60.4409685,22.0504496 C59.8530105,21.451049 59.8530105,20.518981 60.4409685,19.9195804 L67.9404328,12.4270729 C68.525391,11.8576424 69.4733233,11.8576424 70.0612813,12.4270729 C70.6462396,13.0294705 70.6462396,13.9585415 70.0612813,14.5579421 L62.561817,22.0504496 C62.267838,22.3471528 61.8838654,22.5 61.4998929,22.5" id="Fill-8875"></path>
                <path d="M18,42 L64.5,42 C63.6378131,31.7934279 53.9764284,21 41.2484713,21 C28.5205142,21 18.8621869,31.7934279 18,42 L18,42 Z M65.9782609,45 L16.5217391,45 C15.6817391,45 15,44.3516447 15,43.5197368 C15,31.4703947 26.2273913,18 41.25,18 C56.2756522,18 67.5,31.4703947 67.5,43.5197368 C67.5,44.3516447 66.8213043,45 65.9782609,45 L65.9782609,45 Z" id="Fill-8876"></path>
                <path d="M40.5,15 C39.672,15 39,14.343 39,13.5 L39,1.5 C39,0.66 39.672,0 40.5,0 C41.328,0 42,0.66 42,1.5 L42,13.5 C42,14.343 41.328,15 40.5,15" id="Fill-8877"></path>
                <path d="M9.00289445,37.5 C8.87989791,37.5 8.75690137,37.4724299 8.63690474,37.4476168 L1.13711568,35.7382695 C0.333138289,35.5452787 -0.155847958,34.8008856 0.0451463892,34.0564924 C0.24314082,33.3120993 1.05611796,32.8709774 1.86309526,33.0336411 L9.36288432,34.7705585 C10.1668617,34.9663063 10.655848,35.7106994 10.4548536,36.4550926 C10.2838584,37.0588781 9.67487555,37.5 9.00289445,37.5" id="Fill-8878"></path>
                <path d="M19.4993572,22.5 C19.1153846,22.5 18.731412,22.3471528 18.4404328,22.0504496 L10.9409685,14.5579421 C10.3530105,13.9585415 10.3530105,13.0294705 10.9409685,12.4270729 C11.5259267,11.8576424 12.473859,11.8576424 13.061817,12.4270729 L20.5612813,19.9195804 C21.1462396,20.518981 21.1462396,21.451049 20.5612813,22.0504496 C20.2673023,22.3471528 19.8833298,22.5 19.4993572,22.5" id="Fill-8879"></path>
                <path d="M75,44.997 L6,44.997 C5.172,44.997 4.5,44.34 4.5,43.497 C4.5,42.657 5.172,42 6,42 L75,42 C75.828,42 76.5,42.657 76.5,43.497 C76.5,44.34 75.828,44.997 75,44.997" id="Fill-8880"></path>
            </g>
        </g>
    </g>
</svg>