<?xml version="1.0" encoding="UTF-8" standalone="no"?>
<svg width="60px" height="59px" viewBox="0 0 60 59" version="1.1" xmlns="http://www.w3.org/2000/svg" xmlns:xlink="http://www.w3.org/1999/xlink">
    <title>Group Copy 14</title>
    <desc>Created with Sketch.</desc>
    <defs></defs>
    <g stroke="none" stroke-width="1" fill="none" fill-rule="evenodd">
        <g fill="#5d5d5d">
            <path d="M19.7,2.26 C10.3,2.26 2.36,10.6 2.36,20.462 C2.36,30.32 10.3,38.66 19.7,38.66 L42.24,38.66 C49.62,38.66 55.34,30.402 55.34,23.28 C55.34,15.84 49.22,9.302 42.24,9.302 C40.06,9.302 37.9,9.882 35.88,11.02 L35.04,11.502 L34.52,10.68 C31.36,5.4 25.8,2.26 19.7,2.26 L19.7,2.26 Z M42.24,40.662 L19.7,40.662 C9.22,40.662 0.36,31.4 0.36,20.462 C0.36,9.5 9.22,0.26 19.7,0.26 C26.2,0.26 32.14,3.44 35.74,8.84 C37.82,7.82 40,7.302 42.24,7.302 C50.28,7.302 57.34,14.76 57.34,23.28 C57.34,31.32 50.74,40.662 42.24,40.662 L42.24,40.662 Z"></path>
            <path d="M8.38,53.322 C8.12,53.322 7.86,53.222 7.68,53.02 L2.36,47.72 C1.98,47.322 1.98,46.698 2.36,46.302 C2.76,45.92 3.4,45.92 3.78,46.302 L9.08,51.6 C9.48,52.002 9.48,52.622 9.08,53.02 C8.9,53.222 8.64,53.322 8.38,53.322"></path>
            <path d="M3.08,53.322 C2.82,53.322 2.56,53.222 2.36,53.02 C1.98,52.622 1.98,52.002 2.36,51.6 L7.68,46.302 C8.06,45.92 8.7,45.92 9.08,46.302 C9.48,46.698 9.48,47.322 9.08,47.72 L3.78,53.02 C3.58,53.222 3.34,53.322 3.08,53.322"></path>
            <path d="M18.38,58.32 C18.12,58.32 17.86,58.22 17.68,58.02 L12.36,52.722 C11.98,52.32 11.98,51.7 12.36,51.302 C12.76,50.922 13.4,50.922 13.78,51.302 L19.08,56.602 C19.48,57 19.48,57.622 19.08,58.02 C18.9,58.22 18.64,58.32 18.38,58.32"></path>
            <path d="M13.08,58.32 C12.82,58.32 12.56,58.22 12.36,58.02 C11.98,57.622 11.98,57 12.36,56.602 L17.68,51.302 C18.06,50.922 18.7,50.922 19.08,51.302 C19.48,51.7 19.48,52.32 19.08,52.722 L13.78,58.02 C13.58,58.22 13.34,58.32 13.08,58.32"></path>
            <path d="M28.38,53.322 C28.12,53.322 27.86,53.222 27.68,53.02 L22.36,47.72 C21.98,47.322 21.98,46.698 22.36,46.302 C22.76,45.92 23.4,45.92 23.78,46.302 L29.08,51.6 C29.48,52.002 29.48,52.622 29.08,53.02 C28.9,53.222 28.64,53.322 28.38,53.322"></path>
            <path d="M23.08,53.322 C22.82,53.322 22.56,53.222 22.36,53.02 C21.98,52.622 21.98,52.002 22.36,51.6 L27.68,46.302 C28.06,45.92 28.7,45.92 29.08,46.302 C29.48,46.698 29.48,47.322 29.08,47.72 L23.78,53.02 C23.58,53.222 23.34,53.322 23.08,53.322"></path>
            <path d="M38.38,58.32 C38.12,58.32 37.86,58.22 37.68,58.02 L32.36,52.722 C31.98,52.32 31.98,51.7 32.36,51.302 C32.76,50.922 33.4,50.922 33.78,51.302 L39.08,56.602 C39.48,57 39.48,57.622 39.08,58.02 C38.9,58.22 38.64,58.32 38.38,58.32"></path>
            <path d="M33.08,58.32 C32.82,58.32 32.56,58.22 32.36,58.02 C31.98,57.622 31.98,57 32.36,56.602 L37.68,51.302 C38.06,50.922 38.7,50.922 39.08,51.302 C39.48,51.7 39.48,52.32 39.08,52.722 L33.78,58.02 C33.58,58.22 33.34,58.32 33.08,58.32"></path>
            <path d="M48.38,53.322 C48.12,53.322 47.86,53.222 47.68,53.02 L42.36,47.72 C41.98,47.322 41.98,46.698 42.36,46.302 C42.76,45.92 43.4,45.92 43.78,46.302 L49.08,51.6 C49.48,52.002 49.48,52.622 49.08,53.02 C48.9,53.222 48.64,53.322 48.38,53.322"></path>
            <path d="M43.08,53.322 C42.82,53.322 42.56,53.222 42.36,53.02 C41.98,52.622 41.98,52.002 42.36,51.6 L47.68,46.302 C48.06,45.92 48.7,45.92 49.08,46.302 C49.48,46.698 49.48,47.322 49.08,47.72 L43.78,53.02 C43.58,53.222 43.34,53.322 43.08,53.322"></path>
            <path d="M58.38,58.32 C58.12,58.32 57.86,58.22 57.68,58.02 L52.36,52.722 C51.98,52.32 51.98,51.7 52.36,51.302 C52.76,50.922 53.4,50.922 53.78,51.302 L59.08,56.602 C59.48,57 59.48,57.622 59.08,58.02 C58.9,58.22 58.64,58.32 58.38,58.32"></path>
            <path d="M53.08,58.32 C52.82,58.32 52.56,58.22 52.36,58.02 C51.98,57.622 51.98,57 52.36,56.602 L57.68,51.302 C58.06,50.922 58.7,50.922 59.08,51.302 C59.48,51.7 59.48,52.32 59.08,52.722 L53.78,58.02 C53.58,58.22 53.34,58.32 53.08,58.32"></path>
        </g>
    </g>
</svg>