<?xml version="1.0" encoding="UTF-8" standalone="no"?>
<svg width="35px" height="41px" viewBox="0 0 35 41" version="1.1" xmlns="http://www.w3.org/2000/svg" xmlns:xlink="http://www.w3.org/1999/xlink" xmlns:sketch="http://www.bohemiancoding.com/sketch/ns">
    <!-- Generator: Sketch 3.3.3 (12072) - http://www.bohemiancoding.com/sketch -->
    <title>Fill 148 Copy</title>
    <desc>Created with Sketch.</desc>
    <defs></defs>
    <g id="Page-1" stroke="none" stroke-width="1" fill="none" fill-rule="evenodd" sketch:type="MSPage">
        <path d="M21.7143014,20.583599 C21.5051765,20.3308803 21.2594306,20.1079498 20.9857371,19.918651 C21.1640233,19.7783585 21.327854,19.6217306 21.4772289,19.4487672 C21.7538135,19.1259023 21.9696845,18.7501875 22.1190594,18.3312318 C22.2626521,17.9228462 22.3349303,17.4827505 22.3349303,17.020554 C22.3349303,16.3306225 22.183628,15.7185244 21.8858417,15.1996344 C21.5967289,14.6990016 21.2151,14.2838896 20.750592,13.9667901 C20.3034308,13.6592997 19.78881,13.4315646 19.2202214,13.2893503 C17.9818547,12.9780163 16.6104962,13.012609 15.5494521,13.4517437 C14.9529159,13.6986969 14.4334765,14.0465454 14.0104081,14.4847192 C13.5815574,14.9248148 13.251005,15.4610012 13.0235696,16.0817474 C12.8048075,16.6842364 12.6939809,17.3482235 12.6939809,18.0564123 C12.6939809,18.454228 13.0177873,18.7770929 13.416763,18.7770929 L14.1202709,18.7770929 C14.5067184,18.7770929 14.8247426,18.4734461 14.843053,18.0890832 C14.8642546,17.6326521 14.9384603,17.2060092 15.0656699,16.8226071 C15.1861336,16.4641886 15.3499642,16.1682291 15.5648714,15.920315 C15.7720689,15.6829708 16.0390165,15.4907894 16.358968,15.349536 C16.9188832,15.1054655 17.6898508,15.0516546 18.528278,15.2668979 C18.8549755,15.3524187 19.1537254,15.4811803 19.4119996,15.6474173 C19.6509995,15.8002016 19.8379591,15.9914221 19.9863704,16.2326099 C20.1193623,16.4507359 20.1858583,16.7082591 20.1858583,17.020554 C20.1858583,17.4270179 20.1049067,17.7518046 19.9458946,17.9891488 C19.7733906,18.246672 19.5527011,18.443658 19.2722617,18.5925987 C18.9619472,18.7569138 18.6082659,18.8674182 18.219891,18.9231508 C17.7939314,18.9846489 17.3602621,19.004828 16.9371937,18.9827271 C16.7454155,18.9769617 16.5468913,19.0432643 16.4023349,19.1797131 C16.2587422,19.3152011 16.1777906,19.5044999 16.1777906,19.7024468 L16.1777906,20.312623 C16.1777906,20.5124918 16.2606696,20.7037124 16.4081172,20.8392003 C16.554601,20.9766101 16.750234,21.0525218 16.9506856,21.0313818 C17.4306129,20.998711 17.9018668,21.0150464 18.3654111,21.0823099 C18.7932981,21.143808 19.1758907,21.2658433 19.5045157,21.445533 C19.8032656,21.6079263 20.0345559,21.8298959 20.2176607,22.1248945 C20.3930558,22.4083622 20.4826808,22.7879207 20.4826808,23.2539608 C20.4826808,23.6440892 20.4075114,23.9775241 20.2552453,24.2734836 C20.1010518,24.5732868 19.8938543,24.8260054 19.6336527,25.0268351 C19.3705601,25.2343911 19.0544634,25.3948627 18.6930723,25.5044061 C17.8478991,25.7619293 16.8918993,25.7196494 16.19321,25.4544389 C15.8202544,25.3131855 15.5176497,25.121004 15.2670852,24.8654026 C15.0194119,24.6146058 14.8343796,24.3090372 14.700424,23.927557 C14.5655047,23.5470376 14.5067184,23.1002156 14.52792,22.5986219 C14.5365934,22.4025968 14.4643152,22.2123371 14.3284322,22.0701228 C14.1906217,21.9288694 14.0026984,21.8491141 13.8070654,21.8491141 L13.0997026,21.8491141 C12.7151826,21.8491141 12.3981221,22.1489172 12.3778842,22.5313584 C12.3364447,23.3365989 12.4279971,24.0668885 12.6496503,24.7030093 C12.8790132,25.3554655 13.2326945,25.9156745 13.7010573,26.3653792 C14.1607467,26.814123 14.7312627,27.1590888 15.3923674,27.3916284 C16.0293794,27.6145589 16.750234,27.727946 17.5327661,27.727946 C18.190016,27.727946 18.8260642,27.6395425 19.4206729,27.4675401 C20.0403381,27.2888113 20.5935074,27.0091872 21.0609064,26.637316 C21.5389063,26.2577576 21.921499,25.7811475 22.200011,25.2238211 C22.4871964,24.6588075 22.6327166,23.9957814 22.6327166,23.2539608 C22.6327166,22.7398753 22.5527287,22.2517343 22.3975715,21.8077951 C22.2414505,21.3552076 22.011124,20.9449002 21.7143014,20.583599 L21.7143014,20.583599 Z M33.1448593,2.66363551 L28.5229088,2.66363551 L28.5229088,0.720680604 C28.5229088,0.32286491 28.2000661,0 27.8001267,0 C27.4021147,0 27.0783083,0.32286491 27.0783083,0.720680604 L27.0783083,2.66363551 L18.1717055,2.66363551 L18.1717055,0.720680604 C18.1717055,0.32286491 17.8478991,0 17.4489234,0 C17.0499477,0 16.7261413,0.32286491 16.7261413,0.720680604 L16.7261413,2.66363551 L7.81664739,2.66363551 L7.81664739,0.720680604 C7.81664739,0.32286491 7.49380472,0 7.09482901,0 C6.6958533,0 6.37204692,0.32286491 6.37204692,0.720680604 L6.37204692,2.66363551 L1.85803183,2.66363551 C0.834572388,2.66363551 0,3.49385957 0,4.51530421 L0.000963709455,39.203103 C0.0337298309,40.2101341 0.847100611,41 1.85803183,41 L33.1448593,41 C34.1538631,41 34.9691613,40.2101341 35,39.1800412 L35,4.51530421 C35,3.49385957 34.167355,2.66363551 33.1448593,2.66363551 L33.1448593,2.66363551 Z M27.8001267,7.71128246 C27.9533565,7.71128246 28.0892395,7.65362801 28.2058483,7.57195088 C28.1027314,7.67476798 27.9610661,7.73914878 27.8049452,7.73914878 C27.7008646,7.73914878 27.6093122,7.7035952 27.5245058,7.65554983 C27.6112396,7.6911034 27.702792,7.71128246 27.8001267,7.71128246 L27.8001267,7.71128246 Z M17.4489234,7.71128246 C17.5481855,7.71128246 17.642629,7.69206431 17.7303266,7.65554983 C17.6455201,7.7035952 17.5539677,7.73914878 17.4508508,7.73914878 C17.3448428,7.73914878 17.2532904,7.7035952 17.1684839,7.65554983 C17.2561815,7.69206431 17.3486976,7.71128246 17.4489234,7.71128246 L17.4489234,7.71128246 Z M7.09482901,7.71128246 C7.19409108,7.71128246 7.28949832,7.69206431 7.37526846,7.65554983 C7.29238945,7.7035952 7.19987334,7.73914878 7.09675643,7.73914878 C6.99267581,7.73914878 6.90112341,7.7035952 6.81631698,7.65554983 C6.90208712,7.69206431 6.99460323,7.71128246 7.09482901,7.71128246 L7.09482901,7.71128246 Z M1.85803183,39.5586388 C1.63445124,39.5586388 1.45423757,39.3827927 1.4474916,39.1800412 L1.4474916,33.0090935 L22.5026158,33.0090935 C22.0188336,35.0471782 21.0406685,37.6723774 19.0872295,39.5586388 L1.85803183,39.5586388 L1.85803183,39.5586388 Z M33.5544358,39.1589013 C33.5476899,39.3789491 33.3636213,39.5586388 33.1448593,39.5586388 L21.4560273,39.5586388 C22.6924665,38.4776179 23.9568534,37.1602137 25.2742442,35.7822724 L25.9758247,35.0491 C28.0458726,32.8918628 31.4034363,29.2298444 33.5544358,26.0617324 L33.5544358,39.1589013 L33.5544358,39.1589013 Z M23.0981882,35.9638839 C24.0069662,33.6855723 24.2951154,31.5273741 24.3847403,30.5366785 C25.1990748,30.3320052 26.8653285,29.8400206 29.1772675,28.7839833 C29.4711989,28.6494563 29.7564569,28.5005156 30.0359326,28.3400441 C28.2694532,30.5040077 26.3083044,32.6170432 24.9311636,34.052639 L24.226692,34.7877332 C23.8469905,35.1865098 23.4701801,35.5804819 23.0981882,35.9638839 L23.0981882,35.9638839 Z M33.5544358,23.2289772 C33.0070488,23.9496578 31.0738477,26.3307865 28.5749491,27.4742664 C25.4795143,28.8877613 23.5925712,29.2384925 23.5723333,29.2423362 C23.2388898,29.3028733 22.9902528,29.587302 22.9777245,29.9255414 C22.9777245,29.9457204 22.949777,30.5904894 22.7926923,31.5677323 L1.4474916,31.5677323 L1.44556418,4.51530421 C1.44556418,4.28949095 1.6305964,4.10499672 1.85803183,4.10499672 L6.37204692,4.10499672 L6.37204692,5.30324834 C5.61746242,5.5944033 5.08067625,6.31988844 5.08067625,7.17221337 C5.08067625,8.28013968 5.98463572,9.18050998 7.09675643,9.18050998 C8.2050223,9.18050998 9.10898177,8.28013968 9.10898177,7.17221337 C9.10898177,6.31892753 8.57026819,5.59248148 7.81664739,5.30228743 L7.81664739,4.10499672 L16.7261413,4.10499672 L16.7261413,5.30228743 C15.9715568,5.59344239 15.4328432,6.31892753 15.4328432,7.17221337 C15.4328432,8.28013968 16.3387301,9.18050998 17.4508508,9.18050998 C18.5600804,9.18050998 19.4630762,8.28013968 19.4630762,7.17221337 C19.4630762,6.31892753 18.9243626,5.59248148 18.1717055,5.30228743 L18.1717055,4.10499672 L27.0783083,4.10499672 L27.0783083,5.30324834 C26.3256512,5.59536421 25.788865,6.31988844 25.788865,7.17221337 C25.788865,8.28013968 26.6928245,9.18050998 27.8049452,9.18050998 C28.9132111,9.18050998 29.8171705,8.28013968 29.8171705,7.17221337 C29.8171705,6.31796663 29.2765295,5.59152058 28.5229088,5.30132652 L28.5229088,4.10499672 L33.1448593,4.10499672 C33.3703673,4.10499672 33.5544358,4.28949095 33.5544358,4.51530421 L33.5544358,23.2289772 L33.5544358,23.2289772 Z" id="Fill-148-Copy" fill="#FFFFFF" sketch:type="MSShapeGroup"></path>
    </g>
</svg>