<?xml version="1.0" encoding="UTF-8" standalone="no"?>
<svg width="60px" height="60px" viewBox="0 0 60 60" version="1.1" xmlns="http://www.w3.org/2000/svg" xmlns:xlink="http://www.w3.org/1999/xlink" xmlns:sketch="http://www.bohemiancoding.com/sketch/ns">
    <!-- Generator: Sketch 3.3.3 (12072) - http://www.bohemiancoding.com/sketch -->
    <title>Fill 2609 Copy 2</title>
    <desc>Created with Sketch.</desc>
    <defs></defs>
    <g id="Page-1" stroke="none" stroke-width="1" fill="none" fill-rule="evenodd" sketch:type="MSPage">
        <path d="M37.323593,58.002 L53.323593,58.002 L53.323593,27 C53.323593,26.44 53.771593,26 54.323593,26 L56.009593,26 L47.631593,17.98 C47.435593,17.78 47.323593,17.52 47.323593,17.26 L47.323593,2 L39.323593,2 L39.323593,8.6 C39.323593,9 39.101593,9.34 38.751593,9.522 C38.401593,9.68 37.987593,9.622 37.689593,9.382 L29.687593,2.82 L3.62759298,26 L6.32359298,26 C6.87559298,26 7.32359298,26.44 7.32359298,27 L7.32359298,58.002 L23.323593,58.002 L23.323593,41 C23.323593,40.44 23.771593,40.002 24.323593,40.002 L36.323593,40.002 C36.875593,40.002 37.323593,40.44 37.323593,41 L37.323593,58.002 L37.323593,58.002 Z M54.323593,60 L36.323593,60 C35.771593,60 35.323593,59.56 35.323593,59 L35.323593,42 L25.323593,42 L25.323593,59 C25.323593,59.56 24.875593,60 24.323593,60 L6.32359298,60 C5.77159298,60 5.32359298,59.56 5.32359298,59 L5.32359298,28.002 L0.999592983,28.002 C0.583592983,28.002 0.211592983,27.74 0.0655929832,27.36 C-0.0824070168,26.962 0.0255929832,26.52 0.333592983,26.26 L28.995593,0.76 C29.365593,0.42 29.913593,0.42 30.295593,0.72 L37.323593,6.5 L37.323593,1.002 C37.323593,0.44 37.771593,0 38.323593,0 L48.323593,0 C48.875593,0 49.323593,0.44 49.323593,1.002 L49.323593,16.82 L59.191593,26.28 C59.485593,26.56 59.579593,27 59.427593,27.382 C59.275593,27.76 58.907593,28.002 58.499593,28.002 L55.323593,28.002 L55.323593,59 C55.323593,59.56 54.875593,60 54.323593,60 L54.323593,60 Z" id="Fill-2609-Copy-2" fill="#FFFFFF" sketch:type="MSShapeGroup"></path>
    </g>
</svg>