<?xml version="1.0" encoding="UTF-8" standalone="no"?>
<svg width="150px" height="150px" viewBox="0 0 150 150" version="1.1" xmlns="http://www.w3.org/2000/svg" xmlns:xlink="http://www.w3.org/1999/xlink" xmlns:sketch="http://www.bohemiancoding.com/sketch/ns">
    <!-- Generator: Sketch 3.3.3 (12081) - http://www.bohemiancoding.com/sketch -->
    <title>Group</title>
    <desc>Created with Sketch.</desc>
    <defs></defs>
    <g id="UI" stroke="none" stroke-width="1" fill="none" fill-rule="evenodd" sketch:type="MSPage">
        <g id="Featured-Tapped-Copy" sketch:type="MSArtboardGroup" transform="translate(-74.000000, -498.000000)">
            <g id="Group" sketch:type="MSLayerGroup" transform="translate(74.000000, 498.000000)">
                <rect id="Rectangle-81-Copy-3" stroke="#A1A1A1" sketch:type="MSShapeGroup" x="-7.71465032e-14" y="-9.19546494e-14" width="150" height="150" rx="10"></rect>
                <rect id="Rectangle-81-Copy-5" stroke="#D8D8D8" sketch:type="MSShapeGroup" x="7" y="7" width="42" height="42" rx="7"></rect>
                <rect id="Rectangle-81-Copy-6" stroke="#D8D8D8" sketch:type="MSShapeGroup" x="7" y="54.5263158" width="42" height="42" rx="7"></rect>
                <rect id="Rectangle-81-Copy-7" stroke="#D8D8D8" sketch:type="MSShapeGroup" x="7" y="102.052632" width="42" height="42" rx="7"></rect>
                <rect id="Rectangle-81-Copy-5" stroke="#D8D8D8" sketch:type="MSShapeGroup" x="55" y="7" width="42" height="42" rx="7"></rect>
                <rect id="Rectangle-81-Copy-7" stroke="#D8D8D8" sketch:type="MSShapeGroup" x="55" y="102.052632" width="42" height="42" rx="7"></rect>
                <rect id="Rectangle-81-Copy-5" stroke="#D8D8D8" sketch:type="MSShapeGroup" x="102" y="7" width="42" height="42" rx="7"></rect>
                <rect id="Rectangle-81-Copy-6" stroke="#D8D8D8" sketch:type="MSShapeGroup" x="102" y="54.5263158" width="42" height="42" rx="7"></rect>
                <rect id="Rectangle-81-Copy-7" stroke="#D8D8D8" sketch:type="MSShapeGroup" x="102" y="102.052632" width="42" height="42" rx="7"></rect>
                <path d="M85.2144677,77.0462473 L77.0446229,77.0462473 L77.0446229,85.2160921 C77.0446229,85.7818539 76.589154,86.2373228 76.0233923,86.2373228 C75.459673,86.2373228 75.0021617,85.7818539 75.0021617,85.2160921 L75.0021617,77.0462473 L66.8323168,77.0462473 C66.2685975,77.0462473 65.8110862,76.5907785 65.8110862,76.0250167 C65.8110862,75.4633399 66.2685975,75.0037861 66.8323168,75.0037861 L75.0021617,75.0037861 L75.0021617,66.8339413 C75.0021617,66.2722645 75.459673,65.8127107 76.0233923,65.8127107 C76.589154,65.8127107 77.0446229,66.2722645 77.0446229,66.8339413 L77.0446229,75.0037861 L85.2144677,75.0037861 C85.7802294,75.0037861 86.2356983,75.4633399 86.2356983,76.0250167 C86.2356983,76.5907785 85.7802294,77.0462473 85.2144677,77.0462473 L85.2144677,77.0462473 Z M76.0233923,52.5367129 C63.0721458,52.5367129 52.5350884,63.0737702 52.5350884,76.0250167 C52.5350884,88.9783057 63.0721458,99.5133206 76.0233923,99.5133206 C88.9766812,99.5133206 99.5116961,88.9783057 99.5116961,76.0250167 C99.5116961,63.0737702 88.9766812,52.5367129 76.0233923,52.5367129 L76.0233923,52.5367129 Z" id="Fill-5848-Copy-2" fill="#D8D8D8" sketch:type="MSShapeGroup"></path>
            </g>
        </g>
    </g>
</svg>