<?xml version="1.0" encoding="UTF-8" standalone="no"?>
<svg width="150px" height="151px" viewBox="0 0 150 151" version="1.1" xmlns="http://www.w3.org/2000/svg" xmlns:xlink="http://www.w3.org/1999/xlink" xmlns:sketch="http://www.bohemiancoding.com/sketch/ns">
    <!-- Generator: Sketch 3.3.3 (12081) - http://www.bohemiancoding.com/sketch -->
    <title>Group Copy 2 + Fill 5848 Copy</title>
    <desc>Created with Sketch.</desc>
    <defs></defs>
    <g id="UI" stroke="none" stroke-width="1" fill="none" fill-rule="evenodd" sketch:type="MSPage">
        <g id="Featured-Tapped" sketch:type="MSArtboardGroup" transform="translate(-604.000000, -460.000000)">
            <g id="Group-Copy-2-+-Fill-5848-Copy" sketch:type="MSLayerGroup" transform="translate(604.000000, 460.025017)">
                <g id="Group-Copy-2" sketch:type="MSShapeGroup">
                    <g id="Group-7" stroke="#A1A1A1">
                        <rect id="Rectangle-81" x="-7.71465032e-14" y="-9.19546494e-14" width="150" height="150" rx="10"></rect>
                    </g>
                    <rect id="Rectangle-378-Copy-14" opacity="0.199999988" fill="#6A6A6A" x="13.2133711" y="21.608102" width="55.9032293" height="5.1209065"></rect>
                    <rect id="Rectangle-378-Copy-12" opacity="0.199999988" fill="#6A6A6A" x="13" y="13.5" width="71.692691" height="7.04124644"></rect>
                    <rect id="Rectangle-381-Copy-8" opacity="0.199999988" fill="#6A6A6A" x="13" y="134" width="19" height="3"></rect>
                    <rect id="Rectangle-381-Copy-9" opacity="0.199999988" fill="#6A6A6A" x="103" y="134" width="32" height="3"></rect>
                    <circle id="Oval-80-Copy-3" stroke="#979797" cx="134" cy="16" r="6"></circle>
                </g>
                <path d="M86.7625227,83.3293645 L76.3277401,83.3293645 L76.3277401,93.7641472 C76.3277401,94.4867559 75.746001,95.068495 75.0233923,95.068495 C74.3033923,95.068495 73.7190444,94.4867559 73.7190444,93.7641472 L73.7190444,83.3293645 L63.2842618,83.3293645 C62.5642618,83.3293645 61.979914,82.7476254 61.979914,82.0250167 C61.979914,81.3076254 62.5642618,80.7206689 63.2842618,80.7206689 L73.7190444,80.7206689 L73.7190444,70.2858863 C73.7190444,69.568495 74.3033923,68.9815385 75.0233923,68.9815385 C75.746001,68.9815385 76.3277401,69.568495 76.3277401,70.2858863 L76.3277401,80.7206689 L86.7625227,80.7206689 C87.4851314,80.7206689 88.0668705,81.3076254 88.0668705,82.0250167 C88.0668705,82.7476254 87.4851314,83.3293645 86.7625227,83.3293645 L86.7625227,83.3293645 Z M75.0233923,52.0250167 C58.4816531,52.0250167 45.0233923,65.4832776 45.0233923,82.0250167 C45.0233923,98.5693645 58.4816531,112.025017 75.0233923,112.025017 C91.5677401,112.025017 105.023392,98.5693645 105.023392,82.0250167 C105.023392,65.4832776 91.5677401,52.0250167 75.0233923,52.0250167 L75.0233923,52.0250167 Z" id="Fill-5848-Copy" fill="#E2E2E2" sketch:type="MSShapeGroup"></path>
            </g>
        </g>
    </g>
</svg>