<?xml version="1.0" encoding="UTF-8" standalone="no"?>
<svg width="150px" height="150px" viewBox="0 0 150 150" version="1.1" xmlns="http://www.w3.org/2000/svg" xmlns:xlink="http://www.w3.org/1999/xlink" xmlns:sketch="http://www.bohemiancoding.com/sketch/ns">
    <!-- Generator: Sketch 3.4.3 (16044) - http://www.bohemiancoding.com/sketch -->
    <title>Story-YW-icon-hover</title>
    <desc>Created with Sketch.</desc>
    <defs></defs>
    <g id="Yorkshire-water" stroke="none" stroke-width="1" fill="none" fill-rule="evenodd" sketch:type="MSPage">
        <g id="Yorkshire-Water-Copy" sketch:type="MSArtboardGroup" transform="translate(-985.000000, -3171.000000)">
            <g id="Story-YW-icon-hover" sketch:type="MSLayerGroup" transform="translate(985.000000, 3171.000000)">
                <rect id="Rectangle-81" fill="#1BA9E1" sketch:type="MSShapeGroup" x="-7.71465032e-14" y="-9.19546494e-14" width="150" height="150" rx="10"></rect>
                <rect id="Rectangle-378-Copy-14" opacity="0.520720604" fill="#B5DDF0" sketch:type="MSShapeGroup" x="13" y="22" width="55.9032293" height="5.1209065"></rect>
                <rect id="Rectangle-378-Copy-12" opacity="0.520720604" fill="#B5DDF0" sketch:type="MSShapeGroup" x="13" y="13" width="71.692691" height="7.04124644"></rect>
                <rect id="Rectangle-381-Copy-8" opacity="0.520720604" fill="#B5DDF0" sketch:type="MSShapeGroup" x="13" y="134" width="19" height="3"></rect>
                <rect id="Rectangle-381-Copy-9" opacity="0.520720604" fill="#B5DDF0" sketch:type="MSShapeGroup" x="103" y="134" width="32" height="3"></rect>
                <circle id="Oval-80-Copy-3" fill="#FFFFFF" sketch:type="MSShapeGroup" cx="134" cy="16" r="6"></circle>
                <path d="M85.7391304,83.3043478 L75.3043478,83.3043478 L75.3043478,93.7391304 C75.3043478,94.4617391 74.7226087,95.0434783 74,95.0434783 C73.28,95.0434783 72.6956522,94.4617391 72.6956522,93.7391304 L72.6956522,83.3043478 L62.2608696,83.3043478 C61.5408696,83.3043478 60.9565217,82.7226087 60.9565217,82 C60.9565217,81.2826087 61.5408696,80.6956522 62.2608696,80.6956522 L72.6956522,80.6956522 L72.6956522,70.2608696 C72.6956522,69.5434783 73.28,68.9565217 74,68.9565217 C74.7226087,68.9565217 75.3043478,69.5434783 75.3043478,70.2608696 L75.3043478,80.6956522 L85.7391304,80.6956522 C86.4617391,80.6956522 87.0434783,81.2826087 87.0434783,82 C87.0434783,82.7226087 86.4617391,83.3043478 85.7391304,83.3043478 L85.7391304,83.3043478 Z M74,52 C57.4582609,52 44,65.4582609 44,82 C44,98.5443478 57.4582609,112 74,112 C90.5443478,112 104,98.5443478 104,82 C104,65.4582609 90.5443478,52 74,52 L74,52 Z" id="Fill-5848" fill="#FFFFFF" sketch:type="MSShapeGroup"></path>
            </g>
        </g>
    </g>
</svg>