<?xml version="1.0" encoding="utf-8"?>
<!-- Generator: Adobe Illustrator 17.0.0, SVG Export Plug-In . SVG Version: 6.00 Build 0)  -->
<!DOCTYPE svg PUBLIC "-//W3C//DTD SVG 1.1//EN" "http://www.w3.org/Graphics/SVG/1.1/DTD/svg11.dtd">
<svg version="1.1" id="Layer_1" xmlns="http://www.w3.org/2000/svg" xmlns:xlink="http://www.w3.org/1999/xlink" x="0px" y="0px"
	 width="66.46px" height="69.987px" viewBox="38 277 66.46 69.987" enable-background="new 38 277 66.46 69.987"
	 xml:space="preserve">
<title>Caller Icon</title>
<path d="M59.673,316.938c8.693,0,15.765-7.071,15.765-15.762c0-8.688-7.073-15.758-15.765-15.758
	c-8.686,0-15.754,7.07-15.754,15.758C43.918,309.867,50.987,316.938,59.673,316.938L59.673,316.938z M59.673,287.766
	c7.398,0,13.418,6.016,13.418,13.41c0,7.397-6.019,13.415-13.418,13.415c-7.392,0-13.407-6.018-13.407-13.415
	C46.266,293.783,52.281,287.766,59.673,287.766L59.673,287.766z M75.969,325.072c-4.099-6.822-12.698-5.965-12.936-5.93h-6.985
	c-0.294,0-7.234-0.188-11.302,5.656c-2.246,3.227-5.555,15.606-6.717,20.756c-0.142,0.632,0.254,1.261,0.887,1.402
	c0.086,0.02,0.174,0.03,0.258,0.03c0.537,0,1.022-0.369,1.144-0.916c1.221-5.403,4.442-17.183,6.354-19.93
	c3.323-4.775,9.244-4.658,9.334-4.652l7.153-0.008c0.078-0.006,7.506-0.754,10.827,4.852c0.028,0.045,0.058,0.089,0.091,0.131
	c2.039,2.576,5.443,14.136,6.697,19.609c0.144,0.631,0.772,1.027,1.405,0.883c0.632-0.144,1.028-0.775,0.883-1.405
	C82.079,341.252,78.584,328.484,75.969,325.072L75.969,325.072z M87.405,277c-6.522,0-12.555,3.135-15.371,7.985
	c-0.326,0.56-0.136,1.279,0.426,1.604c0.562,0.329,1.279,0.135,1.604-0.424c2.404-4.143,7.641-6.818,13.341-6.818
	c8.11,0,14.707,5.251,14.707,11.705c0,6.023-5.905,11.139-13.443,11.649c-0.177,0.013-0.347,0.063-0.502,0.152l-3.079,1.753
	l0.142-0.174c0.269-0.324,0.344-0.768,0.196-1.163c-0.147-0.394-0.496-0.679-0.912-0.745c-1.686-0.272-3.288-0.772-4.761-1.487
	c-0.582-0.282-1.285-0.041-1.568,0.542c-0.283,0.584-0.041,1.288,0.543,1.57c1.096,0.532,2.254,0.959,3.457,1.279l-3.016,3.636
	c-0.362,0.435-0.362,1.067,0.003,1.504c0.23,0.274,0.563,0.418,0.901,0.418c0.197,0,0.398-0.05,0.579-0.153l8.447-4.81
	c8.635-0.7,15.36-6.793,15.36-13.97C104.46,283.304,96.81,277,87.405,277L87.405,277z" fill="#7ed321" />
</svg>
