<?xml version="1.0" encoding="utf-8"?>
<!-- Generator: Adobe Illustrator 17.0.0, SVG Export Plug-In . SVG Version: 6.00 Build 0)  -->
<!DOCTYPE svg PUBLIC "-//W3C//DTD SVG 1.1//EN" "http://www.w3.org/Graphics/SVG/1.1/DTD/svg11.dtd">
<svg version="1.1" id="Layer_1" xmlns:sketch="http://www.bohemiancoding.com/sketch/ns"
	 xmlns="http://www.w3.org/2000/svg" xmlns:xlink="http://www.w3.org/1999/xlink" x="0px" y="0px" width="37.643px"
	 height="26.025px" viewBox="20.649 27.671 37.643 26.025" enable-background="new 20.649 27.671 37.643 26.025"
	 xml:space="preserve">
<title>Oval 118 + Navigation</title>
<desc>Created with Sketch.</desc>
<g id="Artboard-1" transform="translate(-835.000000, -4654.000000)" sketch:type="MSArtboardGroup">
	<g id="Oval-118-_x2B_-Navigation" transform="translate(835.000000, 4654.000000)" sketch:type="MSLayerGroup">
		<g id="Navigation" transform="translate(20.000000, 28.000000)">
			<g id="ICN:-Add-friend" transform="translate(0.717200, 0.000000)">
				<g id="Person-Siluete" transform="translate(10.627652, 0.000000)">
				</g>
				<g id="ICN:-Add-Contact">
					<path id="Plus-Sign" sketch:type="MSShapeGroup" fill="#FFFFFF" d="M4.555,9.229V6.124c0-0.841,0.68-1.518,1.518-1.518
						c0.844,0,1.518,0.68,1.518,1.518v3.105h3.105c0.841,0,1.518,0.68,1.518,1.518c0,0.844-0.68,1.518-1.518,1.518H7.591v3.105
						c0,0.841-0.68,1.518-1.518,1.518c-0.844,0-1.518-0.68-1.518-1.518v-3.105H1.45c-0.841,0-1.518-0.68-1.518-1.518
						c0-0.844,0.68-1.518,1.518-1.518H4.555z"/>
					<path id="Path-11" sketch:type="MSShapeGroup" fill="#FFFFFF" d="M29.594,19.242c5.736,0.826,7.98,2.802,7.98,2.802v3.652
						H11.005v-3.652c0,0,2.341-2.062,8.354-2.854c1.383,1.317,3.127,2.351,5.194,2.351C26.593,21.541,28.275,20.534,29.594,19.242z"
						/>
					<g id="Path-10">
						<g sketch:type="MSShapeGroup">
							<path id="path-1" fill="#FFFFFF" d="M24.533,0.171c6.339,0,6.339,7.255,6.339,7.255l0,0c0.432,0,0.768,0.442,0.726,0.996
								c0,0,0.055,1.679-0.726,1.679c-0.892,1.093-3.566,7.925-6.339,7.925s-5.875-6.872-6.61-7.925
								c-0.787,0-0.731-1.679-0.731-1.679c-0.031-0.55,0.393-0.996,0.731-0.996l0,0C17.923,7.425,18.195,0.171,24.533,0.171z"/>
						</g>
						<g>
							<path id="path-1_1_" fill="none" stroke="#FFFFFF" d="M24.533,0.171c6.339,0,6.339,7.255,6.339,7.255l0,0
								c0.432,0,0.768,0.442,0.726,0.996c0,0,0.055,1.679-0.726,1.679c-0.892,1.093-3.566,7.925-6.339,7.925
								s-5.875-6.872-6.61-7.925c-0.787,0-0.731-1.679-0.731-1.679c-0.031-0.55,0.393-0.996,0.731-0.996l0,0
								C17.923,7.425,18.195,0.171,24.533,0.171z"/>
						</g>
					</g>
				</g>
			</g>
		</g>
	</g>
</g>
</svg>
