<?xml version="1.0" encoding="UTF-8" standalone="no"?>
<svg width="46px" height="46px" viewBox="0 0 46 46" version="1.1" xmlns="http://www.w3.org/2000/svg" xmlns:xlink="http://www.w3.org/1999/xlink" xmlns:sketch="http://www.bohemiancoding.com/sketch/ns">
    <!-- Generator: Sketch 3.3.3 (12081) - http://www.bohemiancoding.com/sketch -->
    <title>Fill 5848</title>
    <desc>Created with Sketch.</desc>
    <defs></defs>
    <g id="Add-a-Story" stroke="none" stroke-width="1" fill="none" fill-rule="evenodd" sketch:type="MSPage">
        <g id="Main-Copy" sketch:type="MSArtboardGroup" transform="translate(-729.000000, -650.000000)" fill="#F3F3F3">
            <g id="Rectangle-81-+-Fill-5848" sketch:type="MSLayerGroup" transform="translate(676.800000, 599.000000)">
                <g id="Fill-5848" sketch:type="MSShapeGroup">
                    <g transform="translate(52.575000, 51.875000)">
                        <path d="M31.32,23.495 L23.493913,23.495 L23.493913,31.321087 C23.493913,31.8630435 23.0576087,32.2993478 22.5156522,32.2993478 C21.9756522,32.2993478 21.5373913,31.8630435 21.5373913,31.321087 L21.5373913,23.495 L13.7113043,23.495 C13.1713043,23.495 12.7330435,23.0586957 12.7330435,22.5167391 C12.7330435,21.9786957 13.1713043,21.5384783 13.7113043,21.5384783 L21.5373913,21.5384783 L21.5373913,13.7123913 C21.5373913,13.1743478 21.9756522,12.7341304 22.5156522,12.7341304 C23.0576087,12.7341304 23.493913,13.1743478 23.493913,13.7123913 L23.493913,21.5384783 L31.32,21.5384783 C31.8619565,21.5384783 32.2982609,21.9786957 32.2982609,22.5167391 C32.2982609,23.0586957 31.8619565,23.495 31.32,23.495 L31.32,23.495 Z M22.5156522,0.0167391304 C10.1093478,0.0167391304 0.0156521739,10.1104348 0.0156521739,22.5167391 C0.0156521739,34.925 10.1093478,45.0167391 22.5156522,45.0167391 C34.923913,45.0167391 45.0156522,34.925 45.0156522,22.5167391 C45.0156522,10.1104348 34.923913,0.0167391304 22.5156522,0.0167391304 L22.5156522,0.0167391304 Z"></path>
                    </g>
                </g>
            </g>
        </g>
    </g>
</svg>