<svg width="59" height="59" viewBox="0 0 59 59" xmlns="http://www.w3.org/2000/svg"><title>Shape + Shape + Shape</title><g fill="#FFF" fill-rule="evenodd"><path d="M58.34 29.81C58.34 13.718 45.297.673 29.205.673S.067 13.718.067 29.81s13.045 29.137 29.137 29.137S58.34 45.902 58.34 29.81zm-4 0c0 13.882-11.253 25.137-25.136 25.137S4.067 43.692 4.067 29.81c0-13.883 11.254-25.137 25.137-25.137 13.883 0 25.137 11.254 25.137 25.137z"/><path d="M19.23 28.962L30.62 17.574H27.79l11.388 11.388c.78.78 2.047.78 2.828 0 .78-.78.78-2.047 0-2.828L30.618 14.746c-.78-.78-2.047-.78-2.828 0L16.402 26.134c-.78.78-.78 2.047 0 2.828.78.78 2.048.78 2.83 0z"/><path d="M31.204 43.717V16.16c0-1.104-.895-2-2-2-1.104 0-2 .896-2 2v27.557c0 1.104.896 2 2 2 1.105 0 2-.896 2-2z"/></g></svg>