<svg viewBox="0 0 504 116" xmlns="http://www.w3.org/2000/svg"><g fill="none" fill-rule="evenodd"><path d="M177.722 68.24l-6.768-19.087-4.107-12.207h-.22c-.778 2.664-1.998 6.104-4.218 12.318l-6.88 18.976h22.192zm-14.646-46.052h7.1l28.41 73.35h-10.542l-7.214-19.197h-28.297l-7.102 19.2h-10.21l27.856-73.352zM206.57 22.41h11.095L231.54 65.8c1.44 4.438 3.105 9.765 4.435 14.98h.334c1.553-5.438 2.994-9.988 4.77-14.87l10.543-30.96-4.327-12.54h10.32l14.537 43.277c1.442 4.44 3.44 9.878 4.77 15.092h.223c1.332-5.438 2.664-9.988 4.217-14.87l13.428-43.5h10.32l-24.3 73.573h-8.103l-11.43-33.29c-1.887-5.438-3.44-9.767-4.77-14.65h-.334c-1.33 4.883-2.774 8.877-4.77 14.65l-11.653 33.29h-8.102l-25.08-73.574M355.594 68.24l-6.77-19.087-4.106-12.207h-.222c-.777 2.664-1.998 6.104-4.217 12.318l-6.882 18.976h22.196zm-14.65-46.052h7.103l28.41 73.35h-10.544L358.7 76.342h-28.297l-7.102 19.2h-10.208l27.852-73.352zM412.07 57.143c3.885 0 6.77-.776 9.434-2.33 3.662-1.998 5.993-5.88 5.993-11.21 0-4.216-1.555-7.766-4.663-10.097-2.218-1.665-5.547-2.995-10.652-2.995h-6.658v26.633h6.547zM395.65 22.41h16.534c7.435 0 12.428 1.33 16.203 3.55 6.547 3.663 9.32 9.988 9.32 16.646 0 10.1-5.55 16.423-14.648 19.198v.22c2.22 1.222 4.994 5.218 8.878 11.765l12.984 21.75h-11.542L421.393 75.23c-3.44-6.104-6.215-9.433-8.323-9.987h-7.546V95.54h-9.876V22.41zM465.664 22.41h36.952l-2.885 8.1h-24.19v23.525h23.86v8.213h-23.86v25.19h27.52v8.1h-37.396V22.41" fill="#4BB37B"/><path d="M56.8 73.83c-2.2 0-4.433-.482-6.545-1.51-7.624-3.712-10.626-13.036-6.915-20.66 2.78-5.71 8.37-9.058 14.138-9.058 2.193 0 4.412.484 6.512 1.507 7.624 3.71 10.632 13.033 6.796 20.912-2.684 5.513-8.234 8.81-13.985 8.81m.467-22.447c-2.524 0-4.97 1.466-6.185 3.963-1.624 3.335-.31 7.415 3.025 9.04.924.448 1.9.66 2.864.66 2.517 0 4.945-1.442 6.12-3.854 1.678-3.447.362-7.526-2.974-9.15-.92-.447-1.89-.66-2.85-.66" fill="#BBDCBE"/><path d="M60.116 52.044c-3.335-1.624-7.356-.143-9.034 3.304-1.624 3.335-.31 7.415 3.025 9.04 3.336 1.623 7.358.14 8.982-3.194 1.678-3.447.362-7.526-2.974-9.15" fill="#4BB37B"/><path d="M23.18 86.087C13.21 73.44 10.758 55.504 18.375 39.86c7.512-15.432 23.088-25.403 39.68-25.403l.133.004 1.027 2.978c-.387-.012-.772-.033-1.16-.033-15.472 0-30.007 9.32-37.03 23.744-7.27 14.93-4.71 32.09 5.126 43.913l-2.97 1.024M56.218 102.127l-.09-.003-1.028-2.977c.372.01.743.032 1.118.032 15.42 0 29.79-9.057 36.613-23.07 4.87-10.002 5.71-21.192 2.366-31.508-1.595-4.917-4.063-9.36-7.246-13.18l2.975-1.027c3.08 3.906 5.48 8.384 7.075 13.298 3.58 11.045 2.688 23.016-2.517 33.706-7.314 15.02-22.726 24.727-39.265 24.727" fill="#BBDCBE"/><path d="M8.56 35.22C17.4 17.067 35.09 4.927 54.386 3.443L53.4.59C33.37 2.41 15.09 15.076 5.91 33.93c-9.263 19.024-7.26 40.602 3.372 56.954l2.88-.993C1.717 74.308-.35 53.52 8.56 35.22M107.837 83.555c9.458-19.428 7.546-41.388-3.116-57.92l-2.87.99c10.47 15.76 12.444 36.932 3.336 55.64C96.6 99.9 79.13 111.692 59.93 113.145l.986 2.855c19.93-1.784 37.992-14.105 46.92-32.445" fill="#4BB37B"/><path d="M33.49 47.077c4.6-9.448 14.117-15.552 24.245-15.552 2.274 0 4.496.334 6.66.926l-1.147-3.323c-1.804-.36-3.644-.55-5.513-.55-11.248 0-21.805 6.755-26.896 17.21-6.013 12.348-2.747 26.78 7.025 35.233l3.264-1.127c-9.83-7.393-13.325-21.14-7.64-32.816M83.128 71.243c6.137-12.606 2.91-27.278-6.923-35.768l-3.272 1.13c9.9 7.412 13.36 21.405 7.544 33.35-4.467 9.174-13.874 15.1-23.967 15.1-2.25 0-4.445-.32-6.582-.894l1.143 3.314c1.78.346 3.595.53 5.44.53 11.213 0 21.66-6.578 26.618-16.76" fill="#4BB37B"/></g></svg>