<svg xmlns="http://www.w3.org/2000/svg" width="48" height="48" viewBox="-4 -4 48 48"><path d="M20.224.303L19.864.3C9.326.3.598 8.878.408 19.415c-.1 5.2 1.837 10.122 5.446 13.87 3.61 3.743 8.463 5.86 13.664 5.952l.36.002c10.538 0 19.266-8.578 19.456-19.115.097-5.202-1.838-10.122-5.446-13.868C30.276 2.51 25.425.402 20.224.303zm-.346 37.537l-.336-.005c-4.824-.085-9.33-2.047-12.678-5.523-3.353-3.474-5.148-8.047-5.06-12.87C1.98 9.657 10.08 1.7 19.864 1.7h.333c4.827.085 9.33 2.048 12.68 5.525 3.35 3.474 5.148 8.045 5.06 12.868-.174 9.786-8.278 17.746-18.06 17.746zm9.225-18.603l-16.752-.303 8.17-7.884c.28-.266.29-.71.02-.985-.263-.278-.71-.285-.986-.02l-9.89 9.535.483.505.003.003 9.052 9.39c.136.14.32.21.503.21.174 0 .35-.063.486-.196.28-.267.286-.71.02-.986l-7.884-8.173 16.752.304h.014c.38 0 .69-.305.7-.684.006-.388-.3-.706-.686-.713z"/></svg>