<svg width="637" height="169" viewBox="0 0 637 169" xmlns="http://www.w3.org/2000/svg" xmlns:xlink="http://www.w3.org/1999/xlink"><title>Leeds_BID_Logo_CMYK_Final_v1</title><defs><path id="a" d="M0 .798h636.503V168.94H0"/><path id="c" d="M0 .798h636.503V168.94H0"/></defs><g fill="none" fill-rule="evenodd"><path d="M21.548 153.434c0 3.477-3.032 5.637-7.913 5.637H3.232v-11.06h9.673c5.574 0 8.643 1.895 8.643 5.424zm-18.316-8.482v-10.805h9.63c4.39 0 7.013 1.883 7.013 5.037v.084c0 3.506-2.77 5.684-7.227 5.684H3.232zm15.692 1.128c2.136-1.17 4.224-3.283 4.224-7.11 0-1.988-.7-3.695-2.08-5.073-1.81-1.812-4.71-2.81-8.163-2.81H0v31.045h13.55c6.847 0 11.272-3.415 11.272-8.782 0-3.427-2.032-5.92-5.898-7.27zM46.76 152.406c0 4.236-2.985 7.312-7.098 7.312-4.04 0-6.454-2.606-6.454-6.97v-13.503h-3.1v13.888c0 5.78 3.632 9.513 9.253 9.513 3.078 0 5.607-1.187 7.4-3.453v2.94h3.102v-22.888h-3.1v13.16M64.925 148.962c-3.357-.965-5.733-1.8-5.733-3.853 0-1.956 1.842-3.322 4.48-3.322 2.11 0 4.407.748 6.462 2.105l.425.28 1.65-2.6-.407-.27c-2.3-1.534-5.382-2.488-8.047-2.488-4.467 0-7.71 2.753-7.71 6.636 0 4.22 4.092 5.4 7.7 6.44l.176.05c2.97.837 5.43 1.71 5.43 3.986 0 2.157-1.965 3.663-4.78 3.663-2.613 0-5.154-.934-7.55-2.774l-.402-.31-1.832 2.466.37.3c2.454 2 6.098 3.29 9.285 3.29 4.667 0 8.054-2.9 8.054-6.982 0-4.142-3.742-5.54-7.572-6.618M78.506 139.245h3.102v22.887h-3.102v-22.887zM78.25 130.658h3.615v3.875H78.25v-3.875zM99.398 138.727c-3.076 0-5.603 1.187-7.398 3.453v-2.935h-3.102v22.887H92v-13.16c0-4.24 2.985-7.314 7.098-7.314 4.042 0 6.455 2.605 6.455 6.97v13.504h3.1V148.24c0-5.78-3.632-9.513-9.255-9.513M131.832 149.16h-14.824c.564-4.38 3.655-7.502 7.516-7.502 4.787 0 6.9 3.927 7.308 7.502zm-7.223-10.433c-6.105 0-10.887 5.235-10.887 11.918v.087c0 6.792 4.827 11.914 11.23 11.914 4.83 0 7.572-2.288 9.422-4.28l.348-.376-2.208-1.945-.33.355c-2.084 2.232-4.356 3.273-7.148 3.273-4.255 0-7.494-3.11-8.034-7.628h18.048l.055-.44c.045-.365.046-.504.046-.918 0-7.042-4.334-11.96-10.54-11.96zM148.367 148.962c-3.357-.965-5.733-1.8-5.733-3.853 0-1.956 1.842-3.322 4.48-3.322 2.11 0 4.407.748 6.463 2.105l.424.28 1.65-2.6-.405-.27c-2.3-1.534-5.382-2.488-8.046-2.488-4.468 0-7.71 2.753-7.71 6.636 0 4.22 4.09 5.4 7.7 6.44l.174.05c2.97.837 5.43 1.71 5.43 3.986 0 2.157-1.965 3.663-4.78 3.663-2.613 0-5.154-.934-7.55-2.774l-.402-.31-1.832 2.466.37.3c2.454 2 6.098 3.29 9.285 3.29 4.667 0 8.054-2.9 8.054-6.982 0-4.142-3.743-5.54-7.573-6.618M169.28 148.962c-3.356-.965-5.732-1.8-5.732-3.853 0-1.956 1.842-3.322 4.48-3.322 2.11 0 4.407.748 6.462 2.105l.425.28 1.65-2.6-.406-.27c-2.3-1.534-5.383-2.488-8.047-2.488-4.467 0-7.71 2.753-7.71 6.636 0 4.22 4.09 5.4 7.7 6.44l.175.05c2.97.837 5.43 1.71 5.43 3.986 0 2.157-1.965 3.663-4.78 3.663-2.613 0-5.154-.934-7.55-2.774l-.402-.31-1.832 2.466.37.3c2.454 2 6.098 3.29 9.285 3.29 4.666 0 8.053-2.9 8.053-6.982 0-4.142-3.742-5.54-7.572-6.618M196.218 131.087h3.232v31.045h-3.232v-31.045z" fill="#0F1B2A"/><mask id="b" fill="#fff"><use xlink:href="#a"/></mask><path d="M232.394 138.727c-3.333 0-5.974 1.42-7.864 4.223-1.088-1.85-3.29-4.223-7.417-4.223-3.41 0-5.433 1.583-6.798 3.324v-2.805h-3.102v22.887h3.102v-13.12c0-4.124 2.854-7.354 6.498-7.354 3.636 0 5.895 2.62 5.895 6.84v13.634h3.102v-13.25c0-4.963 3.324-7.224 6.412-7.224 3.8 0 5.98 2.54 5.98 6.97v13.504h3.103V148.37c0-5.858-3.498-9.643-8.91-9.643" fill="#0F1B2A" mask="url(#b)"/><mask id="d" fill="#fff"><use xlink:href="#c"/></mask><path d="M267.543 150.687v.087c0 5.297-3.25 8.857-8.086 8.857-4.054 0-8.43-3.4-8.43-8.985 0-5.5 4.376-8.903 8.43-8.903 4.61 0 8.086 3.846 8.086 8.945zm-7.87-11.96c-3.346 0-6.204 1.468-8.515 4.367v-3.85h-3.103V169h3.103v-10.556c2.255 2.79 5.113 4.202 8.514 4.202 5.478 0 11.145-4.474 11.145-12.044 0-7.433-5.667-11.875-11.145-11.875z" fill="#0F1B2A" mask="url(#d)"/><path d="M279.502 143.984v-4.74H276.4v22.888h3.102v-9.47c0-7.215 4.513-10.444 8.986-10.444h.714v-3.3l-.48-.02c-3.668-.134-7.104 1.806-9.22 5.086M302.704 141.7c4.775 0 8.515 3.948 8.515 8.987v.087c0 5.073-3.624 8.9-8.43 8.9-4.774 0-8.515-3.948-8.515-9.072 0-5.075 3.624-8.902 8.43-8.902zm.087-2.973c-6.61 0-11.787 5.254-11.787 11.96v.087c0 6.657 5.14 11.872 11.7 11.872 6.61 0 11.79-5.253 11.79-12.044 0-6.658-5.14-11.875-11.702-11.875zM327.703 158.002l-7.956-18.757H316.2l10.276 23.058h2.45l10.274-23.058h-3.46l-8.037 18.757M359.016 149.16h-14.824c.565-4.38 3.656-7.502 7.517-7.502 4.785 0 6.898 3.927 7.306 7.502zm-7.223-10.433c-6.104 0-10.886 5.235-10.886 11.918v.087c0 6.792 4.828 11.914 11.23 11.914 4.83 0 7.573-2.288 9.422-4.28l.348-.376-2.208-1.945-.33.355c-2.084 2.232-4.356 3.273-7.15 3.273-4.253 0-7.493-3.11-8.033-7.628h18.05l.053-.44c.044-.365.045-.504.045-.918 0-7.042-4.335-11.96-10.542-11.96zM392.67 138.727c-3.334 0-5.975 1.42-7.864 4.223-1.087-1.85-3.29-4.223-7.417-4.223-3.41 0-5.435 1.583-6.8 3.324v-2.805h-3.102v22.887h3.103v-13.12c0-4.124 2.855-7.354 6.5-7.354 3.634 0 5.894 2.62 5.894 6.84v13.634h3.102v-13.25c0-4.963 3.324-7.224 6.412-7.224 3.8 0 5.98 2.54 5.98 6.97v13.504h3.102V148.37c0-5.858-3.498-9.643-8.91-9.643M424.938 149.16h-14.824c.564-4.38 3.656-7.502 7.516-7.502 4.79 0 6.9 3.927 7.308 7.502zm-7.222-10.433c-6.105 0-10.886 5.235-10.886 11.918v.087c0 6.792 4.827 11.914 11.228 11.914 4.83 0 7.573-2.288 9.423-4.28l.35-.376-2.208-1.945-.33.355c-2.084 2.232-4.355 3.273-7.148 3.273-4.255 0-7.495-3.11-8.035-7.628h18.048l.053-.44c.046-.365.047-.504.047-.918 0-7.042-4.335-11.96-10.54-11.96zM443.91 138.727c-3.075 0-5.603 1.187-7.397 3.453v-2.935h-3.103v22.887h3.103v-13.16c0-4.24 2.984-7.314 7.097-7.314 4.042 0 6.456 2.605 6.456 6.97v13.504h3.1V148.24c0-5.78-3.633-9.513-9.256-9.513M463.997 132.247h-3.103v6.998h-3.174v2.927h3.174v13.838c0 4.016 2.544 6.51 6.638 6.51 1.384 0 2.547-.254 3.774-.823l.29-.134v-3.057l-.703.312c-1.178.524-2.025.73-3.017.73-2.61 0-3.88-1.228-3.88-3.752v-13.624h7.685v-2.927h-7.683v-6.998M513.92 146.695c0 7.287-5.406 12.376-13.148 12.376h-7.27v-24.923h7.27c7.62 0 13.148 5.242 13.148 12.548zm-13.148-15.608H490.27v31.045h10.502c9.54 0 16.465-6.527 16.465-15.608 0-8.945-6.924-15.437-16.465-15.437zM523.425 130.658h3.616v3.875h-3.615v-3.875zM523.68 139.245h3.104v22.887h-3.103v-22.887zM542.138 148.962c-3.357-.965-5.734-1.8-5.734-3.853 0-1.956 1.84-3.322 4.48-3.322 2.112 0 4.407.748 6.462 2.105l.425.28 1.652-2.6-.406-.27c-2.3-1.534-5.383-2.488-8.047-2.488-4.47 0-7.71 2.753-7.71 6.636 0 4.22 4.09 5.4 7.7 6.44l.175.05c2.97.837 5.43 1.71 5.43 3.986 0 2.157-1.965 3.663-4.78 3.663-2.614 0-5.154-.934-7.55-2.774l-.403-.31-1.832 2.466.37.3c2.455 2 6.1 3.29 9.286 3.29 4.667 0 8.053-2.9 8.053-6.982 0-4.142-3.742-5.54-7.572-6.618M559.25 132.247h-3.104v6.998h-3.175v2.927h3.176v13.838c0 4.016 2.544 6.51 6.638 6.51 1.384 0 2.547-.254 3.773-.823l.29-.134v-3.057l-.702.312c-1.18.524-2.025.73-3.018.73-2.61 0-3.878-1.228-3.878-3.752v-13.624h7.683v-2.927h-7.684v-6.998M575.268 143.984v-4.74h-3.102v22.888h3.102v-9.47c0-7.215 4.514-10.444 8.986-10.444h.714v-3.3l-.48-.02c-3.64-.144-7.104 1.806-9.22 5.086M589.387 130.658h3.616v3.875h-3.616v-3.875zM589.644 139.245h3.103v22.887h-3.103v-22.887zM617.29 156.193c-2.07 2.31-4.414 3.48-6.967 3.48-4.776 0-8.516-3.947-8.516-9.07 0-4.993 3.665-8.903 8.343-8.903 3.13 0 5.186 1.662 6.94 3.457l.358.365 2.197-2.257-.335-.348c-1.872-1.95-4.6-4.19-9.116-4.19-6.428 0-11.658 5.366-11.658 11.96v.087c0 6.546 5.23 11.872 11.658 11.872 3.69 0 6.56-1.39 9.302-4.504l.33-.374-2.204-1.944-.33.37M636.503 142.172v-2.927h-7.683v-6.998h-3.103v6.998h-3.175v2.927h3.175v13.838c0 4.016 2.544 6.51 6.638 6.51 1.383 0 2.546-.254 3.773-.823l.29-.134v-3.057l-.703.312c-1.178.524-2.025.73-3.017.73-2.61 0-3.878-1.228-3.878-3.752v-13.624h7.683" fill="#0F1B2A"/><path d="M443.688 52.993V12.188h10.966c6.303 0 12.823 0 18.052 3.303 5.382 3.378 8.47 9.585 8.47 17.03 0 7.883-2.218 12.7-7.654 16.624-5.428 3.912-10.573 3.888-17.09 3.855l-12.744-.007zm47.424 30.36c0 7.48-3.63 14.046-10.218 18.485-5.996 4.04-13.29 4.028-20.32 4.01l-16.886-.003V61.44h14.283c7.967 0 16.26.26 22.464 3.358 6.487 3.18 10.678 10.464 10.678 18.554zM479.07 55.305c7.392-4.95 10.993-12.1 10.993-21.78 0-9.967-3.166-17.777-9.404-23.206-6.846-6.077-15.176-6.585-23.123-6.585h-22.73V114.3h28.773c9.933 0 18.154-1.363 25.99-8.01C496.393 100.48 500 92.453 500 83.07c0-13.3-8.314-24.184-20.93-27.764zM521.902 3.732h8.882v110.564h-8.882V3.732zM627.622 59.158c0 12.737-5.013 24.766-14.112 33.864-9.113 8.99-19.803 12.823-35.742 12.823H566.22V12.188h11.548c15.404 0 25.392 3.348 34.47 11.55 9.92 9.08 15.384 21.657 15.384 35.42zm-8.717-41.477C606.43 6.108 593.495 3.736 577.91 3.736h-20.57V114.3h20.57c13.686 0 28.197-1.78 41.578-14.68 10.972-10.532 17.015-24.9 17.015-40.462 0-16.114-6.25-30.843-17.598-41.477z" fill="#EC952D"/><path d="M28.75 89.974h34.464v24.345H0V3.73h28.75v86.242M105.787 28.08v18.48h32.415v24.346h-32.415v19.07h34.173v24.346H77.044V3.735h62.916V28.08h-34.173M184.242 28.08v18.48h32.414v24.346h-32.414v19.07h34.172v24.346h-62.916V3.735h62.916V28.08h-34.172M262.695 89.974h6.455c17.158 0 31.824-9.386 31.824-30.948 0-19.798-13.05-30.948-31.532-30.948h-6.747v61.896zM233.952 3.732h40.77c30.8 0 56.175 24.202 56.175 55.294 0 31.097-25.52 55.293-56.175 55.293h-40.77V3.73zM400.538 32.187c-5.28-4.398-12.026-7.33-19.065-7.33-5.28 0-12.324 3.075-12.324 9.237 0 6.455 7.776 8.946 12.764 10.56l7.33 2.2c15.4 4.547 27.284 12.324 27.284 30.215 0 11-2.646 22.294-11.443 29.773-8.653 7.33-20.24 10.412-31.39 10.412-13.932 0-27.568-4.696-38.867-12.616l12.324-23.172c7.187 6.305 15.692 11.442 25.52 11.442 6.745 0 13.933-3.38 13.933-11.15 0-8.064-11.294-10.853-17.456-12.61-18.04-5.138-29.918-9.83-29.918-31.242 0-22.438 15.99-37.11 38.135-37.11 11.145 0 24.786 3.522 34.614 9.094L400.54 32.187" fill="#0F1B2A"/></g></svg>