<?xml version="1.0" encoding="UTF-8" standalone="no"?>
<svg width="45px" height="58px" viewBox="0 0 45 58" version="1.1" xmlns="http://www.w3.org/2000/svg" xmlns:xlink="http://www.w3.org/1999/xlink" xmlns:sketch="http://www.bohemiancoding.com/sketch/ns">
    <!-- Generator: Sketch 3.3.3 (12081) - http://www.bohemiancoding.com/sketch -->
    <title>bin-icn@1x</title>
    <desc>Created with Sketch.</desc>
    <defs></defs>
    <g id="Welcome" stroke="none" stroke-width="1" fill="none" fill-rule="evenodd" sketch:type="MSPage">
        <g id="Start-Here" sketch:type="MSArtboardGroup" transform="translate(-154.000000, -217.000000)" fill="#FFFFFF">
            <g id="bin-icn" sketch:type="MSLayerGroup" transform="translate(154.000000, 217.000000)">
                <path d="M22.5829688,9.07183562 C29.0760268,9.0710411 35.5692857,9.08415068 42.0621429,9.05495205 C42.9034821,9.05137671 43.3155134,9.23153425 43.2028125,10.1450342 C43.134308,10.6992123 43.1543973,11.2714658 43.1987946,11.830411 C43.2829688,12.888911 43.038683,13.7579178 42.3014063,14.6158014 C41.8672768,15.1211164 41.7316741,16.0060137 41.7260491,16.722274 C41.6800446,22.7447397 41.6941071,28.7676027 41.6925,34.7904658 C41.6908929,40.7140137 41.7003348,46.6375616 41.6864732,52.5611096 C41.6832589,53.9588699 41.4660938,55.2966438 40.3764509,56.3531575 C39.322567,57.374911 38.0768304,57.9227329 36.611317,57.923726 C27.2398661,57.9310753 17.8684152,57.9467671 8.49716518,57.907637 C6.165,57.8979041 4.42104911,56.8129863 3.57569196,54.5921027 C3.38464286,54.0901644 3.42140625,53.4885137 3.42100446,52.9327466 C3.41256696,40.8872192 3.40453125,28.8414932 3.43064732,16.7959658 C3.43285714,15.8214863 3.24723214,14.9661849 2.55897321,14.2936233 C1.89341518,13.6431096 1.76544643,12.8738151 1.82089286,12.0240753 C1.88256696,11.0809795 1.61698661,9.83239041 2.12283482,9.28734932 C2.56861607,8.80726027 3.88084821,9.07958219 4.81078125,9.07799315 C10.7349107,9.06706849 16.6588393,9.07243151 22.5829688,9.07183562 L22.5829688,9.07183562 Z M15.6115848,33.1676575 C15.6115848,29.1972397 15.6292634,25.2270205 15.6059598,21.2568014 C15.5884821,18.3103219 16.0790625,18.743137 13.0214732,18.6605068 C12.0160045,18.6332945 11.7767411,18.9995685 11.7797545,19.9218082 C11.8074777,28.3252534 11.7841741,36.7290959 11.8072768,45.1327397 C11.8149107,47.9153493 11.1891295,47.6497808 14.5460491,47.6988425 C15.3763393,47.7111575 15.6330804,47.3772603 15.6272545,46.5670479 C15.5949107,42.1008493 15.6117857,37.6340548 15.6115848,33.1676575 L15.6115848,33.1676575 Z M34.366942,33.2077808 L34.3633259,33.2077808 C34.3633259,29.2061781 34.3575,25.2043767 34.3655357,21.202774 C34.370558,18.6654726 34.3797991,18.6654726 31.856183,18.6777877 C30.5937723,18.6839452 30.5837277,18.6901027 30.5835268,19.9835822 C30.5825223,28.3838493 30.5668527,36.7841164 30.5929688,45.1843836 C30.6016071,47.9083973 30.0200223,47.6336918 33.1736384,47.6922877 C34.0654018,47.708774 34.3970759,47.4390342 34.387433,46.5024932 C34.3416295,42.0712534 34.366942,37.6394178 34.366942,33.2077808 L34.366942,33.2077808 Z M20.8420313,18.6785822 L20.8420313,20.0646233 C20.8408259,28.5377877 20.8396205,37.0107534 20.8384152,45.4839178 C20.8382143,47.6815616 20.8380134,47.6815616 23.0612946,47.6823562 C24.399442,47.6827534 24.4018527,47.6827534 24.4016518,46.3755685 C24.40125,39.3257877 24.399442,32.2758082 24.3982366,25.2260274 C24.3980357,23.4719247 24.4004464,21.7176233 24.3972321,19.9635205 C24.3948214,18.6805685 24.391808,18.6801712 23.0524554,18.6785822 C22.3858929,18.6777877 21.7191295,18.6785822 20.8420313,18.6785822 L20.8420313,18.6785822 Z" id="Fill-1" sketch:type="MSShapeGroup"></path>
                <path d="M22.6094866,7.95692466 C15.5495089,7.9565274 8.48953125,7.96308219 1.42955357,7.94143151 C0.971517857,7.9400411 0.178995536,7.80874658 0.11953125,7.58687671 C-0.0528348214,6.94271918 -0.000602678571,6.20878082 0.12515625,5.53979452 C0.15609375,5.37532877 0.803370536,5.23767808 1.16839286,5.23489726 C4.24667411,5.21086301 7.32535714,5.20192466 10.4034375,5.23469863 C11.1463393,5.24264384 11.4952902,5.02375342 11.7891964,4.29974658 C12.8770313,1.6200274 15.0723884,0.267356164 17.8752455,0.11540411 C20.9444866,-0.0506506849 24.0350223,-0.0280068493 27.106875,0.113020548 C29.8763839,0.240143836 32.0444196,1.51316438 33.1782589,4.14978082 C33.5079241,4.91669178 33.9193527,5.27700685 34.8633482,5.25178082 C37.8725223,5.17093836 40.8869196,5.2799863 43.8962946,5.19934247 C45.1958705,5.16458219 44.9421429,5.94162329 44.9819196,6.68310959 C45.0245089,7.47465068 44.9449554,7.98334247 43.8902679,7.97758219 C36.7967411,7.93865068 29.7030134,7.95732192 22.6094866,7.95692466 L22.6094866,7.95692466 Z M29.4436607,5.13836301 C29.1041518,4.09376712 28.331317,3.60712329 27.4943973,3.58646575 C24.1927232,3.50482877 20.8864286,3.49628767 17.5849554,3.58289041 C16.7562723,3.60473973 15.8835938,4.01510959 15.6278571,5.13836301 L29.4436607,5.13836301 L29.4436607,5.13836301 Z" id="Fill-2" sketch:type="MSShapeGroup"></path>
            </g>
        </g>
    </g>
</svg>