<svg width="31" height="40" viewBox="0 0 31 40" xmlns="http://www.w3.org/2000/svg"><title>Group 10</title><g fill="none" fill-rule="evenodd"><path d="M28.553 3.364h-2.475c-.354 0-.665.287-.665.635v-.003H3.338v34.616c0 .35.317.667.673.667h16.11c4.36 0 7.87-3.505 7.87-7.787v-6.42c.807-.563 1.13-1.427 1.13-2.393V4c0-.35-.213-.636-.567-.636z" fill="#FF6700"/><path d="M30.07 4.006H2.89c-.368 0-.666-.284-.666-.633v-.548c0-.35.298-.633.666-.633H30.07c.37 0 .667.283.667.633v.548c0 .35-.298.633-.666.633" fill="#FF6700"/><path d="M27.998 2.983H4.96V2.26c0-1.132.944-2.057 2.096-2.057h18.848c1.152 0 2.094.925 2.094 2.057v.723z" fill="#FF6700"/><path d="M.555 35.567c0-2.44 1.98-4.42 4.424-4.42 2.443 0 4.424 1.98 4.424 4.42s-1.98 4.42-4.425 4.42c-2.444 0-4.425-1.98-4.425-4.42" fill="#424242"/><path d="M2.482 35.567c0-1.377 1.118-2.494 2.497-2.494 1.378 0 2.496 1.117 2.496 2.494 0 1.378-1.118 2.495-2.497 2.495-1.38 0-2.498-1.117-2.498-2.495" fill="#E5E5E5"/><path d="M3.213 35.567c0-.974.79-1.763 1.766-1.763.974 0 1.765.79 1.765 1.763 0 .974-.79 1.764-1.766 1.764s-1.767-.79-1.767-1.763" fill="#FFF"/><path d="M4.413 35.567c0-.312.254-.565.566-.565.312 0 .565.253.565.565 0 .312-.253.565-.566.565-.313 0-.567-.253-.567-.565" fill="#424242"/><path fill="#CB5200" d="M3.367 5.236h25.83v-1.23H3.367M6.862 8.857l1.762.882 1.398-1.374-.307 1.92 1.763.882-1.953.304-.31 1.918-.9-1.732-1.953.303 1.398-1.373M22.03 27.39l1.09.545.863-.85-.19 1.188 1.09.545-1.207.188-.19 1.186-.557-1.07-1.21.186.865-.85M12.993 25.436c-.912-.043-1.83-.043-2.736-.14-.864-.094-1.526-.546-1.868-1.363-.308-.733-.17-1.44.2-2.11.352-.64.74-1.264 1.116-1.894.222-.37.222-.364-.165-.595-.15-.09-.287-.21-.43-.318.168-.068.33-.155.504-.2.607-.16 1.222-.294 1.828-.46.293-.08.428.027.497.292.177.68.364 1.356.54 2.037.02.072-.01.157-.017.236l-.24-.055c-.015-.003-.027-.012-.04-.018-.617-.29-.62-.293-.986.31-.3.495-.606.986-.877 1.496-.295.555-.185.758.455.84.338.046.684.03 1.027.032 1.102.002 2.203-.002 3.305 0 .478 0 .5.025.504.507.004.28.005.562 0 .843-.005.466-.048.512-.512.516-.7.004-1.402 0-2.103 0 0 .015 0 .028-.002.042M15.68 12.32c.993.083 1.697.6 2.197 1.418.353.578.71 1.153 1.043 1.742.146.26.297.31.537.137.104-.075.213-.144.328-.2.068-.034.152-.037.23-.054-.002.08.013.164-.006.24-.178.693-.358 1.387-.543 2.08-.095.356-.123.373-.47.286-.706-.177-1.41-.358-2.115-.544-.087-.023-.163-.088-.245-.133.06-.055.113-.116.177-.165.194-.15.53-.275.553-.443.027-.2-.21-.44-.34-.657-.234-.402-.457-.81-.715-1.198-.51-.764-.81-.798-1.32.013-.694 1.11-1.35 2.248-2.024 3.37-.232.387-.26.39-.66.16-.31-.18-.615-.36-.927-.532-.193-.105-.277-.235-.15-.44.832-1.36 1.637-2.734 2.51-4.067.43-.66 1.13-.964 1.94-1.014M19.545 25.396c-.33 0-.657.006-.986 0-.252-.008-.365.092-.364.346 0 .188-.042.376-.066.564-.162-.127-.335-.242-.483-.383-.43-.41-.846-.837-1.28-1.245-.173-.165-.23-.288-.026-.48.537-.506 1.054-1.03 1.584-1.542.054-.053.14-.074.212-.11.02.077.055.153.06.232.052.75.05.75.806.75.386 0 .772.004 1.158-.004.17-.003.343-.017.51-.053.49-.105.592-.27.37-.705-.262-.514-.566-1.006-.86-1.503-.44-.74-.887-1.473-1.327-2.21-.2-.336-.194-.352.148-.554.32-.187.645-.364.96-.554.223-.133.37-.127.52.123.695 1.176 1.418 2.337 2.114 3.514.373.63.614 1.3.423 2.05-.19.755-.674 1.254-1.4 1.53-.668.255-1.37.252-2.072.236"/></g></svg>