<?xml version="1.0" encoding="UTF-8" standalone="no"?>
<svg width="59px" height="61px" viewBox="0 0 59 61" version="1.1" xmlns="http://www.w3.org/2000/svg" xmlns:xlink="http://www.w3.org/1999/xlink" xmlns:sketch="http://www.bohemiancoding.com/sketch/ns">
    <!-- Generator: Sketch 3.3.3 (12081) - http://www.bohemiancoding.com/sketch -->
    <title>brown-icn</title>
    <desc>Created with Sketch.</desc>
    <defs></defs>
    <g id="Page-1" stroke="none" stroke-width="1" fill="none" fill-rule="evenodd" sketch:type="MSPage">
        <g id="brown-icn" sketch:type="MSLayerGroup" fill="#FFFFFF">
            <g id="Welcome" sketch:type="MSShapeGroup">
                <g id="Start-Here">
                    <g id="Imported-Layers">
                        <path d="M44.7729319,0.0508664473 C47.1819546,-0.0635830591 49.5909773,0.0508664473 52,0.0508664473 C51.6033143,3.13163536 51.2202797,6.21444075 50.8063292,9.2931732 C49.9443006,15.7088623 44.042195,21.4582189 37.7148968,21.9799621 C36.6348517,22.0687521 35.5295117,21.8394458 34.2250259,21.7416953 C38.1918833,13.7554821 43.7466882,7.5385523 49.8953172,1.77494033 C42.5353513,6.47836701 36.9416006,12.9229739 32.2500288,20.4623861 C29.7370166,17.4769238 29.5527264,14.3513526 30.6046663,11.0995204 C30.6046663,11.0995204 36.0904125,0.152689851 44.7729319,0.0508664473" id="Fill-1"></path>
                        <path d="M59,38.313716 C58.197932,38.9416324 57.3123321,39.4948798 56.6116377,40.2125538 C55.1899741,41.6687937 54.0112018,43.3637424 52.4772163,44.6923099 C48.7320695,47.9371249 44.2781185,48.6849761 39.4734148,47.4140547 C38.358305,47.1192474 37.374981,46.3717831 35.984946,45.6541091 C42.564499,41.7388201 49.3938365,39.7157918 56.5390542,38.4738869 C56.4725531,38.2247322 56.406052,37.9751905 56.3395509,37.7260358 C52.8068833,38.4510606 49.2142024,38.9822555 45.7581732,39.9560482 C42.2932232,40.9321623 38.9645192,42.3497135 35,43.7819665 C35.4176593,42.2994183 35.5599878,40.932936 36.167824,39.7923953 C38.3603325,35.6778599 44.1584976,33.0837875 49.3261189,34.3020924 C52.6600943,35.0878584 55.782807,36.6903413 59,37.9268298 L59,38.313716" id="Fill-2"></path>
                        <path d="M29.5037271,61 C27.482879,59.0045115 27.7119992,56.282481 27.4218062,53.7854183 C26.2765941,43.9320682 27.3735704,34.4173708 31.8198253,25.4706971 C32.0956253,24.9162835 32.4301642,24.3926929 33.0443931,24 C32.6347775,26.2672913 32.1271342,28.5213727 31.8326622,30.8046759 C30.5952574,40.3986325 32.5204119,49.4445803 36.4769174,58.1098441 C36.9277669,59.0981813 37.3712254,60.0256732 36.5057033,61 L29.5037271,61" id="Fill-3"></path>
                        <path d="M25.9811428,37.1477772 C22.7172713,39.9652941 19.1755978,40.256365 15.4984504,39.8552701 C11.3185177,39.3995738 7.83006601,37.5340927 5.04841691,34.3056281 C3.37918554,32.3683029 1.68253684,30.4543784 0,28.5318327 C6.88900658,23.3061045 17.1797777,22.1188309 23.4789085,27.5288903 C25.6928577,29.4304986 27.3729753,31.6662843 26.9282502,35.2720327 C19.034076,31.6207147 11.0080568,29.1012478 2.42280467,28.7736391 C10.5383334,30.4597154 18.4232341,32.7747348 25.9811428,37.1477772" id="Fill-4"></path>
                    </g>
                </g>
            </g>
        </g>
    </g>
</svg>