<svg xmlns="http://www.w3.org/2000/svg" width="48" height="48" viewBox="9 -4 48 48"><path d="M44.026 8.723c1.658 0 3.007-1.363 3.007-3.038s-1.35-3.038-3.007-3.038S41.02 4.01 41.02 5.685s1.35 3.038 3.006 3.038zm0-4.558c.83 0 1.504.682 1.504 1.52s-.675 1.52-1.504 1.52-1.504-.682-1.504-1.52.675-1.52 1.504-1.52zm-7.547 2.26c2.102 2.542 4.093 4.945 7.544 4.945 3.45 0 5.946-2.98 7.597-4.95l.16-.19c.226-.268.24-.66.03-.943C50.01 2.827 47.495 0 44.028 0c-2.896 0-5.114 1.99-7.76 5.198-.232.28-.23.69.003.973l.21.256zm7.544-4.907c2.592 0 4.663 2.147 6.222 4.192-1.537 1.83-3.6 4.142-6.222 4.142-2.66 0-4.254-1.82-6.2-4.168 2.233-2.647 4.012-4.166 6.2-4.166zM53.98 39.07c-.296-1.3-1.727-6.83-2.88-8.37-1.737-2.895-5.336-2.537-5.408-2.522h-2.784c-.122 0-3.05-.077-4.764 2.41-.26.375-.544 1-.873 1.915l-.015.122c-.813-2.618-1.77-5.233-2.586-6.31-2.457-4.125-7.6-3.608-7.735-3.588h-4.15c-.182-.003-4.33-.113-6.763 3.42-1.35 1.954-3.312 9.39-4 12.484-.09.41.16.818.567.91.402.096.806-.164.897-.573.72-3.237 2.63-10.297 3.77-11.95 1.956-2.842 5.444-2.763 5.502-2.77l4.26-.004c.04-.003 4.435-.43 6.383 2.89l.058.086c1.207 1.537 3.228 8.47 3.973 11.752.078.35.388.59.73.59l.17-.02c.403-.093.656-.5.562-.91-.253-1.11-.782-3.168-1.427-5.31.07.065.156.12.256.156.39.142.823-.06.965-.454.365-1.018.59-1.417.692-1.564 1.238-1.797 3.393-1.755 3.503-1.76l2.893-.005c.028 0 2.822-.283 4.058 1.827l.06.084c.786 1.004 2.127 5.618 2.624 7.812.083.35.39.588.734.588l.168-.018c.405-.094.658-.5.566-.91zm-9.63-24.517c-3.632 0-6.585 2.984-6.585 6.652s2.953 6.652 6.584 6.652c3.63 0 6.585-2.984 6.585-6.652s-2.956-6.652-6.588-6.652zm0 11.785c-2.803 0-5.082-2.303-5.082-5.133s2.28-5.133 5.08-5.133c2.805 0 5.086 2.303 5.086 5.133s-2.282 5.133-5.085 5.133zm-19.413-4.826c5.197 0 9.423-4.27 9.423-9.517 0-5.246-4.227-9.514-9.423-9.514-5.194 0-9.42 4.27-9.42 9.517s4.226 9.517 9.42 9.517zm0-17.513c4.367 0 7.92 3.584 7.92 7.993 0 4.41-3.553 8-7.92 8-4.365 0-7.916-3.59-7.916-8S20.575 4 24.94 4z"/></svg>