<svg xmlns="http://www.w3.org/2000/svg" width="35" height="41.001" viewBox="3018 5322 35 41.001"><title>Calendar</title><path d="M3039.714 5342.583c-.21-.252-.455-.476-.73-.665.18-.14.343-.297.492-.47.277-.323.492-.7.642-1.118.144-.408.216-.848.216-1.31 0-.69-.15-1.303-.45-1.822-.288-.5-.67-.916-1.134-1.233-.447-.308-.962-.535-1.53-.677-1.238-.312-2.61-.277-3.67.162-.598.247-1.117.595-1.54 1.033-.43.44-.76.976-.987 1.597-.22.603-.33 1.267-.33 1.975 0 .397.324.72.723.72h.704c.386 0 .704-.303.723-.688.02-.456.095-.883.223-1.266.12-.357.284-.653.5-.9.206-.238.473-.43.793-.572.56-.244 1.33-.298 2.168-.083.327.085.625.214.884.38.24.153.426.344.574.585.133.218.2.476.2.788 0 .407-.082.73-.24.97-.173.256-.394.454-.675.603-.31.165-.663.275-1.05.332-.427.062-.86.082-1.284.06-.192-.006-.39.06-.535.197-.143.135-.224.324-.224.522v.61c0 .2.083.39.23.527.146.136.342.212.542.19.48-.032.95-.015 1.415.052.428.062.81.183 1.14.363.298.163.53.385.712.68.175.283.265.663.265 1.13 0 .39-.075.723-.227 1.02-.154.3-.362.552-.622.752-.262.208-.578.368-.94.478-.844.257-1.8.215-2.5-.05-.372-.142-.675-.333-.925-.59-.248-.25-.433-.555-.567-.937-.135-.38-.194-.828-.173-1.33.01-.195-.063-.385-.2-.527-.137-.14-.325-.22-.52-.22h-.708c-.385 0-.7.3-.722.682-.042.805.05 1.536.272 2.172.23.652.583 1.212 1.052 1.662.458.45 1.03.794 1.69 1.026.637.223 1.358.336 2.14.336.657 0 1.293-.088 1.888-.26.62-.18 1.173-.458 1.64-.83.478-.38.86-.857 1.14-1.415.286-.565.432-1.228.432-1.97 0-.514-.08-1.002-.235-1.446-.154-.452-.384-.862-.68-1.224zm11.43-17.92h-4.62v-1.942c0-.397-.324-.72-.724-.72-.398 0-.722.323-.722.72v1.944h-8.907v-1.943c0-.397-.323-.72-.722-.72s-.723.323-.723.72v1.944h-8.91v-1.943c0-.397-.322-.72-.72-.72s-.724.323-.724.72v1.944h-4.513c-1.023 0-1.858.83-1.858 1.852v34.688c.033 1.007.846 1.797 1.857 1.797h31.287c1.01 0 1.824-.79 1.855-1.82v-34.664c0-1.022-.833-1.852-1.855-1.852zm-5.344 5.048c.153 0 .29-.057.406-.14-.103.104-.245.168-.4.168-.105 0-.197-.036-.282-.083.087.036.18.056.276.056zm-10.35 0c.098 0 .193-.02.28-.055-.085.048-.176.083-.28.083-.105 0-.197-.036-.28-.083.086.037.18.056.28.056zm-10.355 0c.1 0 .195-.02.28-.055-.082.048-.174.083-.278.083s-.196-.036-.28-.083c.085.037.178.056.278.056zm-5.237 31.85c-.223 0-.404-.177-.41-.38v-6.17h21.055c-.484 2.038-1.462 4.663-3.416 6.55h-17.23zm31.696-.4c-.007.22-.19.4-.41.4h-11.69c1.237-1.082 2.502-2.4 3.82-3.777l.7-.733c2.07-2.157 5.428-5.82 7.58-8.988v13.097zm-10.456-3.196c.91-2.278 1.197-4.437 1.287-5.427.814-.205 2.48-.697 4.792-1.752.294-.135.58-.284.86-.444-1.767 2.165-3.73 4.278-5.106 5.714l-.703.735c-.38.397-.757.79-1.13 1.174zm10.456-12.735c-.547.72-2.48 3.1-4.98 4.244-3.094 1.414-4.98 1.764-5.002 1.768-.333.06-.582.345-.594.684 0 .02-.028.665-.185 1.642h-21.345l-.002-27.053c0-.226.185-.41.412-.41h4.514v1.198c-.755.29-1.292 1.017-1.292 1.87 0 1.107.904 2.007 2.016 2.007 1.108 0 2.012-.9 2.012-2.008 0-.854-.54-1.58-1.292-1.87v-1.197h8.91v1.197c-.755.29-1.294 1.017-1.294 1.87 0 1.108.906 2.008 2.018 2.008 1.11 0 2.012-.9 2.012-2.008 0-.854-.54-1.58-1.292-1.87v-1.197h8.907v1.198c-.753.292-1.29 1.017-1.29 1.87 0 1.107.904 2.007 2.016 2.007 1.108 0 2.012-.9 2.012-2.008 0-.854-.54-1.58-1.294-1.87v-1.197h4.623c.226 0 .41.185.41.41v18.714z"/></svg>