<svg xmlns="http://www.w3.org/2000/svg" width="317" height="317" viewBox="2877.5 5254.5 317 317"><title>Circle Indicator</title><path d="M3035.925 5571.5c-.688 0-1.374-.005-2.06-.014l.12-9c.646.01 1.292.014 1.94.014v9zm2.053-.012l-.105-9c.646-.007 1.292-.02 1.938-.036l.226 8.998c-.686.017-1.373.03-2.058.038zm-6.17-.043c-.685-.018-1.37-.04-2.052-.065l.343-8.994c.647.025 1.295.046 1.945.063l-.237 8.995zm10.28-.06l-.344-8.994c.648-.023 1.297-.052 1.944-.084l.45 8.988c-.683.034-1.367.064-2.05.09zm-14.39-.1c-.686-.034-1.37-.074-2.055-.12l.58-8.98c.645.042 1.29.08 1.937.113l-.46 8.988zm18.495-.108l-.566-8.982c.646-.04 1.29-.086 1.936-.136l.686 8.974c-.686.05-1.37.1-2.057.143zm-22.603-.156c-.683-.052-1.365-.11-2.046-.17l.806-8.965c.645.06 1.29.112 1.94.163l-.7 8.973zm26.708-.156l-.803-8.965c.646-.06 1.29-.12 1.93-.187l.925 8.953c-.683.07-1.367.137-2.052.198zm-30.803-.213c-.684-.07-1.367-.145-2.048-.225l1.043-8.94c.64.076 1.283.147 1.927.213l-.922 8.953zm34.895-.206l-1.027-8.94c.643-.074 1.285-.153 1.925-.235l1.148 8.925c-.68.087-1.363.17-2.046.25zm-38.986-.27c-.682-.09-1.363-.182-2.042-.28l1.28-8.907c.64.092 1.28.18 1.92.262l-1.158 8.924zm43.072-.256l-1.266-8.91c.64-.09 1.28-.186 1.918-.285l1.385 8.893c-.678.105-1.358.205-2.037.302zm-47.15-.327c-.677-.105-1.353-.216-2.027-.33l1.503-8.873c.64.108 1.28.213 1.92.313l-1.397 8.89zm51.213-.303l-1.49-8.877c.64-.106 1.274-.218 1.91-.334l1.61 8.855c-.675.124-1.352.243-2.03.357zm-55.27-.385c-.676-.124-1.35-.252-2.024-.385l1.74-8.83c.635.125 1.27.245 1.905.36l-1.62 8.855zm59.322-.353l-1.725-8.835c.635-.123 1.268-.25 1.897-.384l1.85 8.81c-.673.14-1.346.276-2.022.41zm-63.363-.444c-.672-.142-1.34-.287-2.01-.437l1.966-8.784c.632.142 1.266.28 1.9.413l-1.857 8.806zm67.388-.4l-1.95-8.786c.632-.14 1.26-.284 1.89-.433l2.07 8.758c-.668.158-1.338.313-2.01.462zm-71.405-.498c-.67-.16-1.337-.322-2.003-.49l2.203-8.727c.626.16 1.253.313 1.882.462l-2.082 8.756zm75.423-.45l-2.2-8.728c.632-.16 1.262-.32 1.89-.486l2.296 8.7c-.66.176-1.322.346-1.986.513zm-79.413-.554c-.667-.177-1.333-.357-1.997-.545l2.44-8.663c.618.174 1.24.343 1.86.508l-2.303 8.7zm83.39-.498l-2.423-8.668c.625-.175 1.247-.352 1.87-.534l2.53 8.637c-.656.193-1.316.38-1.976.566zm-87.36-.61c-.656-.194-1.31-.392-1.964-.592l2.64-8.604c.62.19 1.24.378 1.865.562l-2.542 8.633zm91.304-.543l-2.633-8.607c.618-.188 1.232-.382 1.845-.58l2.76 8.567c-.657.21-1.314.418-1.973.62zm-95.242-.67c-.656-.212-1.31-.43-1.962-.647l2.866-8.53c.614.206 1.23.41 1.85.608l-2.755 8.568zm99.17-.594l-2.873-8.53c.613-.207 1.227-.416 1.838-.63l2.98 8.49c-.646.228-1.294.45-1.945.67zm-103.087-.728c-.65-.23-1.3-.46-1.945-.697l3.092-8.453c.61.223 1.22.443 1.833.658l-2.98 8.492zm106.974-.635l-3.098-8.45c.61-.224 1.22-.45 1.827-.68l3.192 8.414c-.638.244-1.278.482-1.92.717zm-110.854-.788c-.646-.247-1.29-.497-1.93-.752l3.325-8.363c.6.24 1.204.474 1.81.704l-3.205 8.41zm114.7-.674l-3.31-8.37c.602-.237 1.202-.478 1.8-.725l3.418 8.327c-.635.26-1.27.517-1.91.77zm-118.543-.85c-.637-.264-1.27-.53-1.904-.8l3.537-8.276c.597.255 1.196.506 1.796.753l-3.428 8.322zm122.347-.71l-3.535-8.278c.595-.254 1.188-.51 1.78-.77l3.63 8.235c-.624.274-1.25.545-1.875.812zm-126.142-.913c-.63-.28-1.26-.562-1.887-.85l3.76-8.18c.588.272 1.178.537 1.77.8l-3.643 8.23zm129.884-.74l-3.73-8.19c.586-.267 1.17-.538 1.754-.813l3.838 8.14c-.62.29-1.24.58-1.862.863zm-133.642-.982c-.622-.295-1.242-.594-1.86-.897l3.973-8.076c.582.286 1.166.567 1.75.846l-3.863 8.128zm137.357-.77l-3.952-8.086c.58-.284 1.16-.57 1.735-.862l4.05 8.037c-.61.306-1.22.61-1.834.91zm-141.063-1.048c-.614-.312-1.226-.627-1.835-.947l4.182-7.97c.574.302 1.15.6 1.73.892l-4.077 8.025zm144.726-.802l-4.162-7.98c.574-.3 1.145-.6 1.713-.906l4.262 7.928c-.602.323-1.206.642-1.812.958zm-148.377-1.11c-.605-.327-1.21-.658-1.81-.993l4.382-7.86c.566.314 1.133.626 1.704.934l-4.276 7.92zm151.99-.832l-4.364-7.87c.563-.313 1.126-.63 1.686-.95l4.47 7.812c-.597.34-1.193.676-1.79 1.008zm-155.596-1.177c-.595-.342-1.188-.687-1.778-1.036l4.58-7.746c.56.33 1.12.657 1.684.98l-4.486 7.803zm159.162-.86l-4.57-7.755c.557-.328 1.11-.66 1.663-.994l4.668 7.696c-.585.355-1.17.705-1.76 1.053zm-162.71-1.238c-.585-.357-1.17-.72-1.75-1.084l4.78-7.625c.55.345 1.102.686 1.656 1.023l-4.685 7.686zm166.216-.89l-4.762-7.638c.55-.342 1.093-.687 1.636-1.035l4.863 7.57c-.576.372-1.155.738-1.737 1.1zm-169.706-1.302c-.577-.373-1.152-.75-1.724-1.13l4.98-7.496c.54.358 1.082.714 1.626 1.065l-4.882 7.56zm173.164-.92l-4.96-7.51c.537-.355 1.073-.715 1.606-1.077l5.062 7.44c-.565.388-1.135.768-1.708 1.146zm-176.6-1.362c-.566-.39-1.13-.78-1.692-1.174l5.176-7.363c.53.374 1.062.743 1.598 1.108l-5.08 7.43zm180-.948l-5.157-7.375c.53-.37 1.058-.745 1.583-1.122l5.248 7.31c-.554.4-1.112.794-1.673 1.187zm-183.37-1.418c-.557-.402-1.11-.81-1.663-1.217l5.363-7.23c.52.388 1.042.77 1.568 1.15l-5.268 7.297zm186.71-.98l-5.35-7.238c.52-.384 1.037-.77 1.553-1.162l5.438 7.17c-.544.414-1.093.823-1.643 1.23zm-190.017-1.474c-.547-.416-1.09-.835-1.628-1.257l5.54-7.09c.512.397 1.025.795 1.54 1.187l-5.453 7.16zm193.29-1.008l-5.53-7.102c.51-.396 1.016-.796 1.52-1.2l5.625 7.026c-.536.43-1.074.854-1.616 1.276zm-196.535-1.532c-.536-.43-1.068-.864-1.598-1.303l5.732-6.938c.498.41 1 .82 1.503 1.225l-5.638 7.016zm199.74-1.034l-5.706-6.96c.5-.41.995-.822 1.49-1.238l5.798 6.883c-.524.44-1.05.88-1.582 1.314zm-202.914-1.585c-.523-.444-1.043-.892-1.56-1.342l5.902-6.793c.49.425.98.847 1.474 1.265l-5.815 6.87zm206.06-1.065l-5.885-6.81c.488-.422.974-.848 1.457-1.276l5.977 6.728c-.513.456-1.03.91-1.55 1.357zm-209.167-1.64c-.512-.458-1.02-.92-1.526-1.382l6.08-6.635c.478.438.958.87 1.44 1.303l-5.994 6.714zm212.24-1.09l-6.053-6.66c.477-.433.95-.87 1.42-1.31l6.15 6.57c-.503.47-1.008.938-1.517 1.4zm-215.275-1.692c-.5-.47-.995-.942-1.49-1.418l6.25-6.48c.465.45.934.898 1.407 1.343l-6.167 6.555zm218.28-1.117l-6.224-6.5c.466-.446.928-.896 1.387-1.35l6.32 6.41c-.49.485-.984.964-1.48 1.44zm-221.24-1.74c-.487-.48-.972-.967-1.453-1.455l6.413-6.313c.454.46.91.92 1.37 1.374l-6.33 6.397zm224.183-1.156l-6.41-6.318c.458-.463.913-.93 1.365-1.396l6.475 6.25c-.474.49-.95.978-1.43 1.464zm-227.067-1.773c-.476-.496-.948-.994-1.418-1.497l6.578-6.143c.44.472.884.94 1.33 1.405l-6.49 6.235zm229.918-1.184l-6.558-6.164c.444-.474.885-.948 1.322-1.425l6.635 6.08c-.464.506-.93 1.008-1.4 1.508zm-232.727-1.82c-.463-.51-.922-1.02-1.378-1.534l6.734-5.972c.428.483.86.963 1.293 1.44l-6.65 6.064zm235.507-1.215l-6.715-5.992c.432-.483.86-.97 1.284-1.458l6.79 5.906c-.45.518-.903 1.032-1.36 1.544zm-238.238-1.865c-.448-.518-.893-1.04-1.334-1.562l6.883-5.798c.418.494.838.986 1.26 1.477l-6.808 5.883zm240.937-1.24l-6.864-5.82c.417-.493.832-.99 1.244-1.488l6.94 5.73c-.436.528-.877 1.055-1.32 1.578zm-243.587-1.904c-.435-.53-.866-1.063-1.294-1.6l7.03-5.618c.403.506.81 1.008 1.22 1.508l-6.957 5.71zm246.21-1.276l-7.02-5.635c.407-.507.81-1.015 1.21-1.525l7.087 5.547c-.422.54-.848 1.077-1.278 1.612zm-248.777-1.937c-.42-.54-.835-1.08-1.25-1.625l7.168-5.443c.392.516.787 1.03 1.185 1.542l-7.104 5.525zm251.315-1.306l-7.16-5.45c.392-.516.78-1.034 1.167-1.555l7.23 5.36c-.41.55-.82 1.1-1.236 1.646zm-253.795-1.967c-.407-.552-.81-1.106-1.21-1.664l7.312-5.247c.376.524.756 1.046 1.14 1.564l-7.242 5.346zm256.247-1.34l-7.297-5.27c.38-.525.755-1.054 1.128-1.584l7.363 5.175c-.394.562-.792 1.122-1.194 1.677zm-258.644-1.998c-.393-.562-.78-1.126-1.167-1.693l7.446-5.057c.363.534.73 1.065 1.098 1.594l-7.376 5.155zm261.01-1.372l-7.428-5.084c.365-.534.727-1.07 1.085-1.61l7.496 4.98c-.38.574-.764 1.145-1.152 1.713zm-263.318-2.027c-.378-.572-.753-1.147-1.124-1.726l7.576-4.857c.348.543.7 1.083 1.055 1.62l-7.507 4.963zm265.6-1.407l-7.56-4.886c.35-.544.698-1.09 1.042-1.638l7.625 4.78c-.365.584-.734 1.165-1.108 1.743zm-267.82-2.05c-.363-.583-.722-1.166-1.077-1.752l7.698-4.662c.335.553.674 1.103 1.016 1.65l-7.637 4.763zm270.01-1.446l-7.685-4.684c.337-.553.67-1.107 1-1.665l7.748 4.578c-.35.594-.703 1.184-1.062 1.77zm-272.14-2.07c-.346-.588-.688-1.18-1.027-1.77l7.812-4.47c.32.563.646 1.123.974 1.68l-7.76 4.56zm274.243-1.48l-7.81-4.478c.324-.562.644-1.128.96-1.695l7.863 4.38c-.334.6-.672 1.197-1.013 1.793zm-276.278-2.08c-.332-.6-.66-1.2-.984-1.802l7.93-4.262c.304.568.613 1.135.926 1.698l-7.87 4.366zm278.283-1.523l-7.92-4.274c.31-.57.612-1.144.913-1.718l7.976 4.172c-.32.61-.642 1.216-.968 1.82zm-280.226-2.094c-.316-.606-.628-1.216-.936-1.827l8.036-4.052c.29.576.585 1.15.882 1.722l-7.982 4.156zm282.137-1.555l-8.024-4.077c.293-.575.58-1.152.864-1.733l8.084 3.957c-.304.62-.613 1.238-.925 1.854zm-283.986-2.106c-.3-.615-.597-1.232-.89-1.854l8.14-3.838c.275.582.554 1.162.837 1.74l-8.086 3.952zm285.8-1.598l-8.126-3.867c.277-.584.55-1.17.82-1.757l8.183 3.744c-.286.63-.578 1.255-.875 1.88zm-287.55-2.112c-.285-.62-.564-1.245-.84-1.87l8.235-3.63c.26.59.523 1.178.79 1.764l-8.187 3.736zm289.274-1.646l-8.23-3.643c.263-.593.52-1.188.776-1.786l8.277 3.533c-.27.634-.544 1.265-.822 1.895zm-290.93-2.105c-.267-.63-.53-1.263-.79-1.898l8.33-3.404c.243.596.49 1.19.742 1.778l-8.28 3.525zm292.553-1.697l-8.323-3.42c.246-.6.49-1.202.73-1.806l8.368 3.31c-.254.642-.512 1.28-.774 1.916zm-294.11-2.107c-.25-.64-.5-1.278-.743-1.92l8.413-3.196c.23.605.464 1.21.702 1.812l-8.372 3.303zm295.633-1.735l-8.412-3.2c.23-.606.46-1.216.684-1.828l8.45 3.098c-.236.645-.477 1.29-.72 1.93zm-297.094-2.113c-.236-.645-.468-1.29-.694-1.938l8.494-2.975c.214.61.432 1.22.653 1.826l-8.454 3.086zm298.512-1.763l-8.49-2.985c.215-.612.427-1.227.634-1.843l8.53 2.873c-.222.654-.445 1.305-.674 1.954zm-299.875-2.126c-.218-.65-.432-1.3-.642-1.953l8.568-2.755c.198.617.4 1.233.606 1.848l-8.533 2.86zm301.198-1.798l-8.57-2.748c.2-.62.395-1.242.587-1.866l8.602 2.648c-.203.657-.41 1.312-.62 1.966zm-302.456-2.122c-.202-.655-.4-1.312-.592-1.972l8.64-2.525c.18.62.366 1.24.556 1.858l-8.605 2.64zm303.67-1.824l-8.642-2.52c.182-.624.36-1.248.536-1.875l8.668 2.424c-.184.658-.372 1.315-.563 1.97zm-304.825-2.127c-.184-.66-.364-1.323-.54-1.986l8.702-2.3c.165.625.334 1.25.508 1.872l-8.67 2.413zm305.928-1.83l-8.7-2.31c.167-.626.33-1.253.488-1.882l8.728 2.2c-.167.667-.34 1.33-.515 1.993zm-306.98-2.15c-.168-.667-.33-1.334-.487-2.002l8.76-2.067c.148.63.3 1.26.458 1.886l-8.732 2.182zm307.983-1.84l-8.754-2.087c.148-.627.294-1.256.435-1.887l8.783 1.962c-.15.672-.304 1.342-.464 2.01zm-308.93-2.168c-.15-.67-.294-1.338-.435-2.01l8.81-1.844c.134.637.27 1.27.41 1.9l-8.785 1.955zm309.83-1.855l-8.81-1.85c.134-.633.264-1.268.39-1.904l8.83 1.74c-.133.673-.27 1.345-.41 2.014zm-310.673-2.175c-.13-.672-.258-1.346-.38-2.02l8.853-1.612c.116.64.236 1.275.36 1.91l-8.833 1.722zm311.466-1.862l-8.853-1.623c.116-.635.228-1.27.336-1.908l8.873 1.5c-.114.68-.233 1.356-.357 2.03zm-312.203-2.188c-.114-.676-.223-1.353-.328-2.03l8.893-1.378c.1.64.202 1.28.31 1.916l-8.876 1.492zm312.89-1.873l-8.894-1.385c.1-.64.195-1.282.288-1.925l8.91 1.28c-.097.677-.2 1.354-.304 2.03zm-313.52-2.194c-.097-.68-.19-1.358-.276-2.04l8.928-1.145c.083.643.17 1.283.26 1.923l-8.912 1.262zm314.1-1.877l-8.923-1.16c.083-.64.16-1.28.236-1.925l8.94 1.04c-.08.683-.163 1.365-.252 2.046zm-314.625-2.206c-.08-.68-.153-1.362-.223-2.045l8.952-.917c.066.646.136 1.29.21 1.932l-8.94 1.03zm315.102-1.885l-8.953-.925c.067-.643.13-1.285.188-1.93l8.965.803c-.062.686-.128 1.37-.2 2.05zm-315.52-2.21c-.062-.683-.12-1.366-.17-2.053l8.975-.678c.048.645.1 1.29.16 1.932l-8.967.8zm315.89-1.886l-8.974-.7c.05-.644.096-1.288.138-1.935l8.98.58c-.043.685-.09 1.37-.145 2.054zm-316.204-2.217c-.043-.684-.082-1.368-.116-2.055l8.988-.453c.033.646.07 1.294.11 1.938l-8.982.57zm316.468-1.892l-8.988-.462c.033-.646.062-1.292.087-1.938l8.994.342c-.026.687-.057 1.372-.092 2.058zm-316.674-2.217c-.026-.682-.047-1.365-.064-2.05l8.997-.225c.016.647.036 1.292.06 1.937l-8.993.338zm316.83-1.893l-8.995-.238c.016-.646.028-1.292.036-1.94l9 .12c-.01.686-.022 1.372-.04 2.058zm-316.932-2.214c-.008-.645-.012-1.29-.012-1.937v-.115h9v.112c0 .61.004 1.224.01 1.836l-8.998.105zM3190 5413.04h-4.5c0-.67-.005-1.308-.013-1.946l9-.107c.008.67.012 1.34.013 2.01l-4.5.043zm-303.486-2.09l-9-.118c.01-.688.023-1.374.042-2.06l8.997.238c-.018.646-.03 1.292-.04 1.94zm298.937-1.8c-.014-.644-.034-1.287-.06-1.928l8.994-.344c.025.686.048 1.372.064 2.06l-8.997.21zm-298.835-2.083l-8.993-.35c.027-.686.058-1.372.094-2.057l8.988.47c-.034.644-.064 1.29-.09 1.937zm298.69-1.785c-.033-.65-.07-1.296-.11-1.943l8.98-.567c.044.682.083 1.366.118 2.05l-8.988.46zm-298.488-2.093l-8.98-.58c.043-.686.092-1.37.145-2.054l8.973.7c-.05.643-.097 1.288-.138 1.934zm298.24-1.787c-.05-.646-.103-1.29-.16-1.932l8.964-.806c.062.683.12 1.368.172 2.053l-8.975.685zm-297.94-2.085l-8.963-.81c.062-.686.128-1.37.2-2.05l8.95.93c-.066.642-.128 1.285-.186 1.93zm297.593-1.78c-.066-.646-.137-1.29-.21-1.934l8.94-1.03c.078.68.152 1.36.223 2.043l-8.953.922zm-297.192-2.08l-8.938-1.047c.08-.682.164-1.363.252-2.042l8.925 1.162c-.084.64-.163 1.283-.24 1.927zm296.745-1.78c-.083-.642-.17-1.282-.26-1.92l8.91-1.27c.096.68.188 1.36.275 2.043l-8.925 1.147zm-296.244-2.07l-8.91-1.278c.098-.68.2-1.358.305-2.035l8.892 1.392c-.1.64-.196 1.28-.288 1.92zm295.697-1.77c-.1-.64-.203-1.278-.31-1.915l8.872-1.504c.114.677.224 1.355.33 2.034l-8.893 1.384zm-295.097-2.066l-8.873-1.51c.115-.678.235-1.354.36-2.03l8.85 1.63c-.117.635-.23 1.27-.337 1.91zm294.45-1.768c-.116-.636-.236-1.27-.36-1.903l8.832-1.73c.132.674.26 1.35.383 2.026l-8.856 1.606zm-293.75-2.052l-8.83-1.738c.13-.674.27-1.347.41-2.018l8.807 1.855c-.134.63-.262 1.264-.388 1.9zm293.003-1.754c-.133-.635-.27-1.268-.41-1.9l8.785-1.953c.148.668.293 1.338.434 2.01l-8.81 1.843zm-292.203-2.045l-8.782-1.97c.15-.67.305-1.338.464-2.005l8.755 2.085c-.15.63-.296 1.26-.437 1.89zm291.358-1.745c-.148-.63-.302-1.256-.458-1.882l8.73-2.19c.167.667.33 1.334.488 2.004l-8.76 2.068zm-290.46-2.03l-8.728-2.2c.167-.664.34-1.328.515-1.99l8.698 2.31c-.165.625-.327 1.252-.486 1.88zm289.518-1.73c-.166-.627-.336-1.252-.51-1.876l8.67-2.416c.184.66.363 1.32.54 1.985l-8.7 2.304zm-288.52-2.022l-8.668-2.424c.186-.663.375-1.323.568-1.98l8.635 2.538c-.182.62-.36 1.242-.535 1.865zm287.48-1.713c-.184-.624-.37-1.246-.56-1.867l8.603-2.64c.2.653.395 1.308.59 1.964l-8.634 2.543zm-286.386-2.01l-8.6-2.65c.202-.66.41-1.317.622-1.973l8.564 2.765c-.2.617-.395 1.236-.586 1.857zm285.245-1.702c-.2-.62-.402-1.235-.608-1.85l8.53-2.864c.22.648.433 1.298.643 1.95l-8.565 2.764zm-284.047-2.01l-8.53-2.874c.222-.654.446-1.306.675-1.956l8.49 2.99c-.216.61-.428 1.225-.635 1.84zm282.808-1.675c-.214-.61-.432-1.22-.653-1.827l8.453-3.09c.235.646.467 1.292.694 1.94l-8.494 2.977zm-281.515-2l-8.45-3.098c.238-.647.48-1.292.724-1.934l8.41 3.21c-.232.606-.46 1.214-.683 1.824zm280.183-1.65c-.23-.602-.463-1.204-.7-1.804l8.37-3.312c.252.64.5 1.28.744 1.924l-8.414 3.192zm-278.793-1.987l-8.364-3.322c.254-.64.512-1.277.773-1.913l8.32 3.43c-.246.6-.49 1.2-.73 1.806zm277.37-1.614c-.247-.598-.496-1.194-.75-1.788l8.282-3.524c.267.626.53 1.255.79 1.886l-8.323 3.426zm-275.886-1.987l-8.274-3.54c.27-.632.545-1.263.823-1.89l8.23 3.644c-.264.592-.524 1.188-.78 1.785zm274.366-1.578c-.26-.59-.523-1.177-.79-1.762l8.188-3.736c.284.62.564 1.245.84 1.872l-8.238 3.625zm-272.788-1.983l-8.18-3.752c.287-.627.578-1.25.874-1.874l8.127 3.866c-.277.585-.55 1.17-.82 1.76zm271.184-1.53c-.276-.582-.556-1.163-.84-1.742l8.085-3.956c.302.614.6 1.23.89 1.85l-8.134 3.85zm-269.514-1.986l-8.08-3.964c.303-.618.61-1.234.922-1.848l8.026 4.072c-.294.578-.583 1.158-.868 1.74zm267.814-1.49c-.292-.577-.587-1.15-.885-1.724l7.983-4.157c.315.606.628 1.214.936 1.824l-8.034 4.058zm-266.055-1.98l-7.97-4.176c.318-.61.64-1.215.967-1.82l7.918 4.278c-.307.57-.612 1.144-.914 1.72zm264.268-1.45c-.307-.57-.616-1.137-.93-1.702l7.87-4.365c.332.598.66 1.198.983 1.8l-7.922 4.268zm-262.416-1.972l-7.86-4.382c.334-.6.673-1.2 1.016-1.796l7.802 4.486c-.323.562-.643 1.126-.958 1.692zm260.536-1.416c-.32-.56-.644-1.117-.972-1.672l7.752-4.573c.348.59.692 1.183 1.032 1.778l-7.812 4.467zm-258.598-1.956l-7.744-4.586c.35-.592.705-1.18 1.062-1.768l7.683 4.688c-.336.553-.67 1.108-1 1.666zm256.63-1.38c-.333-.552-.67-1.1-1.013-1.648l7.63-4.77c.364.58.724 1.164 1.08 1.75l-7.696 4.667zm-254.605-1.94l-7.622-4.786c.365-.582.734-1.16 1.107-1.738l7.56 4.883c-.35.545-.7 1.09-1.045 1.64zm252.555-1.347c-.35-.542-.7-1.082-1.056-1.62l7.504-4.967c.38.572.754 1.146 1.124 1.724l-7.572 4.863zm-250.445-1.92l-7.495-4.98c.38-.573.765-1.144 1.154-1.71l7.427 5.082c-.365.532-.726 1.07-1.085 1.608zm248.307-1.31c-.363-.536-.73-1.068-1.1-1.598l7.378-5.153c.392.56.78 1.124 1.165 1.69l-7.443 5.06zm-246.113-1.898l-7.363-5.177c.395-.562.792-1.12 1.194-1.677l7.298 5.27c-.38.525-.756 1.052-1.13 1.583zm243.893-1.28c-.378-.524-.758-1.047-1.142-1.566l7.24-5.35c.406.55.81 1.105 1.21 1.662l-7.307 5.254zm-241.618-1.872l-7.228-5.363c.41-.55.822-1.1 1.24-1.647l7.155 5.458c-.392.515-.78 1.032-1.167 1.552zm239.315-1.244c-.392-.516-.786-1.03-1.184-1.54l7.098-5.533c.42.54.837 1.083 1.252 1.628l-7.166 5.446zm-236.958-1.848l-7.088-5.547c.424-.542.85-1.08 1.28-1.616l7.014 5.642c-.405.504-.807 1.01-1.206 1.52zm234.573-1.215c-.404-.503-.81-1.005-1.22-1.505l6.952-5.714c.436.53.867 1.063 1.295 1.6l-7.027 5.62zm-232.14-1.81l-6.937-5.73c.437-.53.875-1.054 1.318-1.577l6.87 5.815c-.42.495-.837.992-1.25 1.493zm229.677-1.186c-.418-.495-.838-.987-1.26-1.476l6.806-5.89c.448.52.894 1.04 1.335 1.564l-6.88 5.802zm-227.163-1.778l-6.79-5.907c.45-.52.904-1.034 1.362-1.546l6.71 5.998c-.43.482-.858.966-1.283 1.454zm224.624-1.156c-.43-.483-.86-.963-1.297-1.44l6.648-6.067c.463.507.92 1.018 1.377 1.53l-6.728 5.977zm-222.04-1.738l-6.63-6.085c.462-.504.928-1.005 1.396-1.504l6.56 6.163c-.445.473-.887.948-1.325 1.426zm219.427-1.128c-.44-.473-.887-.942-1.335-1.41l6.488-6.236c.476.494.946.992 1.416 1.493l-6.57 6.154zm-216.764-1.702l-6.475-6.25c.477-.494.957-.985 1.44-1.472l6.393 6.334c-.455.46-.907.923-1.357 1.388zm214.08-1.097c-.457-.462-.916-.922-1.377-1.38l6.33-6.395c.485.48.968.964 1.45 1.45l-6.405 6.325zm-211.348-1.66l-6.31-6.418c.488-.48.98-.96 1.475-1.434l6.228 6.498c-.467.45-.93.9-1.392 1.354zm208.586-1.07c-.468-.45-.937-.897-1.41-1.34l6.16-6.563c.5.47.997.94 1.49 1.417l-6.24 6.484zm-205.785-1.617l-6.144-6.578c.5-.467 1.004-.932 1.51-1.393l6.06 6.653c-.477.437-.953.876-1.427 1.318zm202.947-1.048c-.476-.436-.954-.868-1.437-1.298l5.988-6.72c.514.46 1.025.92 1.532 1.386l-6.083 6.632zm-200.076-1.565l-5.972-6.732c.513-.455 1.03-.907 1.55-1.356l5.88 6.812c-.488.42-.974.846-1.457 1.275zm197.183-1.016c-.49-.426-.98-.848-1.476-1.267l5.814-6.87c.524.444 1.044.89 1.563 1.34l-5.9 6.796zm-194.248-1.523l-5.796-6.885c.522-.44 1.05-.88 1.578-1.313l5.71 6.956c-.5.41-.998.825-1.493 1.24zm191.278-.992c-.497-.41-.997-.818-1.5-1.222l5.63-7.02c.537.43 1.072.864 1.603 1.303l-5.733 6.94zm-188.277-1.468l-5.618-7.03c.535-.43 1.073-.853 1.614-1.274l5.527 7.104c-.512.396-1.02.797-1.524 1.2zm185.253-.96c-.51-.4-1.023-.795-1.54-1.188l5.45-7.163c.547.416 1.09.835 1.632 1.258l-5.543 7.09zm-182.194-1.42l-5.433-7.176c.546-.412 1.094-.822 1.645-1.228l5.342 7.243c-.52.384-1.04.77-1.554 1.162zm179.1-.935c-.52-.386-1.045-.77-1.57-1.15l5.267-7.297c.556.4 1.11.806 1.66 1.213l-5.356 7.234zm-175.98-1.366l-5.245-7.313c.557-.398 1.115-.793 1.676-1.186l5.154 7.378c-.53.37-1.058.744-1.584 1.12zm172.828-.908c-.53-.372-1.062-.74-1.6-1.106l5.073-7.435c.567.387 1.133.778 1.694 1.172l-5.166 7.368zm-169.65-1.31l-5.054-7.447c.566-.383 1.134-.764 1.705-1.14l4.962 7.508c-.54.356-1.077.716-1.612 1.08zm166.437-.883c-.537-.357-1.078-.71-1.622-1.062l4.875-7.565c.58.373 1.155.75 1.73 1.13l-4.982 7.497zm-163.2-1.254l-4.863-7.572c.576-.37 1.155-.736 1.736-1.1l4.763 7.638c-.548.34-1.093.686-1.636 1.035zm159.934-.853c-.55-.344-1.1-.685-1.653-1.02l4.68-7.69c.588.358 1.174.72 1.756 1.085l-4.782 7.625zm-156.648-1.195l-4.662-7.698c.585-.354 1.172-.705 1.763-1.052l4.562 7.758c-.56.327-1.113.658-1.664.992zm153.33-.826c-.56-.33-1.12-.657-1.685-.98l4.483-7.805c.595.343 1.188.688 1.78 1.037l-4.578 7.75zm-149.992-1.138l-4.463-7.815c.595-.34 1.19-.674 1.79-1.006l4.362 7.872c-.565.31-1.128.628-1.688.948zm146.62-.797c-.57-.315-1.14-.627-1.71-.936l4.275-7.92c.603.326 1.206.657 1.806.99l-4.373 7.867zm-143.233-1.078l-4.258-7.93c.604-.323 1.208-.643 1.816-.96l4.15 7.986c-.57.298-1.14.6-1.707.904zm139.805-.77c-.573-.3-1.148-.597-1.728-.89l4.062-8.03c.613.31 1.226.625 1.836.944l-4.17 7.975zm-136.37-1.017l-4.053-8.036c.61-.31 1.224-.613 1.84-.914l3.942 8.09c-.578.283-1.155.57-1.73.86zm132.898-.743c-.58-.285-1.164-.566-1.75-.843l3.85-8.136c.624.295 1.243.594 1.86.897l-3.96 8.082zm-129.423-.952l-3.84-8.14c.62-.292 1.238-.58 1.86-.863l3.736 8.188c-.587.268-1.173.54-1.756.815zm125.91-.713c-.593-.27-1.185-.538-1.78-.8l3.644-8.23c.628.278 1.255.56 1.88.846l-3.745 8.184zm-122.39-.893l-3.63-8.236c.626-.275 1.254-.547 1.883-.814l3.52 8.283c-.593.25-1.184.507-1.774.767zm118.823-.683c-.595-.253-1.192-.503-1.79-.75l3.42-8.324c.64.262 1.275.53 1.91.8l-3.54 8.275zm-115.267-.828l-3.41-8.33c.634-.258 1.27-.514 1.907-.766l3.31 8.37c-.605.24-1.207.48-1.807.726zm111.67-.65c-.605-.24-1.21-.476-1.82-.708l3.208-8.41c.642.246 1.282.495 1.922.748l-3.31 8.37zm-108.058-.774l-3.192-8.415c.64-.243 1.284-.482 1.93-.717l3.083 8.455c-.61.223-1.217.45-1.822.678zm104.415-.615c-.608-.223-1.22-.442-1.832-.657l2.98-8.492c.65.23 1.3.46 1.948.698l-3.095 8.45zm-100.766-.716l-2.975-8.494c.647-.227 1.295-.448 1.945-.667l2.868 8.53c-.614.207-1.227.417-1.838.63zm97.09-.575c-.614-.207-1.23-.41-1.85-.608l2.756-8.568c.657.21 1.312.427 1.965.647l-2.87 8.53zm-93.41-.658l-2.75-8.57c.652-.21 1.308-.414 1.965-.615l2.636 8.604c-.62.19-1.236.383-1.85.58zm89.702-.536c-.618-.19-1.237-.376-1.858-.558l2.527-8.638c.66.193 1.317.39 1.974.593l-2.645 8.603zm-85.994-.6l-2.52-8.64c.657-.192 1.316-.38 1.978-.564l2.41 8.67c-.624.175-1.247.352-1.868.534zm82.265-.493c-.62-.174-1.246-.343-1.87-.51l2.306-8.698c.664.176 1.326.356 1.987.54l-2.422 8.668zm-78.523-.547l-2.296-8.702c.664-.175 1.33-.346 1.996-.513l2.18 8.732c-.628.157-1.255.318-1.88.483zm74.773-.447c-.626-.156-1.254-.31-1.884-.458l2.074-8.758c.67.16 1.336.32 2 .49l-2.19 8.727zm-71.008-.493l-2.066-8.76c.667-.157 1.334-.31 2.004-.46l1.956 8.786c-.633.14-1.264.285-1.894.434zm67.23-.402c-.63-.14-1.26-.277-1.895-.41l1.844-8.81c.674.14 1.345.287 2.014.436l-1.96 8.785zm-63.44-.442l-1.84-8.81c.67-.14 1.343-.276 2.018-.408l1.726 8.833c-.636.125-1.27.253-1.903.385zm59.642-.354c-.636-.126-1.272-.246-1.91-.363l1.62-8.853c.676.124 1.35.25 2.022.383l-1.732 8.832zm-55.83-.39l-1.61-8.853c.674-.123 1.35-.24 2.027-.355l1.497 8.875c-.64.107-1.277.218-1.913.334zm52.01-.31c-.637-.107-1.274-.21-1.913-.31l1.384-8.893c.68.105 1.358.216 2.035.33l-1.507 8.874zm-48.182-.333l-1.38-8.894c.68-.105 1.358-.206 2.04-.302l1.258 8.913c-.64.09-1.28.185-1.918.284zm44.346-.264c-.64-.09-1.28-.178-1.92-.26l1.15-8.927c.684.088 1.363.18 2.043.278l-1.272 8.91zm-40.505-.28l-1.143-8.927c.68-.087 1.36-.17 2.042-.25l1.027 8.942c-.644.074-1.286.153-1.927.235zm36.655-.217c-.64-.075-1.284-.146-1.93-.21l.923-8.954c.685.07 1.367.146 2.047.224l-1.04 8.94zm-32.797-.227l-.91-8.955c.68-.07 1.364-.134 2.048-.195l.797 8.965c-.646.056-1.29.118-1.934.184zm28.936-.172c-.645-.058-1.29-.112-1.936-.162l.69-8.974c.686.053 1.368.11 2.05.17l-.804 8.966zm-25.067-.173l-.68-8.975c.68-.052 1.365-.1 2.05-.143l.566 8.982c-.646.04-1.292.086-1.937.135zm21.2-.125c-.648-.04-1.296-.08-1.945-.112l.46-8.988c.686.035 1.368.075 2.05.118l-.566 8.982zm-17.325-.12l-.45-8.988c.685-.034 1.37-.064 2.056-.09l.337 8.994c-.65.024-1.296.052-1.942.085zm13.44-.078c-.645-.024-1.293-.045-1.94-.062l.23-8.997c.685.018 1.37.04 2.055.066l-.344 8.992zm-9.564-.066l-.217-8.997c.683-.018 1.367-.03 2.053-.038l.105 9c-.646.007-1.293.018-1.94.034zm5.683-.034c-.646-.008-1.294-.012-1.943-.012v-9c.687 0 1.372.004 2.057.013l-.114 9z"/></svg>