<svg width="129" height="129" viewBox="0 0 129 129" xmlns="http://www.w3.org/2000/svg"><g fill="#FFF" fill-rule="evenodd"><path d="M64.013 128.02c-17.1 0-33.175-6.656-45.265-18.748C6.658 97.184 0 81.112 0 64.008c0-17.1 6.657-33.172 18.748-45.26C30.838 6.656 46.914 0 64.013 0c17.098 0 33.174 6.656 45.264 18.748 12.09 12.088 18.75 28.16 18.75 45.26 0 17.103-6.66 33.176-18.75 45.264-12.09 12.092-28.166 18.75-45.264 18.75zm0-122.9c-15.73 0-30.52 6.127-41.644 17.25C11.245 33.49 5.12 48.28 5.12 64.007c0 15.733 6.126 30.52 17.25 41.643 11.123 11.123 25.912 17.25 41.643 17.25 15.73 0 30.52-6.127 41.643-17.25 11.124-11.12 17.25-25.91 17.25-41.642 0-15.73-6.126-30.517-17.25-41.64C94.532 11.25 79.743 5.122 64.013 5.122z"/><path d="M56.46 89.543h-.083c-.685-.025-1.33-.32-1.798-.82L33.24 65.677c-.96-1.04-.897-2.66.14-3.62 1.04-.956 2.66-.896 3.62.14l19.57 21.14 37.383-35.57c1.026-.964 2.645-.934 3.62.09.975 1.026.935 2.647-.09 3.622l-39.26 37.358c-.48.455-1.11.705-1.766.705"/></g></svg>