<svg width="10" height="69" viewBox="0 0 21 138" xmlns="http://www.w3.org/2000/svg"><title>Minute</title><path d="M18.47 120.402c-1.248-1.526-2.842-2.594-4.574-3.207.083-.202.17-.392.29-.556 1.78-2.45 2.258-5.176 1.688-8.11-.38-1.956.135-3.28 1.916-4.395-.588-.57-1.187-1.092-1.717-1.68-.557-.617-1.063-1.284-1.564-1.95-.624-.828-1.225-1.625-.01-2.534.33-.25.474-.905.503-1.387.048-.795-.084-1.6-.107-2.4-.022-.76-.216-1.612.06-2.248.276-.638 1.037-1.06 1.657-1.645-.23-.196-.54-.482-.87-.743-1.527-1.207-1.528-1.204-.702-2.866-.192-.09-.376-.215-.58-.26-1.025-.23-1.326-.72-.892-1.79.45-1.106.693-2.3 1.034-3.454.612-2.063.678-4.155-.182-6.12-.783-1.79-1.806-3.474-2.77-5.177-1.2-2.115-2.692-4.094-3.614-6.32-1.58-3.814.92-8.38 4.827-9.324.35-.085.687-.236 1.297-.453-1.735-.682-1.777-1.865-1.445-3.178-1.937.38-1.93.38-1.825-1.572.138-2.554.254-5.11.39-7.663.115-2.18.244-4.363.37-6.594h2.138c-.022-.197-.008-.348-.057-.47-1.99-5.07-2.604-10.39-2.742-15.784-.147-5.698-.214-11.397-.328-17.096-.01-.474-.124-.946-.19-1.42-.12 0-.238-.002-.357-.004-.11.615-.3 1.23-.316 1.847-.16 6.133-.343 12.27-.42 18.404-.064 4.85-.383 9.64-2.173 14.21-.047.118-.027.264-.04.432.17-.015.284.005.37-.036 1.615-.76 1.768-.66 1.882 1.18.474 7.635-1.067 14.9-3.945 21.9-.544 1.33-.614 2.604-.34 3.955.114.572.26 1.14.375 1.71.253 1.242.227 2.413-.964 3.322 1.657 1.517-.277 2.222-.804 3.33.824.117 1.493.235 2.166.303 3.222.324 6.88 5.02 6.143 8.666-.704 3.472-2.44 6.112-5.127 8.2-.786.612-1.683 1.08-2.492 1.593.673 1.08 1.334 2.15 2 3.225-2.092 2.506-1.62 5.25-.776 8.094l-1.926.17c.29 1.37 2.432 2.174.75 3.822 1.19.608 1.116 1.457.64 2.433-.452.924-.928 1.924-.36 2.92.49.863 1.006 1.568.037 2.455-.227.21-.285.803-.19 1.15.33 1.173.734 2.325 1.166 3.46.097.25.233.49.397.756-.596.268-1.174.595-1.726.983l-.14.01v.092c-.152.112-.31.217-.46.338-4.443 3.633-5.102 10.18-1.47 14.623 3.63 4.445 10.177 5.105 14.622 1.473 4.443-3.632 5.103-10.178 1.47-14.623zm-7.852-26.684c.557.142 1.257.7 1.418 1.22.234.757-.47 1.268-1.176 1.404-1.088.21-1.052.86-.657 1.59.722 1.334 1.524 2.625 2.285 3.94.24.418.456.85.833 1.56-.78-.144-1.272-.166-1.715-.328-2.225-.812-4.17-3.587-4.23-5.972-.05-2.06 1.575-3.84 3.245-3.414zm-3.246 17.83c.24-.33.467-.61.658-.91.624-.983.48-1.487-.495-2.133-.335-.22-.574-.59-.857-.89.336-.24.64-.57 1.013-.702 2.965-1.06 5.89.95 5.96 4.148.02.925-.164 1.906-.49 2.768-1.064 2.82-3.95 2.91-5.74 2.128-.895-.39-.954-.906-.27-1.435 1.62-1.252 1.62-1.252.224-2.97zm3.05 19.067c-1.98 0-3.59-1.607-3.59-3.588 0-1.983 1.608-3.59 3.59-3.59 1.982 0 3.588 1.607 3.588 3.59 0 1.98-1.606 3.588-3.588 3.588z" fill="#EC9E3F" fill-rule="evenodd"/></svg>