<svg width="15" height="45" viewBox="0 0 30 91" xmlns="http://www.w3.org/2000/svg"><title>Hour</title><path d="M28.42 34.775c-1.018-.287-1.682-.975-2.264-1.8-.402-.572-.706-1.265-1.22-1.695-.64-.536-1.435-1.157-2.195-1.205-1.48-.092-2.154-.968-2.32-2.33-.06-.495-.01-1.007-.093-1.495-.137-.793-.21-1.64-.546-2.346-2.745-5.753-4.587-11.74-4.683-18.195-.01-.68.28-1.35.336-2.036.077-.918.14-1.852.064-2.766-.05-.59-.573-.868-1.16-.805-.598.064-1.07.363-1.085 1.04-.014.728-.11 1.53.137 2.177.364.96.305 1.89.243 2.85-.09 1.41-.19 2.818-.32 4.223-.37 3.974-.992 7.912-2.89 11.454-.977 1.826-1.51 3.59-1.225 5.69.213 1.57-.4 2.127-1.974 2.18-1.19.04-2.096.562-2.74 1.56-.426.662-.8 1.36-1.206 2.035-.506.84-1.096 1.558-2.054 1.924-.302.113-.675.54-.674.824 0 .293.363.73.66.848.754.293 1.174.803 1.37 1.565.082.313.173.623.252.936.248.983.7 1.73 1.71 2.15.495.202.933.776 1.192 1.29.323.643.42 1.4.64 2.1.31.996 1.148 1.337 2.017.77.455-.293.82-.726 1.224-1.1.18-.166.35-.34.606-.587 1.853 2.286 2.86 4.83 3.066 7.63.213 2.886-1.033 5.398-2.545 7.722-1 1.534-2.202 2.93-3.315 4.384-.346.455-.703.894-.043 1.404.32.246.682.517.86.865.887 1.73 2.016 3.184 3.823 3.96-3.61 1.015-6.548 3.95-7.368 7.875-1.173 5.62 2.43 11.126 8.05 12.298 5.617 1.172 11.122-2.432 12.296-8.05 1.15-5.52-2.31-10.92-7.76-12.22.75-.442 1.43-.812 2.004-1.305.842-.725 1.55-1.615 2.308-2.44.276-.302.484-.685.8-.924.685-.52.72-.954.146-1.63-1.054-1.24-2.13-2.47-3.09-3.785-2.02-2.756-3.28-5.797-3.033-9.334.187-2.66 1.138-4.95 3.2-6.82.4.444.733.806 1.06 1.172 1 1.12 1.388 1.184 2.61.318.192-.134.37-.524.32-.74-.265-1.11.12-1.96.895-2.683.553-.515 1.23-.928 1.66-1.53.53-.733 1.023-1.574 1.225-2.445.17-.734.303-1.202 1.08-1.406.31-.08.717-.534.723-.824.005-.258-.448-.67-.766-.762zM14.152 18.973c.058-.176.555-.33.84-.318.343.01.885.13.983.34.618 1.337 1.135 2.712 1.644 3.973-.836.112-1.62.22-2.406.318-.135.018-.284-.003-.418-.035-.577-.13-1.152-.27-1.762-.42.344-1.222.688-2.55 1.117-3.855zm-3.077 7.075c4.38.765 4.38.765 7.135-.46.764.725.81 2.343.01 3.033-1.113.96-2.287 1.86-3.448 2.797-1.072-.888-2.08-1.67-3.02-2.515-1.03-.927-1.214-1.867-.676-2.85zm.202 14.382c-.39-.478-.792-.96-1.26-1.358-1.07-.9-1.933-.798-2.84.266-.99 1.164-1.403 1.18-2.203-.17-.465-.786-.668-1.72-.987-2.59.168-2.345 1.496-4.192 3.7-4.96 1.837-.638 5.26.84 6.142 2.65 1.043 2.152.266 5.057-1.658 6.29-.382.247-.613.22-.896-.128zm7.175 39.627c0 1.98-1.606 3.59-3.59 3.588-1.98 0-3.587-1.607-3.587-3.588 0-1.982 1.607-3.588 3.588-3.588 1.983 0 3.59 1.603 3.59 3.585zm-.737-17.372c.59 1.686.122 2.72-1.2 3.292-1.358.586-3.44.027-4.08-1.155-.175-.324-.232-.782-.175-1.15.092-.59.267-1.18.508-1.723.74-1.67 1.53-3.315 2.302-4.968l.28-.053c.798 1.915 1.68 3.8 2.366 5.754zM14.125 46.5c-.66-.93-1.35-1.906-2.06-2.91l2.158-2.89 2.428 3.097-2.523 2.704zm9.11-6.95c-.613-.396-1.107-.776-1.65-1.05-.895-.45-1.62-.212-2.17.626-.077.118-.145.244-.213.367-.816 1.477-1.09 1.52-2.342.363-1.372-1.27-1.81-3.454-1.037-5.172.128-.285.254-.57.376-.857.88-2.064 1.47-2.64 4.3-2.4 2.152.185 3.704 1.654 4.016 3.618.27 1.686-.052 3.212-1.282 4.505z" fill="#EC9E3F" fill-rule="evenodd"/></svg>