<svg width="11" height="61" viewBox="0 0 22 122" xmlns="http://www.w3.org/2000/svg"><title>Second</title><path d="M12.993 100.918c-.5-.104-.995-.157-1.49-.19v-61.1c1.47-.295 2.578-1.59 2.578-3.146 0-1.556-1.105-2.852-2.574-3.147V.885c0-.348-.286-.634-.634-.634-.35 0-.633.29-.633.637v32.45c-1.47.295-2.578 1.59-2.578 3.147 0 1.555 1.106 2.85 2.576 3.146v61.1c-4.562.275-8.56 3.55-9.54 8.24-1.172 5.617 2.43 11.122 8.05 12.295 5.62 1.172 11.124-2.43 12.297-8.05 1.173-5.618-2.43-11.124-8.05-12.296zM10.87 114.73c-1.982 0-3.59-1.607-3.59-3.588 0-1.983 1.608-3.59 3.59-3.59 1.982 0 3.588 1.607 3.588 3.59 0 1.98-1.606 3.588-3.588 3.588z" fill="#EC9E3F" fill-rule="evenodd"/></svg>