<svg width="131" height="131" viewBox="0 0 262 262" xmlns="http://www.w3.org/2000/svg"><title>Group</title><g transform="translate(1 1)" fill="none" fill-rule="evenodd"><path d="M119.866 10.884c-.39.254-.56.417-.765.49-.366.13-.78.154-1.13.314-.71.323-.953.854-.756 1.59.088.33.232.658.414.946 1.342 2.12 2.7 4.23 4.116 6.443.28-.265.51-.435.68-.653 1.35-1.754 2.686-3.517 4.027-5.277.08-.103.16-.206.234-.313 1.272-1.807.894-2.697-1.3-3.075-.197-.037-.384-.12-.813-.255.386-.23.558-.403.754-.434.343-.053.7-.022 1.053-.022h26.904c.51 0 1.017.03 1.525.05l.066.26c-.174.12-.333.307-.526.35-.425.095-.878.075-1.3.176-.89.213-1.485.744-1.596 1.672-.087.725-.184 1.455-.186 2.183-.013 5.514-.01 11.027-.002 16.54 0 .56.024 1.122.096 1.675.178 1.37.776 1.965 2.163 2.187.423.067.855.092 1.502.16-.287.285-.416.524-.59.562-.336.074-.698.04-1.05.04-9.496.002-18.992.002-28.49 0-.35 0-.71.024-1.05-.04-.15-.027-.264-.244-.517-.498.574-.14.988-.218 1.386-.342.988-.307 1.38-1.043 1.07-2.015-.09-.285-.24-.558-.4-.81-1.532-2.416-3.072-4.824-4.615-7.23-.067-.105-.185-.18-.358-.34l-1.256 1.662c-1.227 1.627-2.46 3.253-3.683 4.882-.313.416-.636.828-.91 1.268-.862 1.382-.495 2.245 1.1 2.663.27.07.527.177 1.037.353-.422.225-.617.42-.813.422-2.55.022-5.1.024-7.65.002-.21-.002-.42-.22-.816-.443.405-.185.547-.28.704-.317 1.78-.42 3.253-1.37 4.367-2.742 2.43-2.997 4.773-6.063 7.087-9.017-.03-.233-.016-.333-.06-.397-1.936-2.924-3.835-5.875-5.847-8.75-.66-.943-1.535-1.78-2.453-2.49-.59-.457-1.436-.595-2.17-.87-.298-.11-.602-.205-.89-.55.213-.084.426-.242.64-.243 3.472-.013 6.945-.008 10.418 0 .12.002.24.08.658.227zm2.844 11.253c2.353 3.573 4.607 7.015 6.885 10.44.406.612.886 1.18 1.377 1.73 1 1.124 2.318 1.52 3.793 1.442 1.2-.067 2.22-.706 2.277-2.05.03-.686.13-1.372.13-2.06.013-5.426.01-10.854.005-16.28 0-.56-.013-1.12-.076-1.677-.175-1.556-.835-2.175-2.44-2.334-2.093-.208-3.85.5-5.137 2.082-2.293 2.828-4.492 5.73-6.81 8.704zm25.04 1.39c0-2.753.008-5.506-.004-8.258-.003-.646-.067-1.29-.11-1.93-.074-1.06-.714-1.727-1.714-1.837-1.16-.13-2.36-.113-3.522.01-.84.09-1.398.7-1.514 1.57-.09.68-.186 1.368-.188 2.052-.015 5.677-.01 11.353-.004 17.03 0 .472.022.948.086 1.415.183 1.34.81 1.995 2.192 2.144.824.09 1.67.08 2.496.006 1.337-.117 1.946-.712 2.142-2.02.096-.635.13-1.284.135-1.927.014-2.752.006-5.505.006-8.257zM16.34 173.407c.224.015.47-.04.586.055.197.16.298.427.464.63.713.876 1.4 1.09 2.463.693.663-.248 1.31-.553 1.925-.9 5.018-2.82 10.028-5.656 15.037-8.492.46-.262.915-.54 1.345-.85 1.15-.827 1.35-1.524.842-2.823-.193-.496-.193-.496-.035-1 .04-.008.085-.024.125-.02.042.007.102.022.12.053 4.43 7.453 8.855 14.907 13.278 22.364.107.18.17.387.334.764-.37-.063-.615-.045-.773-.15-.17-.116-.246-.356-.385-.525-.754-.913-1.464-1.12-2.59-.674-.658.26-1.294.587-1.91.934-4.94 2.78-9.875 5.57-14.808 8.364-.462.26-.9.562-1.36.83-.947.557-1.385 1.346-1.114 2.42.277 1.09 1.064 1.764 2.15 1.885.955.107 1.967.058 2.913-.126 7.376-1.44 14.74-2.93 22.11-4.398.505-.1 1.022-.144 1.533-.213l.185.257c-.23.33-.428.688-.692.99-4.887 5.6-9.782 11.195-14.674 16.79-.377.43-.734.88-1.12 1.298-.878.948-1.198 2.01-.827 3.26.06.203-.038.45-.07.734-.707-.476-3.744-5.212-4.49-6.94-.07-.162-.008-.377-.008-.89.497.424.777.656 1.05.895.87.763 1.45.843 2.37.153.63-.472 1.208-1.035 1.728-1.625 3.463-3.925 6.904-7.868 10.35-11.808.11-.127.19-.28.425-.63-1.09.197-1.977.344-2.856.52-4.316.866-8.63 1.736-12.944 2.616-.696.142-1.39.316-2.068.524-1.39.427-1.75 1.01-1.6 2.443.036.34.4.782-.247.96-.75-.71-16.347-27.063-16.76-28.363zm12.086 16.942c.52-.23 1.323-.504 2.046-.91 5.29-2.963 10.566-5.95 15.84-8.94.424-.24.826-.516 1.22-.8.783-.567 1.008-1.39.673-2.21-.342-.834-.848-1.63-1.416-2.34-.464-.576-1.186-.777-1.937-.46-.733.314-1.478.613-2.17 1-4.977 2.795-9.943 5.608-14.91 8.423-.537.305-1.056.645-1.563.997-.25.175-.512.38-.665.63-.51.84-.337 1.673.144 2.466.582.96 1.01 2.104 2.734 2.142zm-4.757-7.64c.685-.307 1.48-.586 2.2-.99 5.282-2.96 10.556-5.938 15.82-8.934 2.465-1.404 2.656-2.243 1.155-4.593-.118-.184-.242-.367-.387-.53-.638-.718-1.35-.923-2.27-.563-.7.274-1.376.615-2.03.983-4.97 2.796-9.93 5.603-14.89 8.415-.615.348-1.262.68-1.773 1.148-.355.324-.695.86-.708 1.31-.04 1.445.744 2.546 1.866 3.413.226.174.574.2 1.012.34zm224.11-33.603c-.12-.213-.32-.414-.35-.64-.365-2.736-.773-3.18-3.453-3.196-5.9-.035-11.802-.032-17.703 0-2.5.017-2.998.54-3.307 3.088-.03.24-.132.47-.282.986-.203-.456-.34-.65-.372-.863-.045-.304-.015-.622-.015-.934 0-10.272-.003-20.543 0-30.813 0-.5.05-1 .077-1.5l.275-.044c.1.156.26.3.29.47.08.437.07.89.15 1.33.21 1.14.78 1.72 1.895 1.89.512.08 1.038.09 1.558.09 5.814.004 11.628.003 17.442 0 .347 0 .695-.007 1.04-.03 1.497-.11 2.157-.768 2.35-2.326.118-.958.118-.958.463-1.415.473.31.285.8.287 1.197.02 3.35.02 6.698.02 10.047 0 7.1-.007 14.2-.01 21.3v1.267l-.358.097zm-12.543-7.623v-.026c3.25 0 6.5.03 9.748-.017 1.517-.02 2.233-.73 2.368-2.265.086-.97.078-1.964-.006-2.936-.11-1.264-.737-1.884-1.98-2.08-.597-.097-1.206-.155-1.81-.156-5.632-.01-11.264-.01-16.896 0-.517 0-1.04.036-1.553.11-1.215.177-1.762.677-1.992 1.923-.12.65-.118 1.327-.122 1.993-.017 2.72.63 3.418 3.276 3.446 2.99.03 5.98.007 8.967.007zm.014-11.257v-.027c3.25 0 6.5.035 9.75-.013 1.507-.022 2.22-.74 2.356-2.28.083-.927.074-1.873.006-2.803-.1-1.35-.714-2.003-2.01-2.2-.68-.105-1.378-.153-2.068-.155-5.416-.014-10.832-.01-16.247 0-.648 0-1.3.026-1.943.114-1.208.166-1.755.682-1.982 1.932-.118.65-.116 1.328-.12 1.994-.016 2.7.64 3.405 3.29 3.43 2.99.03 5.98.01 8.97.01zM55.773 224.21c.244.027.51-.002.727.088 1.8.75 2.4.59 3.495-1.02.344-.505.65-1.036.954-1.566 2.672-4.657 5.34-9.315 8.003-13.977.346-.606.685-1.22.968-1.857.514-1.156.3-1.96-.672-2.786-.264-.222-.536-.432-.8-.653-.022-.02-.012-.08-.034-.25.203-.034.427-.13.613-.08.242.065.456.243.682.374l14.32 8.33c.26.152.545.29.753.5.097.1.034.358.05.67-.516-.218-.9-.398-1.298-.544-.972-.36-1.668-.203-2.33.597-.413.5-.774 1.056-1.1 1.62-2.895 5.034-5.78 10.073-8.66 15.113-.24.417-.467.842-.663 1.28-.658 1.465-.053 2.81 1.465 3.31.834.275 1.665.237 2.384-.238 1.048-.693 2.08-1.426 3.034-2.244 5.285-4.54 10.54-9.115 15.822-13.66.39-.334.7-.934 1.5-.722-.02.388-.005.77-.066 1.138-1.24 7.46-2.49 14.92-3.736 22.378-.07.43-.113.87-.21 1.294-.326 1.446-.035 2.688 1.13 3.665.093.08.138.214.326.516-.357.028-.637.137-.823.048-.585-.28-1.136-.636-1.7-.963-1.542-.896-3.085-1.79-4.623-2.69-.356-.21-.693-.446-1.004-.65.24-.683.592-.44.912-.356 1.698.434 2.33.154 2.745-1.582.505-2.12.84-4.284 1.214-6.436.628-3.618 1.228-7.24 1.834-10.862.027-.16.004-.33.004-.632-.333.248-.58.407-.802.6-3.88 3.366-7.762 6.734-11.635 10.11-.46.4-.9.83-1.294 1.29-.822.96-.812 1.693-.052 2.698.234.31.748.52.454 1.14-.172-.018-.357.015-.482-.057-7.174-4.16-14.343-8.33-21.513-12.496l.106-.432zm22.688-14.7c-.204-.41-.308-.98-.644-1.223-.902-.654-1.867-1.25-2.88-1.712-.615-.28-1.3-.01-1.753.546-.41.506-.808 1.034-1.133 1.598-2.962 5.14-5.908 10.29-8.852 15.443-.26.454-.497.925-.69 1.41-.394.987-.237 1.815.603 2.46.685.525 1.455.964 2.24 1.31.916.407 1.67.175 2.31-.64.457-.576.854-1.21 1.223-1.85 2.678-4.65 5.343-9.31 8.006-13.97.41-.72.807-1.448 1.174-2.19.17-.345.253-.735.4-1.18zm7.423-190.5c-.49.344-.798.558-1.103.774-1.3.92-1.552 1.747-.927 3.182.22.508.487.998.764 1.48 2.71 4.704 5.427 9.405 8.145 14.106.235.406.478.81.747 1.196.87 1.255 1.76 1.5 3.203.9.38-.158.748-.337 1.384-.625-.16.45-.176.687-.303.818-.173.18-.428.28-.65.408-5.446 3.14-10.89 6.285-16.344 9.415-.35.202-.703.662-1.35.167.328-.3.593-.54.857-.78.99-.91.928-1.88-.17-2.66-.07-.05-.143-.097-.22-.135-2.71-1.36-5.42-2.72-8.22-4.122-.106.313-.22.532-.25.762-.39 2.75-.767 5.503-1.145 8.256-.03.21-.042.427-.052.64-.08 1.72.63 2.267 2.285 1.76.498-.153.498-.153 1.12.243l-7.77 4.484-.24-.14c.056-.226.037-.534.18-.665 1.624-1.493 2.407-3.403 2.744-5.52.514-3.25.99-6.505 1.48-9.76.034-.25.03-.506.04-.72-.08-.11-.116-.212-.18-.244-3.245-1.543-6.477-3.11-9.744-4.603-1.41-.645-2.91-1.042-4.49-.667-.456.108-.893.295-1.348.406-.21.053-.44.01-.736.01.5-.768 6.872-4.688 9.58-5.948.192-.09.442-.052.802.158-.25.244-.496.494-.75.732-1.212 1.13-1.173 2.02.3 2.818 2.25 1.218 4.568 2.31 6.946 3.502.124-.38.252-.64.293-.916.34-2.282.665-4.567.993-6.852.024-.17.042-.34.05-.51.08-1.634-.833-2.283-2.357-1.707-.343.13-.685.61-1.203.06.726-.887 1.81-1.204 2.712-1.774.974-.617 1.993-1.165 2.993-1.742l2.89-1.665 2.89-1.67c1-.58 2-1.155 3-1.73 2.286-1.32 2.286-1.32 3.143-1.116zM72.12 39.426c3.865 1.862 7.594 3.667 11.333 5.45.576.274 1.19.477 1.8.667 1.645.51 3.13.11 4.462-.9.976-.74 1.176-1.564.698-2.713-.26-.63-.58-1.237-.92-1.828-2.642-4.59-5.293-9.172-7.944-13.755-.26-.444-.52-.885-.81-1.31-.983-1.45-1.89-1.664-3.495-.924-2.034.94-3.152 2.565-3.563 4.703-.282 1.466-.498 2.946-.713 4.424-.293 2.02-.558 4.046-.85 6.186zM21.365 124.46c-.282-.158-.528-.258-.73-.413-1.81-1.397-3.61-2.806-5.42-4.206-.272-.21-.55-.42-.852-.584-1.19-.654-2.16-.19-2.372 1.13-.044.295-.012.607-.092.89-.044.158-.245.274-.403.437-.346-.95-.44-7.065-.175-8.966.365-.177.59-.046.63.335.195 1.788 1.226 3.095 2.564 4.17 2.686 2.158 5.417 4.26 8.183 6.43 1.438-.946 2.807-1.834 4.165-2.74 2.048-1.366 4.1-2.724 6.125-4.123 1.618-1.12 3.153-2.324 3.346-4.49.007-.075.08-.16.146-.206.062-.043.16-.044.24-.063.04.013.086.018.124.038.033.018.082.052.082.08.035 3.334.067 6.67.09 10.005.003.243-.057.487-.115.938-.275-.274-.482-.4-.56-.58-.097-.23-.072-.505-.132-.754-.28-1.165-1.138-1.584-2.266-1.105-.237.1-.465.23-.68.373-2.354 1.53-4.705 3.064-7.053 4.6-.136.09-.24.22-.43.394.89.694 1.735 1.357 2.585 2.013 1.468 1.134 2.938 2.266 4.41 3.394.31.236.62.473.953.672 1.276.764 2.16.393 2.485-1.032.142-.618.142-.618.578-.943.285.87.353 17.605.047 19.168-.204-.233-.41-.37-.46-.55-.088-.327-.064-.68-.115-1.02-.207-1.362-.81-1.938-2.21-2.078-.516-.053-1.04-.056-1.56-.056-5.636-.003-11.273-.002-16.91 0-.26 0-.52 0-.78.01-2.08.066-2.68.63-2.88 2.663-.032.34.144.8-.392.91-.076-.02-.122-.023-.16-.044-.03-.018-.07-.053-.076-.085-.036-.21-.088-.42-.088-.628 0-7.066.005-14.13.017-21.195 0-.11.086-.22.226-.55.227.314.47.496.49.7.19 2.074 1.317 2.576 3.22 1.306 1.865-1.244 3.747-2.47 5.62-3.71.133-.09.24-.22.582-.53zm2.944 2.31c-3.24 2.252-6.39 4.436-9.53 6.636-.387.27-.72.616-1.058.948-1.605 1.586-2.003 3.544-1.717 5.68.136 1.018.744 1.61 1.76 1.778.68.112 1.376.178 2.066.18 5.588.014 11.176.01 16.764.002.56 0 1.127-.04 1.68-.118 1.146-.164 1.76-.642 1.897-1.77.1-.82.017-1.717-.23-2.505-.47-1.5-1.463-2.72-2.683-3.71-2.912-2.36-5.864-4.67-8.95-7.12zm188.19 44.748c-.654-.575-.156-.914.02-1.224 1.42-2.486 2.866-4.956 4.307-7.43.232-.397.482-.784.973-1.13.047.203.174.43.12.6-.12.368-.36.694-.497 1.057-.432 1.15-.196 1.995.79 2.744.482.367 1 .695 1.528.998 4.834 2.78 9.67 5.548 14.508 8.316.415.238.84.465 1.273.667 1.43.663 2.32.43 3.28-.852.25-.33.48-.67.847-1.19.133.403.272.6.23.74-.09.285-.272.54-.424.803-3.076 5.286-6.15 10.573-9.236 15.852-.217.37-.292.933-.923.934-.403-.476-.008-.85.104-1.225.46-1.55.09-2.29-1.506-2.667-.97-.23-1.972-.352-2.967-.468-4.767-.558-9.535-1.098-14.303-1.636-.297-.034-.6-.004-1.037-.004.23.36.383.655.585.913 3.073 3.937 6.148 7.872 9.234 11.8.456.578.94 1.14 1.47 1.654.934.91 1.747.907 2.75.05.325-.28.622-.587 1.06-1 .103.35.282.622.208.754-1.21 2.148-2.455 4.28-3.858 6.7-.2-.492-.408-.744-.36-.928.504-1.848-.32-3.304-1.382-4.674-3.833-4.94-7.683-9.87-11.526-14.803-.854-1.097-1.712-2.19-2.555-3.295-.25-.327-.75-.672-.387-1.102.18-.214.704-.247 1.056-.21 3.295.354 6.587.743 9.88 1.118 4.81.55 9.62 1.11 14.436 1.63 2.156.236 3.67-.704 4.435-2.646.46-1.167.267-1.98-.725-2.755-.478-.375-.996-.705-1.523-1.007-4.907-2.82-9.82-5.63-14.735-8.44-.377-.216-.76-.425-1.157-.605-1.29-.585-2.097-.418-3.017.647-.333.388-.61.824-.97 1.318m-75.397 56.364c-.227.473-.395.77-.52 1.087-1.85 4.705-3.7 9.41-5.543 14.117-.208.533-.407 1.07-.568 1.62-.53 1.81-.166 2.513 1.56 3.063.204.064.447.057.61.174.137.096.183.327.34.64H114.66c.234-.3.337-.51.502-.62.125-.083.33-.033.5-.048 2.09-.187 2.69-.78 2.7-3.014.034-6.322.03-12.644.002-18.966-.008-2.04-.6-2.637-2.568-2.89-.34-.045-.675-.113-1.012-.17.036-.238.036-.284.05-.325.014-.035.043-.092.066-.092 3.405-.04 6.812-.08 10.22-.11.15 0 .303.082.66.183-.317.234-.474.443-.66.474-2.78.464-3.103.8-3.122 3.736-.03 4.908-.018 9.815-.007 14.722.004 1.413.006 2.83.116 4.238.106 1.357.72 1.963 2.007 2.155 1.416.213 2.666-.18 3.496-1.422.576-.862 1.06-1.816 1.45-2.787 2.754-6.897 5.47-13.812 8.22-20.712.176-.445.142-1.197.834-1.17.643.028.646.747.837 1.2 3.023 7.164 6.028 14.336 9.04 21.505.24.567.483 1.133.77 1.674.533 1.005 1.415 1.495 2.47 1.697.325.063.704.045.683.557-.89.335-8.964.387-10.28.057.06-.16.078-.356.182-.445.117-.1.31-.13.473-.148 1.782-.21 2.598-.934 1.826-3.228-.14-.418-.288-.833-.457-1.238-2.067-4.947-4.137-9.89-6.208-14.835-.068-.16-.16-.31-.35-.674m79.735-129.284c-3.704-6.56-7.408-13.12-11.1-19.688-.032-.06.11-.218.282-.54.315.43.564.76.804 1.096 1.02 1.43 1.86 1.66 3.46.925.49-.226.964-.486 1.43-.757 4.93-2.875 9.86-5.753 14.787-8.634.427-.25.85-.51 1.254-.793 1.323-.93 1.587-1.88.96-3.39-.155-.372-.318-.74-.47-1.11-.013-.03.026-.08.083-.23.16.027.414-.01.517.1.21.224.35.522.506.796 3.385 5.925 6.77 11.85 10.142 17.784.194.343.642.682.213 1.3-.22-.184-.43-.308-.572-.486-.283-.35-.49-.764-.796-1.09-.675-.716-1.49-.992-2.44-.574-.572.254-1.15.507-1.692.822-5.127 2.98-10.25 5.975-15.37 8.968-.31.18-.616.373-.91.578-1.415.987-1.668 1.88-.987 3.49.124.29.324.557.405.856.042.158-.097.365-.154.55l-.35.028zm17.91-20.235c-.337-2.03-1.182-3.54-2.517-4.75-.54-.49-1.255-.502-1.91-.232-.703.29-1.39.63-2.047 1.012-4.93 2.863-9.854 5.74-14.775 8.62-.542.317-1.062.672-1.584 1.022-.903.604-1.256 1.502-.84 2.474.51 1.19 1.135 2.355 1.88 3.41.594.845 1.54 1.047 2.53.566.643-.313 1.297-.614 1.916-.974 4.89-2.844 9.777-5.697 14.656-8.56.66-.384 1.336-.773 1.89-1.286.392-.364.59-.94.806-1.302zM42.995 98.604c-.045-.242-.18-.512-.12-.722.603-2.06.4-4.09-.326-6.05-1.245-3.355-2.567-6.68-3.86-10.015-.046-.118-.147-.213-.27-.39-.77.053-1.578.106-2.384.167-2.44.187-4.886.338-7.322.573-2.658.257-5.24.742-6.71 3.34-.763-.283-.457-.65-.272-.98.94-1.67 1.887-3.337 2.83-5.004.88-1.55 1.758-3.097 2.617-4.614.484.028.63.218.49.61-.1.286-.225.568-.298.863-.313 1.257.155 1.915 1.438 2.044.045.004.088.01.13.007l8.05-.46c-.126-.445-.185-.74-.292-1.016-.803-2.075-1.614-4.147-2.425-6.218-.096-.244-.202-.484-.316-.72-.804-1.646-1.91-1.734-3.014-.243-.174.235-.364.458-.674.845-.096-.38-.25-.637-.18-.79.226-.517.532-.998.81-1.49 1.01-1.783 2.01-3.57 3.032-5.34.17-.293.25-.805.91-.548-.022.182-.007.392-.077.565-.572 1.407-.566 2.86-.068 4.24 1.257 3.484 2.614 6.93 3.94 10.414.695 0 1.287.034 1.873-.008 3.513-.247 7.025-.506 10.536-.777.598-.046 1.19-.17 1.784-.26 1.193-.18 2.194-.716 2.978-1.665.233-.28.446-.73.894-.25-.51 1.425-4.81 8.893-5.588 9.63-.052-.29-.145-.513-.113-.714.044-.252.21-.48.28-.73.314-1.1-.2-1.91-1.32-2.076-.295-.042-.6-.037-.9-.02-2.787.17-5.573.348-8.36.53-.12.007-.235.07-.423.13.08.3.13.595.238.867 1.026 2.597 2.062 5.19 3.097 7.782.098.24.196.485.32.714.696 1.294 1.67 1.418 2.674.357.228-.24.483-.457.74-.67.03-.023.148.06.224.095-.148.922-2.362 5.04-4.573 7.996M199.52 226.647c-.74.86-7.593 4.82-9.423 5.496.12-.365.138-.64.283-.81.278-.323.66-.562.943-.884.58-.658.615-1.28.07-1.973-.342-.436-.747-.848-1.196-1.176-4.554-3.327-9.122-6.63-13.69-9.938-.097-.07-.23-.093-.51-.2.09.744.155 1.395.247 2.042.692 4.86 1.387 9.718 2.087 14.576.05.338.13.67.225 1 .405 1.425 1.02 1.8 2.502 1.528.3-.056.59-.193.888-.21.167-.01.345.148.54.24-.684.73-5.46 3.488-7.046 4.052.074-.343.042-.67.19-.806 1.22-1.122 1.355-2.556 1.18-4.03-.363-3.05-.792-6.094-1.212-9.138-.636-4.61-1.29-9.215-1.925-13.824-.05-.362-.007-.737-.007-1.053.747-.37 1.09.146 1.484.43 5.07 3.646 10.13 7.31 15.19 10.964 1.407 1.016 2.833 2.007 4.22 3.047 1.24.93 2.55 1.26 4.05.675.204-.08.47-.01.91-.01m-25.634-179.55c.492.217.973.46 1.477.643 1.255.456 2.083.245 2.903-.78.444-.556.836-1.155 1.204-1.76 2.877-4.75 5.743-9.507 8.61-14.26.273-.458.542-.92.776-1.396.705-1.437.46-2.344-.886-3.31-.347-.25-.718-.468-1.07-.697.336-.653.668-.386.973-.22 1.872 1.03 3.74 2.062 5.61 3.093 1.034.572 2.074 1.133 3.097 1.722.24.14.418.374.87.79-.58-.037-.83-.005-1.042-.078-.473-.16-.914-.413-1.39-.556-.873-.26-1.65-.05-2.233.624-.41.472-.795.97-1.116 1.5-3.11 5.128-6.207 10.264-9.3 15.4-.16.265-.285.55-.44.82-.713 1.246-.52 2.102.828 3.214.34.282.716.53 1.072.797.022.018.007.08.012.15-.256.49-.586.204-.888.038-2.23-1.225-4.455-2.456-6.682-3.686-.755-.417-1.52-.82-2.257-1.265-.174-.107-.25-.36-.37-.547l.238-.237" fill="#FFF"/><circle stroke="#FFF" stroke-width="2" cx="130" cy="130" r="130"/><circle fill="#000" cx="130" cy="130" r="9.512"/><text font-family="Letra Pro" font-size="7" font-weight="bold" fill="#FFF"><tspan x="116" y="192">• 2015 •</tspan></text><text font-family="Letra Pro" font-size="6" font-weight="bold" fill="#FFF"><tspan x="105" y="184">HEBE OF LEEDS</tspan></text><circle stroke="#979797" fill="#D8D8D8" cx="129" cy="129" r="2"/></g></svg>