<svg viewBox="0 0 39 40" xmlns="http://www.w3.org/2000/svg"><title>Cog Icon</title><path d="M19.315 15.012c-2.995 0-5.43 2.46-5.43 5.486 0 3.025 2.435 5.487 5.43 5.487 2.996 0 5.434-2.462 5.434-5.487s-2.44-5.486-5.437-5.486zm0 9.345c-2.105 0-3.818-1.73-3.818-3.86 0-2.127 1.713-3.858 3.818-3.858 2.107 0 3.822 1.73 3.822 3.856s-1.715 3.86-3.822 3.86zm17.443-7.215H34.23c-.23 0-.533-.227-.625-.528l-1.497-3.66c-.108-.2-.055-.57.107-.732L34 10.418c.352-.356.547-.83.547-1.335 0-.504-.193-.98-.546-1.335L31.94 5.66c-.706-.7-1.93-.7-2.637.006l-1.788 1.81c-.097.1-.286.164-.467.164-.103 0-.197-.02-.348-.097l-3.62-1.5c-.218-.065-.438-.37-.438-.603V2.885c0-1.043-.842-1.89-1.874-1.89H17.86c-1.03 0-1.868.847-1.868 1.89V5.44c0 .23-.23.538-.523.63L11.84 7.583c-.183.102-.573.047-.724-.105l-1.794-1.81c-.707-.71-1.94-.706-2.64.002L4.63 7.745c-.357.357-.554.833-.554 1.338.002.506.197.98.55 1.334l1.79 1.806c.16.163.215.53.066.816L5 16.69c-.066.22-.372.452-.597.452H1.868c-1.03 0-1.868.848-1.868 1.89v2.934c0 1.042.838 1.89 1.868 1.89h2.535c.23 0 .53.226.624.524l1.494 3.66c.11.2.06.57-.102.732L4.63 30.575c-.357.357-.554.833-.554 1.34.002.508.197.983.55 1.333l2.06 2.085c.71.703 1.934.7 2.643-.008l1.79-1.808c.093-.096.28-.16.456-.16.103 0 .198.02.35.098l3.62 1.497c.215.066.444.375.444.603v2.555c0 1.042.838 1.89 1.87 1.89h2.907c1.032 0 1.874-.848 1.874-1.89v-2.555c0-.234.22-.537.516-.63l3.624-1.51c.19-.104.583-.048.73.1l1.79 1.813c.704.71 1.935.713 2.645 0l2.05-2.076c.356-.355.55-.83.55-1.336 0-.506-.192-.983-.547-1.338l-1.788-1.8c-.16-.166-.212-.537-.064-.82l1.484-3.653c.065-.223.367-.45.598-.45h2.528c1.035 0 1.875-.847 1.875-1.89V19.03c0-1.04-.84-1.887-1.873-1.887z" fill-rule="evenodd"/></svg>