<?xml version="1.0" encoding="UTF-8" standalone="no"?>
<svg width="41px" height="40px" viewBox="0 0 41 40" version="1.1" xmlns="http://www.w3.org/2000/svg" xmlns:xlink="http://www.w3.org/1999/xlink" xmlns:sketch="http://www.bohemiancoding.com/sketch/ns">
    <!-- Generator: Sketch 3.3.3 (12081) - http://www.bohemiancoding.com/sketch -->
    <title>Group</title>
    <desc>Created with Sketch.</desc>
    <defs></defs>
    <g id="Stories" stroke="none" stroke-width="1" fill="none" fill-rule="evenodd" sketch:type="MSPage">
        <g id="Artboard-3" sketch:type="MSArtboardGroup" transform="translate(-14720.000000, -1269.000000)" fill="#0A0B09">
            <g id="Wind-Direction:-+-Group-Copy-2" sketch:type="MSLayerGroup" transform="translate(14571.000000, 1269.000000)">
                <g id="Group" transform="translate(149.000000, 0.000000)" sketch:type="MSShapeGroup">
                    <g transform="translate(0.658736, 0.658736)">
                        <path d="M19.8411402,0.273437422 C9.05598701,0.273437422 0.309895745,9.01041411 0.309895745,19.8046819 C0.309895745,30.5859288 9.05598701,39.3359263 19.8411402,39.3359263 C30.6249913,39.3359263 39.3749888,30.5859288 39.3749888,19.8046819 C39.3749888,9.01041411 30.6249913,0.273437422 19.8411402,0.273437422 L19.8411402,0.273437422 Z M19.8411402,1.57552039 C29.8958248,1.57552039 38.0729059,9.75390348 38.0729059,19.8046819 C38.0729059,29.8437415 29.8958248,38.0338434 19.8411402,38.0338434 C9.7903618,38.0338434 1.61197871,29.8437415 1.61197871,19.8046819 C1.61197871,9.75390348 9.7903618,1.57552039 19.8411402,1.57552039 L19.8411402,1.57552039 Z" id="Fill-9549"></path>
                        <path d="M10.075518,30.352856 C9.91015343,30.352856 9.74348682,30.2877518 9.61718477,30.1575435 C9.36197651,29.9101478 9.35937234,29.4921791 9.6145806,29.2447834 L29.1406167,9.57161186 C29.4010333,9.3242161 29.804679,9.3242161 30.0650956,9.57161186 C30.3255122,9.81770554 30.3255122,10.2343721 30.0650956,10.4960908 L10.5377574,30.1575435 C10.4101533,30.2877518 10.2434867,30.352856 10.075518,30.352856" id="Fill-9551"></path>
                        <path d="M30.5989496,15.4036415 C30.2343664,15.4036415 29.9479082,15.1171832 29.9479082,14.7539021 L29.9479082,9.54426812 L24.7395763,9.54426812 C24.3802014,9.54426812 24.0885348,9.25780987 24.0885348,8.89452872 C24.0885348,8.52994549 24.3802014,8.24348724 24.7395763,8.24348724 L30.5989496,8.24348724 C30.9635329,8.24348724 31.2499911,8.52994549 31.2499911,8.89452872 L31.2499911,14.7539021 C31.2499911,15.1171832 30.9635329,15.4036415 30.5989496,15.4036415" id="Fill-9552"></path>
                    </g>
                </g>
            </g>
        </g>
    </g>
</svg>