<svg xmlns="http://www.w3.org/2000/svg" width="48" height="48" viewBox="-1.5 -5.5 48 48"><path d="M5.167 28.24H1.67V1.7h35.59v4.446c0 .47.376.85.836.85.462 0 .836-.38.836-.85V.85c0-.47-.374-.85-.836-.85H.836C.373 0 0 .38 0 .85v28.24c0 .47.374.85.835.85h4.33c.463 0 .837-.38.837-.85s-.373-.85-.835-.85zM44.165 7.06H6.897c-.46 0-.835.38-.835.85v28.24c0 .47.374.85.835.85h37.268c.46 0 .835-.38.835-.85V7.91c0-.47-.374-.85-.835-.85zM7.732 8.76h35.6V35.3H7.73V8.76zM22.126 12C16.543 12 12 16.542 12 22.125c0 5.584 4.543 10.127 10.126 10.127 5.584 0 10.126-4.543 10.126-10.127C32.252 16.542 27.71 12 22.126 12zm0 18.752c-4.756 0-8.626-3.87-8.626-8.627 0-4.756 3.87-8.625 8.626-8.625 4.757 0 8.626 3.87 8.626 8.625 0 4.757-3.87 8.627-8.626 8.627zm4.303-9.377h-3.556V17.82c0-.414-.335-.75-.75-.75-.414 0-.75.336-.75.75v3.555H17.82c-.413 0-.75.336-.75.75s.337.75.75.75h3.555v3.553c0 .414.336.75.75.75.415 0 .75-.336.75-.75v-3.553h3.553c.413 0 .75-.336.75-.75s-.337-.75-.75-.75z"/></svg>