<svg viewBox="0 0 166 120" xmlns="http://www.w3.org/2000/svg" xmlns:xlink="http://www.w3.org/1999/xlink"><defs><path id="a" d="M165.49 60.312v59.68H0V.632h165.49z"/></defs><g fill="none" fill-rule="evenodd"><path d="M136.066 82.407h-32.62c-1.25 0-2.262-1.014-2.262-2.266 0-1.25 1.012-2.263 2.26-2.263h32.622c1.25 0 2.26 1.014 2.26 2.264 0 1.253-1.01 2.267-2.26 2.267M135.463 50.695c1.248 0 2.26-1.014 2.26-2.265 0-1.25-1.012-2.265-2.26-2.265h-23.42v4.53h23.42zM136.066 62.69H111.59c-.345 1.62-.88 3.132-1.566 4.53h26.042c1.25 0 2.26-1.015 2.26-2.265 0-1.25-1.01-2.266-2.26-2.266" fill="#F49B1F"/><g transform="translate(0 -.624)"><mask id="b" fill="#fff"><use xlink:href="#a"/></mask><path d="M160.97 113.614l-24.597-15.59c-.68-.42-1.448-.645-2.22-.645H69.75c-6.636 0-11.783-7.637-11.783-14.207v-5.378H95.74c5.433 0 11.29-3.83 14.285-9.95.683-1.4 1.22-2.912 1.564-4.53.287-1.355.453-2.773.453-4.258v-29.78h35.308c6.603 0 13.62 3.534 13.62 10.086v74.25zM31.337 73.264c-.772 0-1.54.224-2.237.657L4.52 89.5V15.247c0-6.55 7.016-10.085 13.62-10.085h77.6c7.268 0 11.783 3.864 11.783 10.085v43.81c0 1.398-.246 2.844-.677 4.256-.488 1.598-1.227 3.146-2.17 4.53-2.14 3.137-5.312 5.42-8.936 5.42H31.337zM147.35 24.748h-35.307v-9.5c0-8.742-6.552-14.615-16.303-14.615h-77.6C9.345.633 0 5.755 0 15.248V93.61c0 .827.45 1.587 1.17 1.985.34.188.715.282 1.09.282.42 0 .84-.118 1.208-.35l27.976-17.732h22.003v5.378c0 11.042 8.593 18.738 16.303 18.738h64.294l27.978 17.73c.368.234.788.352 1.208.352.375 0 .75-.094 1.09-.28.72-.4 1.17-1.16 1.17-1.986V39.364c0-9.494-9.345-14.616-18.14-14.616z" fill="#FEFEFE" mask="url(#b)"/></g><path d="M85.968 24.563h-55.94c-1.248 0-2.26-1.014-2.26-2.265 0-1.25 1.012-2.265 2.26-2.265h55.94c1.25 0 2.26 1.014 2.26 2.265 0 1.25-1.01 2.265-2.26 2.265M85.968 41.088H29.423c-1.247 0-2.26-1.014-2.26-2.266 0-1.25 1.013-2.264 2.26-2.264h56.545c1.25 0 2.26 1.014 2.26 2.264 0 1.252-1.01 2.266-2.26 2.266M62.046 56.275H29.424c-1.248 0-2.26-1.014-2.26-2.266 0-1.25 1.012-2.265 2.26-2.265h32.622c1.248 0 2.26 1.014 2.26 2.264 0 1.25-1.012 2.265-2.26 2.265" fill="#F49B1F"/></g></svg>