<svg width="86px" height="97px" viewBox="0 0 86 97" version="1.1" xmlns="http://www.w3.org/2000/svg" xmlns:xlink="http://www.w3.org/1999/xlink" xmlns:sketch="http://www.bohemiancoding.com/sketch/ns">
    <path d="M85.068,12.5628 C85.068,5.31649514 66.4808713,0.7768 43,0.7768 C19.5185333,0.7768 0.932,5.31622156 0.932,12.5628 C0.932,13.7070255 1.37022765,14.7802224 2.15772933,15.7463905 L3.708,14.4828 L3.35022912,12.5150602 L3.34582912,12.5158602 L0.378779407,13.0553238 L2.03007852,15.5787374 L31.8540785,61.1539374 L31.5276,60.0588 L31.5276,92.916 L31.5276,96.7533337 L34.6731333,94.5554369 L53.7527333,81.2238369 L54.6072,80.6267904 L54.6072,79.5844 L54.6072,60.0584 L54.2830158,61.1500233 L83.9706158,15.5748233 L85.9844934,12.4832 L82.2948,12.4832 L82.292,12.4832 L82.292,14.4832 L83.8422707,15.7467905 C84.6297216,14.7806847 85.068,13.7070283 85.068,12.5628 L85.068,12.5628 M81.068,12.5628 C81.068,12.7143492 80.9821616,12.9246286 80.7417293,13.2196095 L78.0816508,16.4832 L82.292,16.4832 L82.2948,16.4832 L82.2948,14.4832 L80.6189842,13.3915767 L50.9313842,58.9667767 L50.6072,59.4644512 L50.6072,60.0584 L50.6072,79.5844 L51.4616667,77.9449631 L32.3820667,91.2765631 L35.5276,92.916 L35.5276,60.0588 L35.5276,59.462567 L35.2011215,58.9636626 L5.37712148,13.3884626 L3.7036,14.4836 L4.06137088,16.4513398 L4.06577088,16.4505398 L7.39820212,15.8446432 L5.25827067,13.2192095 C5.01772086,12.9240844 4.932,12.7141584 4.932,12.5628 C4.932,12.1167983 5.56562257,11.3605346 7.08087381,10.485574 C8.90533498,9.43206455 11.6587828,8.43665833 15.1422162,7.58589329 C22.440248,5.80348222 32.379045,4.7768 43,4.7768 C53.6207998,4.7768 63.5596182,5.80354922 70.8577711,7.5860402 C74.3411942,8.43682675 77.0946583,9.43224631 78.9191382,10.4857497 C80.4343797,11.3606906 81.068,12.1169192 81.068,12.5628 L81.068,12.5628 C81.068,13.0092017 80.4343774,13.7654654 78.9191262,14.640426 C77.094665,15.6939355 74.3412172,16.6893417 70.8577838,17.5401067 C63.559752,19.3225178 53.620955,20.3492 43,20.3492 C32.3792002,20.3492 22.4403818,19.3224508 15.1422289,17.5399598 C11.6588058,16.6891732 8.90534166,15.6937537 7.0808618,14.6402503 C5.56562029,13.7653094 4.932,13.0090808 4.932,12.5632 L0.932,12.5632 C0.932,19.8095049 19.5191287,24.3492 43,24.3492 C66.4814667,24.3492 85.068,19.8097784 85.068,12.5632 L81.068,12.5632" id="Shape"></path>
</svg>