<svg width="86" height="91" viewBox="0 0 90 91" xmlns="http://www.w3.org/2000/svg"><title>Group + Response</title><g fill="none" fill-rule="evenodd"><g fill="#0A0B09"><path d="M42.81 10.606c-.048 0-.093-.014-.14-.027l-9.134-1.99c-.35-.08-.57-.415-.494-.764.074-.348.42-.58.768-.503l9.136 2.003c.347.078.568.412.493.76-.068.31-.335.52-.63.52"/><path d="M42.807 10.606c-.297 0-.564-.208-.63-.518-.077-.35.143-.683.494-.76l9.14-2.004c.346-.078.69.155.767.503.076.35-.144.685-.493.763l-9.137 1.99c-.047.012-.095.026-.14.026m-3.23 24.22c-.164 0-.33-.067-.455-.195-.253-.26-.253-.657 0-.917l3.23-3.227c.25-.247.66-.247.913 0 .252.257.252.657 0 .915l-3.23 3.23c-.126.13-.29.196-.457.196"/><path d="M46.037 34.825c-.166 0-.33-.066-.456-.194l-3.23-3.23c-.25-.257-.25-.657 0-.914.254-.247.663-.247.916 0l3.23 3.227c.25.26.25.66 0 .92-.128.127-.293.193-.458.193m10.67-33.108H28.292c-.357 0-.646-.284-.646-.645 0-.363.29-.647.646-.647h28.416c.357 0 .646.284.646.647 0 .36-.29.645-.646.645m-2.583 3.875h-23.25c-.357 0-.646-.284-.646-.645 0-.363.29-.647.644-.647h23.25c.357 0 .646.286.646.65 0 .36-.29.644-.645.644"/><path d="M54.124 5.593c-.123 0-.246-.04-.357-.102-.297-.206-.377-.605-.18-.904L56.172.71c.197-.295.598-.373.896-.18.297.208.377.607.18.904L54.662 5.31c-.125.18-.33.283-.538.283m-23.25 0c-.206 0-.41-.102-.535-.284l-2.6-3.877c-.2-.297-.12-.696.176-.903.296-.193.696-.115.895.18l2.6 3.875c.198.3.12.698-.177.906-.11.065-.235.104-.36.104m25.835 33.582H28.292c-.357 0-.646-.284-.646-.646 0-.36.29-.644.646-.644h28.416c.357 0 .646.284.646.644 0 .362-.29.646-.646.646M54.125 35.3h-23.25c-.357 0-.646-.283-.646-.645 0-.36.29-.644.644-.644h23.25c.357 0 .646.286.646.646 0 .362-.29.646-.645.646"/><path d="M56.708 39.176c-.208 0-.412-.103-.537-.284l-2.58-3.875c-.2-.297-.12-.696.18-.904.294-.194.696-.116.893.182l2.584 3.875c.197.297.117.696-.18.903-.11.066-.234.103-.358.103m-28.42 0c-.122 0-.245-.037-.356-.103-.297-.207-.377-.606-.18-.903l2.584-3.875c.196-.298.598-.376.895-.182.297.208.377.607.18.904l-2.584 3.875c-.127.18-.33.284-.54.284m14.517-18.883c-5.324 0-9.42-6.214-10.195-15.45L33.9 4.73C34.613 13.267 38.193 19 42.806 19c4.616 0 8.196-5.733 8.912-14.273l1.285.117c-.775 9.235-4.873 15.45-10.198 15.45M33.9 34.554l-1.288-.117C33.387 25.2 37.484 19 42.807 19c5.326 0 9.424 6.2 10.198 15.437l-1.286.116c-.717-8.54-4.297-14.26-8.914-14.26-4.61 0-8.19 5.72-8.908 14.26"/><path d="M41.854 24.323c-.356 0-.646-.285-.646-.647v-1.29c0-.363.29-.647.646-.647.357 0 .646.282.646.645v1.29c0 .362-.29.647-.646.647m1.292 2.583c-.357 0-.646-.284-.646-.644v-1.29c0-.36.29-.645.646-.645.356 0 .646.285.646.645v1.293c0 .36-.29.645-.646.645m-1.292 2.582c-.356 0-.646-.285-.646-.647V27.55c0-.36.29-.645.646-.645.357 0 .646.286.646.646v1.294c0 .362-.29.646-.646.646"/></g><text font-family="Helvetica Neue" font-size="20" font-weight="260" fill="#000" transform="translate(-1)"><tspan x=".16" y="66">Response</tspan> <tspan x="25.17" y="90">time</tspan></text></g></svg>