<svg width="87" height="87" viewBox="0 0 87 87" xmlns="http://www.w3.org/2000/svg" xmlns:xlink="http://www.w3.org/1999/xlink"><title>hebe</title><defs><path id="a" d="M0 86.725h88V0H0v86.725z"/></defs><g transform="translate(-1 0)" fill="none" fill-rule="evenodd"><mask id="b" fill="#fff"><use xlink:href="#a"/></mask><path d="M58.39 55.265v16.712h13.756v-5.6H68.73c1.08-1.895 2.34-3.613 3.33-5.6h-3.33c.814-1.328 1.752-2.9 2.54-4.2.255-.42.704-.883.614-1.312H58.39zM45.274 44h20.2L87.73 66.267c.36.36.36.94 0 1.3L68.856 86.456c-.36.36-.942.36-1.302 0L45.275 64.222V44zM58.39 15.374v16.712h13.757v-5.6H68.73c1.08-1.894 2.34-3.613 3.33-5.6h-3.33c.814-1.328 1.752-2.9 2.54-4.2.255-.42.704-.882.614-1.312H58.39zm-13.115 7.13L67.553.268c.36-.36.943-.36 1.302 0L87.73 19.157c.36.36.36.94 0 1.3L65.476 42.725h-20.2V22.502zM17.45 55.52v16.45c5.09-.498 12.037 1.39 14.195-2.014 1.113-1.755 1.08-5.43-.526-6.912.875-1.14 1.164-3.7.612-5.075-1.638-4.084-8.817-2.355-14.195-2.713-.102.015-.095.138-.088.262zM44 64.22L21.722 86.457c-.36.36-.943.358-1.302 0L1.544 67.567c-.36-.36-.358-.942.002-1.3L23.8 44H44v20.22zM17.62 15.28c-.205 5.396-.03 11.17-.088 16.712h6.065l1.383-6.906 1.405 6.906h5.956v-16.71h-5.955l-1.492 6.963c-.027-.1-1.296-6.964-1.296-6.964H17.62zM44 42.725H23.8L1.546 20.458c-.36-.36-.36-.94-.002-1.3L20.42.27c.36-.36.942-.36 1.302 0L44 22.502v20.22z" fill="#1A1918" mask="url(#b)"/></g></svg>