<svg xmlns="http://www.w3.org/2000/svg" width="48" height="48" viewBox="-7.5 -3.5 48 48"><path d="M11.357 11.108c.108.088.24.13.37.13.17 0 .34-.074.457-.22l5.252-6.527c.205-.25.165-.62-.09-.825-.25-.202-.62-.163-.825.09l-5.25 6.526c-.204.255-.163.625.09.83zm2.253 1.85c.1.218.312.347.537.347.08 0 .164-.016.242-.053l7.532-3.41c.295-.135.427-.484.294-.78-.134-.297-.483-.428-.78-.294l-7.534 3.41c-.298.137-.43.485-.294.78zm18.677 21.178L26.18 28.47l-.02-.017c-.705-.662-1.868-.628-2.535.075l-2.66 2.792c-.593.628-1.476.233-4.28-1.913-1.987-1.525-3.934-3.358-5.483-5.16-1.524-1.778-1.89-2.71-1.358-3.286l.72-.62 2.25-2.182.094-.12c.713-.988-.396-1.99-.86-2.382l-.028-.03-5.998-5.84-.013-.012c-.71-.668-1.72-.636-2.4.086l-2.026 2.204-.543.633c-.052.07-5.15 7.192 7.697 19.573 7.312 7.052 12.797 8.606 16.21 8.606l.376-.007c2.23-.078 3.68-.838 4.226-1.44l2.735-2.786c.345-.366.532-.864.51-1.366-.018-.46-.202-.87-.51-1.145zM4.474 10.66c.118-.126.246-.19.376-.19.12 0 .24.054.352.16l.006-.006c.293.3 1.408 1.385 5.934 5.79l.088.09c.72.604.727.824.713.855L10.15 19.1C8.94 17.93 4.26 13.39 3.055 12.22l1.416-1.562zm24.228 27.957c-.31.342-1.42 1.007-3.415 1.075-2.576.093-8.056-.867-15.732-8.27C-.49 21.74.685 15.13 1.96 13.43l.306-.337 7.012 6.803-.246.212c-1.53 1.63.295 3.76 1.276 4.903 1.6 1.86 3.61 3.755 5.66 5.33 2.445 1.87 4.375 3.35 5.85 1.79l.135-.14 6.818 6.56-.066.066zm2.737-2.787l-1.84 1.885-6.84-6.578 1.713-1.798c.222-.238.625-.255.866-.04l.02.02 6.13 5.686c.077.068.125.185.13.322.01.185-.06.37-.182.5zM8.59 9.212l.16.023c.257 0 .492-.17.565-.427l2.297-8.06c.088-.31-.093-.637-.405-.726-.314-.09-.638.093-.728.404l-2.3 8.06c-.09.312.092.638.406.726z"/></svg>