<?xml version="1.0" encoding="UTF-8" standalone="no"?>
<svg width="52px" height="52px" viewBox="0 0 52 52" version="1.1" xmlns="http://www.w3.org/2000/svg" xmlns:xlink="http://www.w3.org/1999/xlink" xmlns:sketch="http://www.bohemiancoding.com/sketch/ns">
    <!-- Generator: Sketch 3.3.3 (12081) - http://www.bohemiancoding.com/sketch -->
    <title>Group</title>
    <desc>Created with Sketch.</desc>
    <defs></defs>
    <g id="UI" stroke="none" stroke-width="1" fill="none" fill-rule="evenodd" sketch:type="MSPage">
        <g id="Toolbox-Tapped" sketch:type="MSArtboardGroup" transform="translate(-1121.000000, -282.000000)" fill="#0A0B09">
            <g id="Nav---Toolbox-open" sketch:type="MSLayerGroup">
                <g id="Help-icon" sketch:type="MSShapeGroup">
                    <g transform="translate(1120.800000, 282.000000)">
                        <g id="Group" transform="translate(1.000000, 0.000000)">
                            <path d="M10.2,2.3477 L10.2,17.476 L28.9,15.5227 L28.9,4.301 L10.2,2.3477 L10.2,2.3477 Z M9.35,19.261 C9.1409,19.261 8.9369,19.176 8.7805,19.04 C8.6037,18.887 8.5,18.6507 8.5,18.411 L8.5,1.411 C8.5,1.173 8.6037,0.9367 8.7805,0.7837 C8.959,0.612 9.197,0.544 9.4384,0.561 L29.8384,2.686 C30.2719,2.737 30.6,3.094 30.6,3.536 L30.6,16.286 C30.6,16.728 30.2719,17.0867 29.8384,17.136 L9.4384,19.261 L9.35,19.261 L9.35,19.261 Z" id="Fill-934"></path>
                            <path d="M4.25,13.311 C3.7808,13.311 3.4,12.937 3.4,12.461 L3.4,7.361 C3.4,6.8867 3.7808,6.511 4.25,6.511 C4.7192,6.511 5.1,6.8867 5.1,7.361 L5.1,12.461 C5.1,12.937 4.7192,13.311 4.25,13.311" id="Fill-935"></path>
                            <path d="M0.85,16.711 C0.3808,16.711 0,16.337 0,15.861 L0,3.961 C0,3.4867 0.3808,3.111 0.85,3.111 C1.3192,3.111 1.7,3.4867 1.7,3.961 L1.7,15.861 C1.7,16.337 1.3192,16.711 0.85,16.711" id="Fill-936"></path>
                            <path d="M20.4,47.3977 L40.8,49.351 L40.8,34.2227 L20.4,36.176 L20.4,47.3977 L20.4,47.3977 Z M41.65,51.136 L41.5684,51.136 L19.4684,49.011 C19.0315,48.9617 18.7,48.603 18.7,48.161 L18.7,35.411 C18.7,34.969 19.0315,34.612 19.4684,34.561 L41.5684,32.436 C41.8081,32.419 42.0427,32.5057 42.2212,32.6587 C42.398,32.8117 42.5,33.048 42.5,33.286 L42.5,50.286 C42.5,50.5257 42.398,50.762 42.2212,50.915 C42.0648,51.051 41.8591,51.136 41.65,51.136 L41.65,51.136 Z" id="Fill-937"></path>
                            <path d="M45.05,45.611 C44.5808,45.611 44.2,45.237 44.2,44.761 L44.2,37.961 C44.2,37.4867 44.5808,37.111 45.05,37.111 C45.5192,37.111 45.9,37.4867 45.9,37.961 L45.9,44.761 C45.9,45.237 45.5192,45.611 45.05,45.611" id="Fill-938"></path>
                            <path d="M50.15,47.311 C49.6808,47.311 49.3,46.937 49.3,46.461 L49.3,36.261 C49.3,35.7867 49.6808,35.411 50.15,35.411 C50.6192,35.411 51,35.7867 51,36.261 L51,46.461 C51,46.937 50.6192,47.311 50.15,47.311" id="Fill-939"></path>
                            <path d="M18.7,43.061 L8.0546,43.061 C5.5692,43.061 3.4459,41.412 2.89,39.066 C2.3766,36.89 3.3966,34.8857 5.5505,33.7977 L43.8328,16.6787 C45.2455,15.9647 45.8915,14.773 45.5702,13.3977 C45.2676,12.1397 44.0402,10.761 42.0546,10.761 L30.6,10.761 C30.1308,10.761 29.75,10.387 29.75,9.911 C29.75,9.4367 30.1308,9.061 30.6,9.061 L42.0546,9.061 C44.5485,9.061 46.6735,10.6947 47.2226,13.022 C47.7258,15.147 46.7075,17.136 44.5604,18.207 L6.2764,35.343 C4.8773,36.04 4.2177,37.298 4.5441,38.675 C4.8501,39.9687 6.0792,41.361 8.0546,41.361 L18.7,41.361 C19.1692,41.361 19.55,41.7367 19.55,42.211 C19.55,42.687 19.1692,43.061 18.7,43.061" id="Fill-940"></path>
                            <path d="M12.75,18.411 C12.2808,18.411 11.9,18.037 11.9,17.561 L11.9,2.261 C11.9,1.7867 12.2808,1.411 12.75,1.411 C13.2192,1.411 13.6,1.7867 13.6,2.261 L13.6,17.561 C13.6,18.037 13.2192,18.411 12.75,18.411" id="Fill-941"></path>
                            <path d="M36.55,50.711 C36.0808,50.711 35.7,50.337 35.7,49.861 L35.7,34.561 C35.7,34.0867 36.0808,33.711 36.55,33.711 C37.0192,33.711 37.4,34.0867 37.4,34.561 L37.4,49.861 C37.4,50.337 37.0192,50.711 36.55,50.711" id="Fill-942"></path>
                        </g>
                    </g>
                </g>
            </g>
        </g>
    </g>
</svg>