<svg width="68" height="83" viewBox="0 0 135 166" xmlns="http://www.w3.org/2000/svg"><title>Group</title><g fill="none" fill-rule="evenodd"><path d="M2.677 108.728h129.147v.018H2.677v-.018z" fill="#8E918E"/><path d="M131.823 162.974H2.677v-51.762H0v54.228h134.5v-54.228h-2.677v51.762M0 54.5h134.5V.236H0V54.5zM2.677 2.702h129.147v51.78H2.677V2.702z" fill="#E0E0E0"/><path d="M2.677 111.194h129.147v.018H2.677v-.018z" fill="#DF5031"/><path d="M0 108.728h2.677V56.966h129.146v51.762h2.677v-51.78H0v51.78" fill="#FF4500"/><path d="M131.823 108.746H2.677v-.018H0v2.484h2.677v-.018h129.146v.018h2.677v-2.484h-2.677v.018M.06 54.5H134.5v2.448H.06V54.5z" fill="#FF4500"/></g></svg>