<?xml version="1.0" encoding="UTF-8" standalone="no"?>
<svg width="55px" height="51px" viewBox="0 0 55 51" version="1.1" xmlns="http://www.w3.org/2000/svg" xmlns:xlink="http://www.w3.org/1999/xlink" xmlns:sketch="http://www.bohemiancoding.com/sketch/ns">
    <!-- Generator: Sketch 3.3.3 (12081) - http://www.bohemiancoding.com/sketch -->
    <title>Group</title>
    <desc>Created with Sketch.</desc>
    <defs></defs>
    <g id="UI" stroke="none" stroke-width="1" fill="none" fill-rule="evenodd" sketch:type="MSPage">
        <g id="Help-Tapped" sketch:type="MSArtboardGroup" transform="translate(-1250.000000, -282.000000)" fill="#0A0B09">
            <g id="Nav---Toolbox-open" sketch:type="MSLayerGroup">
                <g id="Feedback-icon" sketch:type="MSShapeGroup">
                    <g transform="translate(1222.800000, 282.000000)">
                        <g id="Group" transform="translate(28.000000, 0.000000)">
                            <path d="M1.79272727,23.2906717 L7.95791636,23.2906717 C8.25192364,23.2906717 8.52441818,23.4308457 8.69293455,23.6586284 C8.85965818,23.9039329 8.90089091,24.2018026 8.80229091,24.4646288 L6.97908727,29.4075136 L16.2170109,23.4308457 C16.3640145,23.343237 16.5361164,23.2906717 16.7100109,23.2906717 L35.8545455,23.2906717 L35.8545455,2.26457522 L1.79272727,2.26457522 L1.79272727,23.2906717 L1.79272727,23.2906717 Z M5.21683636,32.4545455 C5.02142909,32.4545455 4.82422909,32.4037324 4.66288364,32.279328 C4.35991273,32.0357757 4.24159273,31.6485451 4.37246182,31.2805884 L6.68328727,25.0428464 L0.896363636,25.0428464 C0.401570909,25.0428464 0,24.657368 0,24.1685113 L0,1.38848787 C0,0.899631125 0.401570909,0.514152689 0.896363636,0.514152689 L36.7509091,0.514152689 C37.2528727,0.514152689 37.6472727,0.899631125 37.6472727,1.38848787 L37.6472727,24.1685113 C37.6472727,24.657368 37.2528727,25.0428464 36.7509091,25.0428464 L16.9807127,25.0428464 L5.71162909,32.3143715 C5.56104,32.4212541 5.38893818,32.4545455 5.21683636,32.4545455 L5.21683636,32.4545455 Z" id="Fill-4600"></path>
                            <path d="M49.4254909,50.2516254 C49.2462182,50.2516254 49.0848727,50.2221121 48.9235273,50.1273589 L37.6652,43.6810336 L18.8236364,43.6810336 C18.3288436,43.6810336 17.9272727,43.3393007 17.9272727,42.9059213 L17.9272727,25.041057 C17.9272727,24.6076775 18.3288436,24.2659446 18.8236364,24.2659446 C19.3184291,24.2659446 19.72,24.6076775 19.72,25.041057 L19.72,42.1277022 L37.9341091,42.1277022 C38.0954545,42.1277022 38.2747273,42.1743022 38.4181455,42.2519687 L47.6686182,47.5503821 L45.8400364,43.1684343 C45.7324727,42.9354345 45.7862545,42.6713682 45.9476,42.4539018 C46.1089455,42.2519687 46.3957818,42.1277022 46.6826182,42.1277022 L51.9890909,42.1277022 L51.9890909,21.9359475 L37.6472727,21.9359475 C37.1453091,21.9359475 36.7509091,21.5926613 36.7509091,21.1577285 C36.7509091,20.724349 37.1453091,20.3810628 37.6472727,20.3810628 L52.8854545,20.3810628 C53.3874182,20.3810628 53.7818182,20.724349 53.7818182,21.1577285 L53.7818182,42.9059213 C53.7818182,43.3393007 53.3874182,43.6810336 52.8854545,43.6810336 L47.9554545,43.6810336 L50.2680727,49.2108934 C50.3935636,49.5370929 50.286,49.8803792 49.9812364,50.0962922 C49.8198909,50.2065788 49.6226909,50.2516254 49.4254909,50.2516254" id="Fill-4601"></path>
                            <path d="M32.2690909,11.0610745 L7.17090909,11.0610745 C6.67611636,11.0610745 6.27454545,10.7193416 6.27454545,10.2859621 C6.27454545,9.85102933 6.67611636,9.50774309 7.17090909,9.50774309 L32.2690909,9.50774309 C32.7638836,9.50774309 33.1654545,9.85102933 33.1654545,10.2859621 C33.1654545,10.7193416 32.7638836,11.0610745 32.2690909,11.0610745" id="Fill-4602"></path>
                            <path d="M32.2690909,14.1677373 L7.17090909,14.1677373 C6.67611636,14.1677373 6.27454545,13.8260043 6.27454545,13.3910716 C6.27454545,12.9576921 6.67611636,12.6159592 7.17090909,12.6159592 L32.2690909,12.6159592 C32.7638836,12.6159592 33.1654545,12.9576921 33.1654545,13.3910716 C33.1654545,13.8260043 32.7638836,14.1677373 32.2690909,14.1677373" id="Fill-4603"></path>
                            <path d="M19.72,17.2759534 L7.17090909,17.2759534 C6.67611636,17.2759534 6.27454545,16.9326671 6.27454545,16.4977343 C6.27454545,16.0643549 6.67611636,15.7210686 7.17090909,15.7210686 L19.72,15.7210686 C20.2147927,15.7210686 20.6163636,16.0643549 20.6163636,16.4977343 C20.6163636,16.9326671 20.2147927,17.2759534 19.72,17.2759534" id="Fill-4604"></path>
                            <path d="M46.6109091,31.2559358 L25.0981818,31.2559358 C24.6033891,31.2559358 24.2018182,30.9126496 24.2018182,30.4777168 C24.2018182,30.0443374 24.6033891,29.7010511 25.0981818,29.7010511 L46.6109091,29.7010511 C47.1128727,29.7010511 47.5072727,30.0443374 47.5072727,30.4777168 C47.5072727,30.9126496 47.1128727,31.2559358 46.6109091,31.2559358" id="Fill-4605"></path>
                            <path d="M46.6109091,34.3610453 L25.0981818,34.3610453 C24.6033891,34.3610453 24.2018182,34.0193124 24.2018182,33.5859329 C24.2018182,33.1510001 24.6033891,32.8077139 25.0981818,32.8077139 L46.6109091,32.8077139 C47.1128727,32.8077139 47.5072727,33.1510001 47.5072727,33.5859329 C47.5072727,34.0193124 47.1128727,34.3610453 46.6109091,34.3610453" id="Fill-4606"></path>
                            <path d="M37.6472727,37.4677081 L25.0981818,37.4677081 C24.6033891,37.4677081 24.2018182,37.1259752 24.2018182,36.6910424 C24.2018182,36.2576629 24.6033891,35.91593 25.0981818,35.91593 L37.6472727,35.91593 C38.1492364,35.91593 38.5436364,36.2576629 38.5436364,36.6910424 C38.5436364,37.1259752 38.1492364,37.4677081 37.6472727,37.4677081" id="Fill-4607"></path>
                        </g>
                    </g>
                </g>
            </g>
        </g>
    </g>
</svg>