<?xml version="1.0" encoding="UTF-8" standalone="no"?>
<svg width="64px" height="64px" viewBox="0 0 64 64" version="1.1" xmlns="http://www.w3.org/2000/svg" xmlns:xlink="http://www.w3.org/1999/xlink" xmlns:sketch="http://www.bohemiancoding.com/sketch/ns">
    <!-- Generator: Sketch 3.5.1 (25234) - http://www.bohemiancoding.com/sketch -->
    <title>help-icon</title>
    <desc>Created with Sketch.</desc>
    <defs></defs>
    <g id="Icons" stroke="none" stroke-width="1" fill="none" fill-rule="evenodd" sketch:type="MSPage">
        <g sketch:type="MSLayerGroup" transform="translate(-558.000000, -170.000000)" id="Help" fill="#000000">
            <g transform="translate(558.000000, 170.000000)" sketch:type="MSShapeGroup">
                <g id="help-icon">
                    <path d="M3,9.00008114 L3,9.00008114 L3,54.9999189 C3,58.3147229 5.68563621,61 9.00008114,61 L54.9999189,61 C58.3147229,61 61,58.3143638 61,54.9999189 L61,9.00008114 C61,5.68527709 58.3143638,3 54.9999189,3 L9.00008114,3 C5.68527709,3 3,5.68563621 3,9.00008114 L3,9.00008114 Z M0,9.00008114 C0,4.02947358 4.02773128,0 9.00008114,0 L54.9999189,0 C59.9705264,0 64,4.02773128 64,9.00008114 L64,54.9999189 C64,59.9705264 59.9722687,64 54.9999189,64 L9.00008114,64 C4.02947358,64 0,59.9722687 0,54.9999189 L0,9.00008114 L0,9.00008114 Z" id="Shape"></path>
                    <path d="M25.1865234,27.8540039 C25.1865234,27.0190388 25.4545872,26.1731 25.9907227,25.3161621 C26.5268581,24.4592242 27.3090769,23.7495145 28.3374023,23.1870117 C29.3657278,22.6245089 30.5654228,22.3432617 31.9365234,22.3432617 C33.2109439,22.3432617 34.3359326,22.5783668 35.3115234,23.048584 C36.2871143,23.5188012 37.0407688,24.1581991 37.5725098,24.9667969 C38.1042507,25.7753947 38.3701172,26.6542921 38.3701172,27.6035156 C38.3701172,28.3505897 38.2185074,29.0053683 37.9152832,29.5678711 C37.612059,30.1303739 37.2517111,30.6159648 36.8342285,31.0246582 C36.416746,31.4333517 35.6674859,32.1210889 34.5864258,33.0878906 C34.2875962,33.3603529 34.0480966,33.5998525 33.8679199,33.8063965 C33.6877432,34.0129405 33.5537114,34.2019034 33.4658203,34.373291 C33.3779292,34.5446786 33.3098147,34.7160636 33.2614746,34.8874512 C33.2131345,35.0588387 33.1406255,35.3598611 33.0439453,35.7905273 C32.8769523,36.7045944 32.3540083,37.1616211 31.4750977,37.1616211 C31.0180641,37.1616211 30.6335465,37.0122085 30.3215332,36.7133789 C30.0095199,36.4145493 29.8535156,35.9707061 29.8535156,35.3818359 C29.8535156,34.643551 29.9677723,34.0041531 30.1962891,33.463623 C30.4248058,32.923093 30.7280255,32.4484884 31.105957,32.0397949 C31.4838886,31.6311015 31.9936491,31.1455106 32.6352539,30.5830078 C33.1977567,30.0908179 33.6042468,29.7194837 33.8547363,29.4689941 C34.1052259,29.2185046 34.3161613,28.9394547 34.4875488,28.6318359 C34.6589364,28.3242172 34.7446289,27.9902362 34.7446289,27.6298828 C34.7446289,26.9267543 34.4831569,26.3334985 33.9602051,25.8500977 C33.4372532,25.3666968 32.7626994,25.125 31.9365234,25.125 C30.9697217,25.125 30.2578148,25.368894 29.8007812,25.8566895 C29.3437477,26.3444849 28.9570328,27.0629835 28.640625,28.012207 C28.3417954,29.0053761 27.7749065,29.5019531 26.9399414,29.5019531 C26.4477514,29.5019531 26.0324724,29.3283709 25.6940918,28.9812012 C25.3557112,28.6340315 25.1865234,28.2583028 25.1865234,27.8540039 L25.1865234,27.8540039 L25.1865234,27.8540039 Z M31.6201172,42.3032227 C31.0839817,42.3032227 30.6159688,42.1296404 30.2160645,41.7824707 C29.8161601,41.435301 29.6162109,40.9497102 29.6162109,40.3256836 C29.6162109,39.7719699 29.8095684,39.3061542 30.1962891,38.9282227 C30.5830097,38.5502911 31.0576144,38.3613281 31.6201172,38.3613281 C32.1738309,38.3613281 32.6396465,38.5502911 33.0175781,38.9282227 C33.3955097,39.3061542 33.5844727,39.7719699 33.5844727,40.3256836 C33.5844727,40.940921 33.3867207,41.4243146 32.9912109,41.7758789 C32.5957011,42.1274432 32.1386745,42.3032227 31.6201172,42.3032227 L31.6201172,42.3032227 L31.6201172,42.3032227 Z" id="?"></path>
                </g>
            </g>
        </g>
    </g>
</svg>