<?xml version="1.0" encoding="UTF-8" standalone="no"?>
<svg width="71px" height="17px" viewBox="0 0 71 17" version="1.1" xmlns="http://www.w3.org/2000/svg" xmlns:xlink="http://www.w3.org/1999/xlink">
    <title>Group Copy 21</title>
    <desc>Created with Sketch.</desc>
    <defs></defs>
    <g stroke="none" stroke-width="1" fill="none" fill-rule="evenodd">
        <g fill="#f9e900">
            <g>
                <path d="M65.4114583,3.30465625 L14.578125,3.30465625 C13.70125,3.30465625 12.9895833,2.608875 12.9895833,1.71611458 C12.9895833,0.82653125 13.70125,0.13075 14.578125,0.13075 L65.4114583,0.13075 C66.2883333,0.13075 67,0.82653125 67,1.71611458 C67,2.608875 66.2883333,3.30465625 65.4114583,3.30465625"></path>
                <path d="M55.8802083,9.662 L1.86979167,9.662 C0.992916667,9.662 0.28125,8.95986458 0.28125,8.07028125 C0.28125,7.18069792 0.992916667,6.48173958 1.86979167,6.48173958 L55.8802083,6.48173958 C56.7570833,6.48173958 57.46875,7.18069792 57.46875,8.07028125 C57.46875,8.95986458 56.7570833,9.662 55.8802083,9.662"></path>
                <path d="M69.2777778,16.1044444 L10.7222222,16.1044444 C9.77155556,16.1044444 9,15.3501111 9,14.3856667 C9,13.4212222 9.77155556,12.66 10.7222222,12.66 L69.2777778,12.66 C70.2284444,12.66 71,13.4212222 71,14.3856667 C71,15.3501111 70.2284444,16.1044444 69.2777778,16.1044444"></path>
            </g>
        </g>
    </g>
</svg>