<?xml version="1.0" encoding="UTF-8" standalone="no"?>
<svg width="64px" height="64px" viewBox="0 0 64 64" version="1.1" xmlns="http://www.w3.org/2000/svg" xmlns:xlink="http://www.w3.org/1999/xlink" xmlns:sketch="http://www.bohemiancoding.com/sketch/ns">
    <!-- Generator: Sketch 3.5.1 (25234) - http://www.bohemiancoding.com/sketch -->
    <title>Group 2</title>
    <desc>Created with Sketch.</desc>
    <defs></defs>
    <g id="Trial" stroke="none" stroke-width="1" fill="none" fill-rule="evenodd" sketch:type="MSPage">
        <g id="Solomon-Side-Draw---Example-2-Copy-5" sketch:type="MSArtboardGroup" transform="translate(-1764.000000, -66.000000)">
            <g id="Rectangle-986-+-Rectangle-987-+-Triangle-2" sketch:type="MSLayerGroup" transform="translate(1764.000000, 66.000000)">
                <g id="Group-2" sketch:type="MSShapeGroup">
                    <path d="M3,10 L3,10 L3,54 C3,57.867352 6.13313146,61 10,61 L54,61 C57.867352,61 61,57.8668685 61,54 L61,10 C61,6.132648 57.8668685,3 54,3 L10,3 C6.132648,3 3,6.13313146 3,10 L3,10 Z M0,10 C0,4.4771525 4.47491856,0 10,0 L54,0 C59.5228475,0 64,4.47491856 64,10 L64,54 C64,59.5228475 59.5250814,64 54,64 L10,64 C4.4771525,64 0,59.5250814 0,54 L0,10 L0,10 Z" id="Shape" fill="#000000"></path>
                    <rect id="Rectangle-987" fill="#7ED321" x="7" y="7" width="50" height="50" rx="5"></rect>
                    <path d="M18.9955556,45.9585185 C19.0706597,44.6826392 19.0782092,43.4456005 19.2336241,42.2275913 C19.3892993,41.0068449 20.1592148,40.1634272 21.307645,39.7739771 C22.4110387,39.3996462 23.5638944,39.174422 24.681606,38.8386711 C25.5495344,38.577995 26.4319109,38.3218807 27.2458216,37.9334732 C28.8680459,37.1591347 29.2010034,36.0706815 28.3644444,34.4776896 C27.3422725,32.5310905 26.4602865,30.5333989 26.0379068,28.3619667 C25.7494651,26.8789801 25.6765737,25.3837418 26.038818,23.9050564 C26.8653545,20.5312554 29.9470991,18.5572854 33.5280196,19.0785073 C37.072104,19.5943854 39.172548,22.0039453 39.2563731,25.6032311 C39.3262708,28.6051775 38.2985019,31.3004385 37.0114479,33.9304001 C37.001946,33.9498204 36.9868471,33.9663734 36.9766944,33.9855331 C35.7928598,36.2235681 36.1823082,37.3760173 38.5547933,38.2443295 C39.8301326,38.7112005 41.1751093,38.9868655 42.4884562,39.3499874 C42.8218043,39.4422667 43.1590572,39.5247707 43.4857669,39.6371221 C44.9045461,40.1248472 45.8220667,41.0652364 45.9226828,42.6055717 C45.9942726,43.7031486 45.9364802,44.8091974 45.9364802,45.9585185 L18.9955556,45.9585185 Z" id="Fill-1" fill="#FFFFFF"></path>
                </g>
            </g>
        </g>
    </g>
</svg>