<?xml version="1.0" encoding="UTF-8" standalone="no"?>
<svg width="58px" height="42px" viewBox="0 0 58 42" version="1.1" xmlns="http://www.w3.org/2000/svg" xmlns:xlink="http://www.w3.org/1999/xlink">
    <title>Fill 8867</title>
    <desc>Created with Sketch.</desc>
    <defs></defs>
    <g stroke="none" stroke-width="1" fill="none" fill-rule="evenodd">
        <g fill="#f9e900">
            <path d="M19.7,2.76 C10.46,2.76 2.36,11.38 2.36,21.2 C2.36,31.042 10.46,39.662 19.7,39.662 L42.24,39.662 C49.5,39.662 55.34,31.1 55.34,24.02 C55.34,16.44 49.22,9.802 42.24,9.802 C40.06,9.802 37.9,10.382 35.88,11.52 L35.04,12.002 L34.52,11.18 C31.36,5.9 25.8,2.76 19.7,2.76 L19.7,2.76 Z M42.24,41.66 L19.7,41.66 C9.4,41.66 0.36,32.1 0.36,21.2 C0.36,10.322 9.4,0.76 19.7,0.76 C26.2,0.76 32.14,3.94 35.74,9.34 C37.82,8.32 40,7.802 42.24,7.802 C50.28,7.802 57.34,15.382 57.34,24.02 C57.34,32.18 50.74,41.66 42.24,41.66 L42.24,41.66 Z"></path>
        </g>
    </g>
</svg>