<?xml version="1.0" encoding="UTF-8" standalone="no"?>
<svg width="62px" height="33px" viewBox="0 0 62 33" version="1.1" xmlns="http://www.w3.org/2000/svg" xmlns:xlink="http://www.w3.org/1999/xlink">
    <title>Fill 8868 + Fill 8869 + Fill 8870</title>
    <desc>Created with Sketch.</desc>
    <defs></defs>
    <g stroke="none" stroke-width="1" fill="none" fill-rule="evenodd">
        <g fill="#5d5d5d">
            <path d="M55.48,12.68 C52.24,12.68 49.6,10.042 49.6,6.802 C49.6,4.66 47.86,2.92 45.72,2.92 C43.56,2.92 41.82,4.66 41.82,6.802 C41.82,10.042 39.184,12.68 35.938,12.68 C32.692,12.68 30.05,10.042 30.05,6.802 C30.05,4.66 28.306,2.92 26.164,2.92 C24.022,2.92 22.278,4.66 22.278,6.802 C22.278,10.042 19.634,12.68 16.388,12.68 C13.142,12.68 10.502,10.042 10.502,6.802 C10.502,4.66 8.758,2.92 6.616,2.92 C4.47,2.92 2.726,4.66 2.726,6.802 C2.726,7.36 2.28,7.8 1.726,7.8 C1.174,7.8 0.726,7.36 0.726,6.802 C0.726,3.562 3.37,0.922 6.616,0.922 C9.862,0.922 12.502,3.562 12.502,6.802 C12.502,8.94 14.246,10.68 16.388,10.68 C18.534,10.68 20.278,8.94 20.278,6.802 C20.278,3.562 22.918,0.922 26.164,0.922 C29.41,0.922 32.05,3.562 32.05,6.802 C32.05,8.94 33.794,10.68 35.938,10.68 C38.08,10.68 39.824,8.94 39.824,6.802 C39.824,3.562 42.46,0.922 45.72,0.922 C48.96,0.922 51.6,3.562 51.6,6.802 C51.6,8.94 53.34,10.68 55.48,10.68 C57.62,10.68 59.38,8.94 59.38,6.802 C59.38,6.24 59.82,5.802 60.38,5.802 C60.92,5.802 61.38,6.24 61.38,6.802 C61.38,10.042 58.74,12.68 55.48,12.68"></path>
            <path d="M55.48,22.68 C52.24,22.68 49.6,20.042 49.6,16.8 C49.6,14.662 47.86,12.922 45.72,12.922 C43.56,12.922 41.82,14.662 41.82,16.8 C41.82,20.042 39.184,22.68 35.938,22.68 C32.692,22.68 30.05,20.042 30.05,16.8 C30.05,14.662 28.306,12.922 26.164,12.922 C24.022,12.922 22.278,14.662 22.278,16.8 C22.278,20.042 19.634,22.68 16.388,22.68 C13.142,22.68 10.502,20.042 10.502,16.8 C10.502,14.662 8.758,12.922 6.616,12.922 C4.47,12.922 2.726,14.662 2.726,16.8 C2.726,17.36 2.28,17.802 1.726,17.802 C1.174,17.802 0.726,17.36 0.726,16.8 C0.726,13.562 3.37,10.92 6.616,10.92 C9.862,10.92 12.502,13.562 12.502,16.8 C12.502,18.94 14.246,20.68 16.388,20.68 C18.534,20.68 20.278,18.94 20.278,16.8 C20.278,13.562 22.918,10.92 26.164,10.92 C29.41,10.92 32.05,13.562 32.05,16.8 C32.05,18.94 33.794,20.68 35.938,20.68 C38.08,20.68 39.824,18.94 39.824,16.8 C39.824,13.562 42.46,10.92 45.72,10.92 C48.96,10.92 51.6,13.562 51.6,16.8 C51.6,18.94 53.34,20.68 55.48,20.68 C57.62,20.68 59.38,18.94 59.38,16.8 C59.38,16.24 59.82,15.802 60.38,15.802 C60.92,15.802 61.38,16.24 61.38,16.8 C61.38,20.042 58.74,22.68 55.48,22.68"></path>
            <path d="M55.48,32.68 C52.24,32.68 49.6,30.042 49.6,26.802 C49.6,24.66 47.86,22.92 45.72,22.92 C43.56,22.92 41.82,24.66 41.82,26.802 C41.82,30.042 39.184,32.68 35.938,32.68 C32.692,32.68 30.05,30.042 30.05,26.802 C30.05,24.66 28.306,22.92 26.164,22.92 C24.022,22.92 22.278,24.66 22.278,26.802 C22.278,30.042 19.634,32.68 16.388,32.68 C13.142,32.68 10.502,30.042 10.502,26.802 C10.502,24.66 8.758,22.92 6.616,22.92 C4.47,22.92 2.726,24.66 2.726,26.802 C2.726,27.36 2.28,27.802 1.726,27.802 C1.174,27.802 0.726,27.36 0.726,26.802 C0.726,23.562 3.37,20.92 6.616,20.92 C9.862,20.92 12.502,23.562 12.502,26.802 C12.502,28.94 14.246,30.68 16.388,30.68 C18.534,30.68 20.278,28.94 20.278,26.802 C20.278,23.562 22.918,20.92 26.164,20.92 C29.41,20.92 32.05,23.562 32.05,26.802 C32.05,28.94 33.794,30.68 35.938,30.68 C38.08,30.68 39.824,28.94 39.824,26.802 C39.824,23.562 42.46,20.92 45.72,20.92 C48.96,20.92 51.6,23.562 51.6,26.802 C51.6,28.94 53.34,30.68 55.48,30.68 C57.62,30.68 59.38,28.94 59.38,26.802 C59.38,26.242 59.82,25.8 60.38,25.8 C60.92,25.8 61.38,26.242 61.38,26.802 C61.38,30.042 58.74,32.68 55.48,32.68"></path>
        </g>
    </g>
</svg>