<?xml version="1.0" encoding="UTF-8" standalone="no"?>
<svg width="58px" height="59px" viewBox="0 0 58 59" version="1.1" xmlns="http://www.w3.org/2000/svg" xmlns:xlink="http://www.w3.org/1999/xlink">
    <title>Group Copy 4</title>
    <desc>Created with Sketch.</desc>
    <defs></defs>
    <g stroke="none" stroke-width="1" fill="none" fill-rule="evenodd">
        <g fill="#f9e900">
            <path d="M47.3,39.42 C46.94,39.42 46.58,39.222 46.42,38.86 C46.16,38.36 46.36,37.76 46.86,37.52 C51.7,35.1 55.34,28.98 55.34,23.28 C55.34,15.84 49.22,9.302 42.24,9.302 C40.06,9.302 37.9,9.882 35.88,11.02 L35.04,11.502 L34.52,10.68 C31.36,5.4 25.8,2.26 19.7,2.26 C10.3,2.26 2.36,10.6 2.36,20.462 C2.36,26.26 5.3,32 10.04,35.44 C10.48,35.76 10.58,36.402 10.26,36.84 C9.92,37.28 9.3,37.382 8.86,37.062 C3.62,33.24 0.36,26.882 0.36,20.462 C0.36,9.5 9.22,0.26 19.7,0.26 C26.2,0.26 32.14,3.44 35.74,8.84 C37.82,7.82 40,7.302 42.24,7.302 C50.28,7.302 57.34,14.76 57.34,23.28 C57.34,29.78 53.3,36.52 47.76,39.302 C47.62,39.38 47.46,39.42 47.3,39.42"></path>
            <path d="M14,43.662 C13.44,43.662 13,43.22 13,42.66 L13,20.66 C13,20.1 13.44,19.662 14,19.662 C14.56,19.662 15,20.1 15,20.66 L15,42.66 C15,43.22 14.56,43.662 14,43.662"></path>
            <path d="M20,37.662 C19.44,37.662 19,37.22 19,36.66 L19,12.66 C19,12.1 19.44,11.66 20,11.66 C20.56,11.66 21,12.1 21,12.66 L21,36.66 C21,37.22 20.56,37.662 20,37.662"></path>
            <path d="M28,43.662 C27.44,43.662 27,43.22 27,42.66 L27,20.66 C27,20.1 27.44,19.662 28,19.662 C28.56,19.662 29,20.1 29,20.66 L29,42.66 C29,43.22 28.56,43.662 28,43.662"></path>
            <path d="M36,39.66 C35.44,39.66 35,39.222 35,38.66 L35,16.662 C35,16.102 35.44,15.66 36,15.66 C36.56,15.66 37,16.102 37,16.662 L37,38.66 C37,39.222 36.56,39.66 36,39.66"></path>
            <path d="M44,37.662 C43.44,37.662 43,37.22 43,36.66 L43,12.66 C43,12.1 43.44,11.66 44,11.66 C44.56,11.66 45,12.1 45,12.66 L45,36.66 C45,37.22 44.56,37.662 44,37.662"></path>
            <path d="M12.7,48.062 C11.88,48.062 11.2,48.74 11.2,49.562 C11.2,50.382 11.88,51.062 12.7,51.062 C13.54,51.062 14.2,50.382 14.2,49.562 C14.2,48.74 13.54,48.062 12.7,48.062 L12.7,48.062 Z M12.7,53.062 C10.78,53.062 9.2,51.48 9.2,49.562 C9.2,47.622 10.78,46.062 12.7,46.062 C14.64,46.062 16.2,47.622 16.2,49.562 C16.2,51.48 14.64,53.062 12.7,53.062 L12.7,53.062 Z"></path>
            <path d="M22.7,53.062 C21.88,53.062 21.2,53.742 21.2,54.562 C21.2,55.382 21.88,56.062 22.7,56.062 C23.54,56.062 24.2,55.382 24.2,54.562 C24.2,53.742 23.54,53.062 22.7,53.062 L22.7,53.062 Z M22.7,58.062 C20.78,58.062 19.2,56.48 19.2,54.562 C19.2,52.622 20.78,51.062 22.7,51.062 C24.64,51.062 26.2,52.622 26.2,54.562 C26.2,56.48 24.64,58.062 22.7,58.062 L22.7,58.062 Z"></path>
            <path d="M35.2,45.562 C34.38,45.562 33.7,46.242 33.7,47.062 C33.7,47.882 34.38,48.562 35.2,48.562 C36.04,48.562 36.7,47.882 36.7,47.062 C36.7,46.242 36.04,45.562 35.2,45.562 L35.2,45.562 Z M35.2,50.562 C33.28,50.562 31.7,48.98 31.7,47.062 C31.7,45.122 33.28,43.562 35.2,43.562 C37.14,43.562 38.7,45.122 38.7,47.062 C38.7,48.98 37.14,50.562 35.2,50.562 L35.2,50.562 Z"></path>
            <path d="M45.2,53.062 C44.38,53.062 43.7,53.742 43.7,54.562 C43.7,55.382 44.38,56.062 45.2,56.062 C46.04,56.062 46.7,55.382 46.7,54.562 C46.7,53.742 46.04,53.062 45.2,53.062 L45.2,53.062 Z M45.2,58.062 C43.28,58.062 41.7,56.48 41.7,54.562 C41.7,52.622 43.28,51.062 45.2,51.062 C47.14,51.062 48.7,52.622 48.7,54.562 C48.7,56.48 47.14,58.062 45.2,58.062 L45.2,58.062 Z"></path>
        </g>
    </g>
</svg>