<?xml version="1.0" encoding="UTF-8" standalone="no"?>
<svg width="64px" height="64px" viewBox="0 0 64 64" version="1.1" xmlns="http://www.w3.org/2000/svg" xmlns:xlink="http://www.w3.org/1999/xlink" xmlns:sketch="http://www.bohemiancoding.com/sketch/ns">
    <!-- Generator: Sketch 3.5.1 (25234) - http://www.bohemiancoding.com/sketch -->
    <title>tools-icon</title>
    <desc>Created with Sketch.</desc>
    <defs></defs>
    <g id="Icons" stroke="none" stroke-width="1" fill="none" fill-rule="evenodd" sketch:type="MSPage">
        <g sketch:type="MSLayerGroup" transform="translate(-380.000000, 0.000000)" id="Tools">
            <g transform="translate(380.000000, 0.000000)" sketch:type="MSShapeGroup">
                <g id="tools-icon">
                    <path d="M3,10 L3,10 L3,54 C3,57.867352 6.13313146,61 10,61 L54,61 C57.867352,61 61,57.8668685 61,54 L61,10 C61,6.132648 57.8668685,3 54,3 L10,3 C6.132648,3 3,6.13313146 3,10 L3,10 Z M0,10 C0,4.4771525 4.47491856,0 10,0 L54,0 C59.5228475,0 64,4.47491856 64,10 L64,54 C64,59.5228475 59.5250814,64 54,64 L10,64 C4.4771525,64 0,59.5250814 0,54 L0,10 L0,10 Z" id="Shape" fill="#000000"></path>
                    <path d="M31.5,40 L31.5,23" id="Line" stroke="#000000" stroke-width="3" stroke-linecap="round"></path>
                    <path d="M23,31.5 L40,31.5" id="Line" stroke="#000000" stroke-width="3" stroke-linecap="round" transform="translate(31.500000, 31.500000) scale(-1, -1) translate(-31.500000, -31.500000) "></path>
                </g>
            </g>
        </g>
    </g>
</svg>