<?xml version="1.0" encoding="UTF-8" standalone="no"?>
<svg width="64px" height="64px" viewBox="0 0 64 64" version="1.1" xmlns="http://www.w3.org/2000/svg" xmlns:xlink="http://www.w3.org/1999/xlink" xmlns:sketch="http://www.bohemiancoding.com/sketch/ns">
    <!-- Generator: Sketch 3.5.1 (25234) - http://www.bohemiancoding.com/sketch -->
    <title>feedback-icon</title>
    <desc>Created with Sketch.</desc>
    <defs></defs>
    <g id="Icons" stroke="none" stroke-width="1" fill="none" fill-rule="evenodd" sketch:type="MSPage">
        <g sketch:type="MSLayerGroup" transform="translate(-438.000000, -170.000000)" id="Feedback" fill="#000000">
            <g transform="translate(438.000000, 170.000000)" sketch:type="MSShapeGroup">
                <g id="feedback-icon">
                    <path d="M43.0353394,22 L22,22 C21.1715729,22 20.5,22.6715729 20.5,23.5 C20.5,24.3284271 21.1715729,25 22,25 L43.0353394,25 C43.8637665,25 44.5353394,24.3284271 44.5353394,23.5 C44.5353394,22.6715729 43.8637665,22 43.0353394,22 L43.0353394,22 Z" id="Shape"></path>
                    <path d="M43.0353394,28 L22,28 C21.1715729,28 20.5,28.6715729 20.5,29.5 C20.5,30.3284271 21.1715729,31 22,31 L43.0353394,31 C43.8637665,31 44.5353394,30.3284271 44.5353394,29.5 C44.5353394,28.6715729 43.8637665,28 43.0353394,28 L43.0353394,28 Z" id="Shape"></path>
                    <path d="M34.1357727,33.5 L22,33.5 C21.1715729,33.5 20.5,34.1715729 20.5,35 C20.5,35.8284271 21.1715729,36.5 22,36.5 L34.1357727,36.5 C34.9641998,36.5 35.6357727,35.8284271 35.6357727,35 C35.6357727,34.1715729 34.9641998,33.5 34.1357727,33.5 L34.1357727,33.5 Z" id="Shape"></path>
                    <path d="M17.9071429,13.5 C13.9451876,13.5 10.5,15.8977758 10.5,19.6157143 L10.5,48.9 C10.5,50.083767 11.8069851,50.8010654 12.8055598,50.1653353 L23.2398455,43.5224781 C23.1148871,43.6006385 22.9759492,43.6428571 22.8171429,43.6428571 L46.7757143,43.6428571 C50.5109053,43.6428571 53.5,39.8768612 53.5,35.9871429 L53.5,19.6157143 C53.5,15.941105 50.7378254,13.5 46.7757143,13.5 L17.9071429,13.5 L17.9071429,13.5 Z M17.9071429,16.5 L46.7757143,16.5 C49.157834,16.5 50.5,17.6861554 50.5,19.6157143 L50.5,35.9871429 C50.5,38.3524214 48.6820667,40.6428571 46.7757143,40.6428571 L22.8171429,40.6428571 C22.3965183,40.6428571 21.9886459,40.7667963 21.6392873,40.9851454 L11.1944402,47.6346647 L13.5,48.9 L13.5,19.6157143 C13.5,17.8352667 15.4185464,16.5 17.9071429,16.5 L17.9071429,16.5 Z" id="Shape"></path>
                    <path d="M3,9.00008114 L3,9.00008114 L3,54.9999189 C3,58.3147229 5.68563621,61 9.00008114,61 L54.9999189,61 C58.3147229,61 61,58.3143638 61,54.9999189 L61,9.00008114 C61,5.68527709 58.3143638,3 54.9999189,3 L9.00008114,3 C5.68527709,3 3,5.68563621 3,9.00008114 L3,9.00008114 Z M0,9.00008114 C0,4.02947358 4.02773128,0 9.00008114,0 L54.9999189,0 C59.9705264,0 64,4.02773128 64,9.00008114 L64,54.9999189 C64,59.9705264 59.9722687,64 54.9999189,64 L9.00008114,64 C4.02947358,64 0,59.9722687 0,54.9999189 L0,9.00008114 L0,9.00008114 Z" id="Shape"></path>
                </g>
            </g>
        </g>
    </g>
</svg>