<?xml version="1.0" encoding="UTF-8" standalone="no"?>
<svg width="59px" height="51px" viewBox="0 0 59 51" version="1.1" xmlns="http://www.w3.org/2000/svg" xmlns:xlink="http://www.w3.org/1999/xlink" xmlns:sketch="http://www.bohemiancoding.com/sketch/ns">
    <!-- Generator: Sketch 3.3.3 (12081) - http://www.bohemiancoding.com/sketch -->
    <title>Switch canvas Icon Copy + Fill 9735 + Fill 9736 + Fill 9737</title>
    <desc>Created with Sketch.</desc>
    <defs></defs>
    <g id="UI" stroke="none" stroke-width="1" fill="none" fill-rule="evenodd" sketch:type="MSPage">
        <g id="Help-Tapped" sketch:type="MSArtboardGroup" transform="translate(-972.000000, -282.000000)" fill="#0A0B09">
            <g id="Nav---Toolbox-open" sketch:type="MSLayerGroup">
                <g id="Add-canvas-Icon" sketch:type="MSShapeGroup">
                    <g transform="translate(932.800000, 282.000000)">
                        <g id="Switch-canvas-Icon-Copy-+-Fill-9735-+-Fill-9736-+-Fill-9737" transform="translate(40.000000, 0.000000)">
                            <g id="Switch-canvas-Icon-Copy">
                                <path d="M2.32,48.294062 L55.68,48.294062 L55.68,3.05596678 L2.32,3.05596678 L2.32,48.294062 Z M56.84,50.6773953 L1.16,50.6773953 C0.51968,50.6773953 0,50.1535858 0,49.4869192 L0,1.86549059 C0,1.19882392 0.51968,0.677395349 1.16,0.677395349 L56.84,0.677395349 C57.48032,0.677395349 58,1.19882392 58,1.86549059 L58,49.4869192 C58,50.1535858 57.48032,50.6773953 56.84,50.6773953 L56.84,50.6773953 Z" id="Fill-8734"></path>
                                <path d="M55.8333333,12.9564651 L2.16666667,12.9564651 C1.52266667,12.9564651 1,12.5062326 1,11.9332093 C1,11.3581395 1.52266667,10.907907 2.16666667,10.907907 L55.8333333,10.907907 C56.4773333,10.907907 57,11.3581395 57,11.9332093 C57,12.5062326 56.4773333,12.9564651 55.8333333,12.9564651" id="Fill-8737"></path>
                            </g>
                            <g id="Fill-9735-+-Fill-9736-+-Fill-9737" transform="translate(19.000000, 20.000000)" stroke="#000000">
                                <path d="M10.077931,0.917241379 C5.03931034,0.917241379 0.94,5.01448276 0.94,10.0558621 C0.94,15.0972414 5.03931034,19.1937931 10.077931,19.1937931 C15.1165517,19.1937931 19.2158621,15.0972414 19.2158621,10.0558621 C19.2158621,5.01448276 15.1165517,0.917241379 10.077931,0.917241379 L10.077931,0.917241379 Z M10.077931,19.8834483 C4.65931034,19.8834483 0.250344828,15.4758621 0.250344828,10.0558621 C0.250344828,4.63448276 4.65931034,0.228275862 10.077931,0.228275862 C15.4972414,0.228275862 19.9055172,4.63448276 19.9055172,10.0558621 C19.9055172,15.4758621 15.4972414,19.8834483 10.077931,19.8834483 L10.077931,19.8834483 Z" id="Fill-9735"></path>
                                <path d="M13.7931034,10.5731034 L6.20689655,10.5731034 C6.01655172,10.5731034 5.86206897,10.4206897 5.86206897,10.2275862 C5.86206897,10.0344828 6.01655172,9.88344828 6.20689655,9.88344828 L13.7931034,9.88344828 C13.9834483,9.88344828 14.137931,10.0344828 14.137931,10.2275862 C14.137931,10.4206897 13.9834483,10.5731034 13.7931034,10.5731034" id="Fill-9736"></path>
                                <path d="M10,14.3655172 C9.80965517,14.3655172 9.65517241,14.2137931 9.65517241,14.0213793 L9.65517241,6.43517241 C9.65517241,6.24206897 9.80965517,6.08965517 10,6.08965517 C10.1903448,6.08965517 10.3448276,6.24206897 10.3448276,6.43517241 L10.3448276,14.0213793 C10.3448276,14.2137931 10.1903448,14.3655172 10,14.3655172" id="Fill-9737"></path>
                            </g>
                        </g>
                    </g>
                </g>
            </g>
        </g>
    </g>
</svg>