<?xml version="1.0" encoding="UTF-8" standalone="no"?>
<svg width="64px" height="64px" viewBox="0 0 64 64" version="1.1" xmlns="http://www.w3.org/2000/svg" xmlns:xlink="http://www.w3.org/1999/xlink" xmlns:sketch="http://www.bohemiancoding.com/sketch/ns">
    <!-- Generator: Sketch 3.5.1 (25234) - http://www.bohemiancoding.com/sketch -->
    <title>add-canvas-icon</title>
    <desc>Created with Sketch.</desc>
    <defs></defs>
    <g id="Icons" stroke="none" stroke-width="1" fill="none" fill-rule="evenodd" sketch:type="MSPage">
        <g sketch:type="MSLayerGroup" transform="translate(0.000000, -170.000000)" id="Add-Canvas" fill="#000000">
            <g transform="translate(0.000000, 170.000000)" sketch:type="MSShapeGroup">
                <g id="add-canvas-icon">
                    <path d="M3,10 L3,10 L3,54 C3,57.867352 6.13313146,61 10,61 L54,61 C57.867352,61 61,57.8668685 61,54 L61,10 C61,6.132648 57.8668685,3 54,3 L10,3 C6.132648,3 3,6.13313146 3,10 L3,10 L3,10 L3,10 L3,10 L3,10 L3,10 L3,10 Z M0,10 C0,4.4771525 4.47491856,0 10,0 L54,0 C59.5228475,0 64,4.47491856 64,10 L64,54 C64,59.5228475 59.5250814,64 54,64 L10,64 C4.4771525,64 0,59.5250814 0,54 L0,10 L0,10 L0,10 L0,10 L0,10 L0,10 L0,10 L0,10 Z" id="Shape"></path>
                    <path d="M33,44.6428571 L33,28.3571429 C33,27.6076136 32.3284271,27 31.5,27 C30.6715729,27 30,27.6076136 30,28.3571429 L30,44.6428571 C30,45.3923864 30.6715729,46 31.5,46 C32.3284271,46 33,45.3923864 33,44.6428571 L33,44.6428571 Z" id="Shape"></path>
                    <path d="M39.6428571,35 L23.3571429,35 C22.6076136,35 22,35.6715729 22,36.5 C22,37.3284271 22.6076136,38 23.3571429,38 L39.6428571,38 C40.3923864,38 41,37.3284271 41,36.5 C41,35.6715729 40.3923864,35 39.6428571,35 L39.6428571,35 Z" id="Shape"></path>
                    <path d="M2.5,18 L62.5,18 L64,18 L64,15 L62.5,15 L2.5,15 L1,15 L1,18 L2.5,18 L2.5,18 Z" id="Shape"></path>
                </g>
            </g>
        </g>
    </g>
</svg>