<?xml version="1.0" encoding="UTF-8" standalone="no"?>
<svg width="64px" height="64px" viewBox="0 0 64 64" version="1.1" xmlns="http://www.w3.org/2000/svg" xmlns:xlink="http://www.w3.org/1999/xlink" xmlns:sketch="http://www.bohemiancoding.com/sketch/ns">
    <!-- Generator: Sketch 3.5.1 (25234) - http://www.bohemiancoding.com/sketch -->
    <title>gallery-icon</title>
    <desc>Created with Sketch.</desc>
    <defs></defs>
    <g id="Icons" stroke="none" stroke-width="1" fill="none" fill-rule="evenodd" sketch:type="MSPage">
        <g sketch:type="MSLayerGroup" transform="translate(-777.000000, 0.000000)" id="Gallery" fill="#000000">
            <g transform="translate(777.000000, 0.000000)" sketch:type="MSShapeGroup">
                <g id="gallery-icon">
                    <path d="M3,10 L3,10 L3,54 C3,57.867352 6.13313146,61 10,61 L54,61 C57.867352,61 61,57.8668685 61,54 L61,10 C61,6.132648 57.8668685,3 54,3 L10,3 C6.132648,3 3,6.13313146 3,10 L3,10 Z M0,10 C0,4.4771525 4.47491856,0 10,0 L54,0 C59.5228475,0 64,4.47491856 64,10 L64,54 C64,59.5228475 59.5250814,64 54,64 L10,64 C4.4771525,64 0,59.5250814 0,54 L0,10 L0,10 Z" id="Shape"></path>
                    <path d="M3,16.0035652 L3,16.0035652 L3,53.9964348 C3,57.8645741 6.1342863,61 10,61 L54,61 C57.8671125,61 61,57.8655119 61,53.9964348 L61,16.0035652 C61,12.1354259 57.8657137,9 54,9 L10,9 C6.13288747,9 3,12.1344881 3,16.0035652 L3,16.0035652 Z M0,16.0035652 C0,10.4787487 4.47491856,6 10,6 L54,6 C59.5228475,6 64,10.4788511 64,16.0035652 L64,53.9964348 C64,59.5212513 59.5250814,64 54,64 L10,64 C4.4771525,64 0,59.5211489 0,53.9964348 L0,16.0035652 L0,16.0035652 Z" id="Shape"></path>
                    <path d="M3,21.9953433 L3,21.9953433 L3,54.0046567 C3,57.8656796 6.13503774,61 10,61 L54,61 C57.8676648,61 61,57.8686402 61,54.0046567 L61,21.9953433 C61,18.1343204 57.8649623,15 54,15 L10,15 C6.13233522,15 3,18.1313598 3,21.9953433 L3,21.9953433 Z M0,21.9953433 C0,16.4750676 4.47491856,12 10,12 L54,12 C59.5228475,12 64,16.4784969 64,21.9953433 L64,54.0046567 C64,59.5249324 59.5250814,64 54,64 L10,64 C4.4771525,64 0,59.5215031 0,54.0046567 L0,21.9953433 L0,21.9953433 Z" id="Shape"></path>
                </g>
            </g>
        </g>
    </g>
</svg>