<?xml version="1.0" encoding="UTF-8" standalone="no"?>
<svg width="64px" height="64px" viewBox="0 0 64 64" version="1.1" xmlns="http://www.w3.org/2000/svg" xmlns:xlink="http://www.w3.org/1999/xlink" xmlns:sketch="http://www.bohemiancoding.com/sketch/ns">
    <!-- Generator: Sketch 3.5.1 (25234) - http://www.bohemiancoding.com/sketch -->
    <title>tutorial-icon</title>
    <desc>Created with Sketch.</desc>
    <defs></defs>
    <g id="Icons" stroke="none" stroke-width="1" fill="none" fill-rule="evenodd" sketch:type="MSPage">
        <g sketch:type="MSLayerGroup" transform="translate(-670.000000, -170.000000)" id="Tutorial" fill="#000000">
            <g transform="translate(670.000000, 170.000000)" sketch:type="MSShapeGroup">
                <g id="tutorial-icon">
                    <path d="M3,9.00008114 L3,9.00008114 L3,54.9999189 C3,58.3147229 5.68563621,61 9.00008114,61 L54.9999189,61 C58.3147229,61 61,58.3143638 61,54.9999189 L61,9.00008114 C61,5.68527709 58.3143638,3 54.9999189,3 L9.00008114,3 C5.68527709,3 3,5.68563621 3,9.00008114 L3,9.00008114 Z M0,9.00008114 C0,4.02947358 4.02773128,0 9.00008114,0 L54.9999189,0 C59.9705264,0 64,4.02773128 64,9.00008114 L64,54.9999189 C64,59.9705264 59.9722687,64 54.9999189,64 L9.00008114,64 C4.02947358,64 0,59.9722687 0,54.9999189 L0,9.00008114 L0,9.00008114 Z" id="Shape"></path>
                    <path d="M32.60791,46.5933404 C32.5321888,46.5933404 32.4555972,46.5816327 32.3813266,46.5587885 L17.2304086,41.7792039 C16.9228817,41.6821159 16.7142857,41.4008463 16.7142857,41.0821693 L16.7142857,18.7302297 C16.7142857,18.4906508 16.8341051,18.2647785 17.0348679,18.1291409 C17.2362109,17.9920755 17.4920965,17.9635202 17.7207107,18.0463305 L32.8716288,23.7042759 C33.1600077,23.812786 33.3509064,24.0840612 33.3509064,24.3884606 L33.3509064,45.8620394 C33.3509064,46.0961928 33.2374696,46.3146408 33.0459907,46.4531339 C32.9171775,46.5445109 32.7634141,46.5933404 32.60791,46.5933404 L32.60791,46.5933404 Z M18.1999884,40.5481853 L31.8652037,44.8594631 L31.8652037,24.8924615 L18.1999884,19.7899166 L18.1999884,40.5481853 L18.1999884,40.5481853 Z" id="Fill-361" stroke="#000000"></path>
                    <path d="M32.3141349,46.5939684 C32.1589208,46.5939684 32.0051574,46.5451388 31.8763443,46.4537619 C31.6848654,46.3152687 31.5714286,46.0968208 31.5714286,45.8626674 L31.5714286,24.3890886 C31.5714286,24.0846892 31.7623273,23.8134139 32.0507062,23.7049038 L47.2016242,18.0469585 C47.4299484,17.9627204 47.6858339,17.9927034 47.8871769,18.1297688 C48.0882298,18.2654065 48.2080493,18.4912788 48.2080493,18.7308577 L48.2080493,41.0827972 C48.2080493,41.4014743 47.9994532,41.6827439 47.6919264,41.7798319 L32.5410084,46.5594165 C32.4667378,46.5822607 32.3901462,46.5939684 32.3141349,46.5939684 L32.3141349,46.5939684 Z M33.0571313,24.8930895 L33.0571313,44.8600911 L46.7223466,40.5488133 L46.7223466,19.7905446 L33.0571313,24.8930895 L33.0571313,24.8930895 Z" id="Fill-363" stroke="#000000"></path>
                    <path d="M29.8902277,49.9652239 C29.8079045,49.9652239 29.7237981,49.952374 29.6414749,49.9252465 L13.5120682,44.5599929 C13.2056594,44.4571938 13,44.1802075 13,43.8689548 L13,21.5170153 C13,21.1129579 13.3405863,20.7857143 13.7611183,20.7857143 C14.181353,20.7857143 14.5219393,21.1129579 14.5219393,21.5170153 L14.5219393,43.3478208 L30.1392777,48.5428848 C30.5363312,48.6756669 30.747043,49.091432 30.6094414,49.4740729 C30.5003705,49.7753312 30.2055524,49.9652239 29.8902277,49.9652239" id="Fill-362" stroke="#000000"></path>
                    <path d="M34.6881558,49.9635106 C34.3728312,49.9635106 34.078013,49.7736179 33.9689422,49.4709318 C33.8313405,49.0897187 34.0420523,48.6742392 34.4391058,48.5411715 L50.0564442,43.3475352 L50.0564442,21.5167297 C50.0564442,21.1126724 50.3970305,20.7857143 50.8175625,20.7857143 C51.2377972,20.7857143 51.5783835,21.1126724 51.5783835,21.5167297 L51.5783835,43.8686693 C51.5783835,44.1799219 51.3727241,44.4569083 51.0663153,44.5597073 L34.9369086,49.9235332 C34.8545854,49.9506607 34.770479,49.9635106 34.6881558,49.9635106" id="Fill-364" stroke="#000000"></path>
                    <path d="M32.0060038,50.5690756 C30.9875141,50.5690756 29.7773331,50.1033388 29.6427034,50.0505115 C29.2539714,49.896313 29.0685212,49.4708391 29.2278181,49.0967648 C29.3868179,48.7238327 29.8311255,48.5453621 30.2198575,48.6967052 C30.5105149,48.8109263 31.397347,49.1067592 32.0060038,49.1067592 C32.9837778,49.1067592 33.9460976,48.7980765 33.9556078,48.7952209 C34.3535529,48.6695777 34.7853783,48.8726058 34.920008,49.2535334 C35.0549348,49.635032 34.8424399,50.0505115 34.4450892,50.1804381 C34.3966463,50.1961435 33.2423381,50.5690756 32.0060038,50.5690756" id="Fill-365" stroke="#000000"></path>
                </g>
            </g>
        </g>
    </g>
</svg>