<?xml version="1.0" encoding="UTF-8" standalone="no"?>
<svg width="64px" height="64px" viewBox="0 0 64 64" version="1.1" xmlns="http://www.w3.org/2000/svg" xmlns:xlink="http://www.w3.org/1999/xlink">
    <!-- Generator: Sketch 3.6.1 (26313) - http://www.bohemiancoding.com/sketch -->
    <title>Group 6</title>
    <desc>Created with Sketch.</desc>
    <defs></defs>
    <g id="Trial" stroke="none" stroke-width="1" fill="none" fill-rule="evenodd">
        <g id="Solomon-Side-Draw---Example-2-Copy-7" transform="translate(-1648.000000, -98.000000)" fill="#000000">
            <g id="Group-6" transform="translate(1648.000000, 98.000000)">
                <g id="Group-5" transform="translate(15.000000, 15.000000)">
                    <path d="M13.5,27 C20.9558441,27 27,20.9558441 27,13.5 C27,6.04415588 20.9558441,0 13.5,0 C6.04415588,0 0,6.04415588 0,13.5 C0,20.9558441 6.04415588,27 13.5,27 L13.5,27 Z M13.5,24 C7.70101013,24 3,19.2989899 3,13.5 C3,7.70101013 7.70101013,3 13.5,3 C19.2989899,3 24,7.70101013 24,13.5 C24,19.2989899 19.2989899,24 13.5,24 L13.5,24 Z" id="Oval-47"></path>
                    <path d="M21.5873966,21.5831113 C22.3684452,20.8020627 23.641424,20.8087116 24.4173099,21.5845975 L34.1399077,31.3071953 C34.9217771,32.0890647 34.9278878,33.3506147 34.1413939,34.1371086 C33.3603453,34.9181572 32.0873665,34.9115083 31.3114806,34.1356224 L21.5888828,24.4130246 C20.8070134,23.6311553 20.8009027,22.3696052 21.5873966,21.5831113 L21.5873966,21.5831113 Z" id="Rectangle-142"></path>
                </g>
                <path d="M3,10 L3,10 L3,54 C3,57.867352 6.13313146,61 10,61 L54,61 C57.867352,61 61,57.8668685 61,54 L61,10 C61,6.132648 57.8668685,3 54,3 L10,3 C6.132648,3 3,6.13313146 3,10 L3,10 Z M0,10 C0,4.4771525 4.47491856,0 10,0 L54,0 C59.5228475,0 64,4.47491856 64,10 L64,54 C64,59.5228475 59.5250814,64 54,64 L10,64 C4.4771525,64 0,59.5250814 0,54 L0,10 L0,10 Z" id="Shape"></path>
            </g>
        </g>
    </g>
</svg>