<?xml version="1.0" encoding="UTF-8" standalone="no"?>
<svg width="56px" height="59px" viewBox="0 0 56 59" version="1.1" xmlns="http://www.w3.org/2000/svg" xmlns:xlink="http://www.w3.org/1999/xlink">
    <title>Group</title>
    <desc>Created with Sketch.</desc>
    <defs></defs>
    <g stroke="none" stroke-width="1" fill="none" fill-rule="evenodd">
        <g transform="translate(-1.000000, 0.000000)" fill="#f9e900">
            <path d="M29.226,12.922 C20.816,12.922 13.976,19.76 13.976,28.162 C13.976,36.562 20.816,43.42 29.226,43.42 C37.636,43.42 44.476,36.562 44.476,28.162 C44.476,19.76 37.636,12.922 29.226,12.922 L29.226,12.922 Z M29.226,45.42 C19.714,45.42 11.976,37.68 11.976,28.162 C11.976,18.642 19.714,10.92 29.226,10.92 C38.738,10.92 46.476,18.642 46.476,28.162 C46.476,37.68 38.738,45.42 29.226,45.42 L29.226,45.42 Z"></path>
            <path d="M29,58.66 C28.448,58.66 28,58.222 28,57.66 L28,49.66 C28,49.1 28.448,48.66 29,48.66 C29.552,48.66 30,49.1 30,49.66 L30,57.66 C30,58.222 29.552,58.66 29,58.66"></path>
            <path d="M29,8.662 C28.448,8.662 28,8.22 28,7.66 L28,1.66 C28,1.1 28.448,0.66 29,0.66 C29.552,0.66 30,1.1 30,1.66 L30,7.66 C30,8.22 29.552,8.662 29,8.662"></path>
            <path d="M56,29.662 L50,29.662 C49.448,29.662 49,29.22 49,28.66 C49,28.1 49.448,27.66 50,27.66 L56,27.66 C56.552,27.66 57,28.1 57,28.66 C57,29.22 56.552,29.662 56,29.662"></path>
            <path d="M8,29.662 L2,29.662 C1.448,29.662 1,29.22 1,28.66 C1,28.1 1.448,27.66 2,27.66 L8,27.66 C8.552,27.66 9,28.1 9,28.66 C9,29.22 8.552,29.662 8,29.662"></path>
            <path d="M48.674,49.86 C48.418,49.86 48.162,49.76 47.966,49.562 L43.212,44.802 C42.822,44.422 42.822,43.78 43.212,43.402 C43.604,43 44.236,43 44.626,43.402 L49.38,48.16 C49.772,48.542 49.772,49.18 49.38,49.562 C49.186,49.76 48.93,49.86 48.674,49.86"></path>
            <path d="M13.286,14.46 C13.03,14.46 12.774,14.36 12.578,14.18 L9.074,10.68 C8.684,10.28 8.684,9.642 9.074,9.26 C9.464,8.86 10.098,8.86 10.488,9.26 L13.992,12.76 C14.382,13.162 14.382,13.78 13.992,14.18 C13.796,14.36 13.542,14.46 13.286,14.46"></path>
            <path d="M44.286,13.582 C44.03,13.582 43.774,13.48 43.578,13.302 C43.188,12.9 43.188,12.26 43.578,11.88 L46.2,9.26 C46.59,8.86 47.222,8.86 47.614,9.26 C48.004,9.642 48.004,10.28 47.614,10.68 L44.992,13.302 C44.796,13.48 44.542,13.582 44.286,13.582"></path>
            <path d="M9.782,48.082 C9.526,48.082 9.27,47.98 9.074,47.802 C8.684,47.4 8.684,46.76 9.074,46.38 L12.946,42.52 C13.336,42.12 13.968,42.12 14.36,42.52 C14.75,42.9 14.75,43.542 14.36,43.92 L10.488,47.802 C10.292,47.98 10.038,48.082 9.782,48.082"></path>
        </g>
    </g>
</svg>