<?xml version="1.0" encoding="UTF-8" standalone="no"?>
<svg width="42px" height="59px" viewBox="0 0 42 59" version="1.1" xmlns="http://www.w3.org/2000/svg" xmlns:xlink="http://www.w3.org/1999/xlink">
    <title>Fill 8770 Copy</title>
    <desc>Created with Sketch.</desc>
    <defs></defs>
    <g stroke="none" stroke-width="1" fill="none" fill-rule="evenodd">
        <g fill="#5d5d5d">
            <path d="M18.82,30.46 C19.1,30.46 19.36,30.582 19.56,30.78 C19.8,31.042 19.88,31.4 19.78,31.742 L14.16,51.542 L37.92,16.082 L20.78,20.52 C20.42,20.622 20.04,20.5 19.8,20.222 C19.54,19.94 19.46,19.542 19.6,19.2 L26.02,2.562 L7.08,6.98 L2.8,33.802 L18.62,30.482 C18.7,30.482 18.76,30.46 18.82,30.46 L18.82,30.46 Z M11.46,58.36 C11.32,58.36 11.18,58.322 11.04,58.26 C10.6,58.062 10.36,57.562 10.5,57.08 L17.42,32.78 L1.8,36.042 C1.48,36.102 1.14,36.02 0.9,35.8 C0.66,35.562 0.56,35.24 0.6,34.9 L5.2,6.002 C5.28,5.6 5.58,5.28 5.96,5.18 L27.42,0.18 C27.76,0.102 28.16,0.22 28.4,0.5 C28.64,0.78 28.7,1.18 28.58,1.52 L22.18,18.102 L39.98,13.48 C40.38,13.382 40.8,13.542 41.04,13.882 C41.28,14.222 41.28,14.66 41.06,15.002 L12.3,57.902 C12.1,58.2 11.78,58.36 11.46,58.36 L11.46,58.36 Z"></path>
        </g>
    </g>
</svg>