<?xml version="1.0" encoding="UTF-8" standalone="no"?>
<svg width="64px" height="64px" viewBox="0 0 64 64" version="1.1" xmlns="http://www.w3.org/2000/svg" xmlns:xlink="http://www.w3.org/1999/xlink" xmlns:sketch="http://www.bohemiancoding.com/sketch/ns">
    <!-- Generator: Sketch 3.5.1 (25234) - http://www.bohemiancoding.com/sketch -->
    <title>add-story-icon</title>
    <desc>Created with Sketch.</desc>
    <defs></defs>
    <g id="Icons" stroke="none" stroke-width="1" fill="none" fill-rule="evenodd" sketch:type="MSPage">
        <g sketch:type="MSLayerGroup" transform="translate(-137.000000, -170.000000)" id="Add-Story" fill="#000000">
            <g transform="translate(137.000000, 170.000000)" sketch:type="MSShapeGroup">
                <g id="add-story-icon">
                    <path d="M3,10 L3,10 L3,54 C3,57.867352 6.13313146,61 10,61 L54,61 C57.867352,61 61,57.8668685 61,54 L61,10 C61,6.132648 57.8668685,3 54,3 L10,3 C6.132648,3 3,6.13313146 3,10 L3,10 Z M0,10 C0,4.4771525 4.47491856,0 10,0 L54,0 C59.5228475,0 64,4.47491856 64,10 L64,54 C64,59.5228475 59.5250814,64 54,64 L10,64 C4.4771525,64 0,59.5250814 0,54 L0,10 L0,10 Z" id="Shape"></path>
                    <path d="M34,40.6428571 L34,24.3571429 C34,23.6076136 33.3284271,23 32.5,23 C31.6715729,23 31,23.6076136 31,24.3571429 L31,40.6428571 C31,41.3923864 31.6715729,42 32.5,42 C33.3284271,42 34,41.3923864 34,40.6428571 L34,40.6428571 Z" id="Shape"></path>
                    <path d="M40.6428571,31 L24.3571429,31 C23.6076136,31 23,31.6715729 23,32.5 C23,33.3284271 23.6076136,34 24.3571429,34 L40.6428571,34 C41.3923864,34 42,33.3284271 42,32.5 C42,31.6715729 41.3923864,31 40.6428571,31 L40.6428571,31 Z" id="Shape"></path>
                    <path d="M51.75,17 C54.6494949,17 57,14.6494949 57,11.75 C57,8.85050506 54.6494949,6.5 51.75,6.5 C48.8505051,6.5 46.5,8.85050506 46.5,11.75 C46.5,14.6494949 48.8505051,17 51.75,17 L51.75,17 Z M51.75,14 C50.5073593,14 49.5,12.9926407 49.5,11.75 C49.5,10.5073593 50.5073593,9.5 51.75,9.5 C52.9926407,9.5 54,10.5073593 54,11.75 C54,12.9926407 52.9926407,14 51.75,14 L51.75,14 Z" id="Shape"></path>
                </g>
            </g>
        </g>
    </g>
</svg>