<svg width="41" height="41" viewBox="0 0 41 41" xmlns="http://www.w3.org/2000/svg"><title>Fill 9732 + Fill 9733 + Fill 9734</title><g fill="#FFF" fill-rule="evenodd"><path d="M20.317.28c-11.044 0-20 8.947-20 20 0 11.04 8.956 20 20 20 11.046 0 20-8.96 20-20 0-11.053-8.954-20-20-20zm0 1.333c10.294 0 18.667 8.375 18.667 18.667 0 10.28-8.373 18.667-18.667 18.667-10.292 0-18.666-8.387-18.666-18.667 0-10.292 8.376-18.667 18.668-18.667z"/><path d="M12.817 28.44c-.17 0-.34-.065-.47-.2-.262-.252-.262-.68 0-.933l15-15c.26-.267.68-.267.942 0 .26.253.26.68 0 .934l-15 15c-.13.136-.303.2-.474.2"/><path d="M27.817 28.44c-.17 0-.34-.065-.47-.2l-15-15c-.262-.252-.262-.68 0-.933.26-.267.68-.267.942 0l15 15c.26.253.26.68 0 .934-.13.136-.303.2-.474.2"/></g></svg>