<?xml version="1.0" encoding="UTF-8" standalone="no"?>
<svg width="66px" height="66px" viewBox="0 0 66 66" version="1.1" xmlns="http://www.w3.org/2000/svg" xmlns:xlink="http://www.w3.org/1999/xlink" xmlns:sketch="http://www.bohemiancoding.com/sketch/ns">
    <!-- Generator: Sketch 3.5.1 (25234) - http://www.bohemiancoding.com/sketch -->
    <title>back-icon</title>
    <desc>Created with Sketch.</desc>
    <defs></defs>
    <g id="Icons" stroke="none" stroke-width="1" fill="none" fill-rule="evenodd" sketch:type="MSPage">
        <g id="back-icon" sketch:type="MSLayerGroup" transform="translate(33.000000, 33.000000) rotate(-180.000000) translate(-33.000000, -33.000000) " fill="#000000">
            <path d="M32.7583876,64.5167752 C15.2466977,64.5167752 1,50.2700775 1,32.7583876 C1,15.2466977 15.2466977,1 32.7583876,1 C50.2700775,1 64.5167752,15.2466977 64.5167752,32.7583876 C64.5167752,50.2700775 50.2700775,64.5167752 32.7583876,64.5167752 L32.7583876,64.5167752 L32.7583876,64.5167752 L32.7583876,64.5167752 L32.7583876,64.5167752 Z M32.7583876,3.54065116 C16.6477519,3.54065116 3.54065116,16.6482481 3.54065116,32.7583876 C3.54065116,48.8685271 16.6477519,61.976124 32.7583876,61.976124 C48.8690233,61.976124 61.976124,48.8685271 61.976124,32.7583876 C61.976124,16.6482481 48.8690233,3.54065116 32.7583876,3.54065116 L32.7583876,3.54065116 L32.7583876,3.54065116 L32.7583876,3.54065116 L32.7583876,3.54065116 Z" id="Fill-3" sketch:type="MSShapeGroup"></path>
            <path d="M32.7583876,64.0167752 C15.52284,64.0167752 1.5,49.9939351 1.5,32.7583876 C1.5,15.52284 15.52284,1.5 32.7583876,1.5 C49.9939351,1.5 64.0167752,15.52284 64.0167752,32.7583876 C64.0167752,49.9939351 49.9939351,64.0167752 32.7583876,64.0167752 L32.7583876,64.0167752 L32.7583876,64.0167752 L32.7583876,64.0167752 M32.7583876,65.0167752 C50.5462199,65.0167752 65.0167752,50.5462199 65.0167752,32.7583876 C65.0167752,14.9705553 50.5462199,0.5 32.7583876,0.5 C14.9705553,0.5 0.5,14.9705553 0.5,32.7583876 C0.5,50.5462199 14.9705553,65.0167752 32.7583876,65.0167752 L32.7583876,65.0167752 L32.7583876,65.0167752 L32.7583876,65.0167752 M32.7583876,3.04065116 C16.3717795,3.04065116 3.04065116,16.3719358 3.04065116,32.7583876 C3.04065116,49.1448394 16.3717795,62.476124 32.7583876,62.476124 C49.1449957,62.476124 62.476124,49.1448394 62.476124,32.7583876 C62.476124,16.3719358 49.1449957,3.04065116 32.7583876,3.04065116 L32.7583876,3.04065116 L32.7583876,3.04065116 L32.7583876,3.04065116 M32.7583876,4.04065116 C48.5927083,4.04065116 61.476124,16.9242179 61.476124,32.7583876 C61.476124,48.5925573 48.5927083,61.476124 32.7583876,61.476124 C16.9240669,61.476124 4.04065116,48.5925573 4.04065116,32.7583876 C4.04065116,16.9242179 16.9240669,4.04065116 32.7583876,4.04065116 L32.7583876,4.04065116 L32.7583876,4.04065116 L32.7583876,4.04065116" id="Shape" sketch:type="MSShapeGroup"></path>
            <path d="M38.4876279,45.7156589 L38.4876279,46.2156589 C38.0216612,46.2156589 37.5717697,46.0332951 37.2355939,45.6971193 C36.5442077,45.0057331 36.5442077,43.8854297 37.2355859,43.1940515 L46.1245237,34.3047132 L15.6659225,34.3047132 C14.6881195,34.3047132 13.8953488,33.5121563 13.8953488,32.5341395 C13.8953488,31.5561228 14.6881195,30.7635659 15.6659225,30.7635659 L46.1205549,30.7635659 L37.2355939,21.8782046 C36.5442077,21.1868184 36.5442077,20.066515 37.2355939,19.3751288 C37.9269801,18.6837426 39.0477796,18.6837426 39.7391658,19.3751288 L51.6486232,31.2845861 C52.3400093,31.9759723 52.3400093,33.0962757 51.6486232,33.7876619 L39.7391658,45.6971193 C39.4029516,46.0333335 38.9535195,46.2156589 38.4876279,46.2156589 L38.4876279,45.7156589 C38.4876279,45.7156589 38.4876279,45.7156589 38.4876279,45.7156589 Z" id="Shape" sketch:type="MSShapeGroup"></path>
        </g>
    </g>
</svg>