<?xml version="1.0" encoding="UTF-8" standalone="no"?>
<svg width="60px" height="61px" viewBox="0 0 60 61" version="1.1" xmlns="http://www.w3.org/2000/svg" xmlns:xlink="http://www.w3.org/1999/xlink" xmlns:sketch="http://www.bohemiancoding.com/sketch/ns">
    <!-- Generator: Sketch 3.3.3 (12081) - http://www.bohemiancoding.com/sketch -->
    <title>Group + Fill 9528 Copy + Fill 9529 Copy</title>
    <desc>Created with Sketch.</desc>
    <defs></defs>
    <g id="Page-1" stroke="none" stroke-width="1" fill="none" fill-rule="evenodd" sketch:type="MSPage">
        <g id="Icons-Mind---60-Px" sketch:type="MSArtboardGroup" transform="translate(-1008.000000, -14592.000000)" fill="#0A0B09">
            <g id="Group-+-Fill-9528-Copy-+-Fill-9529-Copy" sketch:type="MSLayerGroup" transform="translate(1007.000000, 14592.000000)">
                <g id="Group" sketch:type="MSShapeGroup">
                    <path d="M12.198,2.66 C7.126,2.66 3,6.782 3,11.862 L3,49.46 C3,54.542 7.126,58.66 12.198,58.66 L49.802,58.66 C54.874,58.66 59,54.542 59,49.46 L59,11.862 C59,6.782 54.874,2.66 49.802,2.66 L12.198,2.66 L12.198,2.66 Z M49.802,60.662 L12.198,60.662 C6.024,60.662 1,55.642 1,49.46 L1,11.862 C1,5.68 6.024,0.662 12.198,0.662 L49.802,0.662 C55.976,0.662 61,5.68 61,11.862 L61,49.46 C61,55.642 55.976,60.662 49.802,60.662 L49.802,60.662 Z" id="Fill-6301"></path>
                    <path d="M49.626,9.5 C48.304,9.5 47.226,10.58 47.226,11.902 C47.226,13.22 48.304,14.3 49.626,14.3 C50.95,14.3 52.026,13.22 52.026,11.902 C52.026,10.58 50.95,9.5 49.626,9.5 L49.626,9.5 Z M49.626,16.3 C47.2,16.3 45.226,14.322 45.226,11.902 C45.226,9.46 47.2,7.5 49.626,7.5 C52.052,7.5 54.026,9.46 54.026,11.902 C54.026,14.322 52.052,16.3 49.626,16.3 L49.626,16.3 Z" id="Fill-6304"></path>
                </g>
                <g id="Fill-9528-Copy-+-Fill-9529-Copy" transform="translate(21.000000, 20.000000)" sketch:type="MSShapeGroup">
                    <path d="M10,20.002 C9.448,20.002 9,19.56 9,19.002 L9,1.002 C9,0.442 9.448,0 10,0 C10.552,0 11,0.442 11,1.002 L11,19.002 C11,19.56 10.552,20.002 10,20.002" id="Fill-9528-Copy"></path>
                    <path d="M19,11.002 L1,11.002 C0.448,11.002 0,10.56 0,10.002 C0,9.442 0.448,9 1,9 L19,9 C19.552,9 20,9.442 20,10.002 C20,10.56 19.552,11.002 19,11.002" id="Fill-9529-Copy"></path>
                </g>
            </g>
        </g>
    </g>
</svg>