<?xml version="1.0" encoding="UTF-8" standalone="no"?>
<svg width="57px" height="32px" viewBox="0 0 57 32" version="1.1" xmlns="http://www.w3.org/2000/svg" xmlns:xlink="http://www.w3.org/1999/xlink" xmlns:sketch="http://www.bohemiancoding.com/sketch/ns">
    <!-- Generator: Sketch 3.4.1 (15681) - http://www.bohemiancoding.com/sketch -->
    <title>Fill 220 + Fill 221 + Fill 222</title>
    <desc>Created with Sketch.</desc>
    <defs></defs>
    <g id="Page-1" stroke="none" stroke-width="1" fill="none" fill-rule="evenodd" sketch:type="MSPage">
        <g id="Icons-Mind---60-Px" sketch:type="MSArtboardGroup" transform="translate(-2025.000000, -5478.000000)" fill="#0A0B09">
            <g id="Fill-220-+-Fill-221-+-Fill-222" sketch:type="MSLayerGroup" transform="translate(2025.000000, 5478.000000)">
                <path d="M27,31.84 C20.752,31.84 12.814,30.542 9.28,26.862 C9.1,26.66 9,26.42 9,26.16 L9,10.662 C9,10.102 9.448,9.66 10,9.66 C10.552,9.66 11,10.102 11,10.662 L11,25.74 C13.718,28.242 19.92,29.84 27,29.84 C34.08,29.84 40.282,28.242 43,25.74 L43,10.662 C43,10.102 43.44,9.66 44,9.66 C44.56,9.66 45,10.102 45,10.662 L45,26.16 C45,26.42 44.9,26.66 44.72,26.862 C41.18,30.542 33.248,31.84 27,31.84" id="Fill-220" sketch:type="MSShapeGroup"></path>
                <path d="M52,25.662 C51.44,25.662 51,25.22 51,24.66 L51,10.542 L27.106,7.662 C26.558,7.582 26.168,7.08 26.234,6.542 C26.298,5.98 26.8,5.602 27.348,5.66 L52.12,8.66 C52.62,8.72 53,9.162 53,9.66 L53,24.66 C53,25.22 52.56,25.662 52,25.662" id="Fill-221" sketch:type="MSShapeGroup"></path>
                <path d="M27.226,0.42 C27.126,0.42 27.028,0.42 26.93,0.44 L1.93,4.182 C0.986,4.322 0.276,5.122 0.228,6.06 C0.184,7.02 0.816,7.862 1.742,8.1 L26.742,14.362 C26.9,14.402 27.064,14.42 27.226,14.42 C27.376,14.42 27.524,14.402 27.67,14.362 L55.16,8.122 C56.12,7.9 56.76,7.042 56.72,6.082 C56.68,5.1 55.96,4.3 55,4.182 L27.496,0.42 L27.226,0.42 L27.226,0.42 Z M27.226,2.42 L54.72,6.162 L27.226,12.42 L2.226,6.162 L27.226,2.42 L27.226,2.42 Z" id="Fill-222" sketch:type="MSShapeGroup"></path>
            </g>
        </g>
    </g>
</svg>