<?xml version="1.0" encoding="UTF-8" standalone="no"?>
<svg width="63px" height="25px" viewBox="0 0 63 25" version="1.1" xmlns="http://www.w3.org/2000/svg" xmlns:xlink="http://www.w3.org/1999/xlink">
    <title>Fill 8864 + Fill 8865 + Fill 8866</title>
    <desc>Created with Sketch.</desc>
    <defs></defs>
    <g stroke="none" stroke-width="1" fill="none" fill-rule="evenodd">
        <g transform="translate(1.000000, 0.000000)" fill="#5d5d5d">
            <path d="M24.34,2.74 C19.44,2.74 15.14,7.402 15.14,12.7 C15.14,18 19.44,22.66 24.34,22.66 L36.88,22.66 C40.66,22.66 43.72,18.082 43.72,14.26 C43.72,10.28 40.46,6.66 36.88,6.66 C35.74,6.66 34.62,6.96 33.56,7.562 L32.72,8.042 L32.2,7.2 C30.52,4.402 27.58,2.74 24.34,2.74 L24.34,2.74 Z M36.88,24.66 L24.34,24.66 C18.38,24.66 13.14,19.082 13.14,12.7 C13.14,6.322 18.38,0.742 24.34,0.742 C27.98,0.742 31.3,2.46 33.42,5.4 C34.54,4.9 35.7,4.66 36.88,4.66 C41.6,4.66 45.72,9.16 45.72,14.26 C45.72,19.082 41.86,24.66 36.88,24.66 L36.88,24.66 Z"></path>
            <path d="M12,24.66 L7.72,24.66 C3.28,24.66 -0.18,19.68 -0.18,15.382 C-0.18,10.84 3.52,6.882 7.72,6.882 C8.98,6.882 9.84,6.922 11.08,7.622 C11.56,7.9 11.74,8.5 11.46,8.98 C11.18,9.462 10.58,9.642 10.1,9.36 C9.3,8.92 8.84,8.88 7.72,8.88 C4.64,8.88 1.82,11.98 1.82,15.382 C1.82,18.66 4.54,22.66 7.72,22.66 L12,22.66 C12.56,22.66 13,23.102 13,23.662 C13,24.222 12.56,24.66 12,24.66"></path>
            <path d="M53.38,24.66 L46,24.66 C45.44,24.66 45,24.222 45,23.662 C45,23.102 45.44,22.66 46,22.66 L53.38,22.66 C56.54,22.66 59.26,18.66 59.26,15.382 C59.26,11.98 56.46,8.88 53.38,8.88 C52.34,8.88 51.38,9.122 50.52,9.622 L49.66,10.1 L49.16,9.26 C48.54,8.22 47.4,6.86 45.48,6.18 C44.96,6 44.68,5.422 44.88,4.9 C45.06,4.38 45.62,4.1 46.14,4.302 C47.84,4.882 49.28,5.98 50.36,7.462 C51.32,7.082 52.32,6.882 53.38,6.882 C57.58,6.882 61.26,10.84 61.26,15.382 C61.26,19.68 57.82,24.66 53.38,24.66"></path>
        </g>
    </g>
</svg>