<?xml version="1.0" encoding="UTF-8" standalone="no"?>
<svg width="56px" height="56px" viewBox="0 0 56 56" version="1.1" xmlns="http://www.w3.org/2000/svg" xmlns:xlink="http://www.w3.org/1999/xlink">
    <title>Group Copy 3</title>
    <desc>Created with Sketch.</desc>
    <defs></defs>
    <g stroke="none" stroke-width="1" fill="none" fill-rule="evenodd">
        <g transform="translate(-1.000000, 0.000000)" fill="#f9e900">
            <path d="M29,54.66 C28.448,54.66 28,54.222 28,53.662 L28,1.66 C28,1.1 28.448,0.66 29,0.66 C29.552,0.66 30,1.1 30,1.66 L30,53.662 C30,54.222 29.552,54.66 29,54.66"></path>
            <path d="M28.912,5.5 C28.71,5.5 28.508,5.44 28.338,5.32 L24.204,2.422 C23.75,2.102 23.64,1.48 23.96,1.02 C24.278,0.58 24.9,0.462 25.354,0.78 L28.924,3.3 L32.662,0.76 C33.122,0.462 33.742,0.58 34.05,1.042 C34.362,1.5 34.24,2.122 33.782,2.422 L29.47,5.34 C29.302,5.46 29.108,5.5 28.912,5.5"></path>
            <path d="M33.22,55.822 C33.03,55.822 32.836,55.76 32.662,55.66 L28.924,53.122 L25.354,55.642 C24.9,55.962 24.278,55.84 23.96,55.402 C23.64,54.94 23.75,54.322 24.204,54 L28.338,51.1 C28.676,50.86 29.126,50.86 29.47,51.082 L33.782,54 C34.24,54.3 34.362,54.922 34.05,55.38 C33.86,55.66 33.542,55.822 33.22,55.822"></path>
            <path d="M56,29.662 L2,29.662 C1.448,29.662 1,29.22 1,28.66 C1,28.1 1.448,27.66 2,27.66 L56,27.66 C56.552,27.66 57,28.1 57,28.66 C57,29.22 56.552,29.662 56,29.662"></path>
            <path d="M2.692,33.882 C2.492,33.882 2.292,33.82 2.118,33.7 C1.666,33.382 1.556,32.76 1.876,32.302 L4.39,28.74 L1.864,25 C1.554,24.542 1.676,23.92 2.132,23.6 C2.594,23.302 3.212,23.422 3.522,23.88 L6.434,28.18 C6.668,28.542 6.662,28.98 6.422,29.32 L3.512,33.462 C3.316,33.742 3.006,33.882 2.692,33.882"></path>
            <path d="M55.922,33.882 C55.61,33.882 55.298,33.742 55.104,33.462 L52.192,29.32 C51.954,28.98 51.948,28.542 52.18,28.18 L55.094,23.88 C55.402,23.422 56.022,23.302 56.48,23.6 C56.94,23.92 57.058,24.542 56.75,25 L54.224,28.74 L56.738,32.302 C57.056,32.76 56.95,33.382 56.498,33.7 C56.322,33.82 56.122,33.882 55.922,33.882"></path>
            <path d="M47.978,48 C47.722,48 47.466,47.902 47.272,47.722 L9.716,10.162 C9.326,9.76 9.326,9.122 9.716,8.74 C10.108,8.34 10.74,8.34 11.13,8.74 L48.686,46.302 C49.076,46.68 49.076,47.32 48.686,47.722 C48.49,47.902 48.234,48 47.978,48"></path>
            <path d="M7.498,13.36 C7.022,13.36 6.598,13.02 6.514,12.542 C6.42,12 6.786,11.482 7.33,11.382 L11.63,10.642 L12.488,6.2 C12.594,5.662 13.106,5.302 13.662,5.422 C14.204,5.52 14.556,6.042 14.454,6.58 L13.462,11.7 C13.386,12.1 13.062,12.42 12.654,12.502 L7.67,13.36 L7.498,13.36"></path>
            <path d="M45.136,51 L44.964,51 C44.42,50.902 44.056,50.382 44.152,49.84 L45.02,44.86 C45.09,44.44 45.406,44.122 45.812,44.042 L50.92,43.062 C51.462,42.96 51.986,43.302 52.09,43.84 C52.196,44.382 51.842,44.92 51.3,45.02 L46.872,45.882 L46.122,50.18 C46.038,50.662 45.616,51 45.136,51"></path>
            <path d="M10.424,48 C10.168,48 9.912,47.902 9.716,47.722 C9.326,47.32 9.326,46.68 9.716,46.302 L47.272,8.74 C47.662,8.34 48.294,8.34 48.686,8.74 C49.076,9.122 49.076,9.76 48.686,10.162 L11.13,47.722 C10.936,47.902 10.68,48 10.424,48"></path>
            <path d="M13.468,51 C12.99,51 12.566,50.662 12.484,50.18 L11.738,45.882 L7.306,45.02 C6.766,44.92 6.412,44.382 6.516,43.84 C6.622,43.302 7.148,42.96 7.688,43.062 L12.794,44.042 C13.204,44.122 13.52,44.44 13.59,44.86 L14.456,49.84 C14.548,50.382 14.184,50.902 13.638,51 L13.468,51"></path>
            <path d="M51.11,13.36 L50.938,13.36 L45.956,12.502 C45.544,12.42 45.22,12.1 45.144,11.7 L44.154,6.58 C44.05,6.042 44.404,5.52 44.946,5.422 C45.488,5.302 46.014,5.662 46.118,6.2 L46.976,10.642 L51.28,11.382 C51.822,11.482 52.188,12 52.094,12.542 C52.008,13.02 51.586,13.36 51.11,13.36"></path>
            <path d="M18.734,38.662 L29.008,43.32 L39.728,38.64 L44.38,28.642 L39.71,17.662 L29.226,13 L18.736,17.662 L14.07,28.222 L18.734,38.662 L18.734,38.662 Z M29,45.42 C28.86,45.42 28.718,45.382 28.588,45.322 L17.562,40.32 C17.34,40.222 17.162,40.042 17.062,39.82 L12.062,28.642 C11.948,28.38 11.948,28.082 12.062,27.82 L17.062,16.5 C17.162,16.28 17.344,16.1 17.57,16 L28.82,11.002 C29.078,10.882 29.376,10.882 29.632,11.002 L40.882,16 C41.114,16.1 41.296,16.28 41.396,16.52 L46.396,28.26 C46.508,28.52 46.504,28.822 46.382,29.08 L41.382,39.84 C41.28,40.062 41.1,40.222 40.876,40.32 L29.398,45.322 C29.272,45.382 29.136,45.42 29,45.42 L29,45.42 Z"></path>
        </g>
    </g>
</svg>