<?xml version="1.0" encoding="UTF-8" standalone="no"?>
<svg width="40px" height="40px" viewBox="0 0 40 40" version="1.1" xmlns="http://www.w3.org/2000/svg" xmlns:xlink="http://www.w3.org/1999/xlink" xmlns:sketch="http://www.bohemiancoding.com/sketch/ns">
    <!-- Generator: Sketch 3.3.3 (12081) - http://www.bohemiancoding.com/sketch -->
    <title>Oval 70 + Fill 143</title>
    <desc>Created with Sketch.</desc>
    <defs></defs>
    <g id="UI" stroke="none" stroke-width="1" fill="none" fill-rule="evenodd" sketch:type="MSPage">
        <g id="Search-Tapped-Copy" sketch:type="MSArtboardGroup" transform="translate(-1914.000000, -486.000000)">
            <g id="Oval-70-+-Fill-143" sketch:type="MSLayerGroup" transform="translate(1914.000000, 486.000000)">
                <g sketch:type="MSShapeGroup">
                    <circle id="Oval-70" fill="#F3F3F3" cx="20" cy="20" r="20"></circle>
                    <path d="M20.2151935,19.7199864 L28.9822283,10.9529516 C29.119111,10.8160689 29.119111,10.5946272 28.9822283,10.4577445 C28.8453456,10.3208617 28.6234367,10.3208617 28.486554,10.4577445 L19.7199864,19.2243121 L10.9529516,10.4577445 C10.8160689,10.3208617 10.5946272,10.3208617 10.4577445,10.4577445 C10.3208617,10.5946272 10.3208617,10.8160689 10.4577445,10.9529516 L19.2243121,19.7199864 L10.4577445,28.486554 C10.3208617,28.6234367 10.3208617,28.8448784 10.4577445,28.9817611 C10.5259522,29.0504361 10.6156501,29.08454 10.705348,29.08454 C10.7950459,29.08454 10.8847438,29.0504361 10.9529516,28.9817611 L19.7199864,20.2156607 L28.486554,28.9817611 C28.555229,29.0504361 28.6444597,29.08454 28.7341576,29.08454 C28.8238555,29.08454 28.9135534,29.0504361 28.9822283,28.9817611 C29.119111,28.8448784 29.119111,28.6234367 28.9822283,28.486554 L20.2151935,19.7199864" id="Fill-143" fill="#000000"></path>
                </g>
            </g>
        </g>
    </g>
</svg>