<svg viewBox="0 0 105 94" xmlns="http://www.w3.org/2000/svg"><title>Page 1</title><path d="M56.694 33.37c-.11 1.084-.312 2.708-.61 4.872-.297 2.166-.717 5.196-1.257 9.093-.542 3.897-1.218 9.23-2.03 15.993h-2.435c-.65-6.764-1.192-12.096-1.624-15.993-.434-3.897-.785-6.927-1.056-9.093-.27-2.164-.46-3.788-.568-4.87-.11-1.083-.162-2.193-.162-3.33 0-3.95 1.65-5.926 4.952-5.926 3.3 0 4.952 1.977 4.952 5.927 0 1.136-.054 2.246-.162 3.328M51.58 80.378c-3.735 0-5.602-1.758-5.602-5.277 0-3.517 1.867-5.277 5.6-5.277 3.52 0 5.278 1.76 5.278 5.277 0 3.52-1.76 5.277-5.277 5.277m51.523-4.814l-20.12-34.65-19.947-34.75c-4.718-8.218-16.573-8.218-21.29 0L21.8 40.914 1.678 75.563C-3.08 83.757 2.848 94.023 12.323 94l40.068-.1 40.07.1c9.474.024 15.4-10.243 10.643-18.437" fill="#F49A20" fill-rule="evenodd"/></svg>