<svg width="560" height="55" viewBox="0 0 560 55" xmlns="http://www.w3.org/2000/svg" xmlns:xlink="http://www.w3.org/1999/xlink"><defs><path id="a" d="M0 1.353h559.408V56H0"/></defs><g fill="none" fill-rule="evenodd"><path d="M69.15 40.424h13.028c.547 0 .822.264.822.795v2.94c0 .557-.29.84-.866.84h-17.22c-.61 0-.914-.283-.914-.84V14.934c0-.62.29-.935.866-.935h3.417c.58 0 .866.314.866.935v25.49zM89 14.935c0-.62.307-.935.92-.935h16.975c.583 0 .877.295.877.88v2.864c0 .553-.31.832-.924.832h-12.59v8.075h11.16c.616 0 .923.28.923.843v2.893c0 .562-.306.842-.923.842h-11.16v9.196h12.914c.555 0 .83.295.83.888v2.847c0 .557-.29.84-.874.84H89.92c-.613 0-.92-.283-.92-.84V14.934zM116 14.935c0-.62.307-.935.92-.935h16.975c.583 0 .877.295.877.88v2.864c0 .553-.31.832-.924.832h-12.59v8.075h11.16c.616 0 .923.28.923.843v2.893c0 .562-.306.842-.923.842h-11.16v9.196h12.914c.555 0 .83.295.83.888v2.847c0 .557-.29.84-.874.84H116.92c-.613 0-.92-.283-.92-.84V14.934zM160.582 29.78c0-2.185-.193-4.004-.574-5.46-.384-1.45-.91-2.6-1.584-3.44-.67-.844-1.478-1.438-2.41-1.783-.933-.342-1.95-.517-3.053-.517h-4.772v21.84h4.452c1.04 0 2.035-.144 2.983-.423.948-.28 1.793-.812 2.527-1.593.734-.78 1.323-1.865 1.767-3.258.44-1.39.665-3.18.665-5.365zM144.012 45c-.4 0-.665-.078-.804-.233-.14-.156-.208-.373-.208-.656V14.89c0-.595.29-.89.873-.89h9.318c2.54 0 4.638.414 6.29 1.238 1.653.827 2.96 1.94 3.924 3.342.964 1.406 1.638 3.042 2.02 4.91.384 1.873.576 3.85.576 5.94 0 2.12-.186 4.123-.55 6.008-.37 1.887-1.028 3.54-1.977 4.957-.948 1.418-2.255 2.54-3.925 3.367-1.666.828-3.786 1.238-6.357 1.238h-9.18zM179.833 46c-.583 0-1.255-.025-2.02-.072-.768-.047-1.556-.125-2.37-.235-.81-.11-1.614-.25-2.412-.423-.794-.173-1.485-.386-2.065-.637-.523-.22-.82-.438-.896-.66-.08-.22-.086-.487-.026-.8l.413-1.934c.092-.408.224-.643.39-.706.172-.063.452-.063.853 0 .58.063 1.24.132 1.974.21.738.08 1.473.15 2.208.213.734.063 1.447.12 2.135.166.69.047 1.296.07 1.816.07 3.92 0 5.882-1.383 5.882-4.147 0-.85-.092-1.55-.275-2.097-.186-.55-.492-1.013-.92-1.393-.43-.376-.988-.674-1.678-.893-.688-.22-1.555-.426-2.596-.614-1.346-.282-2.643-.596-3.882-.944-1.243-.344-2.337-.83-3.286-1.46-.95-.627-1.7-1.46-2.252-2.498-.552-1.038-.826-2.354-.826-3.96 0-2.982.924-5.26 2.778-6.83 1.855-1.57 4.406-2.358 7.65-2.358.43 0 .99.016 1.68.047.69.03 1.424.088 2.206.166.78.078 1.568.204 2.366.376.797.172 1.532.4 2.207.682.52.22.817.442.896.662.075.22.082.486.022.8l-.46 1.933c-.092.376-.23.605-.414.683-.182.078-.488.1-.916.07-1.044-.158-2.183-.3-3.425-.424-1.24-.125-2.553-.188-3.93-.188-1.962 0-3.33.37-4.113 1.106-.782.74-1.173 1.768-1.173 3.087 0 .757.1 1.362.3 1.816.198.455.513.824.942 1.106.43.286.987.514 1.678.684.688.175 1.54.354 2.548.542 1.318.282 2.59.6 3.816.943 1.224.346 2.305.85 3.24 1.51.932.66 1.683 1.54 2.25 2.638.568 1.1.852 2.545.852 4.338 0 1.79-.306 3.28-.92 4.475-.613 1.195-1.433 2.16-2.458 2.9-1.028.74-2.213 1.266-3.56 1.58-1.35.313-2.76.47-4.23.47M208 30.236c0-2.006.156-3.984.466-5.93.31-1.944.922-3.678 1.834-5.2.916-1.52 2.186-2.753 3.813-3.695 1.627-.937 3.774-1.41 6.438-1.41.56 0 1.203.025 1.93.072.728.047 1.48.125 2.256.235.772.11 1.535.25 2.278.422.744.174 1.423.384 2.045.634.37.16.628.348.765.567.14.22.18.517.118.893l-.418 1.93c-.064.283-.172.49-.325.61-.157.13-.45.16-.884.098-1.15-.155-2.38-.3-3.698-.424-1.317-.126-2.577-.188-3.787-.188-1.58 0-2.85.3-3.81.895-.96.594-1.698 1.41-2.21 2.447-.512 1.036-.844 2.235-1 3.6-.154 1.364-.233 2.816-.233 4.352 0 1.537.095 2.98.28 4.33.185 1.347.543 2.518 1.07 3.504.526.99 1.263 1.765 2.207 2.33.944.565 2.18.846 3.697.846 1.364 0 2.633-.062 3.814-.188 1.177-.125 2.4-.266 3.672-.422.434-.063.727-.03.884.094.153.125.277.344.37.66l.373 1.787c.185.692-.08 1.193-.79 1.506-.56.25-1.217.462-1.976.634-.763.172-1.535.322-2.326.447-.79.127-1.565.214-2.32.26-.764.048-1.42.07-1.98.07-2.603 0-4.718-.448-6.345-1.34-1.627-.895-2.897-2.078-3.812-3.555-.913-1.474-1.54-3.15-1.883-5.035-.34-1.88-.51-3.825-.51-5.834M235 14.935c0-.62.277-.935.834-.935h3.332c.557 0 .834.314.834.935v29.177c0 .59-.277.888-.834.888h-3.332c-.557 0-.834-.298-.834-.888V14.935zM267.104 18.576h-7.136v25.536c0 .248-.052.46-.154.63-.104.17-.32.258-.646.258h-3.336c-.563 0-.843-.298-.843-.888V18.576h-7.094c-.357 0-.597-.068-.717-.208-.12-.14-.18-.347-.18-.624V14.88c0-.278.06-.492.18-.647.12-.155.344-.233.673-.233h19.294c.57 0 .853.295.853.88v2.864c0 .556-.3.832-.896.832M281.365 32.235l-9.292-17.395c-.09-.215-.096-.41-.022-.582.075-.17.233-.258.475-.258h3.835c.39 0 .66.056.81.162.15.112.3.32.45.63l3.655 7.296 2.548 5.144h.27l2.686-5.284 3.652-7.012c.148-.345.306-.588.473-.728.164-.14.427-.208.79-.208h3.7c.3 0 .485.078.562.233.074.156.053.358-.068.607l-9.52 17.395V44.11c0 .253-.05.46-.154.632-.105.174-.322.258-.65.258h-3.306c-.598 0-.895-.295-.895-.89V32.236zM332.582 29.78c0-2.185-.193-4.004-.574-5.46-.384-1.45-.91-2.6-1.584-3.44-.67-.844-1.478-1.438-2.41-1.783-.933-.342-1.95-.517-3.053-.517h-4.772v21.84h4.452c1.04 0 2.035-.144 2.983-.423.948-.28 1.793-.812 2.527-1.593.734-.78 1.323-1.865 1.767-3.258.44-1.39.665-3.18.665-5.365zM316.012 45c-.4 0-.665-.078-.804-.233-.14-.156-.208-.373-.208-.656V14.89c0-.595.29-.89.873-.89h9.318c2.54 0 4.638.414 6.29 1.238 1.653.827 2.96 1.94 3.924 3.342.964 1.406 1.638 3.042 2.02 4.91.384 1.873.576 3.85.576 5.94 0 2.12-.186 4.123-.55 6.008-.37 1.887-1.028 3.54-1.977 4.957-.948 1.418-2.255 2.54-3.925 3.367-1.666.828-3.786 1.238-6.357 1.238h-9.18zM358.37 26.25l-1.852-6.73h-.183l-1.808 6.637-1.898 6.732h7.637l-1.898-6.64zm-9.038 17.767c-.12.374-.273.632-.452.772-.18.138-.438.21-.77.21h-3.522c-.543 0-.71-.31-.5-.936l9.13-29.08c.12-.343.254-.592.406-.748.152-.155.438-.236.86-.236h3.932c.42 0 .707.087.856.258.152.17.273.414.362.725l9.31 29.174c.15.56 0 .843-.452.843h-3.976c-.363 0-.61-.078-.748-.236-.133-.156-.263-.405-.384-.747l-1.898-6.73h-10.122l-2.032 6.73zM383.833 46c-.583 0-1.255-.025-2.02-.072-.768-.047-1.556-.125-2.37-.235-.81-.11-1.614-.25-2.412-.423-.794-.173-1.485-.386-2.065-.637-.523-.22-.82-.438-.896-.66-.08-.22-.086-.487-.026-.8l.413-1.934c.092-.408.224-.643.39-.706.172-.063.452-.063.853 0 .58.063 1.24.132 1.974.21.738.08 1.473.15 2.208.213.734.063 1.447.12 2.135.166.69.047 1.296.07 1.816.07 3.92 0 5.882-1.383 5.882-4.147 0-.85-.092-1.55-.275-2.097-.186-.55-.492-1.013-.92-1.393-.43-.376-.988-.674-1.678-.893-.688-.22-1.555-.426-2.596-.614-1.346-.282-2.643-.596-3.882-.944-1.243-.344-2.337-.83-3.286-1.46-.95-.627-1.7-1.46-2.252-2.498-.552-1.038-.826-2.354-.826-3.96 0-2.982.924-5.26 2.778-6.83 1.855-1.57 4.406-2.358 7.65-2.358.43 0 .99.016 1.68.047.69.03 1.424.088 2.206.166.78.078 1.568.204 2.366.376.797.172 1.532.4 2.207.682.52.22.817.442.896.662.075.22.082.486.022.8l-.46 1.933c-.092.376-.23.605-.414.683-.182.078-.488.1-.916.07-1.044-.158-2.183-.3-3.425-.424-1.24-.125-2.553-.188-3.93-.188-1.962 0-3.33.37-4.113 1.106-.782.74-1.173 1.768-1.173 3.087 0 .757.1 1.362.3 1.816.198.455.513.824.942 1.106.43.286.987.514 1.678.684.688.175 1.54.354 2.548.542 1.318.282 2.59.6 3.816.943 1.224.346 2.305.85 3.24 1.51.932.66 1.683 1.54 2.25 2.638.568 1.1.852 2.545.852 4.338 0 1.79-.306 3.28-.92 4.475-.613 1.195-1.433 2.16-2.458 2.9-1.028.74-2.213 1.266-3.56 1.58-1.35.313-2.76.47-4.23.47M418.8 14.938c0-.624.307-.938.92-.938h3.452c.338 0 .56.087.67.258.104.17.158.397.158.677v29.18c0 .248-.054.46-.158.63-.11.17-.332.255-.67.255h-3.452c-.613 0-.92-.295-.92-.885V31.043h-11.598v13.072c0 .248-.053.46-.16.63-.108.17-.332.255-.667.255h-3.453c-.616 0-.922-.295-.922-.885v-29.18c0-.62.306-.935.922-.935h3.453c.335 0 .56.087.666.258.11.174.162.4.162.68v11.528h11.6V14.938zM445.718 35.836c0-1.247-.366-2.34-1.097-3.275-.73-.93-1.9-1.4-3.515-1.4h-6.044v9.26h6.045c.895 0 1.64-.125 2.24-.377.597-.25 1.073-.584 1.432-1.004.36-.42.606-.906.738-1.45.135-.544.203-1.13.203-1.754m-.85-13.163c0-1.176-.352-2.152-1.052-2.93-.704-.774-1.844-1.163-3.427-1.163h-5.33v8.092h5.82c1.135 0 2.084-.38 2.847-1.138.76-.762 1.14-1.714 1.14-2.86M451 36.16c0 1.375-.23 2.603-.69 3.695-.465 1.09-1.092 2.018-1.882 2.783-.793.765-1.712 1.35-2.756 1.754-1.045.404-2.148.606-3.313.606h-11.374c-.387 0-.648-.078-.783-.233-.135-.156-.203-.373-.203-.656V14.89c0-.595.298-.89.897-.89h10.254c2.985 0 5.23.75 6.74 2.245 1.506 1.496 2.262 3.492 2.262 5.983 0 .44-.055.952-.157 1.546-.107.59-.292 1.184-.562 1.775-.268.59-.633 1.16-1.097 1.706-.46.545-1.05 1.005-1.767 1.378l.042.093c.897.314 1.63.765 2.194 1.36.568.59 1.017 1.237 1.346 1.936.326.703.55 1.422.67 2.152.12.734.178 1.397.178 1.987M475.675 30.047c0-1.88-.114-3.538-.346-4.97-.233-1.424-.627-2.618-1.183-3.577-.556-.956-1.296-1.678-2.22-2.166-.928-.484-2.1-.728-3.52-.728-1.326 0-2.43.26-3.31.775-.878.52-1.59 1.267-2.13 2.24-.54.974-.924 2.164-1.156 3.577-.23 1.412-.346 3.03-.346 4.85 0 1.76.1 3.344.3 4.756.2 1.413.56 2.606 1.09 3.578.523.976 1.232 1.72 2.127 2.24.897.518 2.038.774 3.426.774 1.42 0 2.593-.25 3.52-.753.925-.5 1.665-1.23 2.22-2.187.557-.96.95-2.144 1.183-3.556.23-1.413.345-3.028.345-4.85m5.325-.494c0 1.82-.124 3.697-.372 5.64-.248 1.94-.794 3.71-1.642 5.31-.848 1.597-2.116 2.913-3.797 3.947-1.685 1.034-3.96 1.55-6.828 1.55-1.884 0-3.498-.234-4.84-.706-1.343-.47-2.477-1.11-3.4-1.925-.926-.817-1.66-1.764-2.2-2.845-.54-1.08-.95-2.23-1.226-3.453-.28-1.222-.464-2.475-.556-3.76-.092-1.284-.14-2.537-.14-3.76 0-.94.048-1.98.14-3.124.092-1.14.292-2.284.6-3.428.308-1.144.74-2.256 1.296-3.337.556-1.082 1.297-2.044 2.224-2.89.925-.845 2.053-1.52 3.378-2.02 1.328-.5 2.916-.753 4.768-.753 2.748 0 4.953.456 6.62 1.363 1.67.91 2.94 2.106 3.82 3.593.88 1.49 1.458 3.16 1.738 5.006.276 1.847.416 3.713.416 5.59M497.37 26.25l-1.852-6.73h-.183l-1.808 6.637-1.898 6.732h7.637l-1.898-6.64zm-9.038 17.767c-.12.374-.273.632-.452.772-.18.138-.438.21-.77.21h-3.522c-.543 0-.71-.31-.5-.936l9.13-29.08c.12-.343.254-.592.406-.748.152-.155.438-.236.86-.236h3.932c.42 0 .707.087.856.258.152.17.273.414.362.725l9.31 29.174c.15.56 0 .843-.452.843h-3.976c-.363 0-.61-.078-.748-.236-.133-.156-.263-.405-.384-.747l-1.898-6.73h-10.122l-2.032 6.73zM526.016 23.08c0-.877-.138-1.603-.41-2.184-.276-.577-.64-1.037-1.097-1.382-.458-.344-.99-.586-1.598-.726-.608-.143-1.247-.214-1.917-.214h-4.84v9.48h4.75c.547 0 1.123-.063 1.734-.19.607-.125 1.16-.357 1.662-.702.505-.345.915-.845 1.234-1.503.32-.656.48-1.516.48-2.58zm5.888 20.94c.12.28.128.514.022.7-.107.187-.282.28-.526.28h-3.925c-.335 0-.6-.047-.8-.14-.196-.093-.37-.31-.522-.655l-5.34-11.718h-4.657v11.578c0 .625-.29.935-.865.935h-3.38c-.606 0-.91-.295-.91-.888V14.885c0-.59.304-.885.91-.885h10.134c1.187 0 2.337.17 3.445.512 1.11.345 2.1.882 2.966 1.612.867.733 1.57 1.673 2.1 2.825.534 1.15.8 2.536.8 4.154 0 .84-.1 1.68-.298 2.52-.197.842-.51 1.644-.936 2.404-.426.764-.98 1.466-1.666 2.102-.683.637-1.53 1.143-2.53 1.52l5.978 12.37zM554.582 29.78c0-2.185-.193-4.004-.574-5.46-.384-1.45-.91-2.6-1.584-3.44-.67-.844-1.478-1.438-2.41-1.783-.933-.342-1.95-.517-3.053-.517h-4.772v21.84h4.452c1.04 0 2.035-.144 2.983-.423.948-.28 1.793-.812 2.527-1.593.734-.78 1.323-1.865 1.767-3.258.44-1.39.665-3.18.665-5.365zM538.012 45c-.4 0-.665-.078-.804-.233-.14-.156-.208-.373-.208-.656V14.89c0-.595.29-.89.873-.89h9.318c2.54 0 4.638.414 6.29 1.238 1.653.827 2.96 1.94 3.924 3.342.964 1.406 1.638 3.042 2.02 4.91.384 1.873.576 3.85.576 5.94 0 2.12-.186 4.123-.55 6.008-.37 1.887-1.028 3.54-1.977 4.957-.948 1.418-2.255 2.54-3.925 3.367-1.666.828-3.786 1.238-6.357 1.238h-9.18z" fill="#1D1C1B"/><g transform="translate(0 -1)"><mask id="b" fill="#fff"><use xlink:href="#a"/></mask><path d="M43.725 1.928c-.012-.32-.28-.573-.6-.573H36.95c-.324 0-.587.25-.6.57L35.55 17.04l-.55-10.623c-.017-.314-.28-.563-.6-.563H28.22c-.316 0-.58.246-.598.56l-.73 10.718-.313-4.602c0-.01-.005-.018-.005-.025-.003-.043-.006-.07-.01-.07h-.002c-.057-.272-.298-.47-.586-.47l-6.152.005c-.286 0-.527.203-.583.473h-.003l-.008.044c0 .015-.006.03-.006.046l-.317 4.54-.417-7.128c-.01-.22-.138-.417-.336-.516-.2-.098-.435-.076-.617.05l-7.53 5.5-.152-5.016c0-.22-.128-.427-.33-.53-.2-.102-.44-.083-.623.047L.25 15.78c-.158.113-.252.294-.252.487v39.138c0 .33.27.594.602.594H44.327c.163 0 .32-.067.432-.182.112-.118.172-.273.165-.438l-1.2-53.452" fill="#010202" mask="url(#b)"/></g></g></svg>