<svg xmlns="http://www.w3.org/2000/svg" viewBox="854.4 394.9 406.7 53.1"><title>LCD-logo-long</title><path fill="#030406" d="M896.5 395.4c0-.3-.3-.6-.6-.6H890c-.3 0-.6.2-.6.6l-.8 14.7-.5-10.3c0-.3-.3-.6-.6-.6h-5.9c-.3 0-.6.2-.6.5l-.7 10.4-.3-4.5v-.1c-.1-.3-.3-.5-.6-.5h-5.9c-.3 0-.5.2-.6.5l-.3 4.4-.4-6.9c0-.2-.1-.4-.3-.5-.2-.1-.4-.1-.6.1l-7.3 5.3-.1-4.9c0-.2-.1-.4-.3-.5-.2-.1-.4-.1-.6 0l-8.3 6.1c-.2.1-.2.3-.2.5v38c0 .3.3.6.6.6h42.1c.2 0 .3-.1.4-.2.1-.1.2-.3.2-.4l-1.3-51.7z"/><path fill="#1D1C1B" d="M912.9 429.7h9.9v3h-13.5v-22.2h3.6v19.2zm26.4-7h-9.7v7h11.3v3h-15v-22.2h14.9v3h-11.2v6.3h9.7v2.9zm18 0h-9.7v7h11.3v3h-15v-22.2h14.9v3h-11.2v6.3h9.7v2.9zm8.3-9.4v16.1h3.4c1.8 0 3.3-.6 4.3-1.8 1-1.2 1.6-2.7 1.6-4.6v-3.4c0-1.9-.5-3.4-1.6-4.6-1-1.2-2.5-1.8-4.3-1.8h-3.4v.1zm-3.7 19.1v-22.1h7.1c2.8 0 5.1.9 6.8 2.6 1.8 1.7 2.6 4 2.6 6.7v3.3c0 2.8-.9 5-2.6 6.7-1.8 1.7-4 2.6-6.8 2.6l-7.1.2zm32.3-5.7c0-.9-.3-1.7-1-2.2-.7-.6-1.9-1.1-3.6-1.6-2.5-.6-4.4-1.5-5.7-2.6-1.3-1.1-2-2.5-2-4.2 0-1.8.7-3.2 2.2-4.4 1.5-1.2 3.4-1.7 5.7-1.7 2.4 0 4.4.7 5.8 2 1.5 1.3 2.2 2.9 2.1 4.7v.1h-3.5c0-1.1-.4-2-1.2-2.8-.8-.7-1.9-1.1-3.3-1.1-1.3 0-2.4.3-3.1.9-.7.6-1.1 1.3-1.1 2.3 0 .8.4 1.5 1.2 2.1.8.6 2.1 1.1 3.9 1.6 2.4.6 4.2 1.5 5.4 2.6 1.2 1.1 1.8 2.5 1.8 4.3 0 1.8-.7 3.3-2.2 4.4-1.5 1.1-3.4 1.6-5.8 1.6-2.3 0-4.3-.6-6.1-1.8-1.7-1.2-2.6-2.9-2.5-5v-.1h3.5c0 1.3.5 2.3 1.4 3 .9.7 2.1 1 3.6 1 1.4 0 2.4-.3 3.2-.8.9-.6 1.3-1.4 1.3-2.3m30.5-1.6c.1 2.3-.7 4.1-2.1 5.5-1.5 1.4-3.5 2.1-6 2.1-2.6 0-4.7-.9-6.3-2.6-1.6-1.7-2.4-3.9-2.4-6.6v-4.2c0-2.7.8-4.9 2.4-6.6 1.6-1.7 3.7-2.6 6.2-2.6 2.6 0 4.7.7 6.2 2.1 1.5 1.4 2.2 3.2 2.2 5.5v.1h-3.6c0-1.5-.4-2.6-1.2-3.5-.8-.8-2-1.2-3.6-1.2-1.5 0-2.7.6-3.6 1.8-.9 1.2-1.3 2.7-1.3 4.5v4.2c0 1.8.5 3.3 1.4 4.5.9 1.2 2.1 1.8 3.7 1.8 1.5 0 2.7-.4 3.5-1.2.8-.8 1.2-2 1.2-3.5l3.3-.1zm7.5 7.3h-3.7v-22.1h3.7v22.1zm20.1-19.1h-6.7v19.1h-3.7v-19.1h-6.7v-3h17v3zm10.3 7.8l5.3-10.7h4.1l-7.6 14.3v7.7h-3.7v-7.9l-7.5-14.1h4.1l5.3 10.7zm22.8-7.8v16.1h3.4c1.8 0 3.3-.6 4.3-1.8 1-1.2 1.6-2.7 1.6-4.6v-3.4c0-1.9-.5-3.4-1.6-4.6-1-1.2-2.5-1.8-4.3-1.8-.1.1-3.4.1-3.4.1zm-3.7 19.1v-22.1h7.1c2.8 0 5.1.9 6.8 2.6 1.8 1.7 2.6 4 2.6 6.7v3.3c0 2.8-.9 5-2.6 6.7-1.8 1.7-4 2.6-6.8 2.6l-7.1.2zm24.4-8.2h6.5l-3.2-9.4h-.1l-3.2 9.4zm7.6 3h-8.6l-1.8 5.1h-3.7l8.1-22.1h3.5l8 22.1h-3.7l-1.8-5.1zm20-.5c0-.9-.3-1.7-1-2.2-.7-.6-1.9-1.1-3.6-1.6-2.5-.6-4.4-1.5-5.7-2.6-1.3-1.1-2-2.5-2-4.2 0-1.8.7-3.2 2.2-4.4 1.5-1.2 3.4-1.7 5.7-1.7 2.4 0 4.4.7 5.8 2 1.5 1.3 2.2 2.9 2.1 4.7v.1h-3.5c0-1.1-.4-2-1.2-2.8-.8-.7-1.9-1.1-3.3-1.1-1.3 0-2.4.3-3.1.9-.7.6-1.1 1.3-1.1 2.3 0 .8.4 1.5 1.2 2.1.8.6 2.1 1.1 3.9 1.6 2.4.6 4.2 1.5 5.4 2.6 1.2 1.1 1.8 2.5 1.8 4.3 0 1.8-.7 3.3-2.2 4.4-1.5 1.1-3.4 1.6-5.8 1.6-2.3 0-4.3-.6-6.1-1.8-1.7-1.2-2.6-2.9-2.5-5v-.1h3.5c0 1.3.5 2.3 1.4 3 .9.7 2.1 1 3.6 1 1.4 0 2.4-.3 3.2-.8.9-.6 1.3-1.4 1.3-2.3m24.7 5.7h-3.7V423h-9.9v9.4h-3.7v-22.1h3.7v9.7h9.9v-9.7h3.7v22.1zm8.5-10v7.1h4.6c1.3 0 2.3-.3 2.9-.9.7-.6 1-1.4 1-2.5 0-1.2-.3-2.1-.9-2.7-.6-.6-1.5-1-2.7-1h-4.9zm0-2.8h4.1c1.1 0 2-.3 2.7-.8.7-.5 1-1.3 1-2.3 0-1.1-.3-1.9-1-2.4s-1.7-.8-3.1-.8h-3.6l-.1 6.3zm-3.6 12.8v-22.1h7.3c2.4 0 4.4.5 5.7 1.5 1.4 1 2.1 2.5 2.1 4.5 0 1-.3 1.9-.9 2.7-.6.8-1.4 1.4-2.4 1.8 1.3.3 2.3.9 3 1.9.7 1 1.1 2.1 1.1 3.4 0 2.1-.7 3.6-2 4.7-1.4 1.1-3.2 1.6-5.6 1.6h-8.3zm33.4-13c0-1.8-.5-3.3-1.5-4.5-1-1.2-2.3-1.8-4-1.8-1.6 0-2.9.6-3.8 1.8-.9 1.2-1.4 2.7-1.4 4.5v4c0 1.9.5 3.4 1.4 4.6.9 1.2 2.2 1.8 3.8 1.8 1.7 0 3-.6 4-1.8 1-1.2 1.5-2.7 1.5-4.6v-4zm3.6 4c0 2.7-.8 4.9-2.5 6.7-1.7 1.8-3.9 2.7-6.6 2.7-2.6 0-4.8-.9-6.4-2.7-1.7-1.8-2.5-4-2.5-6.7v-4c0-2.7.8-4.9 2.5-6.7 1.6-1.8 3.8-2.7 6.4-2.7 2.7 0 4.9.9 6.6 2.7 1.7 1.8 2.5 4 2.5 6.7v4zm8 .8h6.5l-3.2-9.4h-.1l-3.2 9.4zm7.6 3h-8.6l-1.8 5.1h-3.7l8.1-22.1h3.5l8 22.1h-3.7l-1.8-5.1zm11.7-6.9h4.3c1.5 0 2.5-.3 3.2-.8.7-.6 1-1.4 1-2.6 0-1.1-.3-2-1-2.6-.7-.6-1.7-.9-3-.9h-4.5v6.9zm0 2.9v9.1h-3.7v-22.1h8.1c2.5 0 4.4.6 5.7 1.7 1.3 1.1 2 2.7 2 4.8 0 1.1-.3 2.1-.9 2.9-.6.8-1.5 1.5-2.6 2 1.2.4 2.1 1 2.7 1.9.5.9.8 2 .8 3.3v1.8c0 .6.1 1.3.2 1.9.2.6.4 1.1.8 1.4v.3h-3.8c-.4-.3-.7-.9-.8-1.6-.1-.7-.2-1.4-.2-2.1v-1.8c0-1.1-.3-2-1-2.7-.6-.7-1.5-1-2.7-1l-4.6.2zm20.6-9.9v16.1h3.4c1.8 0 3.3-.6 4.3-1.8 1-1.2 1.6-2.7 1.6-4.6v-3.4c0-1.9-.5-3.4-1.6-4.6-1-1.2-2.5-1.8-4.3-1.8h-3.4v.1zm-3.7 19.1v-22.1h7.1c2.8 0 5.1.9 6.8 2.6 1.8 1.7 2.6 4 2.6 6.7v3.3c0 2.8-.9 5-2.6 6.7-1.8 1.7-4 2.6-6.8 2.6l-7.1.2z"/></svg>