<?xml version="1.0" encoding="UTF-8" standalone="no"?>
<svg width="223px" height="74px" viewBox="0 0 223 74" version="1.1" xmlns="http://www.w3.org/2000/svg" xmlns:xlink="http://www.w3.org/1999/xlink" xmlns:sketch="http://www.bohemiancoding.com/sketch/ns">
    <!-- Generator: Sketch 3.4.1 (15681) - http://www.bohemiancoding.com/sketch -->
    <title>Page 1</title>
    <desc>Created with Sketch.</desc>
    <defs>
        <path id="path-1" d="M0,0.817 L222.664,0.817 L222.664,74 L0,74 L0,0.817 Z"></path>
    </defs>
    <g id="Page-1" stroke="none" stroke-width="1" fill="none" fill-rule="evenodd" sketch:type="MSPage">
        <g sketch:type="MSLayerGroup">
            <path d="M69.6682,18.2972 L78.4882,18.2972 L78.4882,20.8672 L66.4642,20.8672 L66.4642,1.6722 L69.6682,1.6722 L69.6682,18.2972 Z" id="Fill-1" fill="#1D1C1B" sketch:type="MSShapeGroup"></path>
            <path d="M92.6735,12.2327 L84.2755,12.2327 L84.2755,18.2967 L94.0185,18.2967 L94.0185,20.8677 L81.0715,20.8677 L81.0715,1.6717 L93.9255,1.6717 L93.9255,4.2427 L84.2755,4.2427 L84.2755,9.6617 L92.6735,9.6617 L92.6735,12.2327 Z" id="Fill-2" fill="#1D1C1B" sketch:type="MSShapeGroup"></path>
            <path d="M108.3225,12.2327 L99.9245,12.2327 L99.9245,18.2967 L109.6675,18.2967 L109.6675,20.8677 L96.7205,20.8677 L96.7205,1.6717 L109.5745,1.6717 L109.5745,4.2427 L99.9245,4.2427 L99.9245,9.6617 L108.3225,9.6617 L108.3225,12.2327 Z" id="Fill-3" fill="#1D1C1B" sketch:type="MSShapeGroup"></path>
            <g id="Group-24">
                <path d="M115.5734,4.2425 L115.5734,18.2975 L118.5004,18.2975 C120.0914,18.2975 121.3414,17.7785 122.2514,16.7425 C123.1604,15.7065 123.6154,14.3675 123.6154,12.7245 L123.6154,9.7885 C123.6154,8.1635 123.1604,6.8335 122.2514,5.7975 C121.3414,4.7615 120.0914,4.2425 118.5004,4.2425 L115.5734,4.2425 Z M112.3694,20.8675 L112.3694,1.6725 L118.5924,1.6725 C121.0274,1.6725 123.0064,2.4325 124.5314,3.9535 C126.0564,5.4735 126.8194,7.4295 126.8194,9.8195 L126.8194,12.7325 C126.8194,15.1335 126.0564,17.0885 124.5314,18.5995 C123.0064,20.1115 121.0274,20.8675 118.5924,20.8675 L112.3694,20.8675 Z" id="Fill-4" fill="#1D1C1B" sketch:type="MSShapeGroup"></path>
                <path d="M140.5168,15.9222 C140.5168,15.1262 140.2198,14.4742 139.6268,13.9662 C139.0338,13.4592 137.9858,13.0042 136.4828,12.6022 C134.3378,12.0392 132.6878,11.2942 131.5328,10.3662 C130.3758,9.4402 129.7988,8.2252 129.7988,6.7212 C129.7988,5.1752 130.4378,3.9012 131.7168,2.8992 C132.9958,1.8972 134.6458,1.3952 136.6668,1.3952 C138.7768,1.3952 140.4708,1.9642 141.7488,3.1032 C143.0288,4.2402 143.6458,5.6062 143.6018,7.1952 L143.5758,7.2762 L140.5038,7.2762 C140.5038,6.2912 140.1698,5.4932 139.5018,4.8822 C138.8338,4.2722 137.8798,3.9662 136.6408,3.9662 C135.4718,3.9662 134.5728,4.2212 133.9448,4.7292 C133.3158,5.2372 133.0018,5.8962 133.0018,6.7022 C133.0018,7.4302 133.3428,8.0352 134.0238,8.5182 C134.7048,9.0002 135.8318,9.4552 137.4058,9.8852 C139.4708,10.4402 141.0398,11.2032 142.1118,12.1802 C143.1838,13.1542 143.7208,14.3992 143.7208,15.9102 C143.7208,17.5102 143.0808,18.7822 141.8018,19.7272 C140.5238,20.6722 138.8428,21.1452 136.7598,21.1452 C134.7558,21.1452 132.9978,20.6102 131.4858,19.5422 C129.9748,18.4752 129.2408,17.0182 129.2848,15.1722 L129.3108,15.0932 L132.3958,15.0932 C132.3958,16.2622 132.7998,17.1342 133.6088,17.7102 C134.4168,18.2852 135.4678,18.5732 136.7598,18.5732 C137.9458,18.5732 138.8688,18.3352 139.5278,17.8592 C140.1868,17.3812 140.5168,16.7352 140.5168,15.9222" id="Fill-6" fill="#1D1C1B" sketch:type="MSShapeGroup"></path>
                <path d="M80.4655,40.639 L80.4915,40.717 C80.5275,42.66 79.8965,44.24 78.5995,45.457 C77.3035,46.674 75.5485,47.284 73.3335,47.284 C71.0915,47.284 69.2705,46.53 67.8685,45.022 C66.4665,43.515 65.7655,41.588 65.7655,39.241 L65.7655,35.589 C65.7655,33.251 66.4585,31.325 67.8415,29.808 C69.2265,28.292 71.0265,27.534 73.2405,27.534 C75.5085,27.534 77.2955,28.129 78.5995,29.321 C79.9055,30.511 80.5405,32.114 80.5055,34.125 L80.4785,34.205 L77.3805,34.205 C77.3805,32.912 77.0315,31.907 76.3325,31.186 C75.6335,30.465 74.6035,30.105 73.2405,30.105 C71.9315,30.105 70.8915,30.623 70.1235,31.66 C69.3535,32.696 68.9695,33.994 68.9695,35.558 L68.9695,39.233 C68.9695,40.814 69.3625,42.121 70.1495,43.158 C70.9355,44.194 71.9975,44.712 73.3335,44.712 C74.6605,44.712 75.6665,44.358 76.3525,43.648 C77.0375,42.938 77.3805,41.935 77.3805,40.639 L80.4655,40.639 Z" id="Fill-8" fill="#1D1C1B" sketch:type="MSShapeGroup"></path>
                <mask id="mask-2" sketch:name="Clip 11" fill="white">
                    <use xlink:href="#path-1"></use>
                </mask>
                <g id="Clip-11"></g>
                <path d="M87.018,47.006 L83.814,47.006 L83.814,27.811 L87.018,27.811 L87.018,47.006 Z" id="Fill-10" fill="#1D1C1B" sketch:type="MSShapeGroup" mask="url(#mask-2)"></path>
                <path d="M104.5124,30.3811 L98.7114,30.3811 L98.7114,47.0061 L95.5084,47.0061 L95.5084,30.3811 L89.7074,30.3811 L89.7074,27.8111 L104.5124,27.8111 L104.5124,30.3811 Z" id="Fill-12" fill="#1D1C1B" sketch:type="MSShapeGroup" mask="url(#mask-2)"></path>
                <path d="M113.5036,37.1448 L118.1446,27.8108 L121.7166,27.8108 L115.0596,40.2698 L115.0596,47.0058 L111.8686,47.0058 L111.8686,40.0978 L105.3166,27.8108 L108.8896,27.8108 L113.5036,37.1448 Z" id="Fill-13" fill="#1D1C1B" sketch:type="MSShapeGroup" mask="url(#mask-2)"></path>
                <path d="M69.6682,56.5208 L69.6682,70.5758 L72.5952,70.5758 C74.1862,70.5758 75.4362,70.0568 76.3462,69.0208 C77.2552,67.9848 77.7102,66.6458 77.7102,65.0028 L77.7102,62.0668 C77.7102,60.4418 77.2552,59.1118 76.3462,58.0758 C75.4362,57.0398 74.1862,56.5208 72.5952,56.5208 L69.6682,56.5208 Z M66.4642,73.1458 L66.4642,53.9508 L72.6872,53.9508 C75.1222,53.9508 77.1012,54.7108 78.6262,56.2318 C80.1512,57.7518 80.9142,59.7078 80.9142,62.0978 L80.9142,65.0108 C80.9142,67.4118 80.1512,69.3668 78.6262,70.8778 C77.1012,72.3898 75.1222,73.1458 72.6872,73.1458 L66.4642,73.1458 Z" id="Fill-14" fill="#1D1C1B" sketch:type="MSShapeGroup" mask="url(#mask-2)"></path>
                <path d="M87.7297,65.9876 L93.4117,65.9876 L90.6297,57.7866 L90.5507,57.7866 L87.7297,65.9876 Z M94.3217,68.6636 L86.8067,68.6636 L85.2777,73.1456 L82.0347,73.1456 L89.0877,53.9506 L92.1197,53.9506 L99.0937,73.1456 L95.8377,73.1456 L94.3217,68.6636 Z" id="Fill-15" fill="#1D1C1B" sketch:type="MSShapeGroup" mask="url(#mask-2)"></path>
                <path d="M111.7238,68.2005 C111.7238,67.4045 111.4268,66.7525 110.8338,66.2445 C110.2408,65.7375 109.1928,65.2825 107.6898,64.8805 C105.5448,64.3175 103.8948,63.5725 102.7398,62.6445 C101.5828,61.7185 101.0058,60.5035 101.0058,58.9995 C101.0058,57.4535 101.6448,56.1795 102.9238,55.1775 C104.2028,54.1755 105.8528,53.6735 107.8738,53.6735 C109.9838,53.6735 111.6778,54.2425 112.9558,55.3815 C114.2358,56.5185 114.8528,57.8845 114.8088,59.4735 L114.7828,59.5545 L111.7108,59.5545 C111.7108,58.5695 111.3768,57.7715 110.7088,57.1605 C110.0408,56.5505 109.0868,56.2445 107.8478,56.2445 C106.6788,56.2445 105.7798,56.4995 105.1518,57.0075 C104.5228,57.5155 104.2088,58.1745 104.2088,58.9805 C104.2088,59.7085 104.5498,60.3135 105.2308,60.7965 C105.9118,61.2785 107.0388,61.7335 108.6128,62.1635 C110.6778,62.7185 112.2468,63.4815 113.3188,64.4585 C114.3908,65.4325 114.9278,66.6775 114.9278,68.1885 C114.9278,69.7885 114.2878,71.0605 113.0088,72.0055 C111.7308,72.9505 110.0498,73.4235 107.9668,73.4235 C105.9628,73.4235 104.2048,72.8885 102.6928,71.8205 C101.1818,70.7535 100.4478,69.2965 100.4918,67.4505 L100.5178,67.3715 L103.6028,67.3715 C103.6028,68.5405 104.0068,69.4125 104.8158,69.9885 C105.6238,70.5635 106.6748,70.8515 107.9668,70.8515 C109.1528,70.8515 110.0758,70.6135 110.7348,70.1375 C111.3938,69.6595 111.7238,69.0135 111.7238,68.2005" id="Fill-16" fill="#1D1C1B" sketch:type="MSShapeGroup" mask="url(#mask-2)"></path>
                <path d="M133.2922,73.1458 L130.1022,73.1458 L130.1022,64.9578 L121.5062,64.9578 L121.5062,73.1458 L118.3022,73.1458 L118.3022,53.9508 L121.5062,53.9508 L121.5062,62.3878 L130.1022,62.3878 L130.1022,53.9508 L133.2922,53.9508 L133.2922,73.1458 Z" id="Fill-17" fill="#1D1C1B" sketch:type="MSShapeGroup" mask="url(#mask-2)"></path>
                <path d="M140.7014,64.4183 L140.7014,70.5753 L144.7354,70.5753 C145.8434,70.5753 146.6954,70.3223 147.2934,69.8183 C147.8904,69.3143 148.1894,68.5843 148.1894,67.6283 C148.1894,66.6103 147.9394,65.8213 147.4384,65.2603 C146.9374,64.6993 146.1554,64.4183 145.0914,64.4183 L140.7014,64.4183 Z M140.7014,62.0323 L144.2344,62.0323 C145.2274,62.0323 146.0124,61.7973 146.5884,61.3263 C147.1634,60.8563 147.4514,60.1903 147.4514,59.3293 C147.4514,58.3803 147.1484,57.6753 146.5414,57.2133 C145.9354,56.7523 145.0474,56.5213 143.8784,56.5213 L140.7014,56.5213 L140.7014,62.0323 Z M137.4974,73.1463 L137.4974,53.9503 L143.8784,53.9503 C146.0054,53.9503 147.6664,54.3883 148.8624,55.2623 C150.0574,56.1373 150.6554,57.4443 150.6554,59.1853 C150.6554,60.0543 150.4044,60.8323 149.9034,61.5183 C149.4024,62.2033 148.7084,62.7133 147.8204,63.0473 C148.9634,63.3023 149.8424,63.8513 150.4574,64.6943 C151.0724,65.5383 151.3804,66.5193 151.3804,67.6353 C151.3804,69.4373 150.7914,70.8063 149.6134,71.7413 C148.4354,72.6783 146.8094,73.1463 144.7354,73.1463 L137.4974,73.1463 Z" id="Fill-18" fill="#1D1C1B" sketch:type="MSShapeGroup" mask="url(#mask-2)"></path>
                <path d="M166.5676,61.7942 C166.5676,60.1952 166.1386,58.8812 165.2826,57.8532 C164.4246,56.8242 163.2676,56.3102 161.8086,56.3102 C160.4016,56.3102 159.2906,56.8242 158.4726,57.8532 C157.6556,58.8812 157.2466,60.1952 157.2466,61.7942 L157.2466,65.2742 C157.2466,66.8932 157.6556,68.2172 158.4726,69.2502 C159.2906,70.2822 160.4066,70.7992 161.8216,70.7992 C163.2896,70.7992 164.4466,70.2842 165.2956,69.2572 C166.1436,68.2282 166.5676,66.9012 166.5676,65.2742 L166.5676,61.7942 Z M169.7576,65.2742 C169.7576,67.6222 169.0216,69.5662 167.5496,71.1082 C166.0776,72.6512 164.1686,73.4232 161.8216,73.4232 C159.5186,73.4232 157.6486,72.6512 156.2126,71.1082 C154.7746,69.5662 154.0566,67.6222 154.0566,65.2742 L154.0566,61.8212 C154.0566,59.4832 154.7746,57.5412 156.2126,55.9932 C157.6486,54.4472 159.5146,53.6732 161.8086,53.6732 C164.1546,53.6732 166.0666,54.4472 167.5436,55.9932 C169.0196,57.5412 169.7576,59.4832 169.7576,61.8212 L169.7576,65.2742 Z" id="Fill-19" fill="#1D1C1B" sketch:type="MSShapeGroup" mask="url(#mask-2)"></path>
                <path d="M176.7453,65.9876 L182.4273,65.9876 L179.6453,57.7866 L179.5663,57.7866 L176.7453,65.9876 Z M183.3373,68.6636 L175.8223,68.6636 L174.2933,73.1456 L171.0503,73.1456 L178.1033,53.9506 L181.1353,53.9506 L188.1093,73.1456 L184.8533,73.1456 L183.3373,68.6636 Z" id="Fill-20" fill="#1D1C1B" sketch:type="MSShapeGroup" mask="url(#mask-2)"></path>
                <path d="M193.5407,62.6126 L197.2597,62.6126 C198.5427,62.6126 199.4777,62.3666 200.0677,61.8746 C200.6557,61.3826 200.9507,60.6306 200.9507,59.6196 C200.9507,58.6526 200.6597,57.8946 200.0797,57.3446 C199.4997,56.7966 198.6167,56.5206 197.4317,56.5206 L193.5407,56.5206 L193.5407,62.6126 Z M193.5407,65.1826 L193.5407,73.1456 L190.3377,73.1456 L190.3377,53.9506 L197.4317,53.9506 C199.5737,53.9506 201.2317,54.4336 202.3997,55.4006 C203.5697,56.3676 204.1537,57.7476 204.1537,59.5406 C204.1537,60.5336 203.8957,61.3876 203.3827,62.1046 C202.8687,62.8206 202.1187,63.3946 201.1347,63.8256 C202.2167,64.1676 202.9937,64.7276 203.4687,65.5066 C203.9427,66.2836 204.1817,67.2396 204.1817,68.3736 L204.1817,69.9676 C204.1817,70.5316 204.2497,71.0806 204.3927,71.6166 C204.5307,72.1526 204.7697,72.5616 205.1037,72.8426 L205.1037,73.1456 L201.8087,73.1456 C201.4547,72.8556 201.2297,72.3986 201.1287,71.7746 C201.0267,71.1506 200.9767,70.5406 200.9767,69.9426 L200.9767,68.3996 C200.9767,67.4156 200.6947,66.6336 200.1327,66.0526 C199.5697,65.4726 198.7967,65.1826 197.8117,65.1826 L193.5407,65.1826 Z" id="Fill-21" fill="#1D1C1B" sketch:type="MSShapeGroup" mask="url(#mask-2)"></path>
                <path d="M211.4186,56.5208 L211.4186,70.5758 L214.3456,70.5758 C215.9366,70.5758 217.1866,70.0568 218.0966,69.0208 C219.0056,67.9848 219.4606,66.6458 219.4606,65.0028 L219.4606,62.0668 C219.4606,60.4418 219.0056,59.1118 218.0966,58.0758 C217.1866,57.0398 215.9366,56.5208 214.3456,56.5208 L211.4186,56.5208 Z M208.2146,73.1458 L208.2146,53.9508 L214.4376,53.9508 C216.8716,53.9508 218.8526,54.7108 220.3766,56.2318 C221.9016,57.7518 222.6636,59.7078 222.6636,62.0978 L222.6636,65.0108 C222.6636,67.4118 221.9016,69.3668 220.3766,70.8778 C218.8526,72.3898 216.8716,73.1458 214.4376,73.1458 L208.2146,73.1458 Z" id="Fill-22" fill="#1D1C1B" sketch:type="MSShapeGroup" mask="url(#mask-2)"></path>
                <path d="M58.058,1.5847 C58.041,1.1557 57.689,0.8167 57.261,0.8167 L49.061,0.8167 C48.634,0.8167 48.283,1.1537 48.264,1.5797 L47.2,21.8267 L46.47,7.5987 C46.448,7.1737 46.098,6.8407 45.673,6.8407 L37.473,6.8407 C37.05,6.8407 36.701,7.1707 36.677,7.5927 L35.707,21.9447 L35.29,15.7827 C35.29,15.7717 35.287,15.7607 35.285,15.7497 C35.281,15.6917 35.277,15.6547 35.275,15.6547 L35.271,15.6547 C35.194,15.2937 34.875,15.0247 34.494,15.0247 L26.324,15.0357 C25.944,15.0357 25.625,15.3037 25.548,15.6657 L25.544,15.6657 L25.538,15.7257 C25.535,15.7467 25.53,15.7667 25.529,15.7877 L25.11,21.8657 L24.554,12.3207 C24.544,12.0267 24.372,11.7617 24.108,11.6317 C23.844,11.5017 23.529,11.5287 23.29,11.7007 L13.288,19.0637 L13.089,12.3487 C13.089,12.0487 12.921,11.7747 12.654,11.6377 C12.388,11.5017 12.067,11.5257 11.825,11.7007 L0.331,20.1397 C0.123,20.2897 0,20.5307 0,20.7867 L0,73.2017 C0,73.6427 0.357,73.9997 0.797,73.9997 L36.821,73.9997 L36.824,73.9997 L58.856,73.9997 C59.073,73.9997 59.28,73.9117 59.431,73.7547 C59.581,73.5987 59.661,73.3877 59.653,73.1707 L58.058,1.5847 Z" id="Fill-23" fill="#030406" sketch:type="MSShapeGroup" mask="url(#mask-2)"></path>
            </g>
        </g>
    </g>
</svg>