<?xml version="1.0" encoding="UTF-8" standalone="no"?>
<svg width="1356px" height="177px" viewBox="0 0 1356 177" version="1.1" xmlns="http://www.w3.org/2000/svg" xmlns:xlink="http://www.w3.org/1999/xlink" xmlns:sketch="http://www.bohemiancoding.com/sketch/ns">
    <!-- Generator: Sketch 3.4.1 (15681) - http://www.bohemiancoding.com/sketch -->
    <title>LCD-logo-long</title>
    <desc>Created with Sketch.</desc>
    <defs></defs>
    <g id="Page-1" stroke="none" stroke-width="1" fill="none" fill-rule="evenodd" sketch:type="MSPage">
        <g id="LCD-logo-long" sketch:type="MSLayerGroup">
            <g id="Page-1" sketch:type="MSShapeGroup">
                <g id="Group">
                    <g id="Group-24" fill="#030406">
                        <path d="M140.332336,1.91285106 C140.294049,0.874978723 139.44026,0.0554042553 138.406524,0.0554042553 L118.585594,0.0554042553 C117.551858,0.0554042553 116.705726,0.871148936 116.659783,1.9013617 L114.086929,50.8537021 L112.32192,16.4545532 C112.272148,15.4281702 111.422187,14.6200851 110.396108,14.6200851 L90.5751787,14.6200851 C89.5529287,14.6200851 88.7106253,15.4166809 88.6531955,16.439234 L86.306232,51.1409362 L85.2992966,36.239234 C85.2992966,36.2124255 85.2916393,36.1894468 85.2878107,36.1626383 C85.2763247,36.0209362 85.2686674,35.9328511 85.2648388,35.9328511 L85.2533528,35.9328511 C85.0657489,35.0596596 84.2961899,34.4085957 83.3773135,34.4085957 L63.6291281,34.4354043 C62.7102517,34.4354043 61.936864,35.0826383 61.7530888,35.9596596 L61.7416028,35.9596596 L61.7301169,36.1013617 C61.7224596,36.1549787 61.7071449,36.2009362 61.7071449,36.2545532 L60.6925522,50.9494468 L59.3486955,27.8711489 C59.3257236,27.1588085 58.9084006,26.519234 58.2690157,26.2051915 C57.6334596,25.8911489 56.8715579,25.9562553 56.2972601,26.3737021 L32.1193247,44.1745532 L31.6369146,27.9400851 C31.6369146,27.2124255 31.2310775,26.5498723 30.587864,26.2205106 C29.9446506,25.8911489 29.1674343,25.9485957 28.5816506,26.3737021 L0.800953933,46.7749787 C0.299400562,47.1388085 0.000765730338,47.7209362 0.000765730338,48.3413617 L0.000765730338,175.069021 C0.000765730338,176.137532 0.86221236,176.999234 1.92657753,176.999234 L89.0016028,176.999234 L89.0054315,176.999234 L142.261976,176.999234 C142.786502,176.999234 143.284226,176.784766 143.651777,176.409447 C144.01167,176.030298 144.206931,175.520936 144.187788,174.996255 L140.332336,1.91285106 L140.332336,1.91285106 Z" id="Fill-23"></path>
                    </g>
                    <g transform="translate(183.000000, 50.000000)" fill="#1D1C1B">
                        <path d="M11.991018,66.0922115 L45,66.0922115 L45,76 L0,76 L0,2 L11.991018,2 L11.991018,66.0922115 L11.991018,66.0922115 Z" id="Fill-1"></path>
                        <path d="M99.8057465,42.7123359 L67.3735228,42.7123359 L67.3735228,66.0888727 L105,66.0888727 L105,76 L55,76 L55,2 L104.640843,2 L104.640843,11.9111273 L67.3735228,11.9111273 L67.3735228,32.8012086 L99.8057465,32.8012086 L99.8057465,42.7123359 L99.8057465,42.7123359 Z" id="Fill-2"></path>
                        <path d="M159.805747,42.7123359 L127.373523,42.7123359 L127.373523,66.0888727 L165,66.0888727 L165,76 L115,76 L115,2 L164.640843,2 L164.640843,11.9111273 L127.373523,11.9111273 L127.373523,32.8012086 L159.805747,32.8012086 L159.805747,42.7123359 L159.805747,42.7123359 Z" id="Fill-3"></path>
                        <path d="M187.403214,11.4520851 L187.403214,65.2797447 L198.609678,65.2797447 C204.701062,65.2797447 209.486877,63.2920851 212.97095,59.3244255 C216.451194,55.356766 218.193231,50.2286809 218.193231,43.9363404 L218.193231,32.6920851 C218.193231,26.4686809 216.451194,21.3750638 212.97095,17.4074043 C209.486877,13.4397447 204.701062,11.4520851 198.609678,11.4520851 L187.403214,11.4520851 L187.403214,11.4520851 Z M175.136214,75.1222979 L175.136214,1.60953191 L198.961913,1.60953191 C208.28468,1.60953191 215.861582,4.52017021 221.700276,10.3452766 C227.53897,16.1665532 230.460231,23.657617 230.460231,32.8108085 L230.460231,43.9669787 C230.460231,53.1622979 227.53897,60.6495319 221.700276,66.4363404 C215.861582,72.2269787 208.28468,75.1222979 198.961913,75.1222979 L175.136214,75.1222979 L175.136214,75.1222979 Z" id="Fill-4"></path>
                        <path d="M282.902804,56.1828511 C282.902804,53.1343404 281.765695,50.6373191 279.495304,48.6917872 C277.224914,46.7500851 273.212487,45.0075319 267.458024,43.4679574 C259.245566,41.3117872 252.92829,38.4585957 248.506198,34.9045532 C244.076448,31.3581702 241.867316,26.7049787 241.867316,20.9449787 C241.867316,15.0241277 244.313824,10.1449787 249.21067,6.30753191 C254.107515,2.47008511 260.42479,0.547531915 268.162496,0.547531915 C276.240951,0.547531915 282.726687,2.72668085 287.619703,7.08880851 C292.520378,11.4432766 294.882656,16.674766 294.714195,22.7602979 L294.61465,23.0705106 L282.853032,23.0705106 C282.853032,19.2981702 281.574262,16.242 279.016723,13.902 C276.459184,11.5658298 272.80665,10.3939149 268.062951,10.3939149 C263.587257,10.3939149 260.145299,11.3705106 257.740906,13.3160426 C255.332684,15.2615745 254.130487,17.7854043 254.130487,20.8722128 C254.130487,23.6602979 255.436057,25.9773191 258.043369,27.8271064 C260.650681,29.6730638 264.965571,31.415617 270.991869,33.0624255 C278.898035,35.1879574 284.905189,38.1100851 289.009504,41.8517872 C293.113819,45.582 295.169804,50.3500851 295.169804,56.1368936 C295.169804,62.2645532 292.719467,67.1360426 287.822622,70.7551915 C282.929605,74.3743404 276.493642,76.1858298 268.51856,76.1858298 C260.845942,76.1858298 254.115172,74.1368936 248.326251,70.0466809 C242.541158,65.9602979 239.730928,60.3802979 239.899389,53.3105106 L239.998934,53.0079574 L251.810324,53.0079574 C251.810324,57.4849787 253.357099,60.8245532 256.454479,63.0305106 C259.548029,65.2326383 263.571942,66.335617 268.51856,66.335617 C273.059341,66.335617 276.593187,65.4241277 279.116268,63.6011489 C281.639349,61.7705106 282.902804,59.2964681 282.902804,56.1828511" id="Fill-6"></path>
                        <path d="M384.400361,50.7372766 L384.499906,51.036 C384.637737,58.4772766 382.221858,64.5283404 377.256097,69.1891915 C372.294164,73.8500426 365.57488,76.1862128 357.094417,76.1862128 C348.51058,76.1862128 341.538605,73.2985532 336.170835,67.523234 C330.803066,61.7517447 328.119181,54.3717447 328.119181,45.383234 L328.119181,31.3968511 C328.119181,22.4428085 330.772437,15.0666383 336.067462,9.25685106 C341.370144,3.45089362 348.261717,0.547914894 356.738352,0.547914894 C365.421734,0.547914894 372.263535,2.8266383 377.256097,7.39174468 C382.256316,11.9491915 384.68751,18.0883404 384.553507,25.7900426 L384.450133,26.0964255 L372.58897,26.0964255 C372.58897,21.1445106 371.252771,17.2955745 368.576543,14.5342979 C365.900316,11.7730213 361.956804,10.3942979 356.738352,10.3942979 C351.726647,10.3942979 347.744849,12.3781277 344.804445,16.349617 C341.856383,20.3172766 340.386181,25.2883404 340.386181,31.2781277 L340.386181,45.3525957 C340.386181,51.4074894 341.890841,56.4130213 344.90399,60.3845106 C347.91331,64.3521702 351.979338,66.336 357.094417,66.336 C362.175038,66.336 366.026661,64.9802553 368.653116,62.2611064 C371.275743,59.5419574 372.58897,55.7006809 372.58897,50.7372766 L384.400361,50.7372766 L384.400361,50.7372766 Z" id="Fill-8"></path>
                        <path d="M409.486452,75.1238298 L397.219452,75.1238298 L397.219452,1.61106383 L409.486452,1.61106383 L409.486452,75.1238298 L409.486452,75.1238298 Z" id="Fill-10"></path>
                        <path d="M476.467565,11.4520851 L454.257556,11.4520851 L454.257556,75.1222979 L441.994385,75.1222979 L441.994385,11.4520851 L419.784377,11.4520851 L419.784377,1.60953191 L476.467565,1.60953191 L476.467565,11.4520851 L476.467565,11.4520851 Z" id="Fill-12"></path>
                        <path d="M510.891738,37.355617 L528.66051,1.60838298 L542.336454,1.60838298 L516.84912,49.3237021 L516.84912,75.1211489 L504.631892,75.1211489 L504.631892,48.6649787 L479.546567,1.60838298 L493.226339,1.60838298 L510.891738,37.355617 L510.891738,37.355617 Z" id="Fill-13"></path>
                        <path d="M586.756088,11.4520851 L586.756088,65.2797447 L597.962552,65.2797447 C604.053937,65.2797447 608.839751,63.2920851 612.323824,59.3244255 C615.804069,55.356766 617.546105,50.2286809 617.546105,43.9363404 L617.546105,32.6920851 C617.546105,26.4686809 615.804069,21.3750638 612.323824,17.4074043 C608.839751,13.4397447 604.053937,11.4520851 597.962552,11.4520851 L586.756088,11.4520851 L586.756088,11.4520851 Z M574.489088,75.1222979 L574.489088,1.60953191 L598.314788,1.60953191 C607.637554,1.60953191 615.214456,4.52017021 621.05315,10.3452766 C626.891844,16.1665532 629.813105,23.657617 629.813105,32.8108085 L629.813105,43.9669787 C629.813105,53.1622979 626.891844,60.6495319 621.05315,66.4363404 C615.214456,72.2269787 607.637554,75.1222979 598.314788,75.1222979 L574.489088,75.1222979 L574.489088,75.1222979 Z" id="Fill-14"></path>
                        <path d="M655.907281,47.7079149 L677.661679,47.7079149 L667.010371,16.2998298 L666.707907,16.2998298 L655.907281,47.7079149 L655.907281,47.7079149 Z M681.145753,57.9564255 L652.373435,57.9564255 L646.519427,75.1215319 L634.103109,75.1215319 L661.10659,1.60876596 L672.715062,1.60876596 L699.416078,75.1215319 L686.949988,75.1215319 L681.145753,57.9564255 L681.145753,57.9564255 Z" id="Fill-15"></path>
                        <path d="M747.772715,56.1828511 C747.772715,53.1343404 746.635605,50.6373191 744.365215,48.6917872 C742.094824,46.7500851 738.082397,45.0075319 732.327934,43.4679574 C724.115476,41.3117872 717.798201,38.4585957 713.376108,34.9045532 C708.946358,31.3581702 706.737226,26.7049787 706.737226,20.9449787 C706.737226,15.0241277 709.183735,10.1449787 714.08058,6.30753191 C718.977426,2.47008511 725.294701,0.547531915 733.032406,0.547531915 C741.110861,0.547531915 747.596597,2.72668085 752.489614,7.08880851 C757.390288,11.4432766 759.752566,16.674766 759.584105,22.7602979 L759.48456,23.0705106 L747.722942,23.0705106 C747.722942,19.2981702 746.444173,16.242 743.886633,13.902 C741.329094,11.5658298 737.67656,10.3939149 732.932861,10.3939149 C728.457167,10.3939149 725.015209,11.3705106 722.610816,13.3160426 C720.202594,15.2615745 719.000397,17.7854043 719.000397,20.8722128 C719.000397,23.6602979 720.305968,25.9773191 722.913279,27.8271064 C725.520591,29.6730638 729.835482,31.415617 735.861779,33.0624255 C743.767945,35.1879574 749.7751,38.1100851 753.879414,41.8517872 C757.983729,45.582 760.039715,50.3500851 760.039715,56.1368936 C760.039715,62.2645532 757.589378,67.1360426 752.692532,70.7551915 C747.799515,74.3743404 741.363552,76.1858298 733.388471,76.1858298 C725.715853,76.1858298 718.985083,74.1368936 713.196162,70.0466809 C707.411069,65.9602979 704.600838,60.3802979 704.769299,53.3105106 L704.868844,53.0079574 L716.680235,53.0079574 C716.680235,57.4849787 718.22701,60.8245532 721.324389,63.0305106 C724.41794,65.2326383 728.441853,66.335617 733.388471,66.335617 C737.929251,66.335617 741.463097,65.4241277 743.986178,63.6011489 C746.50926,61.7705106 747.772715,59.2964681 747.772715,56.1828511" id="Fill-16"></path>
                        <path d="M830.350223,75.1222979 L818.136824,75.1222979 L818.136824,43.764 L785.225734,43.764 L785.225734,75.1222979 L772.958734,75.1222979 L772.958734,1.60953191 L785.225734,1.60953191 L785.225734,33.9214468 L818.136824,33.9214468 L818.136824,1.60953191 L830.350223,1.60953191 L830.350223,75.1222979 L830.350223,75.1222979 Z" id="Fill-17"></path>
                        <path d="M858.717469,41.6978298 L858.717469,65.2778298 L874.16225,65.2778298 C878.404396,65.2778298 881.666407,64.3088936 883.955941,62.3786809 C886.241646,60.4484681 887.386413,57.6527234 887.386413,53.9914468 C887.386413,50.0927234 886.42925,47.0710213 884.511096,44.9225106 C882.592941,42.774 879.598935,41.6978298 875.52525,41.6978298 L858.717469,41.6978298 L858.717469,41.6978298 Z M858.717469,32.5599574 L872.244096,32.5599574 C876.045947,32.5599574 879.051438,31.6599574 881.256742,29.8561277 C883.458216,28.0561277 884.560868,25.5054894 884.560868,22.2080426 C884.560868,18.5735745 883.400787,15.8735745 881.076795,14.1042128 C878.756632,12.3386809 875.356789,11.454 870.881096,11.454 L858.717469,11.454 L858.717469,32.5599574 L858.717469,32.5599574 Z M846.450469,75.1242128 L846.450469,1.60761702 L870.881096,1.60761702 C879.024638,1.60761702 885.384028,3.28506383 889.963096,6.63229787 C894.538334,9.9833617 896.827868,14.9888936 896.827868,21.6565532 C896.827868,24.9846383 895.866876,27.9642128 893.948722,30.5914468 C892.030567,33.2148511 889.373483,35.1680426 885.97364,36.4471915 C890.349789,37.4237872 893.715174,39.5263404 896.069795,42.7548511 C898.424416,45.9871915 899.60364,49.7442128 899.60364,54.0182553 C899.60364,60.9195319 897.348565,66.1625106 892.838413,69.7433617 C888.328261,73.3318723 882.102874,75.1242128 874.16225,75.1242128 L846.450469,75.1242128 L846.450469,75.1242128 Z" id="Fill-18"></path>
                        <path d="M957.750139,31.6480851 C957.750139,25.5242553 956.107648,20.4919149 952.830322,16.5548936 C949.545339,12.6140426 945.115589,10.6455319 939.529586,10.6455319 C934.142673,10.6455319 929.889041,12.6140426 926.757204,16.5548936 C923.629196,20.4919149 922.063277,25.5242553 922.063277,31.6480851 L922.063277,44.9757447 C922.063277,51.1761702 923.629196,56.2468085 926.757204,60.2029787 C929.889041,64.1553191 934.161816,66.1353191 939.579358,66.1353191 C945.199819,66.1353191 949.629569,64.1629787 952.880094,60.2297872 C956.126791,56.2889362 957.750139,51.2068085 957.750139,44.9757447 L957.750139,31.6480851 L957.750139,31.6480851 Z M969.963538,44.9757447 C969.963538,53.9680851 967.145651,61.4131915 961.509875,67.3187234 C955.8741,73.2280851 948.565204,76.1846809 939.579358,76.1846809 C930.761974,76.1846809 923.602395,73.2280851 918.104451,67.3187234 C912.59885,61.4131915 909.849878,53.9680851 909.849878,44.9757447 L909.849878,31.7514894 C909.849878,22.7974468 912.59885,15.36 918.104451,9.43148936 C923.602395,3.5106383 930.746659,0.546382979 939.529586,0.546382979 C948.511603,0.546382979 955.831985,3.5106383 961.486903,9.43148936 C967.137993,15.36 969.963538,22.7974468 969.963538,31.7514894 L969.963538,44.9757447 L969.963538,44.9757447 Z" id="Fill-19"></path>
                        <path d="M996.71739,47.7079149 L1018.47179,47.7079149 L1007.82048,16.2998298 L1007.51802,16.2998298 L996.71739,47.7079149 L996.71739,47.7079149 Z M1021.95586,57.9564255 L993.183545,57.9564255 L987.329537,75.1215319 L974.913219,75.1215319 L1001.9167,1.60876596 L1013.52517,1.60876596 L1040.22619,75.1215319 L1027.7601,75.1215319 L1021.95586,57.9564255 L1021.95586,57.9564255 Z" id="Fill-20"></path>
                        <path d="M1061.02113,34.782383 L1075.25988,34.782383 C1080.17204,34.782383 1083.75183,33.8402553 1086.01074,31.956 C1088.26198,30.0717447 1089.39144,27.1917447 1089.39144,23.3198298 C1089.39144,19.6164255 1088.2773,16.7134468 1086.05668,14.6070638 C1083.83606,12.5083404 1080.45536,11.4513191 1075.91841,11.4513191 L1061.02113,11.4513191 L1061.02113,34.782383 L1061.02113,34.782383 Z M1061.02113,44.6249362 L1061.02113,75.1215319 L1048.75796,75.1215319 L1048.75796,1.60876596 L1075.91841,1.60876596 C1084.11938,1.60876596 1090.46729,3.45855319 1094.93915,7.16195745 C1099.41867,10.8653617 1101.65461,16.1504681 1101.65461,23.0172766 C1101.65461,26.8202553 1100.66682,30.0908936 1098.70272,32.8368511 C1096.73479,35.5789787 1093.8633,37.7772766 1090.09591,39.4279149 C1094.23851,40.7377021 1097.21337,42.882383 1099.03198,45.8657872 C1100.84676,48.8415319 1101.76181,52.5028085 1101.76181,56.8457872 L1101.76181,62.9504681 C1101.76181,65.1104681 1102.02216,67.2130213 1102.56966,69.2657872 C1103.09801,71.3185532 1104.01306,72.8849362 1105.29183,73.9611064 L1105.29183,75.1215319 L1092.67642,75.1215319 C1091.32108,74.0108936 1090.45963,72.2606809 1090.07294,69.8708936 C1089.68241,67.4811064 1089.49098,65.1449362 1089.49098,62.8547234 L1089.49098,56.9453617 C1089.49098,53.1768511 1088.4113,50.1819574 1086.2596,47.9568511 C1084.10407,45.7355745 1081.14452,44.6249362 1077.3733,44.6249362 L1061.02113,44.6249362 L1061.02113,44.6249362 Z" id="Fill-21"></path>
                        <path d="M1129.46938,11.4520851 L1129.46938,65.2797447 L1140.67584,65.2797447 C1146.76723,65.2797447 1151.55304,63.2920851 1155.03711,59.3244255 C1158.51736,55.356766 1160.2594,50.2286809 1160.2594,43.9363404 L1160.2594,32.6920851 C1160.2594,26.4686809 1158.51736,21.3750638 1155.03711,17.4074043 C1151.55304,13.4397447 1146.76723,11.4520851 1140.67584,11.4520851 L1129.46938,11.4520851 L1129.46938,11.4520851 Z M1117.20238,75.1222979 L1117.20238,1.60953191 L1141.02808,1.60953191 C1150.34702,1.60953191 1157.93158,4.52017021 1163.76644,10.3452766 C1169.60513,16.1665532 1172.52257,23.657617 1172.52257,32.8108085 L1172.52257,43.9669787 C1172.52257,53.1622979 1169.60513,60.6495319 1163.76644,66.4363404 C1157.93158,72.2269787 1150.34702,75.1222979 1141.02808,75.1222979 L1117.20238,75.1222979 L1117.20238,75.1222979 Z" id="Fill-22"></path>
                    </g>
                </g>
            </g>
        </g>
    </g>
</svg>