<?xml version="1.0" encoding="UTF-8" standalone="no"?>
<svg width="60px" height="74px" viewBox="0 0 60 74" version="1.1" xmlns="http://www.w3.org/2000/svg" xmlns:xlink="http://www.w3.org/1999/xlink" xmlns:sketch="http://www.bohemiancoding.com/sketch/ns">
    <!-- Generator: Sketch 3.4.1 (15681) - http://www.bohemiancoding.com/sketch -->
    <title>Fill-23</title>
    <desc>Created with Sketch.</desc>
    <defs></defs>
    <g id="Page-1" stroke="none" stroke-width="1" fill="none" fill-rule="evenodd" sketch:type="MSPage">
        <g id="lcd-logo-expanded" sketch:type="MSLayerGroup" fill="#030406">
            <g id="Page-1" sketch:type="MSShapeGroup">
                <g id="Group">
                    <g id="Group-24">
                        <g id="Fill-23-Clipped">
                            <path d="M57.261,0.8167 L49.061,0.8167 C48.634,0.8167 48.283,1.1537 48.264,1.5797 L47.2,21.8267 L46.47,7.5987 C46.448,7.1737 46.098,6.8407 45.673,6.8407 L37.473,6.8407 C37.05,6.8407 36.701,7.1707 36.677,7.5927 L35.707,21.9447 L35.29,15.7827 C35.194,15.2937 34.875,15.0247 34.494,15.0247 L26.324,15.0357 C25.944,15.0357 25.625,15.3037 25.548,15.6657 C25.535,15.7467 25.11,21.8657 25.11,21.8657 L24.554,12.3207 C24.544,12.0267 24.372,11.7617 24.108,11.6317 C23.844,11.5017 23.529,11.5287 23.29,11.7007 L13.288,19.0637 L13.089,12.3487 C13.089,12.0487 12.921,11.7747 12.654,11.6377 C12.388,11.5017 12.067,11.5257 11.825,11.7007 L0.331,20.1397 C0.123,20.2897 0,20.5307 0,20.7867 L0,73.2017 C0,73.6427 0.357,73.9997 0.797,73.9997 L36.821,73.9997 L58.856,73.9997 C59.073,73.9997 59.28,73.9117 59.431,73.7547 C59.581,73.5987 59.661,73.3877 59.653,73.1707 L58.058,1.5847 C58.041,1.1557 57.689,0.8167 57.261,0.8167 Z" id="Fill-23"></path>
                        </g>
                    </g>
                </g>
            </g>
        </g>
    </g>
</svg>