<?xml version="1.0" encoding="UTF-8" standalone="no"?>
<svg width="73px" height="61px" viewBox="0 0 73 61" version="1.1" xmlns="http://www.w3.org/2000/svg" xmlns:xlink="http://www.w3.org/1999/xlink" xmlns:sketch="http://www.bohemiancoding.com/sketch/ns">
    <!-- Generator: Sketch 3.3.3 (12081) - http://www.bohemiancoding.com/sketch -->
    <title>Group</title>
    <desc>Created with Sketch.</desc>
    <defs></defs>
    <g id="Page-1" stroke="none" stroke-width="1" fill="none" fill-rule="evenodd" sketch:type="MSPage">
        <g id="Icons-Mind---60-Px" sketch:type="MSArtboardGroup" transform="translate(-642.000000, -13453.000000)" fill="#0A0B09">
            <g id="Group" sketch:type="MSLayerGroup" transform="translate(642.000000, 13454.000000)">
                <path d="M71.476,56.92 C70.924,56.92 70.476,56.46 70.476,55.92 C70.476,49.68 60.342,44.42 53.976,44.42 C53.546,44.42 53.164,44.142 53.028,43.72 L50.528,36.22 C50.354,35.7 50.636,35.142 51.16,34.96 C51.69,34.782 52.25,35.082 52.424,35.602 L54.704,42.42 C61.976,42.8 72.476,48.46 72.476,55.92 C72.476,56.46 72.03,56.92 71.476,56.92" id="Fill-6799" sketch:type="MSShapeGroup"></path>
                <path d="M46.476,36.92 C45.924,36.92 45.476,36.46 45.476,35.92 C45.476,35.362 45.924,34.92 46.476,34.92 C58.984,34.92 63.856,28.562 65.33,25.942 C64.33,24.24 61.084,18.582 60.504,16.142 C59.494,11.862 56.106,1.92 46.476,1.92 C45.924,1.92 45.476,1.46 45.476,0.92 C45.476,0.36 45.924,-0.08 46.476,-0.08 C54.262,-0.08 60.084,5.66 62.45,15.68 C62.95,17.782 66.146,23.4 67.334,25.402 C67.51,25.68 67.524,26.062 67.372,26.362 C66.132,28.84 60.968,36.92 46.476,36.92" id="Fill-6800" sketch:type="MSShapeGroup"></path>
                <path d="M33.402,1.3 C31.382,1.3 28.302,1.8 25.1,4.22 C24.926,4.34 24.716,4.42 24.5,4.42 C14.802,4.42 14,7.48 14,10.92 L14,15.92 C14,16.282 13.804,16.602 13.49,16.782 C12.866,17.142 12,17.902 12,18.42 L12,23.642 C11.996,24.8 11.996,24.8 12.588,24.94 C13.042,25.04 13.364,25.44 13.364,25.92 C13.364,32.46 20.348,39.92 26.476,39.92 C32.722,39.92 40.114,32.322 40.114,25.92 C40.114,25.38 40.534,24.94 41.068,24.92 C41.868,24.88 42,24.822 42,23.42 L42,18.42 C42,17.902 41.134,17.142 40.51,16.782 C40.196,16.602 40,16.282 40,15.92 L40,10.92 C40,10.68 40.078,10.46 40.218,10.282 C41.608,8.562 41.93,6.78 41.152,5.16 C40.042,2.862 36.928,1.3 33.402,1.3 L33.402,1.3 Z M26.476,41.92 C19.5,41.92 11.86,34.062 11.386,26.642 C9.99,25.98 9.996,24.702 10,23.642 L10,18.42 C10,16.98 11.256,15.88 12,15.36 L12,10.92 C12,4.942 15.532,2.482 24.17,2.42 C27.718,-0.16 31.136,-0.7 33.402,-0.7 C37.748,-0.7 41.498,1.26 42.956,4.3 C44.028,6.52 43.686,8.98 42,11.26 L42,15.36 C42.744,15.88 44,16.98 44,18.42 L44,23.42 C44,24.36 44,26.242 42.078,26.782 C41.478,34.02 33.504,41.92 26.476,41.92 L26.476,41.92 Z" id="Fill-6801" sketch:type="MSShapeGroup"></path>
                <path d="M1,59.66 C0.448,59.66 0,59.22 0,58.662 L0,55.92 C0,48.862 4.758,44.66 12.726,44.66 L15.952,44.66 L19.996,38.82 C20.31,38.362 20.932,38.242 21.388,38.562 C21.842,38.88 21.956,39.5 21.64,39.96 L17.298,46.22 C17.112,46.5 16.804,46.662 16.476,46.662 L12.726,46.662 C5.91,46.662 2,50.042 2,55.92 L2,58.662 C2,59.22 1.552,59.66 1,59.66" id="Fill-6802" sketch:type="MSShapeGroup"></path>
                <path d="M53,59.66 C52.448,59.66 52,59.22 52,58.662 L52,55.92 C52,49.082 46.026,46.662 40.434,46.662 L36.684,46.662 C36.338,46.662 36.018,46.48 35.836,46.18 L31.914,39.92 C31.622,39.442 31.764,38.82 32.232,38.54 C32.7,38.242 33.316,38.38 33.61,38.862 L37.238,44.66 L40.434,44.66 C48.674,44.66 54,49.082 54,55.92 L54,58.662 C54,59.22 53.552,59.66 53,59.66" id="Fill-6803" sketch:type="MSShapeGroup"></path>
            </g>
        </g>
    </g>
</svg>