<svg viewBox="0 0 97 119" xmlns="http://www.w3.org/2000/svg"><title>LDM-logo</title><g fill="#000106" fill-rule="evenodd"><path d="M67 52c0-4.093-1.437-6-4.523-6H60v12h2.477C65.563 58 67 56.093 67 52"/><path d="M94.406 1.248C94.38.55 93.806 0 93.11 0H79.776c-.694 0-1.265.547-1.295 1.24l-1.73 32.924-1.186-23.137c-.035-.69-.605-1.232-1.296-1.232H60.933c-.687 0-1.255.536-1.294 1.223l-1.58 23.337-.677-10.02c0-.018-.006-.035-.008-.053-.007-.094-.014-.155-.016-.155h-.008c-.126-.587-.645-1.024-1.264-1.024l-13.285.017c-.618 0-1.137.436-1.263 1.025h-.007l-.008.097c-.005.034-.014.066-.016.1l-.68 9.884-.905-15.52c-.017-.48-.296-.91-.726-1.12-.43-.21-.94-.168-1.33.112L21.607 29.67l-.324-10.92c0-.486-.273-.932-.706-1.155-.433-.22-.955-.18-1.35.103L.538 31.42c-.336.244-.537.636-.537 1.053v85.23C0 118.418.58 119 1.298 119h94.406c.353 0 .69-.144.935-.398.244-.255.374-.597.36-.95L94.408 1.248zm-37.732 41.88c0-.162.13-.293.293-.293h5.342c5.32 0 7.91 3.038 7.91 9.287 0 6.25-2.59 9.288-7.91 9.288h-5.344c-.162 0-.293-.132-.293-.294V43.128zm-15.857 0c0-.162.13-.293.293-.293h10.923c.162 0 .293.13.293.293v2.47c0 .163-.13.295-.293.295h-7.947v4.377h7.18c.163 0 .294.13.294.294v2.47c0 .162-.13.293-.293.293h-7.18v5.025h7.946c.162 0 .293.132.293.294v2.47c0 .162-.13.294-.293.294H41.11c-.162 0-.293-.132-.293-.294V43.128zm-15.858 0c0-.162.13-.293.29-.293h10.924c.162 0 .294.13.294.293v2.47c0 .163-.133.295-.295.295h-7.947v4.377h7.18c.163 0 .294.13.294.294v2.47c0 .162-.13.293-.293.293h-7.182v5.025h7.947c.162 0 .294.132.294.294v2.47c0 .162-.133.294-.295.294H25.253c-.162 0-.293-.132-.293-.294V43.128zm-14.878 0c0-.162.132-.293.294-.293h2.683c.16 0 .292.13.292.293v15.224h7.516c.16 0 .292.132.292.294v2.47c0 .162-.13.294-.293.294h-10.49c-.163 0-.295-.132-.295-.294V43.128zm0 24.094c0-.162.132-.293.294-.293h5.342c5.322 0 7.91 3.036 7.91 9.285 0 6.25-2.588 9.288-7.91 9.288h-5.343c-.162 0-.294-.132-.294-.294V67.22zm17.21 42.082c0 .162-.13.293-.292.293h-2.68c-.078 0-.153-.03-.208-.087-.055-.056-.086-.13-.085-.21l.106-11.985-3.9 9.63c-.045.11-.152.182-.272.182h-2.54c-.117 0-.225-.072-.27-.183l-3.9-9.63.106 11.987c0 .08-.03.155-.085.21-.054.057-.13.088-.207.088H10.38c-.162 0-.294-.13-.294-.293v-17.99c0-.16.132-.293.294-.293h3.45c.12 0 .227.074.272.186l4.59 11.568 4.59-11.568c.043-.112.152-.186.272-.186h3.45c.16 0 .292.132.292.294v17.988zm8.314 0c0 .162-.132.293-.294.293H32.63c-.162 0-.293-.13-.293-.293V91.316c0-.162.13-.294.294-.294h2.684c.162 0 .294.132.294.294v17.988zm2.012-24.012l-1.21-4.177H31.1l-1.208 4.177c-.036.125-.15.212-.282.212h-2.92c-.094 0-.18-.045-.236-.12-.056-.075-.072-.173-.044-.262l5.7-18.203c.04-.125.153-.208.28-.208h2.732c.128 0 .24.083.28.206l5.678 18.13c.03.046.047.1.047.16 0 .162-.13.294-.293.294H37.9c-.13 0-.245-.087-.28-.212zm14.108 24.012c0 .162-.132.293-.294.293h-10.49c-.162 0-.293-.13-.293-.293V91.316c0-.162.13-.294.29-.294h2.685c.162 0 .293.132.293.294v15.224h7.514c.162 0 .294.13.294.293v2.47zm2.707-39.61c0 .16-.13.293-.293.293h-4.378V85.21c0 .162-.13.294-.293.294h-2.68c-.162 0-.293-.132-.293-.294V69.987H42.12c-.163 0-.295-.132-.295-.294v-2.47c0-.163.132-.294.294-.294h12.024c.162 0 .293.13.293.29v2.47zm12.168 39.61c0 .162-.13.293-.292.293h-10.49c-.162 0-.293-.13-.293-.293V91.316c0-.162.13-.294.293-.294H58.5c.163 0 .294.132.294.294v15.224h7.516c.162 0 .293.13.293.293v2.47zm3.337-23.8h-2.934c-.13 0-.246-.087-.282-.212l-1.207-4.177h-5.308l-1.21 4.177c-.035.125-.15.212-.28.212h-2.923c-.093 0-.18-.045-.236-.12-.057-.075-.073-.173-.045-.262l5.7-18.203c.04-.125.154-.208.28-.208h2.733c.128 0 .242.083.28.206l5.68 18.13c.028.046.046.1.046.16 0 .162-.133.294-.295.294zm9.856-23.806c-1.95 0-4.244-.448-5.45-1.064-.1-.05-.16-.15-.16-.26v-2.687c0-.1.05-.192.132-.247.082-.053.188-.063.278-.022.915.402 2.618 1.15 5.032 1.15 3.495 0 3.9-1.557 3.9-2.73 0-1.71-.562-2.174-3.003-2.49-4.015-.504-6.34-1.534-6.34-5.303 0-4.962 4.66-5.498 6.665-5.498 2.038 0 3.858.326 4.994.894.1.05.163.154.163.265v2.615c0 .097-.05.19-.133.244-.083.054-.187.063-.278.024-1.364-.596-2.955-.91-4.6-.91-2.335 0-3.47.78-3.47 2.39 0 1.63.726 1.972 3.22 2.3 3.377.455 6.17 1.17 6.17 5.304 0 3.885-2.527 6.026-7.12 6.026z"/><path d="M32 79h4l-2-7-2 7m-12-3c0-4.094-1.437-6-4.523-6H13v12h2.477C18.563 82 20 80.094 20 76m41 3h4l-2-7-2 7"/></g></svg>