<svg width="401" height="61" viewBox="0 0 401 61" xmlns="http://www.w3.org/2000/svg"><g fill="none"><path d="M3.436 3.26v.983c.245-.368.49-.736.982-.982.49-.242.982-.242 1.472-.242.613 0 1.104.123 1.595.368.49.245.86.49 1.104.86.242.367.49.735.61 1.226.122.49.245.983.245 1.473s-.122 1.102-.245 1.47c-.122.49-.367.86-.612 1.227-.246.37-.614.615-1.105.86-.49.245-.982.368-1.472.368H5.4s-.49-.123-.736-.245c-.245-.123-.49-.245-.613-.368-.242-.123-.365-.368-.49-.614v3.927H2.335V3.015h1.104v.246zm4.54 2.7c-.124-.368-.246-.614-.37-.86-.244-.244-.49-.49-.735-.612-.242-.123-.61-.245-1.1-.245-.37 0-.737.123-1.105.245-.245.123-.49.368-.736.613s-.37.617-.37.985c-.123.368-.123.736-.123 1.104 0 .367 0 .735.123 1.103l.366.983c.245.245.49.49.736.614s.613.244 1.104.244c.49 0 .736-.123 1.104-.245.37-.124.492-.37.737-.616s.245-.613.368-.982.123-.735.123-1.103c0-.49 0-.86-.123-1.228zm2.7-.368c.122-.49.367-.86.735-1.227.37-.368.74-.613 1.107-.86.368-.245.982-.367 1.595-.367s1.105.123 1.596.368c.49.245.86.49 1.104.86.367.367.49.735.735 1.226.123.49.245.982.245 1.595s-.123 1.104-.245 1.595c-.123.49-.368.86-.736 1.227-.37.365-.737.61-1.105.856-.368.245-.982.245-1.595.245s-1.105-.122-1.596-.244c-.49-.122-.86-.49-1.104-.86-.367-.367-.49-.735-.735-1.226-.123-.49-.245-.98-.245-1.594s.122-1.104.245-1.595zm1.35 2.822c.122.368.244.613.49.86l.736.613c.245.123.613.245.982.245s.613-.123.982-.245c.245-.123.49-.368.736-.614.245-.245.368-.49.49-.86s.124-.735.124-1.226c0-.49 0-.86-.123-1.227-.123-.368-.245-.614-.49-.86-.246-.244-.492-.49-.737-.612-.245-.123-.613-.245-.982-.245s-.613.123-.982.245c-.245.123-.49.368-.736.613s-.368.494-.49.86-.124.738-.124 1.23c0 .49 0 .86.123 1.226zM25.52 10.99l-1.594-6.01-1.472 6.01h-1.35L18.65 3.385H20l1.718 6.258 1.472-6.258h1.35l1.595 6.258 1.718-6.258h1.35L26.75 10.99h-1.23zm10.43-.49c-.612.49-1.226.614-2.208.614-.614 0-1.104-.123-1.595-.245-.49-.248-.86-.494-1.104-.86-.245-.37-.49-.738-.736-1.23-.123-.49-.245-.98-.245-1.594 0-.614.123-1.104.245-1.595.123-.49.368-.86.736-1.226.368-.368.736-.613 1.104-.86.49-.244.86-.244 1.472-.244.733 0 1.224.124 1.715.37.49.244.86.613 1.104 1.103.245.49.49.86.613 1.472.123.49.123.982.123 1.472h-5.644c0 .368 0 .613.123.982.123.243.245.61.368.734l.736.614c.244.244.612.244 1.103.244.49 0 .982-.123 1.35-.368.368-.245.613-.614.613-1.104h1.227c-.244.613-.612 1.226-1.103 1.717zm-.367-4.908c-.123-.245-.245-.49-.49-.736-.246-.245-.37-.368-.737-.49-.245-.124-.49-.124-.86-.124s-.612 0-.858.123-.49.245-.613.49-.368.37-.49.737l-.246.86h4.414c.122-.37 0-.615-.123-.86zm3.926-2.33v1.594c.242-.614.733-1.104 1.1-1.35.49-.245.983-.49 1.72-.368v1.35c-.49 0-.98.123-1.227.245-.368.123-.613.368-.86.613-.244.245-.367.614-.49.982s-.123.86-.123 1.35v3.436h-1.225V3.507h1.104V3.26zm8.954 7.238c-.613.49-1.227.614-2.21.614-.613 0-1.103-.123-1.594-.245-.49-.248-.86-.494-1.103-.86-.245-.37-.49-.738-.736-1.23-.12-.49-.243-.98-.243-1.594 0-.614.123-1.104.245-1.595.124-.49.37-.86.737-1.226.367-.368.735-.613 1.103-.86.49-.244.86-.244 1.473-.244.736 0 1.227.124 1.718.37.49.244.86.613 1.105 1.103s.49.86.612 1.472c.122.49.122.982.122 1.472H44.05c0 .368 0 .613.123.982.123.243.245.61.37.734l.734.614c.245.244.614.244 1.104.244.49 0 .98-.123 1.35-.368.368-.245.613-.614.613-1.104h1.227c-.245.613-.613 1.226-1.104 1.717zm-.368-4.908c-.123-.245-.245-.49-.49-.736-.246-.245-.37-.368-.737-.49-.245-.124-.49-.124-.86-.124s-.612 0-.86.123-.49.245-.61.49-.37.37-.49.737l-.247.86h4.417c.125-.37 0-.615-.12-.86zm8.466 5.4v-.983c-.245.365-.49.733-.982.856-.49.245-.98.245-1.47.245-.614 0-1.105-.122-1.596-.367-.49-.245-.86-.49-1.104-.86-.244-.367-.49-.735-.612-1.226-.122-.492-.245-.983-.245-1.473s.123-1.104.245-1.472c.123-.49.368-.86.613-1.227.248-.368.616-.614 1.107-.86.49-.244.982-.367 1.472-.367h.612s.49.123.737.245c.244.123.49.245.612.368.122.124.367.37.49.615V.437h1.227V10.99h-1.104zm-4.54-2.823c.124.365.246.61.37.856.244.245.49.49.735.614s.612.246 1.103.246c.37 0 .737-.123 1.105-.245.245-.12.49-.366.736-.612.247-.245.37-.613.37-.982.124-.368.124-.736.124-1.104 0-.367 0-.735-.123-1.103l-.366-.983c-.245-.245-.49-.49-.736-.614S54.725 4 54.234 4c-.368 0-.736.122-1.104.244-.247.124-.493.37-.738.615-.123.244-.245.612-.368.98-.123.37-.123.737-.123 1.105 0 .614 0 .98.125 1.228zM65.032.44v3.925c.246-.368.49-.736.983-.982.49-.245.982-.245 1.472-.245.613 0 1.104.123 1.595.368.49.245.86.49 1.104.86.245.367.49.735.613 1.226.12.49.243.982.243 1.472s-.123 1.104-.245 1.472c-.124.49-.37.86-.614 1.227-.245.368-.613.614-1.104.86-.49.244-.982.367-1.472.367h-.613c-.245 0-.49-.123-.736-.245-.246-.123-.49-.245-.614-.368-.245-.123-.368-.368-.49-.614v.982H63.93V.438h1.102zm4.54 5.52c-.122-.368-.244-.614-.367-.86-.245-.244-.49-.49-.736-.612s-.615-.245-1.106-.245c-.368 0-.736.123-1.104.245-.245.123-.49.368-.736.613s-.368.617-.368.985c-.123.368-.123.736-.123 1.104 0 .367 0 .735.123 1.103l.368.983c.245.245.49.49.736.614s.612.244 1.103.244c.49 0 .736-.123 1.104-.245.368-.124.49-.37.736-.616.245-.245.245-.613.368-.982.126-.367.126-.735.126-1.103 0-.49 0-.86-.123-1.228zm5.89 6.012c-.123.368-.245.736-.49.982-.124.245-.246.49-.492.613-.123.123-.368.245-.613.368s-.49.123-.736.123h-.49c-.245 0-.245 0-.37-.123v-1.227l.37.123h.368c.245 0 .49 0 .613-.242.123-.123.245-.245.368-.49l.49-1.228-3.068-7.61h1.474l2.21 6.26 2.085-6.26h1.35l-3.07 8.712zm4.663-6.993V3.38h1.595V4.98h-1.595zm1.717 4.29v1.596h-1.595V9.273h1.595z" fill="#181818"/><path d="M.368 60.07v-2.82l3.68-.615V30.5l-3.68-.613v-2.945H12.27v2.945l-3.68.613v26.135h11.533l.368-3.804h3.807v7.365H.37v-.122H.367zm27.362 0v-2.82l3.68-.615V30.5l-3.68-.613v-2.945h25.4v7.975h-3.805l-.368-4.417H35.95v10.675h12.64v3.558H35.95v11.902h13.375l.368-4.417h3.804v7.975H27.73v-.122zm29.693 0v-2.82l3.68-.615V30.5l-3.68-.613v-2.945h25.4v7.975h-3.805L78.65 30.5H65.644v10.675h12.638v3.558H65.644v11.902h13.374l.368-4.417h3.804v7.975H57.423v-.122zm43.56-33.25c4.293 0 7.852 1.35 10.428 4.048 2.58 2.7 3.93 6.135 3.93 10.307v4.54c0 4.294-1.35 7.73-3.927 10.307-2.576 2.7-6.134 3.926-10.428 3.926H87.117v-2.822l3.68-.613V30.378l-3.68-.614V26.82h13.865zm-5.646 3.557v26.135h5.644c3.07 0 5.524-.982 7.24-3.067 1.72-1.963 2.7-4.663 2.7-7.73v-4.54c0-3.068-.86-5.644-2.7-7.73-1.716-1.963-4.17-3.068-7.24-3.068h-5.64zm48.1 6.258H140l-.86-4.785c-.735-.613-1.594-1.104-2.698-1.472-1.104-.368-2.454-.613-3.926-.613-2.33 0-4.172.49-5.52 1.472-1.228.982-1.964 2.33-1.964 3.926 0 1.472.613 2.7 1.963 3.558 1.35.985 3.436 1.844 6.258 2.58 3.436.86 6.135 2.086 7.975 3.804 1.84 1.718 2.7 3.804 2.7 6.258 0 2.7-1.105 4.786-3.314 6.504-2.21 1.595-5.03 2.454-8.59 2.454-2.576 0-4.784-.368-6.747-1.227-1.963-.86-3.558-1.962-4.785-3.312v-6.134h3.313l.86 4.785c.858.737 1.84 1.35 3.066 1.72 1.23.49 2.58.735 4.297.735 2.21 0 4.05-.49 5.4-1.47 1.35-.983 1.962-2.21 1.962-3.927 0-1.472-.615-2.822-1.72-3.804-1.104-.982-3.19-1.84-6.012-2.577-3.558-.86-6.258-2.086-8.22-3.68-1.964-1.596-2.946-3.682-2.946-6.136 0-2.576 1.106-4.784 3.315-6.502s5.03-2.577 8.59-2.577c2.33 0 4.416.37 6.38 1.228 1.962.86 3.435 1.718 4.54 2.945v6.257h.122zm29.937-9.816c4.294 0 7.853 1.35 10.43 4.046 2.576 2.7 3.925 6.135 3.925 10.307v4.54c0 4.294-1.35 7.73-3.93 10.307-2.576 2.7-6.134 3.927-10.43 3.927h-13.86v-2.822l3.68-.613V30.378l-3.68-.614V26.82h13.864zm-5.767 3.555V56.51h5.644c3.07 0 5.524-.98 7.24-3.066 1.72-1.963 2.7-4.663 2.7-7.73v-4.54c0-3.068-.86-5.644-2.7-7.73-1.716-1.963-4.17-3.068-7.24-3.068h-5.64zm21.964 26.75l2.457-.37L203.56 26.82h3.803l11.41 29.938 2.455.368v2.822h-9.57v-2.822l2.453-.49-2.206-6.136h-13.13l-2.208 6.135 2.454.49v2.823h-9.45v-2.822zm10.677-10.308H210.8l-5.154-14.234h-.123l-5.275 14.233zm46.503-20v7.36h-3.805l-.368-3.803h-7.362V56.51l3.68.614v2.822h-11.9v-2.822l3.68-.614V30.377h-7.362l-.368 3.804h-3.804v-7.36h27.61zm-1.964 30.306l2.454-.368 11.533-29.94h3.804l11.41 29.94 2.455.368v2.822h-9.57v-2.822l2.453-.49-2.21-6.136H253.99l-2.21 6.135 2.455.49v2.823h-9.448v-2.822zm10.552-10.307h10.553l-5.15-14.234h-.125l-5.276 14.233zM323.19 33.44l-10.796 26.504h-2.945L298.773 33.44h-.122l.49 13.375v9.57l3.683.613v2.82H290.8V57l3.68-.614v-26.13l-3.68-.615V26.7h9.447L310.8 53.69h.122l10.553-26.993h9.448v2.945l-3.68.615V56.39l3.68.613v2.822h-11.78v-2.822l3.682-.613v-9.57l.368-13.375zm11.045-3.68v-2.945h11.902v2.944l-3.68.612v26.135l3.68.614v2.823h-11.902V57.12l3.68-.613v-26.13l-3.68-.614zm15.092 30.307v-2.82l3.68-.615V30.5l-3.68-.613v-2.945h11.902v2.945l-3.68.613v26.135h11.532l.37-3.804h3.803v7.365h-23.927v-.122zm27.24 0v-2.82l3.68-.615V30.5l-3.68-.613v-2.945h11.9v2.945l-3.68.613v26.135h11.534l.368-3.804h3.804v7.365h-23.924v-.122z" fill="#000"/></g></svg>