<svg viewBox="0 0 123 106" xmlns="http://www.w3.org/2000/svg"><title>Group 20</title><g fill="none" fill-rule="evenodd"><path d="M113.13 11.78v1.504c0 26.403-.03 52.805.05 79.207.006 2.44.583 4.89 1.165 7.313.148.616 1.327 1.14 2.033 1.705.687-.58 1.77-1.11 1.985-1.75.535-1.594.918-3.238.937-4.864.104-8.816.09-17.632.096-26.45.008-17.777-.007-35.556.013-53.334.002-2.947-1.342-3.746-6.28-3.33m-2.7 89.728c-1.398-5.69-1.086-11.24-1.09-16.766-.012-25.074-.004-50.15-.005-75.223 0-4.73-.29-5.028-4.923-5.028-31.6 0-63.202 0-94.803.002-.798 0-1.597.003-2.39.07-2.01.165-3.003.993-3.352 3.012-.218 1.26-.256 2.56-.257 3.845-.014 21.875-.01 43.75-.01 65.625 0 5.587.022 11.176-.01 16.764-.01 2.36.96 4.167 2.855 5.416 2.156 1.422 4.525 2.28 7.133 2.28 31.695.003 63.39.002 95.085.002h1.768M8.55 0h97.995c.207.09.406.225.62.26 3.473.582 5.508 2.687 6.302 6.006.227.95.563 1.32 1.605 1.36 4.894.186 7.917 3.354 7.92 8.256.01 24.946.012 49.892-.004 74.837-.002 3.777-.155 7.545-1.38 11.186-.823 2.445-3.242 4.098-5.825 4.094-33.762-.06-67.524-.037-101.285-.056-1.038 0-2.106-.126-3.11-.387C5.06 103.91-.06 100.082 0 90.922c.17-25.99.06-51.984.06-77.977 0-.82-.02-1.643.05-2.457.4-4.52 1.84-9.356 8.213-10.342.08-.013.152-.096.227-.146" fill="#FFF"/><path d="M35.554 16.153h9.925c4.286 0 6.227 1.754 6.49 6.044.14 2.284.098 4.58.095 6.872-.006 4.703-.027 9.407-.08 14.11-.007.714-.16 1.44-.342 2.135-.682 2.584-2.352 4.005-5.046 4.025-7.423.056-14.847.067-22.27-.004-2.885-.027-4.624-1.687-5.154-4.64-.19-1.063-.293-2.155-.298-3.234-.03-5.79-.026-11.58-.002-17.37.004-1 .106-2.008.262-2.997.524-3.338 2.383-4.923 5.77-4.938 3.55-.016 7.1-.004 10.65-.004" fill="#FFF"/><path d="M57.488 62.845c-12.09 0-24.182-.01-36.273.015-1.302.003-2.412-.176-2.908-1.496-.517-1.377-.55-2.768.497-3.923.377-.414 1.07-.594 1.652-.788.322-.108.712-.026 1.07-.026 23.984 0 47.967.045 71.95-.054 3.172-.013 3.924 2.57 3.27 4.537-.413 1.25-1.193 1.733-2.745 1.734-12.17.002-24.34 0-36.512 0M78.075 69.15c5.3 0 10.602-.002 15.904 0 1.917.003 3.047 1.16 2.98 3.14-.052 1.558-.858 3.16-3.045 3.147-10.522-.07-21.044-.03-31.566-.033-1.717 0-2.48-.53-2.93-2.022-.443-1.47.032-3.27 1.148-3.896.45-.253 1.064-.32 1.603-.322 5.302-.023 10.604-.014 15.905-.014M79.782 35.872c-5.267 0-10.536-.077-15.8.038-2.042.045-2.956-1.57-2.93-3.202.032-1.99 1.037-3.044 2.93-3.045 10.615 0 21.23.045 31.843-.04 2.07-.016 2.952 1.614 2.934 3.2-.02 1.566-.934 3.13-2.937 3.087-5.345-.112-10.694-.038-16.04-.038M78.943 89.807c-5.224 0-10.448.003-15.672-.002-2.107-.002-3.122-1.03-3.117-3.13.006-2.082 1.057-3.152 3.12-3.152 10.487-.002 20.976-.002 31.465 0 1.64 0 2.42.484 2.89 1.778.527 1.448.14 3.39-.953 4.065-.5.308-1.205.42-1.818.423-5.304.032-10.61.02-15.914.02M79.913 22.435c-5.305 0-10.61.004-15.913 0-1.946-.003-2.974-1.127-2.948-3.196.024-2.04 1.01-3.088 2.933-3.09 10.61-.002 21.217-.002 31.825 0 1.947.002 2.972 1.123 2.95 3.193-.024 2.028-1.02 3.09-2.935 3.09-5.304.006-10.608.002-15.912.002M80.03 43.1c5.263 0 10.527-.005 15.79 0 1.942.003 2.967 1.13 2.94 3.203-.03 2.032-1.02 3.08-2.946 3.08-10.608.004-21.217.004-31.825 0-1.925 0-2.913-1.05-2.938-3.085-.027-2.072.998-3.195 2.943-3.197 5.345-.005 10.69 0 16.034 0M35.82 88.91c-4.655 0-9.31.002-13.965 0-1.884-.003-2.956-1.1-3-3.048-.045-2.018 1.02-3.227 2.93-3.23 9.43-.012 18.86-.012 28.292 0 1.83.004 2.914 1.23 2.894 3.164-.02 1.955-1.1 3.11-2.943 3.112-4.736.006-9.472.002-14.207.002M35.872 75.435c-4.737 0-9.473.004-14.21-.002-1.778-.002-2.806-1.14-2.808-3.082-.002-1.93 1.045-3.19 2.75-3.19 9.514-.015 19.027-.014 28.54-.002 1.734.002 2.822 1.247 2.827 3.136.006 1.976-1.056 3.138-2.89 3.14-4.735.004-9.472 0-14.208 0" fill="#F49A20"/></g></svg>