<?xml version="1.0" encoding="UTF-8" standalone="no"?>
<svg width="2009px" height="2593px" viewBox="0 0 2009 2593" version="1.1" xmlns="http://www.w3.org/2000/svg" xmlns:xlink="http://www.w3.org/1999/xlink" xmlns:sketch="http://www.bohemiancoding.com/sketch/ns">
    <!-- Generator: Sketch 3.5.2 (25235) - http://www.bohemiancoding.com/sketch -->
    <title>Page 1</title>
    <desc>Created with Sketch.</desc>
    <defs>
        <path id="path-1" d="M0,0.819 L2008.145,0.819 L2008.145,2593 L0,2593"></path>
        <path id="path-3" d="M0,0.819 L2008.145,0.819 L2008.145,2593 L0,2593"></path>
    </defs>
    <g id="Design-" stroke="none" stroke-width="1" fill="none" fill-rule="evenodd" sketch:type="MSPage">
        <g id="Page-1" sketch:type="MSLayerGroup">
            <g id="Group-3">
                <mask id="mask-2" sketch:name="Clip 2" fill="white">
                    <use xlink:href="#path-1"></use>
                </mask>
                <g id="Clip-2"></g>
                <path d="M1307.5435,951.2701 C1310.7665,955.0061 1310.7915,958.9481 1304.8675,961.7631 C1305.1625,959.3221 1305.4575,956.8811 1305.7925,954.1031 C1303.5605,953.6071 1301.7155,953.1981 1298.9015,952.5741 C1301.9885,949.7921 1304.6225,947.8841 1307.5435,951.2701 M620.4905,658.6881 C622.1815,663.0621 623.7735,667.1811 625.8265,672.4931 C622.8565,673.1321 619.9625,673.7541 618.0585,674.1641 C618.0585,680.9201 617.8915,687.4051 618.1505,693.8731 C618.2395,696.0901 618.9915,698.5041 620.1285,700.4191 C626.9115,711.8451 633.8305,723.1931 640.8895,734.4501 C641.8635,736.0021 643.9455,738.0111 645.3855,737.9131 C650.7685,737.5471 656.0985,736.3941 661.3935,735.5441 C660.0165,725.5891 664.0325,714.9281 671.0185,708.4031 C680.0595,716.9931 677.5995,726.8131 674.4445,736.9621 C672.3815,743.5941 671.9545,751.1141 663.9495,751.1481 C664.7165,756.4081 665.6665,761.0581 665.9285,765.7461 C666.0175,767.3461 664.7605,769.7351 663.4115,770.4741 C662.3525,771.0541 660.2065,769.6501 657.3735,768.7601 C658.4845,773.4581 659.3505,777.1211 660.1885,780.6681 C669.4355,779.5011 678.7275,772.9401 683.7955,786.3141 C706.1655,770.0461 712.5565,747.2651 715.6275,721.1351 C717.2685,721.5601 720.0915,721.4651 721.5895,722.8271 C726.8985,727.6561 725.8345,734.1151 724.8775,738.5291 C727.6425,743.2731 730.3115,746.3511 731.3125,749.9001 C733.1325,756.3461 734.9315,757.9901 740.6095,754.8381 C743.5105,753.2271 746.0335,750.1251 747.6125,747.1131 C750.9855,740.6781 755.1795,735.8441 762.2165,732.9331 C767.2295,730.8591 771.8585,727.1941 775.7555,723.3281 C778.2045,720.9001 778.9825,716.7881 780.6435,713.1371 C787.2665,720.7591 787.5225,721.7901 782.1325,727.6941 C777.7005,732.5501 772.7265,736.9121 767.9395,741.5451 C770.7585,747.9991 773.5835,754.6611 776.6215,761.2241 C777.0995,762.2571 778.4325,763.0801 779.5555,763.5971 C784.7225,765.9731 785.3645,769.4161 782.4775,774.0651 C781.6195,775.4471 780.9585,777.1491 780.8315,778.7541 C780.1595,787.2561 774.8435,791.4131 767.5265,794.4221 C764.6885,795.5891 762.1895,798.2431 760.2455,800.7661 C757.4325,804.4171 755.2635,808.5651 753.0485,812.1331 C754.8885,817.5001 756.5385,822.3121 758.2045,827.1711 C762.4885,824.7361 766.1375,822.6631 769.9105,820.5191 C770.0775,818.7461 770.1455,817.0891 770.4135,815.4651 C770.6675,813.9311 771.1315,812.4311 771.5845,810.5831 C777.7625,816.1991 777.6525,825.6671 771.9075,829.0931 C762.3265,834.8071 762.2725,835.0161 768.4145,843.3211 C765.7575,846.1461 763.2455,849.2121 760.2955,851.7741 C758.9525,852.9411 755.9465,854.2041 755.0545,853.5551 C748.8115,849.0081 744.4015,853.8881 739.6435,856.2071 C731.9405,859.9611 729.8055,864.7721 732.9235,872.2491 C735.2005,877.7091 738.2265,882.9021 741.3985,887.9111 C742.2125,889.1951 744.7955,889.5691 746.6485,889.9221 C748.3695,890.2501 750.2025,889.9921 752.5615,889.9921 C750.9755,895.1131 747.5115,897.2181 744.0195,896.0511 C740.2085,894.7761 735.5925,892.2371 733.9345,888.9381 C730.0485,881.2111 724.5235,873.9551 724.0855,864.7361 C724.0575,864.1501 722.6385,863.6301 720.6575,862.2161 C719.6115,864.9231 718.1195,867.0861 718.0205,869.3101 C717.1335,889.2651 716.2905,909.2271 715.8725,929.1951 C715.6955,937.6341 720.3235,943.1361 728.5375,944.6791 C740.3365,946.8961 752.2165,948.5141 764.1455,944.9861 C766.5405,944.2781 769.1985,944.4621 772.7655,944.1431 C772.0295,947.5171 771.5165,949.8721 771.2405,951.1331 C762.1055,953.3141 754.0925,955.2271 746.8485,956.9561 C744.5625,960.4021 742.9515,963.2991 740.8855,965.8241 C738.2355,969.0631 734.5915,971.6251 732.4825,975.1421 C726.7665,984.6741 717.4415,991.9731 714.8985,1003.4871 C714.6335,1004.6841 713.2915,1005.6031 712.6595,1006.7651 C710.1145,1011.4471 707.3935,1016.0581 705.2165,1020.9101 C701.2575,1029.7301 702.5815,1034.5361 709.7395,1041.2691 C711.5325,1042.9551 713.9935,1045.5061 713.8195,1047.4511 C712.7675,1059.1841 724.7175,1066.4791 723.8085,1077.9831 C728.6095,1082.4131 728.6245,1088.6501 730.2325,1094.3601 C731.9285,1100.3831 733.5785,1106.5671 739.0875,1110.7151 C745.4375,1115.4961 751.6985,1120.4151 757.7605,1125.5531 C762.3215,1129.4181 767.0025,1131.5451 773.2555,1130.6341 C776.9735,1130.0921 780.9315,1131.2001 784.7825,1131.5631 C791.6555,1118.5601 805.6655,1112.9071 819.5875,1119.0141 C810.3615,1122.9891 802.2655,1126.4781 793.9225,1130.0721 C795.3165,1133.8381 796.3065,1136.5111 797.1905,1138.8991 C788.5165,1147.6711 788.5585,1147.4911 777.5465,1144.9621 C775.4385,1144.4781 772.0725,1145.2901 770.6685,1146.7941 C767.7155,1149.9581 764.6945,1150.8391 760.8595,1149.4801 C758.3535,1148.5921 755.9005,1147.5231 753.4995,1146.3751 C736.6805,1138.3361 731.3655,1121.6061 725.0495,1106.3831 C722.1545,1099.4051 719.8975,1092.3591 715.5355,1085.8041 C713.2765,1086.5361 711.2485,1086.8371 709.5985,1087.7911 C702.7195,1091.7671 696.1095,1096.2281 689.1145,1099.9761 C676.0785,1106.9621 675.3955,1110.0471 685.4975,1120.9001 C687.0665,1122.5861 689.2375,1123.7001 690.8795,1125.3311 C693.2315,1127.6661 696.0315,1129.9001 697.4405,1132.7661 C701.0075,1140.0241 703.9065,1147.6111 707.4005,1155.8391 C707.0175,1156.5331 706.0005,1158.3771 704.8215,1160.5131 C727.8885,1159.8591 741.5385,1172.8281 752.0225,1190.0351 C756.8855,1198.0151 755.0105,1203.0501 747.4685,1208.8741 C745.7505,1210.2001 744.2175,1211.7671 742.6245,1213.2011 C748.5945,1220.3671 748.8765,1220.5271 756.0885,1221.1461 C764.2145,1221.8451 765.2125,1223.2761 764.4225,1231.7861 C764.1865,1234.3351 764.1135,1237.3441 765.2215,1239.4941 C769.1005,1247.0181 770.5065,1255.1201 772.4555,1263.2041 C773.5415,1267.7041 776.9365,1272.0451 780.3295,1275.4111 C781.8655,1276.9351 785.9275,1275.9761 788.8455,1276.0341 C798.2355,1276.2181 806.5125,1283.4391 807.7505,1293.3791 L807.7505,1290.8781 L859.4445,1290.8781 L874.5135,1309.8621 L894.0685,1291.6471 L913.7375,1268.6141 L913.7375,1243.0361 L933.5815,1243.0361 L942.6635,1237.9271 L952.4105,1247.6731 L958.0955,1243.0541 L960.9655,1234.4441 L966.8535,1225.3451 L974.7635,1218.9181 L979.9375,1209.0871 L991.7245,1204.0361 L999.2015,1204.0361 L1010.0385,1193.1991 L1013.2375,1183.1481 L1013.2375,1174.0721 L1006.0515,1166.8861 L1001.5725,1153.4411 L1001.5725,1142.9231 L1008.2375,1136.9231 L1008.2375,1130.0951 L1004.1485,1121.4051 L1005.9285,1110.1291 L1013.8795,1104.2981 L1017.4455,1098.6961 L1025.8595,1093.6951 L1033.4965,1090.8311 L1040.1925,1085.5701 L1047.6995,1079.5821 L1054.4015,1074.5361 L1063.4875,1074.5361 L1068.4935,1081.2111 L1074.8985,1085.6671 L1079.2115,1089.5021 L1085.3285,1093.0701 L1095.3175,1104.1491 L1100.4765,1111.8891 L1103.7375,1120.5831 L1103.7375,1135.1201 L1108.3395,1140.5591 L1114.2865,1143.7621 L1122.7055,1147.0361 L1133.1645,1147.0361 L1140.6985,1146.5931 L1146.6545,1141.1011 L1152.4965,1136.3661 L1163.5735,1130.0361 L1171.1595,1130.0361 L1179.2415,1129.5311 L1186.8205,1130.0361 L1193.9425,1130.0361 L1200.7265,1132.4091 L1205.9265,1138.7641 L1207.9535,1144.0361 L1212.6925,1144.0361 L1215.5665,1138.2961 L1219.5665,1131.2961 L1223.7385,1123.4721 L1228.6865,1119.0181 L1232.3195,1111.2351 L1238.7965,1107.7011 L1242.7375,1106.6261 L1242.7375,1099.1591 L1247.5645,1093.1781 L1252.8035,1088.4881 L1258.5305,1084.4791 L1265.1865,1084.9541 L1268.1495,1081.6221 L1270.7375,1076.4461 L1270.7375,1069.6311 L1277.0665,1062.0361 L1292.0255,1062.0361 L1298.1615,1066.3311 L1300.8415,1071.3621 L1305.1295,1074.5361 L1309.4775,1074.5361 L1316.1115,1073.2971 L1318.8025,1068.4531 L1323.1545,1063.1341 L1325.7375,1058.3981 L1325.7375,1049.8651 L1333.3315,1043.5361 L1345.4935,1043.5361 L1351.2845,1047.3971 L1353.8275,1054.0071 L1362.8725,1061.2431 L1368.2075,1062.5771 L1375.4965,1063.5491 L1381.6415,1064.0211 L1388.0905,1063.0401 L1395.8835,1062.5821 L1400.0705,1059.6521 L1404.1255,1055.1451 L1406.7375,1049.4871 L1406.7375,1040.5311 L1411.1455,1030.0621 L1417.9235,1023.8481 L1427.3085,1020.5361 L1436.3555,1020.5361 L1444.3555,1018.0361 L1449.7015,1018.0361 L1454.3145,1013.4801 L1460.5255,1009.1811 L1465.0755,1003.6671 L1469.5755,999.6671 L1475.3895,994.3831 L1480.2475,992.4391 C1475.6295,987.7531 1471.5905,982.5541 1468.4045,976.5291 C1466.5415,973.0051 1463.8875,969.8941 1462.0805,966.3471 C1459.3665,961.0181 1455.0495,959.5091 1449.6185,960.4501 C1446.3545,961.0151 1443.2005,962.1961 1439.9505,962.8731 C1431.4985,964.6331 1423.0735,966.6741 1414.5325,967.7931 C1409.7555,968.4201 1405.7405,969.3531 1401.8785,972.6031 C1395.3595,978.0901 1388.7625,977.8651 1381.8925,972.5831 C1379.0165,970.3731 1376.2175,967.8431 1374.0785,964.9451 C1370.5055,960.1021 1366.5385,960.5371 1361.8055,962.7031 C1357.0935,964.8601 1351.5695,965.3731 1351.8695,973.0521 C1352.0535,977.7521 1350.4015,982.8401 1348.3965,987.2141 C1346.6185,991.0941 1345.2825,994.4551 1347.1965,998.5221 C1349.2485,1002.8851 1348.4085,1006.0361 1343.6605,1008.1931 C1341.1295,1009.3431 1339.0845,1011.5611 1336.4485,1013.5821 C1331.6765,1006.1101 1339.6945,1004.5231 1341.6355,1000.5961 C1339.5875,994.3971 1340.1245,988.9621 1343.4915,983.2461 C1345.5185,979.8031 1346.0405,975.0231 1345.9225,970.8821 C1345.7805,965.9141 1342.7115,963.5381 1337.7625,964.5761 C1330.9595,966.0021 1324.4395,968.5851 1317.4305,965.2831 C1316.4615,964.8271 1314.5175,966.4481 1313.0225,967.1001 C1311.3925,967.8111 1309.7585,968.5141 1308.1265,969.2211 C1312.3045,962.9311 1316.1135,956.0091 1325.2525,961.2961 C1326.6145,962.0831 1329.0585,961.1731 1330.9585,960.8181 C1334.1805,960.2141 1337.4465,959.6681 1340.5475,958.6511 C1343.8635,957.5641 1347.4685,956.5511 1350.1485,954.4751 C1358.8415,947.7431 1369.6545,945.9811 1378.9125,951.7811 C1385.6335,955.9911 1392.0355,957.8101 1399.6275,955.2051 C1401.4595,954.5761 1403.5805,954.7591 1405.5715,954.6261 C1420.5645,953.6241 1435.2505,951.9521 1448.9985,944.7401 C1459.3795,939.2931 1471.2725,944.6941 1476.1395,955.4591 C1477.3255,958.0811 1479.1735,960.5501 1481.1975,962.6201 C1486.3115,967.8531 1492.5385,972.2011 1496.8095,978.0131 C1507.1795,992.1261 1519.0365,996.6991 1535.4225,988.1581 C1545.4735,982.9191 1555.5765,985.6881 1564.7505,991.6441 C1568.0905,993.8121 1571.1675,996.3871 1574.3645,998.7761 C1572.1075,990.9841 1568.9785,983.9671 1564.6575,977.7801 C1547.1055,952.6481 1529.3375,927.6611 1511.3615,902.8291 C1493.1895,877.7271 1483.5665,849.2751 1477.4945,819.3061 C1474.1465,802.7801 1481.3505,790.0891 1492.3415,779.0661 C1494.5235,776.8771 1498.7775,776.4681 1502.1875,775.8711 C1505.1505,775.3521 1508.2715,775.7281 1511.4005,775.7081 C1511.8245,769.8711 1508.4275,768.7341 1505.4515,767.4781 C1496.2485,763.5941 1487.0695,759.6261 1477.7205,756.1181 C1467.2225,752.1791 1459.8115,745.6381 1458.9115,733.9921 C1458.4405,727.8901 1455.8755,724.1991 1450.4665,721.8161 C1447.1415,720.3511 1443.9855,718.4471 1440.9055,716.5011 C1439.0455,715.3261 1436.8595,714.0261 1435.8815,712.2101 C1431.0875,703.3161 1426.6135,694.2471 1422.1305,685.1881 C1421.5685,684.0521 1421.5405,682.6201 1421.4015,681.3101 C1419.5385,663.7431 1411.4435,649.1631 1398.0475,638.2271 C1395.3665,636.0371 1391.4605,632.0681 1391.9865,629.8271 C1393.7585,622.2741 1389.0105,618.2471 1385.7635,612.9281 C1382.0105,606.7811 1377.6185,603.1481 1370.2335,602.0021 C1362.9985,600.8801 1356.6015,597.7051 1352.2115,590.7191 C1350.2615,587.6181 1345.3745,585.0831 1341.5825,584.7121 C1335.5815,584.1231 1331.6805,582.4831 1329.2775,576.6311 C1328.2715,574.1821 1325.4005,571.6941 1322.8355,570.8291 C1311.0105,566.8401 1298.1205,566.0941 1287.2945,558.9991 C1286.5355,558.5021 1285.3365,558.4341 1284.3765,558.5241 C1274.6225,559.4321 1266.3875,555.0691 1259.8685,549.0281 C1251.6975,541.4561 1241.7245,540.4491 1231.3375,537.2171 C1230.6685,546.6381 1224.1135,551.5871 1218.5045,557.0441 C1213.2965,562.1101 1209.0055,561.2311 1203.6235,553.7411 C1214.6275,557.0691 1217.8125,549.3801 1222.5375,542.9201 C1211.1565,539.1331 1212.4795,536.4971 1221.3175,528.2401 C1219.2195,524.3801 1216.4145,520.5521 1215.0175,516.2641 C1213.7115,512.2541 1213.8995,507.7591 1213.2405,501.7571 C1213.9115,502.2461 1212.9445,501.2831 1211.7815,500.7351 C1197.8525,494.1711 1191.7365,480.8831 1184.4325,468.7101 C1182.9785,466.2871 1182.4655,462.9411 1182.5235,460.0411 C1182.6775,452.4641 1180.8475,445.4011 1177.2465,438.9491 C1169.3095,424.7311 1172.5435,408.6121 1169.0845,393.6561 C1168.8815,392.7771 1169.4145,391.7061 1169.6795,390.7451 C1171.4315,384.4061 1169.8195,378.8771 1165.5115,374.1001 C1161.9945,370.2021 1158.3215,366.4441 1154.4495,362.3391 C1150.5975,365.2761 1149.4365,371.4561 1142.6675,369.7531 C1146.2445,364.3461 1149.6065,359.2651 1153.7985,352.9271 C1148.7335,342.5961 1143.3375,331.6151 1137.9655,320.6231 C1136.3665,317.3531 1133.8655,314.1681 1133.4525,310.7421 C1132.2965,301.1531 1128.5295,293.0371 1121.8365,286.6171 C1125.5435,281.9691 1128.9025,277.7581 1131.8595,274.0501 C1127.4035,265.1941 1123.8845,257.6701 1119.8965,250.4041 C1114.3945,240.3801 1110.7925,230.3141 1116.7205,219.2031 C1118.9425,215.0381 1118.1835,210.7551 1114.7085,208.3951 C1108.5875,204.2401 1107.3885,197.6511 1104.4575,191.7921 C1100.9095,184.6991 1100.8365,179.0141 1107.5515,173.5141 C1110.6835,170.9491 1113.9405,166.8671 1111.5075,162.0761 C1107.6285,154.4381 1107.1595,146.2271 1106.3255,137.9891 C1106.0725,135.4861 1104.8265,133.0371 1103.7965,130.6681 C1100.4925,123.0691 1100.4625,114.2831 1095.2655,107.3291 C1094.7365,106.6211 1095.2895,104.6041 1095.9515,103.5961 C1098.3785,99.9041 1097.0655,96.5971 1095.2985,93.2721 C1090.2355,83.7481 1081.7145,77.9811 1072.5595,73.1941 C1070.6855,72.2141 1067.5525,73.6041 1065.0075,73.9571 C1062.8795,74.2531 1060.2415,75.5861 1058.7485,74.7731 C1055.5605,73.0371 1057.6865,70.5241 1058.6695,67.9731 C1060.3585,63.5871 1057.4375,60.0821 1053.4825,61.9581 C1047.0205,65.0261 1043.3965,62.5841 1040.3275,57.3621 C1037.4845,52.5221 1034.6935,47.6521 1031.8835,42.7941 C1030.2275,39.9311 1029.1385,36.4681 1026.8305,34.3021 C1017.1435,25.2111 1006.7225,16.9781 1000.4215,4.7051 C997.8725,-0.2579 995.0095,0.0121 989.5575,2.8321 C987.2835,4.0091 984.6105,5.5561 982.3035,5.2951 C977.3745,4.7381 974.9285,7.0191 972.8495,10.8801 C971.7725,12.8791 970.1525,14.6151 968.6275,16.3371 C961.2625,24.6491 953.8225,32.8941 946.4795,41.2261 C945.6305,42.1891 945.1215,43.5001 944.6295,44.7201 C942.9155,48.9711 941.1905,53.2211 939.6355,57.5311 C938.0285,61.9871 935.0025,63.6091 930.3465,63.1601 C926.9255,62.8301 923.4475,63.0961 920.2605,63.0961 C921.8585,70.6351 922.9845,77.3771 924.8365,83.9121 C925.4985,86.2491 927.5625,88.5751 929.6005,90.0671 C937.7735,96.0531 941.4275,104.2601 942.0185,114.0231 C942.4865,121.7331 946.6615,127.8731 950.8885,133.6221 C956.8355,141.7101 957.2685,141.3611 952.3355,149.7861 C951.3295,151.5041 950.7115,153.4521 949.6705,155.1431 C946.3845,160.4851 942.1025,163.9971 935.3665,164.6101 C924.4915,165.6001 914.1015,174.4991 912.7525,184.9671 C911.4725,194.9091 904.4295,198.9361 897.1435,202.8241 C894.9945,203.9701 891.2335,203.4481 888.7595,202.3981 C878.5895,198.0831 872.5455,199.4771 865.5905,208.3241 C863.9575,210.4011 862.1405,212.3791 860.1745,214.1431 C853.7615,219.8961 847.1705,225.4531 840.7845,231.2371 C836.9595,234.7021 835.3595,238.4821 835.8025,244.3561 C836.4005,252.2691 833.5625,259.7981 825.7335,264.4681 C823.1995,265.9791 820.9605,268.9641 819.8985,271.7721 C817.1875,278.9371 813.1195,284.1561 806.1465,288.0331 C796.6195,293.3291 787.3185,299.3731 778.9625,306.3451 C768.6555,314.9461 762.9205,328.2661 750.5505,334.9921 C750.0325,335.2741 749.7675,336.0511 749.4265,336.6221 C746.7265,341.1481 742.5415,342.4961 737.5375,342.5111 C734.0265,342.5211 730.5155,342.9761 727.1485,343.2231 C722.7425,358.8401 720.3805,374.2541 706.2005,384.0581 C710.4925,384.8241 713.4185,385.3461 717.0825,386.0001 C706.4405,400.0511 694.2665,402.2531 682.2965,392.7571 C676.6255,388.2581 671.4065,386.9751 664.9905,390.6821 C663.0685,391.7931 660.6005,392.0631 658.3375,392.4621 C650.9045,393.7691 649.5405,395.1611 647.5195,403.9151 C651.4585,409.7221 656.6635,404.1211 662.4225,405.3341 C661.6285,408.4391 661.8025,412.4171 660.1015,413.5301 C655.2325,416.7151 653.9715,421.4991 652.7385,427.8511 C649.8275,424.7321 647.9945,422.4691 645.8635,420.5361 C637.7555,413.1821 631.8005,413.4731 626.6805,422.7341 C622.0725,431.0711 618.4975,440.0801 615.4115,449.1151 C613.7635,453.9421 613.4195,459.4921 613.7315,464.6401 C614.1395,471.3851 612.8635,477.2211 608.3155,482.1941 C605.3965,485.3871 602.4205,488.5501 599.2275,491.4611 C595.4615,494.8961 592.8255,498.5921 591.4025,503.7901 C590.1485,508.3681 586.9345,512.5801 583.9595,516.4761 C579.5925,522.1961 576.6475,528.4201 576.4955,535.5511 C576.0605,555.9151 574.8385,575.9441 559.2895,590.9761 C576.5285,614.3911 593.5475,637.5081 610.9975,661.2081 C613.6405,660.5071 617.0885,659.5911 620.4905,658.6881" id="Fill-1" fill="#000000" sketch:type="MSShapeGroup" mask="url(#mask-2)"></path>
            </g>
            <path d="M1908.9133,1989.824 C1897.5373,1992.182 1886.0253,1993.898 1874.5513,1995.765 C1872.6113,1996.08 1870.4653,1996.143 1868.5873,1995.654 C1860.5613,1993.567 1852.7873,1994.543 1844.9283,1996.659 C1841.1063,1997.688 1837.0513,1997.874 1833.0933,1998.364 C1822.9353,1999.621 1812.3433,1999.4 1804.5393,2007.937 C1803.3373,2009.251 1800.9513,2010.173 1799.1433,2010.124 C1791.8773,2009.927 1783.9773,2010.903 1777.5413,2008.348 C1770.8023,2005.672 1764.2853,2005.146 1757.4513,2004.138 C1751.8103,2003.306 1746.5273,2000.05 1741.0853,1997.868 C1739.9623,1988.885 1729.9503,1986.27 1727.2113,1978.328 C1727.2933,1980.414 1728.3353,1982.024 1728.8433,1983.787 C1729.3543,1985.56 1729.3353,1987.485 1729.5463,1989.329 C1725.1943,1991.303 1721.3943,1993.026 1716.4393,1995.274 C1714.8133,1993.275 1713.1743,1991.259 1712.4763,1990.4 C1707.9773,1991.108 1703.6583,1993.037 1700.1513,1992.059 C1694.2523,1990.414 1688.8683,1986.921 1682.7053,1983.933 C1680.2543,1990.739 1674.4913,1991.905 1667.2393,1991.918 C1668.0613,1989.627 1668.1643,1987.117 1669.4363,1986.162 C1676.6843,1980.713 1683.0043,1973.241 1693.6373,1974.603 C1697.7873,1975.135 1702.1003,1974.291 1703.4063,1969.593 C1705.0123,1963.817 1710.4503,1965.627 1713.8923,1963.58 C1716.7523,1961.879 1718.5393,1964.141 1720.7403,1965.847 C1722.0243,1966.843 1725.4063,1966.708 1726.7163,1965.664 C1728.1093,1964.556 1728.8993,1961.684 1728.6633,1959.74 C1728.1283,1955.359 1724.3903,1954.088 1720.6413,1953.509 C1712.4183,1952.238 1704.1893,1950.936 1695.9193,1950.057 C1688.3403,1949.252 1680.7093,1948.886 1673.0923,1948.522 C1668.6633,1948.311 1665.0313,1950.007 1664.1163,1954.719 C1662.2363,1964.396 1655.2113,1966.326 1646.9983,1966.431 C1638.8443,1966.536 1623.8993,1967.544 1615.7373,1963.517 L1615.7373,1969.585 L1608.4933,1966.671 L1607.1543,1965.907 L1604.5793,1968.483 L1600.7703,1968.814 L1598.7483,1970.962 L1597.5413,1975.273 L1594.4083,1977.544 L1591.7393,1978.878 L1586.9063,1985.61 L1582.6443,1986.142 L1579.9713,1988.112 L1578.6783,1989.836 L1576.4023,1994.226 L1572.6753,2002.657 L1571.8963,2006.557 L1571.6683,2009.983 L1570.7183,2012.925 L1568.9233,2016.188 L1568.0283,2018.298 L1565.9143,2021.876 L1565.0383,2023.98 L1562.7343,2026.816 L1561.2193,2028.942 L1560.1583,2031.417 L1557.5243,2033.876 L1555.9073,2035.985 L1554.3573,2037.379 L1553.2103,2038.957 L1552.4963,2040.517 L1550.5483,2043.504 L1548.7143,2045.671 L1545.8463,2048.9 L1542.8163,2050.478 L1540.0703,2051.263 L1537.0583,2050.402 L1535.0323,2048.881 L1532.2953,2047.97 L1530.1423,2044.92 L1528.0743,2043.324 L1526.4023,2041.838 L1525.3463,2040.079 L1523.7393,2038.179 L1522.3113,2037.27 L1519.2283,2036.536 L1516.5703,2036.536 L1514.2053,2036.686 L1511.1953,2037.74 L1509.2633,2038.844 L1507.3233,2041.529 L1506.3563,2043.141 L1504.4573,2046.147 L1503.9423,2048.041 L1502.0573,2050.553 L1498.0903,2052.536 L1493.6043,2052.536 L1491.6043,2051.703 L1488.5963,2051.703 L1484.8713,2050.106 L1482.1323,2049.156 L1479.6323,2047.656 L1477.2073,2045.981 L1475.0943,2043.381 L1472.7473,2042.117 L1471.8733,2040.197 L1468.2573,2037.603 L1467.4553,2034.588 L1466.7373,2032.446 L1466.7373,2029.654 L1467.5843,2026.771 L1467.9043,2022.406 L1467.7403,2022.37 L1465.3563,2022.37 L1461.3563,2021.203 L1459.9943,2021.203 L1457.4913,2022.086 L1455.5573,2023.053 L1454.1303,2024.93 L1452.7353,2026.326 L1451.9553,2028.947 L1450.9533,2031.353 L1448.1723,2033.277 L1442.6313,2034.423 L1439.5283,2033.328 L1435.3393,2032.629 L1433.6333,2031.492 L1431.0013,2030.088 L1429.1763,2028.263 L1426.7333,2025.64 L1425.2423,2023.777 L1424.2563,2021.018 L1423.9123,2017.018 L1423.5703,2014.87 L1423.5703,2013.199 L1422.7293,2011.376 L1421.8563,2009.778 L1420.3433,2008.263 L1418.2373,2006.371 L1418.2373,2004.538 L1416.8293,2003.271 L1416.1283,2001.694 L1414.8693,2000.286 L1411.9263,1997.346 L1409.9953,1995.177 L1406.1103,1992.587 L1404.1293,1989.121 L1401.4673,1987.523 L1400.8713,1985.536 L1399.4343,1985.536 L1394.6843,1983.536 L1389.2373,1983.536 L1386.3953,1979.707 L1384.7233,1976.362 L1382.0903,1973.204 L1381.2373,1968.786 L1381.2373,1958.293 L1382.0473,1955.861 L1382.9993,1952.164 L1383.2403,1948.439 L1383.2373,1946.076 L1384.2943,1942.374 L1385.7953,1937.655 L1383.7183,1935.371 L1382.3713,1932.407 L1380.7973,1929.261 L1378.2373,1927.269 L1378.2373,1917.658 L1379.3933,1915.51 L1375.8823,1911.943 L1373.6443,1908.424 L1369.5703,1903.981 L1369.5703,1897.27 L1367.9043,1893.269 L1367.9043,1867.106 L1365.4323,1865.87 L1344.9433,1865.87 L1341.4813,1861.494 L1339.3393,1857.502 L1338.2603,1854.174 L1337.5753,1849.668 L1337.2683,1845.071 L1335.6293,1841.688 L1334.6943,1837.943 L1332.8423,1834.61 L1333.5833,1828.302 L1334.3873,1823.075 L1339.2533,1819.536 L1344.2793,1819.536 L1348.6123,1816.536 L1353.7333,1816.536 L1356.9513,1814.803 L1357.7633,1812.57 L1355.9933,1808.125 L1354.7743,1804.166 L1352.2503,1801.082 L1348.7683,1799.05 L1345.6623,1798.119 L1340.6593,1796.87 L1335.4043,1796.863 L1331.1193,1796.505 L1325.9253,1794.508 L1322.5703,1789.475 L1322.5703,1771.296 L1320.6133,1769.093 L1317.5403,1767.251 L1314.3233,1765.497 L1310.5773,1765.209 L1306.7363,1765.529 L1299.5703,1765.928 L1296.6713,1761.787 L1293.2553,1758.002 L1289.3623,1752.339 L1288.1293,1746.482 L1285.2803,1744.815 L1281.2253,1742.768 L1274.7323,1741.324 L1271.7863,1737.275 L1268.2373,1734.513 L1268.2373,1730.76 L1265.3433,1728.156 L1262.7713,1723.87 L1258.1913,1723.87 L1253.3703,1727.184 L1245.7723,1732.25 L1240.5053,1731.845 L1235.5103,1730.179 L1231.2213,1729.874 L1225.8743,1730.17 L1222.0553,1732.626 L1220.2373,1735.744 L1220.2373,1741.116 L1218.9043,1746.449 L1218.9043,1751.452 L1213.7743,1759.512 L1207.6093,1764.992 L1199.3033,1773.299 L1192.2613,1769.759 L1184.9043,1763.826 L1184.9043,1750.724 L1181.7313,1745.058 L1175.8463,1745.058 L1170.5833,1737.328 L1165.9293,1730.346 L1170.2373,1721.731 L1170.2373,1692.917 L1165.2883,1686.87 L1159.4863,1686.87 L1153.5703,1690.633 L1153.5703,1698.089 L1149.3983,1705.043 L1144.8413,1718.714 L1138.8223,1709.686 L1133.0163,1706.203 L1127.2783,1706.203 L1122.9843,1712.284 L1117.0843,1718.183 L1111.3003,1725.896 L1108.2373,1732.636 L1108.2373,1751.887 L1104.5663,1762.007 L1098.9043,1765.918 L1098.9043,1780.68 L1089.9823,1781.571 L1081.6213,1778.532 L1074.9043,1768.828 L1074.9043,1761.145 L1068.4253,1746.385 L1065.1703,1739.876 L1061.0543,1733.702 L1058.0283,1722.203 L1040.7413,1722.203 L1032.0743,1726.87 L1022.1753,1726.87 L1015.5703,1731.273 L1015.5703,1745.014 L1008.5893,1752.203 L997.7893,1752.203 L985.5813,1754.916 L972.6963,1752.203 L962.7083,1752.203 L956.2613,1755.413 L943.2603,1760.203 L929.5093,1760.203 L920.4553,1766.239 L916.4763,1774.197 L906.4553,1781.546 L901.5733,1790.703 L901.5733,1801.248 L899.5733,1801.248 C905.7393,1806.523 906.4383,1807.863 904.7163,1810.657 C902.5093,1814.236 897.6023,1815.292 893.2163,1813.004 C891.7503,1812.24 890.4703,1811.125 889.0663,1810.231 C887.6643,1809.339 886.2333,1807.908 884.7753,1807.858 C883.4603,1807.813 882.0923,1809.317 880.0673,1810.554 C884.9223,1813.151 888.9493,1814.773 892.3513,1817.251 C897.4793,1820.985 897.7813,1826.856 892.7413,1830.724 C888.5963,1833.905 883.7543,1836.432 878.8603,1838.305 C874.4453,1839.996 871.2693,1842.299 869.8973,1846.822 C867.5593,1854.526 863.0643,1860.247 855.7543,1864.043 C850.2763,1866.887 846.3133,1871.606 844.7883,1877.716 C843.0823,1884.55 838.6873,1889.133 833.9313,1894.01 C828.6943,1899.381 824.2313,1905.743 820.4993,1912.283 C816.0973,1919.999 813.1033,1928.505 808.9983,1936.409 C806.0263,1942.132 800.9223,1944.825 794.2553,1945.052 C791.1633,1945.157 787.4223,1945.935 785.1833,1947.833 C776.8123,1954.927 768.6683,1962.338 763.0453,1972.035 C760.7253,1976.039 758.7013,1980.766 755.2093,1983.387 C751.5943,1986.099 746.3623,1986.656 743.3563,1987.652 C740.4083,1993.515 737.9113,1998.48 734.6173,2005.029 C734.1013,2007.709 734.3723,2013.146 732.0423,2017.017 C726.8403,2025.659 725.2183,2036.963 729.5123,2046.606 C733.3053,2055.121 728.7053,2069.91 720.5983,2074.758 C719.6883,2075.303 718.1703,2074.832 716.0713,2074.832 C716.8083,2072.029 717.3843,2069.838 718.1053,2067.096 C712.9773,2069.95 708.6373,2069.724 703.4403,2067.888 C699.1153,2066.361 693.5443,2066.862 688.9173,2068.022 C680.9343,2070.025 673.3223,2073.457 665.4243,2075.858 C661.0163,2077.197 656.3763,2078.07 651.7833,2078.442 C642.8553,2079.166 633.8823,2079.296 624.9383,2079.856 C620.4513,2080.137 617.2803,2078.1 614.6223,2074.859 C608.0413,2066.835 599.0103,2062.794 589.5263,2059.625 C583.0083,2057.446 576.6463,2057.284 570.2713,2061 C567.6323,2062.537 563.7843,2063.289 560.8043,2062.722 C549.3953,2060.55 538.0923,2057.791 526.7963,2055.057 C521.2523,2053.715 516.0103,2052.186 510.8393,2056.555 C509.4363,2057.741 506.4383,2057.044 504.1713,2057.2 C501.5753,2057.379 498.9773,2057.54 496.3813,2057.721 C492.1453,2058.016 487.9013,2058.229 483.6783,2058.656 C481.0733,2058.919 478.4733,2059.39 475.9203,2059.983 C466.5983,2062.147 457.3083,2064.454 447.9723,2066.553 C446.7793,2066.822 445.3893,2066.047 444.0813,2065.993 C439.8853,2065.818 435.5513,2065.043 431.5163,2065.805 C424.3773,2067.152 417.4853,2069.773 410.3643,2071.267 C404.5673,2072.483 402.8753,2075.254 403.6783,2081.101 C404.6233,2087.978 402.4793,2093.745 394.8263,2094.927 C397.8723,2104.527 400.7963,2113.743 403.6373,2122.7 C410.9743,2119.82 417.5543,2116.804 424.4093,2114.666 C431.6473,2112.408 435.9963,2115.144 436.7993,2121.854 C435.4263,2121.652 434.0733,2121.095 432.8843,2121.339 C427.4563,2122.453 421.6953,2123.007 416.8283,2125.363 C414.2063,2126.632 413.1683,2131.138 411.3683,2134.156 C409.7453,2136.878 408.0573,2139.562 406.3513,2142.339 C401.9603,2139.742 406.1653,2132.313 398.5573,2132.372 C392.7933,2139.358 386.7363,2146.744 380.6283,2154.087 C375.4213,2160.348 368.4193,2162.24 360.8543,2160.757 C356.7873,2159.959 352.7923,2157.746 349.2733,2155.407 C341.7933,2150.434 333.7233,2148.003 324.8103,2148.041 C321.0193,2148.057 318.0463,2149.243 318.0373,2153.557 C318.0113,2166.986 315.2023,2179.717 309.5803,2191.942 C308.5963,2194.081 309.4103,2197.104 309.5803,2199.706 C310.3173,2210.982 311.2933,2222.245 311.8523,2233.529 C312.3573,2243.732 307.9913,2251.025 299.1263,2256.658 C293.7273,2260.088 288.1143,2265.177 285.7013,2270.844 C282.0603,2279.391 276.1723,2285.084 269.2163,2290.247 C265.2443,2293.194 260.9383,2295.69 256.9923,2298.254 C255.8513,2304.352 255.0253,2310.278 253.6003,2316.058 C251.1293,2326.083 246.4083,2329.517 235.9873,2330.419 C231.4503,2330.812 227.0183,2332.308 222.5013,2333.089 C219.6583,2333.58 216.7463,2333.675 213.9033,2333.944 C213.7203,2334.724 213.5703,2335.363 213.4193,2336.001 C210.6843,2347.58 212.4413,2350.001 224.1413,2350.745 C227.5303,2350.96 230.6483,2351.498 231.3903,2355.635 C223.0853,2359.295 220.0703,2359.394 207.1993,2356.596 C204.9993,2352.549 207.7653,2346.265 201.8363,2343.736 C191.9953,2352.232 191.9953,2352.232 186.5193,2351.059 C180.8323,2361.154 182.0073,2372.133 181.8433,2382.964 C181.8233,2384.283 181.4603,2385.6 181.2273,2386.913 C179.5993,2396.124 175.4423,2402.367 165.3233,2404.747 C153.6333,2407.495 153.0943,2409.804 151.8663,2422.759 C151.4573,2427.07 149.3323,2431.813 146.5483,2435.155 C143.0243,2439.386 137.9283,2442.279 133.7143,2445.98 C132.1183,2447.382 130.1333,2449.344 129.9713,2451.194 C129.3703,2458.083 125.1903,2461.814 119.7143,2464.925 C116.5423,2466.727 112.9263,2468.435 110.7503,2471.171 C104.6263,2478.875 96.7693,2481.913 88.7113,2481.258 C83.0463,2489.47 78.0783,2496.671 72.6503,2504.541 C68.5643,2500.914 65.0323,2497.936 61.6813,2494.767 C56.7103,2490.067 50.1993,2488.63 44.6093,2492.116 C38.7073,2495.796 32.8813,2499.807 27.7803,2504.498 C24.0403,2507.937 21.0223,2510.951 15.3343,2511.481 C7.4353,2512.219 0.2873,2523.777 3.2603,2531.072 C6.3573,2538.671 6.1913,2545.018 0.0003,2550.875 C2.9853,2554.659 5.5883,2557.959 8.0893,2561.13 C17.3743,2558.718 26.3563,2556.537 35.2433,2554.021 C41.3943,2552.28 43.8373,2546.7 41.9403,2539.714 C39.8143,2531.887 46.3233,2522.996 54.2983,2523.697 C58.8013,2524.093 64.2113,2524.965 67.3713,2527.728 C75.4003,2534.751 85.5153,2535.638 94.8163,2538.487 C108.8413,2542.784 122.3063,2559.456 121.1623,2574.034 C120.7673,2579.076 122.7573,2582.556 125.9603,2585.383 C129.2263,2588.266 133.2483,2590.293 137.4083,2593 C138.4233,2590.504 139.4393,2588.123 140.3673,2585.708 C144.1873,2575.771 146.5513,2574.113 157.3093,2573.928 C158.5773,2573.906 159.8463,2573.925 160.2623,2573.925 C163.2373,2569.68 165.5263,2566.077 168.1573,2562.743 C171.4983,2558.507 171.3683,2554.18 168.9543,2549.752 C165.6123,2543.621 159.2043,2540.678 152.1773,2541.471 C147.4693,2542.003 142.8743,2544.691 136.8973,2542.511 C145.0123,2535.7 154.1223,2534.65 162.6103,2533.754 C165.7973,2527.578 168.6513,2522.047 171.3503,2516.816 C169.8553,2514.627 168.4793,2512.614 167.0403,2510.507 C169.6823,2509.124 171.5853,2508.128 173.7953,2506.97 C171.0323,2501.666 168.5843,2496.966 165.7993,2491.62 C172.1833,2491.262 177.5293,2490.962 182.5333,2490.681 C186.9063,2498.491 183.7753,2508.716 191.9883,2514.867 C192.9863,2513.388 193.7133,2512.642 194.0503,2511.749 C194.9913,2509.261 195.8183,2506.726 196.6063,2504.184 C200.6373,2491.165 201.3913,2490.608 214.5633,2491.155 C227.5483,2477.464 227.5483,2477.464 244.1433,2481.715 C245.4133,2478.578 248.0123,2475.224 247.8093,2472.048 C247.3343,2464.616 246.4223,2457.509 252.3253,2451.54 C252.9263,2450.932 252.5533,2448.913 252.0843,2447.774 C249.7833,2442.182 253.0243,2439.725 257.4643,2437.965 C260.5583,2436.738 263.7323,2435.716 266.8633,2434.582 C274.0273,2431.985 274.3623,2432.099 277.3603,2438.796 C277.8763,2439.947 278.1703,2441.197 278.6563,2442.672 C281.0723,2441.436 283.0823,2439.556 285.1413,2439.502 C294.0003,2439.268 302.8993,2439.201 311.7363,2439.784 C320.1513,2440.339 328.1173,2438.024 333.4653,2432.517 C339.5153,2426.288 345.7183,2424.085 353.8313,2424.687 C359.4753,2425.105 365.1633,2424.885 370.8213,2425.16 C379.7103,2425.593 387.8823,2427.741 394.0733,2434.876 C396.9973,2438.246 400.3703,2441.226 403.8643,2444.706 C404.3773,2441.643 404.1533,2439.035 405.2803,2437.31 C406.5153,2435.419 408.9963,2434.342 410.9343,2432.91 C410.7343,2432.577 410.5353,2432.245 410.3353,2431.912 C407.9753,2432.679 405.6163,2433.446 403.1273,2434.254 C400.4543,2431.486 398.1023,2429.051 395.1803,2426.026 C398.5293,2423.883 400.8743,2422.382 405.0463,2419.712 C401.5093,2418.97 399.4573,2417.904 397.8203,2418.353 C395.6843,2418.938 393.9883,2420.954 391.9093,2421.951 C383.1683,2426.142 376.2023,2421.08 376.1983,2409.939 C379.2843,2411.685 382.0733,2413.263 385.1543,2415.006 C390.4873,2412.401 397.1953,2412.021 401.1823,2406.074 C399.1893,2403.481 397.4373,2401.203 395.2843,2398.401 C397.5503,2396.939 399.3603,2395.772 401.1803,2394.599 C400.4793,2390.726 399.8013,2386.977 398.9773,2382.427 C405.6043,2383.279 408.0693,2392.167 417.0213,2386.141 C415.4323,2391.147 415.3993,2394.241 413.8403,2395.668 C405.2403,2403.541 409.1353,2412.117 412.2433,2420.443 C412.9273,2422.275 415.9763,2423.894 418.1983,2424.362 C426.2743,2426.06 426.6183,2425.84 427.1613,2434.364 C427.5163,2439.93 429.6173,2442.943 435.3063,2443.661 C439.1753,2444.15 442.9483,2444.816 444.4003,2449.87 C444.7743,2451.171 450.2653,2452.641 452.0403,2451.632 C462.9713,2445.416 473.3713,2448.561 483.1363,2453.44 C490.5753,2457.157 496.4593,2463.297 498.1413,2472.172 C499.6943,2480.368 504.6113,2484.919 514.4033,2486.809 C515.0303,2485.846 515.7843,2484.794 516.4253,2483.677 C517.2463,2482.246 517.9753,2480.762 518.8683,2479.065 C522.2413,2481.612 524.0603,2482.92 525.8083,2484.318 C531.7183,2489.043 537.4993,2493.458 544.2993,2485.347 C545.2993,2484.153 548.0033,2484.386 549.5623,2484.038 C550.0023,2478.406 549.9443,2473.061 550.9283,2467.915 C552.5693,2459.331 554.7503,2449.584 562.4143,2445.444 C569.6083,2441.558 573.9053,2432.157 584.0653,2433.345 C585.2593,2433.485 587.4583,2430.336 588.1643,2428.347 C590.1313,2422.807 591.5573,2417.075 593.1873,2411.452 C579.3723,2408.733 577.8023,2407.54 577.9913,2399.622 C578.2663,2388.119 581.5493,2384.174 591.1423,2382.655 C590.3583,2376.863 588.4503,2371.041 589.0963,2365.518 C589.9733,2358.023 592.4363,2350.763 597.2403,2344.34 C601.3373,2338.861 604.3893,2332.565 607.5443,2326.446 C608.3503,2324.883 608.2833,2322.478 607.7793,2320.697 C604.8983,2310.529 603.4773,2299.856 597.4573,2290.725 C596.6243,2289.462 597.0603,2287.362 596.7453,2283.8 C600.3323,2286.189 602.6593,2287.314 604.4513,2289.006 C611.3953,2295.559 615.5103,2303.822 618.2003,2312.862 C620.2003,2319.583 625.3493,2321.461 630.8723,2317.744 C635.2443,2314.802 640.0233,2312.462 644.3793,2309.498 C647.0023,2307.713 650.5053,2305.643 651.2863,2303.011 C654.1413,2293.388 661.5553,2290.233 670.0003,2288.853 C677.8453,2287.57 685.8603,2287.17 693.8203,2286.807 C698.0143,2286.615 701.6713,2286.315 704.0583,2282.181 C706.2613,2278.365 710.1333,2278.135 713.7943,2279.136 C725.6293,2282.371 735.4833,2277.888 744.4603,2271.095 C750.0873,2266.837 755.4423,2265.191 761.9173,2268.59 C763.3703,2269.352 765.0413,2269.943 766.6623,2270.102 C783.6383,2271.769 798.0163,2279.398 812.5363,2287.913 C831.4333,2298.995 848.2903,2312.247 863.6613,2327.647 C865.3923,2329.381 867.3553,2330.883 869.3143,2332.582 C871.2443,2327.482 873.1743,2323.276 874.4323,2318.878 C877.3323,2308.736 882.3713,2305.211 892.8503,2307.138 C899.0373,2308.276 905.0443,2310.387 911.2323,2311.518 C918.7333,2312.89 926.6493,2315.514 933.8243,2314.294 C943.8743,2312.585 951.9303,2316.223 960.5173,2319.411 C963.9513,2320.686 967.4773,2321.755 970.8063,2323.261 C975.7543,2325.5 980.5643,2328.044 985.8783,2330.679 C992.4363,2328.938 1000.0093,2326.928 1006.7203,2325.146 C1008.8583,2319.424 1010.7623,2314.327 1012.9603,2308.446 C1008.1233,2306.798 1009.0593,2301.659 1010.0343,2296.664 C999.9053,2303.604 996.0183,2291.233 988.7973,2291.663 C988.3423,2288.627 987.9833,2286.223 987.5993,2283.658 C983.0093,2284.672 980.8883,2291.112 974.4843,2286.46 C977.8893,2280.213 981.3773,2273.813 985.4423,2266.353 C987.7883,2269.003 988.9773,2271.018 990.7313,2272.17 C993.3803,2273.909 996.9383,2276.791 999.2063,2276.122 C1006.8463,2273.869 1012.6363,2276.205 1017.9013,2281.836 C1029.1783,2272.521 1041.4533,2270.175 1054.9143,2273.884 C1058.0163,2274.739 1060.2043,2273.603 1062.9923,2271.77 C1067.5343,2268.784 1073.1483,2265.394 1078.1663,2265.606 C1087.6693,2266.006 1097.1963,2268.358 1106.4743,2270.809 C1114.2403,2272.861 1118.3383,2272.064 1122.3123,2265.289 C1123.7863,2262.778 1124.8473,2260.024 1126.0903,2257.395 C1128.1683,2257.171 1129.8513,2257.174 1131.4403,2256.789 C1141.4033,2254.378 1152.9273,2256.25 1160.1323,2246.072 C1160.9713,2244.888 1163.8753,2244.656 1165.7553,2244.807 C1173.3963,2245.42 1177.4463,2241.495 1180.2273,2233.409 C1168.7333,2220.755 1156.9393,2207.772 1144.7043,2194.303 C1146.1423,2193.805 1147.3903,2192.884 1148.3773,2193.108 C1156.5563,2194.967 1164.7993,2197.914 1169.8033,2204.56 C1178.5263,2216.147 1190.0513,2223.625 1202.2563,2230.585 C1205.6703,2232.532 1209.4753,2234.506 1211.8073,2237.481 C1216.1533,2243.026 1221.5643,2245.918 1227.9843,2247.483 C1234.2843,2236.303 1223.5543,2230.363 1220.5083,2221.676 C1226.7373,2220.991 1232.3743,2220.37 1238.3713,2219.71 C1245.0823,2227.677 1242.5163,2236.877 1240.7103,2245.735 C1251.6103,2248.636 1254.9553,2245.584 1253.8733,2234.464 C1253.1043,2226.565 1259.1503,2218.719 1266.5063,2219.092 C1272.3193,2219.387 1278.0663,2220.971 1283.0413,2221.842 C1285.8973,2226.053 1281.5373,2232.745 1289.0883,2233.495 C1289.6263,2229.588 1290.1243,2225.968 1290.9303,2220.116 C1294.8673,2223.586 1297.0933,2225.548 1299.0903,2227.307 C1300.3923,2225.318 1301.8033,2223.163 1303.2143,2221.009 L1305.6243,2221.712 C1305.8683,2225.72 1306.1113,2229.728 1306.4193,2234.787 C1308.7973,2233.278 1310.6813,2232.234 1312.3873,2230.954 C1313.9843,2229.756 1315.3933,2228.307 1317.4843,2226.431 C1318.2743,2239.014 1316.0813,2240.526 1298.9963,2240.332 C1297.0903,2243.047 1295.0873,2245.899 1293.2963,2248.45 C1303.7873,2255.675 1313.7173,2262.513 1323.9353,2269.551 C1324.9683,2268.075 1326.2933,2266.862 1326.7823,2265.374 C1331.4663,2251.126 1343.9473,2248.103 1356.2073,2244.766 C1358.4483,2244.157 1360.8193,2244.012 1363.0493,2243.374 C1380.7513,2238.307 1398.6743,2235.802 1417.2043,2236.287 C1425.3473,2236.5 1434.1723,2235.143 1441.6353,2232 C1459.9243,2224.296 1478.3413,2225.503 1496.5793,2229.877 C1516.5633,2234.669 1536.7703,2239.685 1555.6243,2247.595 C1566.6983,2252.241 1578.4003,2256.108 1588.8943,2262.355 C1591.4403,2263.871 1594.3193,2265.357 1597.1743,2265.667 C1599.8713,2265.959 1603.7243,2265.639 1605.3653,2263.942 C1613.1833,2255.853 1620.1573,2246.949 1627.9763,2238.861 C1631.7783,2234.929 1636.4303,2231.452 1641.3253,2229.049 C1646.0143,2226.748 1651.5163,2226.099 1656.6633,2224.731 C1674.6363,2219.954 1693.4373,2218.107 1710.3603,2209.611 C1712.4153,2208.579 1714.6503,2207.683 1716.3523,2206.206 C1723.8403,2199.708 1731.1723,2193.03 1738.5203,2186.372 C1738.9443,2185.988 1739.0023,2185.2 1739.2303,2184.6 C1738.0073,2182.414 1736.7843,2180.23 1734.5573,2176.25 C1738.4643,2177.238 1740.5463,2177.57 1742.4793,2178.295 C1745.8793,2179.573 1749.0913,2181.429 1752.5583,2182.436 C1759.8953,2184.568 1767.3373,2186.344 1774.7543,2188.193 C1778.3043,2189.079 1781.8583,2190.1 1785.4733,2190.539 C1795.7843,2191.792 1797.1663,2189.875 1795.6313,2179.765 C1794.7993,2174.291 1794.7103,2168.48 1795.5583,2163.018 C1798.2963,2145.381 1816.1123,2122.936 1843.5753,2122.51 C1849.9823,2122.411 1855.8663,2121.239 1860.4363,2115.567 C1862.4663,2113.047 1866.6693,2112.161 1870.0063,2110.838 C1875.2203,2108.77 1880.6873,2107.288 1885.7683,2104.951 C1890.8603,2102.609 1895.4023,2099.022 1900.5573,2096.875 C1909.1483,2093.297 1912.2123,2086.597 1912.8473,2078.061 C1914.2053,2059.833 1909.7433,2042.439 1904.8803,2025.185 C1902.3833,2016.325 1903.7863,2013.406 1913.1493,2011.986 C1920.6283,2010.851 1925.9703,2002.951 1924.2303,1995.596 C1922.6903,1989.088 1918.4583,1987.846 1908.9133,1989.824" id="Fill-4" fill="#000000" sketch:type="MSShapeGroup"></path>
            <g id="Group-8">
                <mask id="mask-4" sketch:name="Clip 7" fill="white">
                    <use xlink:href="#path-3"></use>
                </mask>
                <g id="Clip-7"></g>
                <path d="M2006.1724,1498.2443 C2002.9564,1489.4573 2001.4484,1480.1383 2003.0704,1470.7173 C2006.2684,1452.1473 2003.4464,1434.3453 1996.7394,1416.9683 C1995.9034,1414.8013 1994.7614,1412.6293 1994.5224,1410.3783 C1993.7274,1402.9203 1989.7034,1397.2483 1984.5924,1392.3653 C1974.9634,1383.1633 1965.1054,1374.1963 1955.2224,1365.2653 C1943.1264,1354.3333 1931.1474,1343.2523 1918.6814,1332.7553 C1902.6094,1319.2233 1884.3214,1309.1003 1863.3354,1306.9323 C1848.2184,1305.3703 1833.9534,1301.6353 1819.5984,1297.3883 C1816.9864,1296.6163 1813.9574,1297.2573 1811.1214,1297.2353 C1800.2574,1297.1513 1788.8084,1299.2123 1778.6724,1296.4523 C1764.8904,1292.6993 1751.5634,1292.9773 1737.5964,1293.8883 C1735.6684,1292.2343 1733.4944,1290.3703 1732.3314,1289.3723 C1726.5824,1291.2543 1722.0544,1293.7363 1717.3824,1294.0503 C1708.5914,1294.6403 1699.5904,1294.8503 1690.9104,1293.6023 C1681.4984,1292.2483 1675.7484,1297.1143 1672.1924,1303.8143 C1665.3724,1316.6613 1660.3454,1330.3653 1658.0594,1344.9223 C1657.6834,1347.3173 1656.6964,1350.7113 1654.9454,1351.6143 C1645.6284,1356.4173 1639.3124,1363.5993 1635.8284,1374.5253 C1632.6574,1372.6383 1629.8634,1371.5473 1627.8204,1369.6473 C1622.6784,1364.8643 1617.3484,1363.1133 1610.5274,1366.0763 C1608.3704,1367.0133 1605.2984,1366.6803 1602.8894,1366.0283 C1596.9114,1364.4113 1592.7644,1361.2553 1590.2104,1354.7423 C1585.9304,1343.8263 1580.0924,1333.2813 1566.7524,1331.1223 C1559.9254,1330.0173 1552.9484,1329.8543 1546.0484,1329.1703 C1544.1994,1328.9863 1542.3844,1328.4513 1538.8314,1327.7263 C1542.8414,1322.5953 1540.1164,1315.1953 1546.4664,1312.7113 C1552.4954,1310.3533 1554.6754,1305.9843 1557.0164,1300.7253 C1559.1544,1295.9233 1561.9024,1291.0413 1565.5354,1287.3223 C1578.7604,1273.7803 1592.4724,1260.7143 1605.9924,1247.4603 C1609.0544,1244.4583 1611.6874,1240.7873 1615.2384,1238.5853 C1618.7164,1236.4303 1623.1124,1235.7563 1627.6924,1234.2373 C1627.7754,1223.9693 1632.9844,1214.1233 1630.7614,1203.2243 C1629.0504,1194.8343 1628.2744,1186.2583 1626.8254,1177.8093 C1625.8754,1172.2773 1625.3184,1166.4503 1623.1024,1161.4073 C1616.9624,1147.4283 1610.1514,1133.7393 1603.4074,1120.0333 C1597.0174,1107.0473 1594.8184,1092.1373 1585.2144,1080.5993 C1584.3054,1079.5073 1584.5444,1077.4143 1584.3574,1075.7733 C1583.7424,1070.3993 1581.2924,1066.3033 1576.1574,1064.1913 C1571.9134,1062.4453 1568.8174,1058.5433 1563.2414,1058.9963 C1560.7374,1059.2003 1557.8194,1055.8033 1555.2904,1053.7873 C1552.9714,1051.9393 1551.2234,1049.2063 1548.6994,1047.8113 C1540.2254,1043.1263 1540.2844,1043.1773 1535.3144,1036.6163 C1531.6974,1031.8413 1527.8514,1027.1863 1523.6434,1022.9373 C1522.0024,1021.2803 1518.9224,1019.7983 1516.7924,1020.1303 C1512.1124,1020.8603 1509.0874,1018.7103 1506.1324,1015.9503 C1501.5124,1011.6343 1497.3854,1006.6943 1492.3754,1002.9123 C1488.4634,999.9603 1484.7494,996.8623 1481.3264,993.5103 L1482.6654,996.8573 L1478.0844,998.6893 L1472.9184,1003.3863 L1468.5464,1007.2733 L1463.9494,1012.8913 L1457.3454,1017.4633 L1451.7724,1023.0363 L1445.1194,1023.0363 L1437.1194,1025.5363 L1428.1654,1025.5363 L1420.5504,1028.2233 L1415.3284,1033.0103 L1411.7374,1041.5413 L1411.7374,1050.5853 L1408.3484,1057.9273 L1403.4044,1063.4203 L1397.5904,1067.4903 L1388.5014,1068.0253 L1381.8324,1069.0513 L1374.9074,1068.5143 L1367.1304,1067.4613 L1360.6014,1065.8293 L1349.6464,1057.0653 L1347.1894,1050.6753 L1343.9804,1048.5363 L1335.1424,1048.5363 L1330.7374,1052.2073 L1330.7374,1059.6743 L1327.1714,1066.1193 L1322.8204,1071.4383 L1319.3634,1077.7753 L1309.7084,1079.5363 L1303.4814,1079.5363 L1296.9594,1074.7103 L1294.3124,1069.7403 L1290.4494,1067.0363 L1279.4084,1067.0363 L1275.7374,1071.4413 L1275.7374,1077.6263 L1272.3254,1084.4493 L1267.2874,1090.1173 L1259.9444,1089.5933 L1255.7954,1092.4963 L1251.0614,1096.7573 L1247.7374,1100.9133 L1247.7374,1110.4463 L1240.6774,1112.3713 L1236.1554,1114.8373 L1232.7874,1122.0543 L1227.7364,1126.6003 L1223.9434,1133.7123 L1219.9434,1140.7153 L1215.7824,1149.0363 L1204.5204,1149.0363 L1201.5474,1141.3083 L1197.7474,1136.6633 L1193.0924,1135.0363 L1186.5714,1135.0303 L1179.2324,1134.5413 L1171.2374,1135.0363 L1164.9014,1135.0363 L1155.1594,1140.6033 L1149.8774,1144.9243 L1142.7764,1151.4793 L1133.2374,1152.0363 L1121.7684,1152.0363 L1112.0514,1148.2373 L1105.1344,1144.5123 L1098.7374,1136.9523 L1098.7374,1121.4893 L1095.9974,1114.1833 L1091.2574,1107.0733 L1082.1454,1097.0023 L1076.0764,1093.4053 L1071.6894,1089.5053 L1064.9804,1084.8613 L1060.9874,1079.5363 L1056.0734,1079.5363 L1050.7624,1083.5333 L1043.2954,1089.4903 L1035.9774,1095.2413 L1027.8284,1098.2973 L1021.0294,1102.3763 L1017.5944,1107.7743 L1010.5454,1112.9433 L1009.3264,1120.6673 L1013.2374,1128.9773 L1013.2374,1139.1493 L1006.5724,1145.1493 L1006.5724,1152.6303 L1010.4224,1164.1863 L1018.2374,1172.0003 L1018.2374,1183.9243 L1014.4354,1195.8743 L1001.2724,1209.0353 L992.7494,1209.0353 L983.5374,1212.9843 L978.7104,1222.1533 L970.6204,1228.7263 L965.5084,1236.6273 L962.3784,1246.0173 L952.0634,1254.3983 L941.8104,1244.1443 L934.8924,1248.0353 L918.7374,1248.0353 L918.7374,1270.4573 L897.5804,1295.2073 L873.9604,1317.2093 L857.0304,1295.8783 L808.0134,1295.8783 C808.4164,1300.3563 808.3964,1304.9553 807.6084,1309.3003 C807.0404,1312.4323 804.5484,1316.7013 801.9114,1317.6473 C797.1894,1319.3423 794.1114,1322.1413 790.9094,1325.6483 C786.3394,1330.6533 780.4234,1329.9573 776.6064,1324.3623 C774.3654,1321.0773 772.5714,1317.4913 770.4884,1314.0943 C767.2514,1308.8133 762.1944,1306.6833 756.7794,1309.1193 C749.4064,1312.4363 743.4124,1311.3523 737.3724,1306.4943 C734.4554,1304.1493 730.7514,1303.8143 728.7384,1307.5343 C724.3254,1315.6923 717.4954,1318.1013 708.8234,1317.2573 C707.6154,1317.1403 706.3294,1317.8353 704.9954,1318.1763 C703.4634,1322.0743 703.0414,1327.1533 700.3464,1329.1283 C695.5184,1332.6653 697.9674,1336.5683 697.6234,1340.4313 C697.5134,1341.6593 696.4064,1342.7663 695.9524,1344.0013 C694.0404,1349.2053 691.6624,1354.3263 690.5684,1359.7033 C690.0324,1362.3323 691.9364,1365.4583 692.6544,1368.0613 C698.1534,1366.9613 702.8994,1364.4943 706.0974,1365.8033 C709.2444,1367.0913 710.8224,1372.2113 713.0364,1375.5703 C718.3534,1377.8313 724.5724,1379.2053 729.1134,1382.7373 C734.4464,1386.8853 738.6684,1392.6563 742.6954,1398.2133 C744.9404,1401.3103 746.8614,1405.5063 743.9224,1409.3333 C741.3224,1412.7173 737.5844,1412.4563 733.8784,1411.0743 C732.3644,1410.5093 730.8184,1410.0263 729.3834,1409.5393 C723.2884,1419.3623 723.5574,1419.4153 721.6904,1428.9463 C720.5494,1434.7673 719.3894,1440.9383 716.5334,1445.9903 C711.7454,1454.4603 705.5974,1462.1623 699.7404,1470.5913 C700.5134,1473.6433 702.9204,1475.0643 706.2564,1473.2743 C709.9994,1471.2663 713.4024,1468.6263 716.9704,1466.2893 C725.3184,1460.8223 733.4094,1464.5473 734.0494,1474.4123 C734.5684,1482.4263 734.9294,1490.5323 727.1824,1496.1523 C725.7164,1497.2153 724.9304,1499.4133 724.1824,1501.2323 C722.1214,1506.2453 718.2484,1508.5723 713.1334,1507.9803 C699.5564,1506.4093 688.9794,1513.5503 677.6584,1519.1223 C669.8014,1522.9893 671.5264,1530.2883 676.7794,1534.1803 C688.7964,1543.0863 700.8914,1551.8893 712.7984,1560.9393 C715.6884,1563.1353 718.2944,1563.8013 721.9494,1563.2703 C726.8424,1562.5593 731.9754,1562.3793 736.8664,1563.0263 C745.0194,1564.1063 747.2894,1569.6683 742.9514,1576.6933 C742.0844,1578.0973 741.1574,1579.6843 739.8394,1580.5543 C733.5974,1584.6743 733.4174,1590.7033 733.7694,1597.6203 C736.3734,1598.0013 738.7534,1597.9613 740.8054,1598.7613 C742.7494,1599.5203 745.8404,1601.2373 745.7794,1602.3943 C745.6664,1604.5583 744.1344,1607.4963 742.2984,1608.5383 C738.9314,1610.4483 734.9944,1611.7513 731.1494,1612.3253 C726.2764,1613.0533 722.7044,1614.7343 719.4444,1618.7773 C712.6544,1627.1993 707.8694,1636.3113 706.0514,1646.8453 C706.6474,1647.4793 707.0034,1648.0543 707.5174,1648.3773 C714.8884,1653.0033 715.2084,1655.7593 708.7904,1660.6763 C706.4424,1662.4743 703.9364,1664.0653 702.1594,1665.2953 C702.1594,1672.0783 702.0024,1678.0513 702.2324,1684.0083 C702.3324,1686.5883 702.4714,1689.7223 703.9094,1691.5923 C708.4154,1697.4513 711.1914,1703.3093 708.7344,1710.9183 C708.2454,1712.4313 709.8914,1714.6043 710.4704,1716.4993 C713.1904,1725.4023 719.5304,1731.7463 725.3864,1738.5933 C730.5554,1744.6383 734.9764,1751.2313 740.7964,1753.2613 C749.7774,1751.4663 756.8214,1749.8223 763.9494,1748.7233 C768.2204,1748.0643 771.2204,1750.3793 774.1104,1753.7243 C778.3854,1758.6723 783.1974,1763.3173 788.4284,1767.2233 C791.8604,1769.7863 794.1174,1771.8533 794.4964,1776.5573 C795.0774,1783.7603 798.5394,1786.0793 805.6124,1786.0583 C808.5834,1786.0493 811.5874,1786.2393 814.5234,1786.6853 C825.8794,1788.4083 828.9004,1794.3763 824.4014,1804.9813 C822.6234,1809.1733 820.2074,1814.0553 820.9124,1818.1343 C822.2364,1825.7953 825.6884,1833.0753 820.6254,1840.6033 C820.2694,1841.1333 821.2724,1842.4423 821.3364,1843.4103 C821.9864,1853.2743 822.5584,1863.1443 823.1954,1873.0093 C823.2644,1874.0663 823.6084,1875.1063 823.8254,1876.1543 C827.7094,1865.4583 835.9614,1860.0373 844.8604,1855.0283 C854.1864,1849.7793 862.9074,1843.7313 868.2824,1833.9483 C869.1884,1832.2983 871.0614,1831.1533 872.5654,1829.8643 C876.4334,1826.5493 880.3434,1823.2853 884.6884,1819.6203 C882.8344,1819.0013 881.9354,1818.6023 880.9944,1818.4053 C876.9174,1817.5483 874.4104,1815.3183 874.3884,1810.9303 C874.3674,1806.8223 874.5754,1802.0903 879.0174,1800.8653 C882.0444,1800.0303 885.9894,1801.2703 889.1474,1802.5273 C892.1034,1803.7043 894.5634,1806.1253 897.8934,1808.4543 C898.5694,1805.5503 899.0414,1803.5273 899.5734,1801.2473 L897.5734,1801.2473 L897.5734,1789.7023 L903.3534,1778.8603 L913.3314,1771.5423 L917.3524,1763.5003 L928.2984,1756.2023 L942.5474,1756.2023 L954.7754,1751.6973 L961.7654,1748.2023 L973.3164,1748.2453 L985.5584,1750.8233 L997.5704,1748.2023 L1006.8984,1748.2023 L1011.5704,1743.3913 L1011.5704,1729.1323 L1020.9644,1722.8693 L1031.0664,1722.8693 L1039.7334,1718.2023 L1061.1124,1718.2023 L1064.7534,1732.0373 L1068.6934,1737.9753 L1072.0684,1744.7323 L1078.9044,1760.3053 L1078.9044,1767.5773 L1084.1864,1775.2073 L1090.4924,1777.5003 L1094.9044,1777.0593 L1094.9044,1763.8213 L1101.2424,1759.4433 L1104.2374,1751.1843 L1104.2374,1731.7693 L1107.9704,1723.6693 L1114.1564,1715.4553 L1120.0324,1709.5793 L1125.1964,1702.2023 L1134.1234,1702.2023 L1141.6524,1706.7193 L1143.6324,1709.6913 L1145.8554,1703.1733 L1149.5704,1696.9823 L1149.5704,1688.4383 L1158.3224,1682.8693 L1167.1844,1682.8693 L1174.2374,1691.4893 L1174.2374,1722.6743 L1170.5444,1730.0593 L1173.9014,1735.0933 L1177.9614,1741.0583 L1184.0774,1741.0583 L1188.9044,1749.6813 L1188.9044,1761.9133 L1194.6024,1766.5083 L1198.5044,1768.4403 L1204.9084,1762.0403 L1210.7004,1756.8933 L1214.9044,1750.2873 L1214.9044,1745.9563 L1216.2374,1740.6233 L1216.2374,1734.6613 L1219.0844,1729.7803 L1224.5994,1726.2353 L1231.2524,1725.8653 L1236.2974,1726.2263 L1241.3024,1727.8943 L1244.7024,1728.1553 L1251.1274,1723.8713 L1256.9494,1719.8693 L1265.0374,1719.8693 L1268.4644,1725.5833 L1272.2374,1728.9793 L1272.2374,1732.5573 L1274.6884,1734.4643 L1277.0764,1737.7473 L1282.5824,1738.9713 L1287.2464,1741.3313 L1291.6784,1743.9233 L1293.1124,1750.7323 L1296.4754,1755.6243 L1299.8754,1759.3893 L1301.5704,1761.8113 L1306.4584,1761.5383 L1310.5634,1761.1963 L1315.4854,1761.5743 L1319.5284,1763.7803 L1323.1964,1765.9783 L1326.5704,1769.7753 L1326.5704,1788.2643 L1328.5484,1791.2313 L1332.0214,1792.5663 L1335.6534,1792.8693 L1341.1504,1792.8693 L1346.7224,1794.2623 L1350.3724,1795.3553 L1354.8894,1797.9893 L1358.3664,1802.2393 L1359.7904,1806.8683 L1362.0444,1812.5013 L1360.1894,1817.6023 L1354.7414,1820.5353 L1349.8624,1820.5353 L1345.5294,1823.5353 L1340.5544,1823.5353 L1338.0864,1825.3303 L1337.5464,1828.8403 L1336.9654,1833.7953 L1338.4464,1836.4623 L1339.4564,1840.5043 L1341.2054,1844.0013 L1341.5604,1849.3163 L1342.1884,1853.3983 L1343.0784,1856.0683 L1344.9094,1859.4233 L1346.8654,1861.8693 L1366.3754,1861.8693 L1371.9044,1864.6333 L1371.9044,1892.4703 L1373.5704,1896.4703 L1373.5704,1902.4243 L1376.9244,1906.1293 L1379.1394,1909.6113 L1381.9414,1912.4113 L1382.7564,1911.7073 L1385.9554,1908.7313 L1392.1224,1909.2913 L1397.6174,1910.0843 L1402.9224,1911.5093 L1407.4404,1913.8323 L1412.8344,1914.5353 L1417.4874,1914.5353 L1423.3444,1914.2903 L1427.9294,1913.6023 L1430.8984,1911.6003 L1434.2514,1909.6253 L1436.5044,1906.9213 L1438.3764,1903.7773 L1440.8764,1901.0273 L1443.1764,1898.2253 L1446.7014,1894.7583 L1449.8004,1892.8503 L1452.1054,1890.5723 L1454.6624,1888.7113 L1456.7904,1885.8713 L1460.9054,1882.5373 L1464.8954,1879.8773 L1469.4184,1878.9253 L1471.8484,1876.0083 L1476.4884,1874.3713 L1484.5644,1871.6783 L1489.8724,1874.0373 L1494.2354,1878.7033 L1496.8904,1882.6873 L1503.4244,1883.9933 L1508.7114,1882.4833 L1514.4834,1883.9263 L1519.9874,1889.1403 L1519.9874,1895.3153 L1523.5724,1900.4693 L1527.4724,1903.2853 L1532.6054,1903.2853 L1538.4644,1906.3433 L1544.3024,1907.2773 L1551.1304,1906.7893 L1556.8534,1906.5503 L1560.3384,1904.8073 L1564.4964,1904.5473 L1569.4874,1903.2853 L1580.1824,1903.2853 L1583.5514,1907.3133 L1585.6774,1911.2583 L1588.1474,1919.7713 L1597.8814,1923.9493 L1604.6284,1933.4143 L1612.7004,1938.7273 L1612.7004,1951.4193 C1618.6024,1949.9533 1626.8994,1951.0313 1631.1834,1955.7143 C1635.6914,1960.6433 1642.2954,1958.7943 1648.1954,1957.4693 C1653.5324,1956.2703 1654.2164,1952.0843 1654.8034,1947.5723 C1655.6324,1941.1883 1659.2864,1937.4863 1665.8884,1936.6623 C1668.8254,1936.2963 1671.6854,1935.2703 1674.5514,1934.4413 C1675.0844,1934.2873 1675.4774,1933.6513 1675.7864,1933.3723 C1675.4284,1930.9433 1675.0984,1928.7063 1674.8494,1927.0203 C1678.7664,1924.1833 1682.1204,1921.7523 1685.8834,1919.0263 C1695.3544,1921.1633 1704.9304,1923.6473 1715.5374,1922.6583 C1724.5014,1921.8223 1733.9334,1924.9013 1743.0094,1926.9203 C1746.6784,1927.7363 1749.3454,1927.6583 1752.0644,1925.0573 C1754.8424,1922.4013 1757.8664,1920.0033 1760.9164,1917.3763 C1758.9654,1915.7523 1757.4564,1914.8773 1756.4594,1913.6013 C1752.2194,1908.1813 1747.4694,1904.8003 1740.1284,1907.7523 C1739.1654,1908.1393 1737.3344,1906.3643 1734.6464,1904.9093 C1741.8494,1902.1653 1747.5144,1900.0073 1753.9454,1897.5563 C1749.3484,1892.5593 1745.8054,1888.7073 1741.6864,1884.2283 C1735.9274,1884.2283 1729.6124,1884.4393 1723.3174,1884.1693 C1717.0204,1883.8993 1710.5254,1885.5023 1704.2044,1882.4713 C1706.6864,1880.4333 1709.2584,1879.2183 1711.9364,1878.9013 C1719.5154,1878.0063 1727.1284,1877.1983 1734.7484,1876.9333 C1738.2604,1876.8113 1742.6684,1876.9163 1745.2084,1878.8443 C1754.9894,1886.2713 1765.9394,1885.1403 1776.8734,1884.2983 C1779.6934,1884.0813 1784.2544,1882.8933 1784.8214,1881.1263 C1787.1094,1874.0023 1789.3514,1866.4503 1789.1934,1859.1083 C1789.0984,1854.7223 1787.9154,1850.2983 1788.4074,1845.5763 C1788.7454,1842.3363 1787.9674,1837.4523 1785.7964,1835.8213 C1782.1604,1833.0903 1778.4184,1836.3423 1775.4934,1839.2393 C1775.0204,1839.7073 1774.5914,1840.2203 1774.1524,1840.7213 C1770.0004,1845.4693 1765.0134,1848.4443 1758.4684,1848.0383 C1752.9714,1847.6983 1748.9964,1850.7673 1745.1914,1854.0593 C1743.7004,1855.3483 1742.8024,1857.4013 1741.2064,1858.4633 C1740.1014,1859.1983 1737.9374,1859.3963 1736.8624,1858.7733 C1736.0754,1858.3153 1736.0824,1856.1303 1736.1174,1854.7243 C1736.1474,1853.5593 1736.7344,1852.4073 1737.0534,1851.3233 C1724.9324,1845.8893 1724.9324,1845.8893 1723.1494,1839.6753 C1730.7084,1837.9923 1738.2274,1836.2603 1745.7744,1834.6563 C1753.2894,1833.0593 1761.5874,1834.9213 1768.4504,1830.4433 C1768.1084,1828.9213 1768.0734,1828.2483 1767.8114,1827.6773 C1764.0884,1819.5453 1765.4184,1816.8783 1773.8864,1814.3763 C1776.6694,1813.5543 1779.3064,1811.9923 1781.7744,1810.4013 C1785.8994,1807.7423 1789.8354,1804.7893 1793.7094,1802.0603 C1795.1104,1797.4813 1796.5224,1792.8683 1798.0144,1787.9943 C1803.1294,1789.3433 1803.4694,1793.1003 1804.1874,1796.6443 C1805.1714,1801.4943 1808.2034,1804.0823 1813.0954,1804.6983 C1815.2324,1804.9683 1817.3324,1805.5323 1820.4204,1806.1603 C1817.6394,1810.3133 1813.3894,1814.0843 1817.1744,1817.8553 C1819.3144,1819.9883 1823.7044,1820.6573 1827.0714,1820.6313 C1845.3074,1820.4943 1857.3574,1808.5493 1869.5384,1797.2943 C1872.6854,1794.3853 1874.5274,1790.0653 1876.5334,1787.0503 C1871.2054,1785.2683 1866.4324,1784.1773 1862.1364,1782.1003 C1857.2784,1779.7513 1856.6714,1776.5303 1860.0234,1772.4773 C1862.3124,1769.7093 1864.9224,1766.4793 1868.0734,1765.3243 C1872.8134,1763.5873 1874.6954,1759.8563 1876.7724,1756.2173 C1879.4154,1751.5833 1877.1444,1748.4333 1871.7664,1748.8353 C1867.8214,1749.1293 1863.8964,1749.9263 1859.9554,1749.9813 C1856.3264,1750.0323 1852.3124,1748.2403 1849.1274,1749.2803 C1840.8824,1751.9723 1833.3184,1747.8923 1825.4044,1747.9833 C1823.8574,1748.0003 1822.2884,1746.1193 1819.9074,1744.5833 C1821.4044,1743.5333 1822.1404,1742.6463 1823.0254,1742.4553 C1831.9984,1740.5203 1840.9944,1738.6873 1849.9934,1736.8713 C1850.6134,1736.7453 1851.4714,1736.7583 1851.9444,1737.0933 C1859.9764,1742.7823 1868.4534,1740.1943 1877.1634,1738.4663 C1877.6344,1733.1593 1875.3584,1729.7203 1870.3004,1727.9253 C1866.2234,1726.4783 1862.2204,1724.8203 1858.1374,1723.3883 C1851.1674,1720.9453 1847.5494,1715.4923 1845.4984,1708.9173 C1844.9794,1707.2523 1846.1134,1705.0723 1846.4874,1703.1283 C1847.1284,1702.8553 1847.7694,1702.5823 1848.4104,1702.3083 C1852.2924,1712.9943 1861.7004,1715.8303 1870.5514,1719.4173 C1872.3904,1720.1623 1874.3814,1720.5263 1876.2944,1721.0933 C1880.8164,1722.4333 1884.1524,1725.2703 1884.7914,1729.9643 C1885.7224,1736.8063 1889.9194,1740.9363 1894.8374,1744.7593 C1897.7294,1742.2463 1900.4784,1740.2963 1902.6874,1737.8573 C1910.1894,1729.5773 1919.3014,1722.7963 1923.4764,1711.5593 C1926.9634,1702.1743 1934.2164,1695.7183 1944.1654,1692.6803 C1947.3214,1691.7173 1950.3144,1690.1233 1953.2534,1688.5733 C1958.5144,1685.7973 1961.6924,1681.8243 1962.8714,1675.5353 C1965.0744,1663.7883 1968.3094,1652.2363 1971.0534,1640.5883 C1971.5054,1638.6673 1971.7894,1636.6793 1971.8974,1634.7083 C1972.3344,1626.7513 1972.0654,1618.6983 1973.2354,1610.8563 C1974.2014,1604.3853 1975.2824,1596.9823 1979.0354,1592.0743 C1986.8874,1581.8033 1991.8554,1570.2943 1996.7124,1558.6713 C1998.8234,1553.6183 2000.1774,1547.8893 2000.2714,1542.4393 C2000.4064,1534.6363 2000.9054,1527.1913 2004.8704,1520.2763 C2008.9444,1513.1733 2009.0254,1506.0403 2006.1724,1498.2443" id="Fill-6" fill="#000000" sketch:type="MSShapeGroup" mask="url(#mask-4)"></path>
            </g>
            <path d="M1602.9177,1957.0468 C1598.4287,1953.7338 1594.3647,1950.4448 1588.2727,1949.9778 C1586.1287,1949.8128 1583.7817,1947.5418 1582.2257,1945.6948 C1576.2007,1938.5408 1568.8777,1936.4048 1560.9967,1940.9798 C1555.8677,1943.9568 1550.5447,1945.7728 1545.1107,1944.2878 C1539.7867,1942.8328 1537.3697,1948.8508 1533.5797,1947.6988 C1529.5587,1946.4758 1526.2987,1943.0548 1522.5627,1940.8138 C1521.5437,1940.2028 1519.8977,1940.6168 1518.7377,1940.1308 C1517.6887,1939.6908 1516.9087,1938.6638 1515.7987,1937.7148 C1526.2817,1933.8118 1527.4907,1934.0478 1533.8617,1940.9178 C1535.2717,1939.4368 1536.7117,1937.9238 1537.9777,1936.5938 C1549.8877,1940.3088 1550.0447,1940.5478 1560.3047,1934.4178 C1569.0537,1929.1898 1580.0827,1932.5258 1587.8987,1939.0128 C1594.2767,1944.3058 1601.3067,1946.8098 1608.8437,1950.7628 L1608.8437,1942.1188 L1602.3067,1937.3718 L1595.7197,1927.5338 L1584.8407,1923.4758 L1581.2057,1913.7878 L1579.2307,1910.3468 L1576.5137,1909.2748 L1573.3147,1908.2748 L1568.6337,1908.2748 L1563.9407,1909.4568 L1559.9897,1909.6928 L1556.5317,1911.3468 L1550.6037,1911.5828 L1543.6887,1912.0558 L1537.5137,1911.1108 L1531.8327,1908.2748 L1526.6457,1907.2748 L1522.2007,1905.2028 L1518.2487,1901.7688 L1514.2487,1894.0978 L1513.5557,1888.8448 L1508.6157,1887.6628 L1503.4297,1889.0808 L1496.0197,1887.6628 L1493.0557,1883.4098 L1489.1037,1879.3928 L1484.6587,1877.5028 L1477.2487,1879.8658 L1473.0497,1881.2838 L1470.5797,1884.1188 L1465.8877,1885.0638 L1462.1827,1887.4268 L1458.2307,1890.4988 L1456.2547,1893.0978 L1453.5377,1894.9878 L1451.3147,1897.1148 L1448.1047,1899.0048 L1444.8937,1902.0768 L1442.6707,1904.6758 L1440.2007,1907.2748 L1438.4717,1910.1108 L1436.0017,1912.9458 L1432.5437,1914.8908 L1429.3337,1916.9628 L1424.3937,1917.6718 L1418.4657,1917.9078 L1413.7727,1917.9078 L1408.0927,1917.1988 L1403.3997,1914.8908 L1398.4597,1913.6548 L1393.2727,1912.9458 L1387.8397,1912.4728 L1385.1227,1914.8908 L1382.8997,1916.7268 L1381.1707,1919.7978 L1381.1707,1922.8698 L1382.1707,1926.8318 L1384.3937,1928.4858 L1387.1227,1932.7938 L1388.3577,1935.3928 L1389.8277,1937.9918 L1387.0987,1943.1908 L1386.1107,1946.4988 L1386.1107,1948.6248 L1385.8637,1952.2778 L1384.8757,1955.9498 L1384.1347,1958.0768 L1384.1347,1961.1488 L1384.1347,1964.2198 L1384.1347,1967.7648 L1384.8757,1971.3088 L1387.3457,1974.1438 L1389.0747,1977.4518 L1391.2977,1980.2878 L1396.2367,1980.2878 L1400.9297,1982.1778 L1403.1527,1982.1778 L1403.8937,1984.5408 L1406.3637,1985.9588 L1408.3397,1989.2668 L1412.0437,1991.6298 L1414.0197,1993.7558 L1416.9837,1996.5918 L1418.3837,1998.0878 L1419.0417,1999.5058 L1420.6887,2000.9238 L1420.6887,2002.6558 L1422.3357,2004.0738 L1423.9817,2005.6488 L1424.9697,2007.3818 L1425.9577,2009.4298 L1425.9577,2011.3198 L1426.2877,2013.2108 L1426.4517,2014.7858 L1426.6167,2016.8338 L1427.4397,2019.0388 L1428.7567,2020.6138 L1431.0627,2022.9768 L1432.7087,2024.5518 L1435.1787,2025.8118 L1436.6607,2026.7578 L1440.6127,2027.3878 L1443.4117,2028.3328 L1448.1867,2027.3878 L1450.3267,2025.9698 L1451.1507,2024.0798 L1451.9737,2021.4018 L1453.6207,2019.8268 L1455.1017,2017.9358 L1457.4077,2016.8338 L1460.2067,2015.8878 L1462.0177,2015.8878 L1465.9697,2016.9908 L1471.2747,2017.9908 L1472.7567,2018.3058 L1472.7567,2019.7238 L1472.5917,2021.4568 L1472.4277,2023.8188 L1471.6047,2026.4968 L1471.6047,2028.7028 L1472.2627,2030.5928 L1472.9217,2032.9558 L1472.7327,2033.2158 L1473.3797,2034.3188 L1474.2027,2036.0518 L1476.3427,2037.1538 L1478.4837,2039.6748 L1480.6247,2041.0918 L1483.0947,2042.5098 L1485.5637,2043.2978 L1489.0217,2044.7148 L1491.9857,2044.7148 L1493.9617,2045.5028 L1497.7487,2045.5028 L1501.0417,2043.9278 L1502.5237,2042.0378 L1503.0177,2040.3048 L1504.9937,2037.3118 L1505.9817,2035.7368 L1508.1217,2032.9008 L1510.4277,2031.6408 L1513.7207,2030.5378 L1516.3547,2030.3808 L1519.1547,2030.3808 L1522.6117,2031.1678 L1524.4227,2032.2708 L1526.2347,2034.3188 L1527.2227,2035.8938 L1528.7037,2037.1538 L1530.8447,2038.7288 L1532.8207,2041.4068 L1535.2907,2042.1948 L1537.2667,2043.6128 L1539.5717,2044.2428 L1541.8767,2043.6128 L1544.3467,2042.3528 L1546.9817,2039.5168 L1548.7927,2037.4688 L1550.6037,2034.7908 L1551.2627,2033.3738 L1552.5797,2031.6408 L1554.2267,2030.2228 L1555.7087,2028.3328 L1558.1777,2026.1278 L1559.1657,2023.9218 L1560.8127,2021.7168 L1562.9537,2019.1958 L1563.7767,2017.3058 L1565.9167,2013.8408 L1566.7407,2011.9498 L1568.5517,2008.7998 L1569.3747,2006.2788 L1569.5397,2003.2858 L1570.3627,1999.3478 L1572.1737,1995.4098 L1574.1497,1991.1568 L1576.4547,1986.9038 L1577.9367,1985.0138 L1581.0657,1982.8078 L1585.0167,1982.3358 L1589.6277,1976.1918 L1592.5917,1974.7738 L1595.0617,1973.0418 L1596.2137,1969.1038 L1598.8487,1966.4258 L1602.6357,1966.1108 L1606.5997,1962.2748 L1608.9047,1963.5348 L1613.8447,1966.4258 L1613.8447,1963.4328 L1613.8447,1961.9848 C1610.0407,1961.9678 1605.9087,1959.2538 1602.9177,1957.0468" id="Fill-9" fill="#000000" sketch:type="MSShapeGroup"></path>
        </g>
    </g>
</svg>