<svg xmlns="http://www.w3.org/2000/svg" width="13" height="13" fill="#fff" viewBox="1824 3791 16.74 21.42"><title>Parking Icon</title><path d="M1824 3791h9.45c1.52 0 2.76.22 3.72.66.96.44 1.7.99 2.22 1.65.52.66.875 1.38 1.065 2.16.19.78.285 1.5.285 2.16 0 .66-.095 1.375-.285 2.145-.19.77-.545 1.485-1.065 2.145-.52.66-1.26 1.205-2.22 1.635-.96.43-2.2.645-3.72.645h-5.7v8.22H1824V3791zm3.75 10.14h5.49c.42 0 .85-.06 1.29-.18.44-.12.845-.316 1.215-.585.37-.27.67-.63.9-1.08.23-.45.345-1.015.345-1.695 0-.7-.1-1.28-.3-1.74-.2-.46-.47-.825-.81-1.095-.34-.27-.73-.455-1.17-.555-.44-.1-.91-.15-1.41-.15h-5.55v7.08z"/></svg>