<svg width="79" height="110" viewBox="0 0 79 110" xmlns="http://www.w3.org/2000/svg"><title>Imported Layers</title><g fill="#000" fill-rule="evenodd"><path d="M70 70.065s0 .002-.003.002C69.99 80.97 69.98 92.092 69.97 103h.002c.01-10.908.02-22.03.028-32.935M23.283 67c-2.092 0-4.188.205-6.283.688 2.095-.483 4.19-.688 6.282-.688 5.71 0 11.407 1.52 17.103 3.04 5.697 1.52 11.395 3.04 17.103 3.04-5.708 0-11.406-1.52-17.102-3.04S28.993 67 23.283 67M26.99 95.582c-.11.035-.226.054-.347.054h-.002l-.145-.016.144.017c.12 0 .238-.02.35-.055M18.85 95.345c-.7.057-1.387.136-2.055.24l-1.098.17 1.096-.17c.67-.102 1.357-.183 2.056-.24m4.935-.016c.883.065 1.758.165 2.706.297-.948-.132-1.823-.232-2.706-.298M21.427 93c-1.71 0-3.384.128-4.977.373l-2.56.397v.006c-.508.11-.89.56-.89 1.098 0 .617.507 1.123 1.122 1.126l.115-.017-.113.016C13.507 95.995 13 95.49 13 94.872c0-.537.384-.987.89-1.097v-.005l2.562-.397C18.044 93.13 19.72 93 21.428 93H21.47c1.337 0 2.66.096 3.973.238C24.13 93.095 22.807 93 21.47 93H21.427M54.887 77.903h0m6.28-.107c-1.21.135-2.458.204-3.73.204h-.046c-.837 0-1.67-.035-2.5-.096.83.06 1.663.096 2.5.096h.06c1.266 0 2.51-.07 3.716-.204m.023-.002h-.003.002m3.767-.554l-1.99.306 1.99-.306m.386-.105c-.12.053-.247.087-.385.098.138-.01.266-.045.385-.098M66 76.12v.015-.016m0-.036v.035-.036m-.003-.056l.002.035c0-.012-.003-.024-.003-.035m-13.865-.67c-.624 0-1.13.504-1.132 1.122-.004.603.478 1.096 1.083 1.12v.007-.007c-.603-.024-1.086-.516-1.082-1.12.003-.616.51-1.122 1.132-1.122M64.892 75h.02-.02m-.02 0l-.333.055-2.492.383c-.338.052-.68.1-1.025.14.346-.04.687-.088 1.025-.14l2.493-.383.332-.055M44.495 94.504v.02l-.004.02.004-.017v-.023m-10.493-.49v.002l.142.85L35.79 95l-1.648-.134-.14-.85m.756-.82c-.248.326-.495.593-.74.807.246-.212.492-.48.74-.807m5.476-2.007l4.335.35h-.003l-4.333-.35m-4.257-.67c-.14.548-.318 1.05-.528 1.5-.208.454-.44.846-.692 1.176.255-.33.486-.724.693-1.177.21-.45.386-.952.527-1.5m5.443-2.486l1.43.115-1.43-.116m-1.33-.107v.003-.003m-3.823-.302c.014.415.01.79-.012 1.13-.043.63-.135 1.216-.278 1.765.143-.55.235-1.136.28-1.765.024-.338.026-.715.01-1.13m-1.574-3.873c-.088.408-.152.745-.192 1.015-.04.266-.072.524-.087.778-.02.267-.03.548-.026.837.002.29.018.652.047 1.086l.98.08-.98-.08c-.028-.434-.045-.796-.046-1.086-.003-.29.006-.57.025-.837.017-.252.046-.51.088-.78.042-.267.105-.603.193-1.013m8.724-3.345c.01.006.024.012.036.02.384.21.74.43 1.064.656v-.002c-.324-.224-.678-.443-1.064-.654l-.036-.02m-2.587-.052c-.088.062-.167.13-.24.206.073-.075.152-.144.24-.206m1.003-.32c-.16 0-.305.015-.44.05.135-.035.283-.05.44-.05.065 0 .133.002.203.008l.12.01-.12-.01c-.068-.006-.138-.01-.203-.01m2.25-3.556c.31.117.615.254.917.412-.302-.158-.606-.295-.917-.412m-3.476-.425c-.407.058-.786.162-1.138.313-.7.307-1.293.727-1.776 1.267-.48.54-.854 1.164-1.118 1.874-.264.71-.423 1.44-.477 2.196-.025.36-.043.727-.055 1.105-.01.38-.01.73-.006 1.055l-.623-.05.624.05c-.006-.325-.005-.676.008-1.055.01-.378.03-.746.054-1.107.05-.753.21-1.485.474-2.195.264-.71.637-1.333 1.118-1.873.483-.538 1.076-.96 1.777-1.267.35-.15.73-.255 1.137-.312m.016 0h-.013.013m.542-.047h-.018.018m.21-.003c-.065 0-.132 0-.197.003.064-.003.13-.003.196-.003.176 0 .357.008.542.023.696.055 1.313.17 1.853.342-.54-.173-1.158-.287-1.854-.344-.185-.014-.364-.02-.54-.02M47.97 33.014c-.135 1.32-.738 2.448-1.807 3.383C44.94 37.467 43.217 38 41 38h.002c2.217 0 3.94-.534 5.163-1.603 1.067-.934 1.67-2.062 1.805-3.383M43.404 27c1.045.232 1.937.62 2.674 1.164C47.358 29.11 48 30.496 48 32.32v.105-.105c0-1.824-.64-3.21-1.922-4.156-.737-.545-1.627-.932-2.674-1.164M27 20v38h8-8V20"/><path d="M22.96 103.957c-2.903 0-5.557.478-8.053 1.456 2.496-.976 5.15-1.456 8.052-1.456h.048c5.053.005 10.254 1.394 15.76 2.867 5.838 1.56 11.877 3.172 18.134 3.176h.047c5.3 0 10.067-1.156 14.555-3.53.57-.302 1.058-.713 1.446-1.2-.387.487-.875.898-1.445 1.198-4.49 2.377-9.258 3.532-14.565 3.532h-.038c-6.255-.004-12.296-1.615-18.134-3.176-5.506-1.473-10.707-2.864-15.76-2.867h-.05m50.95-35.273c.06.3.093.607.092.92 0-.313-.03-.62-.09-.92m-16.946-.727h-.022.022m-8.875-1.125c3.013.665 5.948 1.12 8.834 1.125-2.886-.004-5.82-.462-8.835-1.125m21.293-1.87l-.166.01.168-.01c.376 0 .753.046 1.12.14-.367-.094-.744-.14-1.122-.14M23.03 61.91c-3.112 0-6.033.397-8.826 1.2 2.79-.803 5.71-1.2 8.82-1.2h.02c2.707.004 5.374.306 8.002.775-2.628-.47-5.295-.772-8.003-.775h-.013M0 39.51c.028 9.7 3.568 18.588 9.41 25.444-.325.158-.647.32-.966.49-1.52.804-2.464 2.377-2.47 4.096l-.027 32.772c-.002 1.623.846 3.13 2.23 3.97.734.44 1.556.67 2.386.67.618 0 1.233-.125 1.81-.37-.577.245-1.192.37-1.81.37-.828 0-1.65-.228-2.384-.67-1.385-.84-2.235-2.347-2.233-3.97l.028-32.772c.006-1.718.95-3.292 2.47-4.096.318-.17.64-.332.965-.488C3.57 58.098.028 49.21 0 39.51m.045-2.032l-.013.303c.005-.102.01-.2.013-.302m.044-.767c0 .017-.002.033-.004.048.002-.015.003-.03.003-.047m39.17-31.9c19.002 0 34.46 15.516 34.46 34.585 0 11.812-5.933 22.256-14.968 28.498-.17.01-.34.022-.513.03.17-.007.342-.02.513-.03 9.034-6.242 14.97-16.687 14.97-28.498 0-19.07-15.46-34.584-34.464-34.584m0-4.81C18.6 0 1.614 16.095.107 36.446 1.615 16.096 18.6 0 39.258 0"/><path d="M35.06 39.163V27.546h6.23c.862 0 1.644.088 2.35.265.956.24 1.77.64 2.44 1.202 1.17.977 1.754 2.407 1.754 4.29v.107c0 .206-.008.408-.027.608-.123 1.363-.674 2.527-1.647 3.49-1.117 1.103-2.688 1.655-4.71 1.655h-6.39M41.97 20H27v38h8.06V46.6h6.127c2.057 0 3.985-.28 5.783-.84 1.796-.56 3.367-1.403 4.71-2.525 1.344-1.12 2.4-2.516 3.17-4.18.766-1.664 1.15-3.6 1.15-5.81v-.108c0-1.953-.323-3.735-.968-5.347-.646-1.61-1.57-2.994-2.775-4.152-1.204-1.158-2.67-2.053-4.397-2.688-1.727-.632-3.69-.95-5.89-.95"/><path d="M16.88 67.232c2.093-.48 4.186-.685 6.276-.685 5.702 0 11.392 1.513 17.08 3.025 5.69 1.51 11.38 3.024 17.08 3.024 4.157 0 8.318-.805 12.492-3 0 .003 0 0 .003 0l-.027 32.77v.003c-4.174 2.19-8.335 2.994-12.493 2.994-5.7 0-11.39-1.51-17.08-3.023-5.69-1.51-11.38-3.02-17.082-3.023-4.158 0-8.32.805-12.496 3 .012-10.856.022-21.922.03-32.773 2.076-1.09 4.148-1.836 6.22-2.312M39.5 4.812c19.12 0 34.675 15.514 34.675 34.583 0 11.81-5.972 22.256-15.06 28.498-.173.01-.345.023-.52.03-.422.022-.85.034-1.282.034h-.039c-2.904-.004-5.858-.46-8.89-1.125-2.27-.497-4.583-1.11-6.952-1.737-3.332-.89-6.73-1.79-10.196-2.408-2.644-.47-5.327-.77-8.05-.775h-.02c-3.13 0-6.067.397-8.875 1.2h-.002C8.427 56.918 4.826 48.57 4.826 39.396 4.825 20.325 20.38 4.81 39.5 4.81m0-4.81C18.717 0 1.628 16.095.11 36.446l-.02.265c0 .017 0 .033-.002.048-.016.24-.03.48-.04.72l-.014.303C.012 38.317 0 38.855 0 39.396v.115c.03 9.7 3.593 18.588 9.47 25.446-.326.156-.65.318-.972.488-1.528.804-2.48 2.378-2.485 4.096l-.028 32.772c-.002 1.623.853 3.13 2.246 3.97.74.442 1.566.67 2.4.67.62 0 1.24-.125 1.82-.37.12-.05.235-.105.35-.165.72-.38 1.453-.714 2.2-1.004 2.51-.978 5.18-1.456 8.1-1.456h.05c5.084.003 10.318 1.394 15.858 2.867 5.873 1.56 11.952 3.172 18.246 3.176h.038c5.34 0 10.135-1.155 14.654-3.532.573-.3 1.064-.71 1.455-1.197.653-.808 1.025-1.828 1.027-2.898l.03-32.77c0-.31-.032-.62-.092-.918-.254-1.26-1.027-2.373-2.154-3.053-.398-.24-.827-.418-1.27-.53-.37-.092-.748-.14-1.128-.14l-.17.012-.135.007C75.422 58.09 79 49.15 79 39.394 79 17.672 61.282 0 39.5 0"/><path d="M21.563 93c-1.736 0-3.44.128-5.057.372l-2.603.4v.003c-.515.11-.903.56-.903 1.098 0 .62.513 1.124 1.14 1.127l.116-.016.163-.025 1.32-.203 1.117-.17c.68-.105 1.378-.184 2.088-.24.837-.068 1.693-.102 2.56-.102h.08c.832 0 1.606.03 2.375.085.898.065 1.786.166 2.75.297v-.006l.15.017h.002c.123 0 .24-.02.35-.054l.01-.003h.003c.45-.152.775-.572.775-1.067.004-.578-.45-1.05-1.02-1.113l-.004-.004c-.443-.057-.887-.11-1.333-.16-1.335-.14-2.68-.236-4.037-.236h-.043M64.872 75l-.332.055-2.492.383c-.34.052-.68.1-1.025.14-1.165.134-2.37.203-3.596.203h-.035c-1.654 0-3.3-.152-4.94-.37l-.32-.052c-.624 0-1.13.506-1.132 1.122-.004.604.48 1.096 1.082 1.12v.007l.002.004c.93.123 1.863.226 2.802.293h.003c.83.062 1.662.096 2.5.097h.047c1.27 0 2.518-.07 3.73-.204h.02v-.002c.406-.045.805-.097 1.2-.158l.58-.09 1.99-.306v-.007c.138-.01.267-.045.386-.098.382-.176.65-.554.657-1v-.052-.02c0-.013-.003-.025-.003-.036-.047-.563-.51-1.008-1.086-1.028h-.038M41.58 76c-.067 0-.135 0-.2.003h-.034c-.183.007-.363.022-.538.045h-.013c-.42.056-.81.158-1.17.303-.722.296-1.33.704-1.828 1.223-.494.522-.878 1.123-1.15 1.807-.27.686-.434 1.392-.487 2.12-.026.347-.046.702-.056 1.068-.013.365-.014.704-.007 1.02l-.64-.05-.746-.057c-.09.397-.154.72-.197.98-.042.26-.072.508-.09.752-.02.258-.028.527-.025.807 0 .28.018.628.048 1.047l1.007.077.875.066c.002.003.002.006.002.01.016.4.014.763-.012 1.09-.045.606-.14 1.172-.287 1.702-.143.53-.325 1.013-.54 1.447-.213.437-.45.816-.712 1.135-.255.315-.508.574-.762.78l-.016.01.144.822 1.695.13 8.727.663c.107-.42.18-.786.22-1.103 0-.006 0-.012.002-.02v-.02c.037-.31.067-.602.087-.872.02-.243.033-.53.042-.86.007-.328-.008-.705-.054-1.127l-4.457-.34-.79-.06c.197-.42.344-.87.442-1.35.097-.48.163-.946.195-1.398l.013-.17-.01-.167v-.003l1.368.103 1.47.112c.09-.393.157-.718.197-.977.043-.26.073-.51.092-.75.018-.28.03-.553.026-.82-.003-.272-.02-.62-.05-1.038l-3.29-.25c-.016-.245-.024-.53-.032-.854-.004-.32.004-.647.03-.977.02-.262.07-.52.16-.787.09-.262.218-.5.396-.714.046-.056.095-.11.148-.16.076-.072.157-.138.247-.198.084-.056.174-.11.272-.155.095-.045.198-.08.308-.106.14-.032.29-.048.452-.048.068 0 .14.003.21.01.042 0 .082.004.122.01.505.048.937.163 1.298.34.01.007.024.012.037.02.395.203.76.414 1.093.632.356-.69.625-1.347.81-1.977.182-.63.308-1.198.377-1.698-.227-.136-.458-.26-.69-.373-.31-.153-.626-.284-.943-.398l-.123-.044-.2-.064c-.556-.165-1.19-.277-1.906-.33-.19-.015-.376-.022-.558-.022"/></g></svg>