<?xml version="1.0" encoding="UTF-8" standalone="no"?>
<svg width="88px" height="121px" viewBox="0 0 88 121" version="1.1" xmlns="http://www.w3.org/2000/svg" xmlns:xlink="http://www.w3.org/1999/xlink" xmlns:sketch="http://www.bohemiancoding.com/sketch/ns">
    <!-- Generator: Sketch 3.4.3 (16044) - http://www.bohemiancoding.com/sketch -->
    <title>Fill 90</title>
    <desc>Created with Sketch.</desc>
    <defs></defs>
    <g id="Stories" stroke="none" stroke-width="1" fill="none" fill-rule="evenodd" sketch:type="MSPage">
        <path d="M42.2416759,61.8524436 C59.1840725,61.8524436 72.9692167,48.07035 72.9692167,31.1310038 C72.9692167,14.1977586 59.1840725,0.418715401 42.2416759,0.418715401 C25.3114811,0.418715401 11.5354885,14.1977586 11.5354885,31.1310038 C11.5354885,48.07035 25.3114811,61.8524436 42.2416759,61.8524436 L42.2416759,61.8524436 Z M42.2416759,4.9944437 C56.661321,4.9944437 68.3934884,16.7205101 68.3934884,31.1310038 C68.3934884,45.5475984 56.661321,57.2767153 42.2416759,57.2767153 C27.8342327,57.2767153 16.1112168,45.5475984 16.1112168,31.1310038 C16.1112168,16.7205101 27.8342327,4.9944437 42.2416759,4.9944437 L42.2416759,4.9944437 Z M74.0033313,77.7058169 C66.0141096,64.4087505 49.2547421,66.0804166 48.7910683,66.1475272 L35.1767514,66.1475272 C34.6032601,66.1475272 21.0774072,65.781469 13.1491953,77.171982 C8.77174857,83.4620831 2.32302215,107.588373 0.056511395,117.627521 C-0.221082789,118.859917 0.550690052,120.086212 1.78613669,120.360756 C1.9539134,120.400412 2.12474059,120.418715 2.28946681,120.418715 C3.33578335,120.418715 4.28143386,119.698801 4.51937173,118.634181 C6.89875045,108.103905 13.1766497,85.1429007 16.904343,79.7892986 C23.3805238,70.4822672 34.9205106,70.7110536 35.0974387,70.7232555 L49.0381576,70.7080031 C49.1906819,70.6958012 63.6682863,69.2376691 70.1414166,80.1645083 C70.1963253,80.2529724 70.2542845,80.3383859 70.3183447,80.4207491 C74.2931274,85.4418482 80.9279334,107.972734 83.3713723,118.640282 C83.652017,119.869628 84.8752617,120.641401 86.1107084,120.360756 C87.3431045,120.080112 88.1148774,118.850766 87.8311822,117.62142 C85.9124268,109.241736 79.1006926,84.3558754 74.0033313,77.7058169 L74.0033313,77.7058169 Z" id="Fill-90" fill-opacity="0.2" fill="#59AC00" sketch:type="MSShapeGroup"></path>
    </g>
</svg>