<svg xmlns="http://www.w3.org/2000/svg" width="48" height="48" viewBox="-2.5 -5 48 48"><path d="M15.773 28.882l-7.605 7.53c-.294.29-.296.765-.005 1.06.147.148.34.222.533.222.19 0 .382-.072.528-.217l7.604-7.528c.295-.295.297-.77.005-1.065-.292-.294-.766-.295-1.06-.005zm10.922 0c-.294-.29-.77-.29-1.06.005-.292.295-.29.77.005 1.06l7.6 7.53c.147.145.337.217.528.217.193 0 .386-.074.533-.223.294-.29.29-.765-.002-1.06l-7.6-7.526zm-16.38-10.235c.19 0 .383-.073.53-.22l7.01-7.012 5.216 5.216c.144.14.334.22.534.22.198 0 .39-.08.53-.22l8.55-8.546c.292-.293.292-.768 0-1.06-.294-.294-.768-.294-1.06 0L23.6 15.04l-5.215-5.216c-.14-.14-.332-.22-.53-.22-.2 0-.39.08-.53.22l-7.543 7.543c-.293.293-.293.767 0 1.06.146.147.338.22.53.22zm31.398 7.102h-3.328V1.5h3.328c.414 0 .75-.336.75-.75s-.336-.75-.75-.75H.75C.336 0 0 .336 0 .75s.336.75.75.75h3.33v24.25H.75c-.414 0-.75.335-.75.75s.336.75.75.75h40.963c.414 0 .75-.337.75-.75s-.336-.75-.75-.75zM5.58 1.5h31.305v24.25H5.58V1.5z"/></svg>