<?xml version="1.0" encoding="UTF-8" standalone="no"?>
<svg width="50px" height="52px" viewBox="0 0 50 52" version="1.1" xmlns="http://www.w3.org/2000/svg" xmlns:xlink="http://www.w3.org/1999/xlink" xmlns:sketch="http://www.bohemiancoding.com/sketch/ns">
    <!-- Generator: Sketch 3.3.3 (12081) - http://www.bohemiancoding.com/sketch -->
    <title>recycle-icon</title>
    <desc>Created with Sketch.</desc>
    <defs></defs>
    <g id="Page-1" stroke="none" stroke-width="1" fill="none" fill-rule="evenodd" sketch:type="MSPage">
        <g id="recycle-icon" sketch:type="MSLayerGroup" transform="translate(0.000000, -1.000000)" fill="#FFFFFF">
            <g id="Welcome" sketch:type="MSShapeGroup">
                <g id="Start-Here">
                    <g id="recycle-icon">
                        <path d="M36.5440232,19.0387969 L38.6627574,10.7800394 C38.7396849,10.4852133 38.6364531,10.1717339 38.4051741,9.98623701 C38.1724061,9.80022195 37.8562587,9.7789779 37.6031421,9.93183149 L34.7553331,11.6489732 L31.4315658,5.63794081 C29.7778712,2.6471918 27.4283544,1 24.8157948,1 C22.2022427,1 19.8527258,2.6471918 18.2000239,5.63794081 L10.5196746,19.5253377 C10.3201592,19.8870049 10.4372876,20.3471201 10.7832135,20.5559336 L13.8667683,22.4150479 C13.9774447,22.4813708 14.1015215,22.5160867 14.2275834,22.5160867 C14.2906144,22.5150504 14.3536454,22.5077963 14.4156837,22.4896612 C14.6008062,22.4388827 14.7576392,22.3114183 14.8539227,22.138357 L22.5337757,8.25199638 C23.2345611,6.98149801 24.0877126,6.2244841 24.8148022,6.2244841 C25.5428844,6.2244841 26.3965323,6.98149801 27.0983103,8.25096008 L30.4215813,14.2599199 L27.573276,15.9775798 C27.3206558,16.1293971 27.1802009,16.426814 27.2189128,16.7294123 C27.2566322,17.0309743 27.4660737,17.2807215 27.747976,17.3599981 L35.6586117,19.571971 C36.0437459,19.6781913 36.4402951,19.4413978 36.5440232,19.0387969 L36.5440232,19.0387969 Z" id="Fill-757"></path>
                        <path d="M40.6137863,22.1038914 C40.5175028,21.9297937 40.3596772,21.8044019 40.1745547,21.7515509 C39.9894322,21.6997361 39.7923984,21.7271979 39.6266319,21.8272004 L36.5435734,23.6852784 C36.3773106,23.7847628 36.256708,23.9505701 36.2070773,24.1438392 C36.1574466,24.336072 36.1827583,24.542813 36.2795381,24.7158743 L43.9603837,38.6022349 C44.6611691,39.8711789 44.8636623,41.0219851 44.499373,41.6795146 C44.1365727,42.336526 43.0809279,42.729282 41.677372,42.7303183 L35.0303337,42.7303183 L35.0293411,39.296553 C35.0293411,38.9918821 34.8536484,38.7167456 34.5831611,38.599126 C34.3141628,38.4830609 34.0024821,38.5478294 33.7960184,38.7633789 L28.0056058,44.8096454 C27.8696177,44.9505816 27.7931864,45.1428144 27.7931864,45.3423013 C27.7931864,45.5428245 27.8696177,45.7345392 28.0056058,45.8765117 L33.7960184,51.92226 C33.9349843,52.0673414 34.1191142,52.142991 34.3082071,52.142991 C34.4000239,52.142991 34.4953148,52.1248558 34.5831611,52.0854766 C34.8536484,51.9688933 35.0303337,51.6937568 35.0303337,51.3890859 L35.0303337,47.9542843 L41.6813424,47.9542843 C44.987739,47.9542843 47.5278377,46.6537333 48.8331249,44.2920157 C50.1399009,41.9287437 49.9478302,38.981001 48.2941356,35.990252 L40.6137863,22.1038914 L40.6137863,22.1038914 Z" id="Fill-758"></path>
                        <path d="M23.3730265,42.9207545 L8.01332056,42.9207545 C6.60976464,42.9207545 5.55511248,42.5290348 5.19181583,41.8720234 C4.82703026,41.2134576 5.02902716,40.0631695 5.73080512,38.7947437 L9.05457244,32.7847476 L11.9023814,34.500853 C12.0150431,34.5687304 12.1391198,34.60241 12.2641892,34.60241 C12.673146,34.60241 12.9957455,34.2640595 12.9967381,33.8474687 C12.9957455,33.7371032 12.9734117,33.6324373 12.9327146,33.53658 L10.8427662,25.3938876 C10.7385418,24.9923231 10.3429852,24.7544932 9.957851,24.8596772 L2.04622269,27.0726864 C1.76432037,27.151963 1.55487886,27.400674 1.51666323,27.7032723 C1.47795129,28.0058706 1.61890245,28.3022511 1.87251528,28.4551047 L4.72082058,30.1717283 L1.39655696,36.1817244 C-0.257137634,39.1735097 -0.448712098,42.1212525 0.856575051,44.4829701 C2.16335112,46.8452058 4.70493876,48.1457568 8.01232795,48.1467931 L23.3730265,48.1457568 C23.7720573,48.1457568 24.0961457,47.8084426 24.0961457,47.3918517 L24.0961457,43.6756958 C24.0961457,43.4762089 24.0192181,43.2839761 23.8837263,43.1425218 C23.7487308,43.0005493 23.564601,42.9207545 23.3730265,42.9207545" id="Fill-759"></path>
                    </g>
                </g>
            </g>
        </g>
    </g>
</svg>