<svg viewBox="0 0 50 36" xmlns="http://www.w3.org/2000/svg"><title>Reverse Icon</title><path d="M24.375 11.285V.95c0-.343-.205-.65-.52-.78C23.787.14 23.418 0 22.84 0c-.568 0-1.47.14-2.548.812L1.812 13.018C.61 13.814 0 14.868 0 16.152c0 1.368.676 2.633 1.837 3.4l18.41 11.36c.976.737 2.066.893 2.807.893.378 0 .615-.04.615-.04.4-.072.703-.425.703-.836V20.86c20.798.356 23.837 13.883 23.957 14.466.083.395.43.674.824.674.028 0 .06 0 .087-.005.43-.042.76-.405.76-.84 0-21.24-18.615-23.703-25.625-23.87zM45.42 27c-3.386-3.575-9.93-7.837-21.887-7.837-.465 0-.843.38-.843.845v10.086c-.414-.046-.97-.185-1.49-.577L2.74 18.127c-.66-.44-1.055-1.176-1.055-1.975 0-.71.325-1.24 1.055-1.724L21.203 2.236c.625-.39 1.135-.513 1.487-.54V12.12c0 .466.378.845.843.845 17.77 0 22.948 9.798 24.323 17.17-.625-.994-1.423-2.064-2.437-3.135z" fill-rule="evenodd"/></svg>