<svg xmlns="http://www.w3.org/2000/svg" width="48" height="48" viewBox="7 -4 48 48"><path d="M50.793 38.802L36.59 24.69c2.462-2.627 3.982-6.135 3.982-9.997C40.572 6.59 33.938 0 25.784 0 17.632 0 11 6.59 11 14.694c0 8.1 6.632 14.693 14.784 14.693 3.76 0 7.184-1.412 9.795-3.716L49.79 39.8c.138.136.32.204.5.204s.362-.067.5-.204c.275-.274.275-.72 0-.993zm-25.01-10.82c-7.37 0-13.37-5.962-13.37-13.29 0-7.327 6-13.29 13.37-13.29 7.375 0 13.376 5.963 13.376 13.29 0 7.328-6.004 13.29-13.378 13.29z"/></svg>