<?xml version="1.0" encoding="UTF-8" standalone="no"?>
<svg width="32px" height="32px" viewBox="0 0 32 32" version="1.1" xmlns="http://www.w3.org/2000/svg" xmlns:xlink="http://www.w3.org/1999/xlink" xmlns:sketch="http://www.bohemiancoding.com/sketch/ns">
    <!-- Generator: Sketch 3.3.3 (12081) - http://www.bohemiancoding.com/sketch -->
    <title>Fill 140</title>
    <desc>Created with Sketch.</desc>
    <defs></defs>
    <g id="UI" stroke="none" stroke-width="1" fill="none" fill-rule="evenodd" sketch:type="MSPage">
        <g id="Search-Tapped-Copy" sketch:type="MSArtboardGroup" transform="translate(-98.000000, -490.000000)" stroke="#BBBBBB" fill="#BBBBBB">
            <path d="M128.844743,520.101418 L118.192567,509.517106 C120.0387,507.547948 121.17902,504.916788 121.17902,502.020265 C121.17902,495.943605 116.203719,491 110.088097,491 C103.973888,491 99,495.943605 99,502.020265 C99,508.095521 103.973888,513.039828 110.088097,513.039828 C112.907105,513.039828 115.476005,511.980484 117.434473,510.25282 L128.095833,520.846258 C128.198985,520.948753 128.334636,521 128.470288,521 C128.605939,521 128.741591,520.948753 128.844743,520.846258 C129.051752,520.640567 129.051752,520.307109 128.844743,520.101418 L128.844743,520.101418 Z M110.088097,511.986802 C104.558885,511.986802 100.059777,507.514953 100.059777,502.020265 C100.059777,496.524173 104.558885,492.053026 110.088097,492.053026 C115.618722,492.053026 120.119243,496.524173 120.119243,502.020265 C120.119243,507.514953 115.618722,511.986802 110.088097,511.986802 L110.088097,511.986802 Z" id="Fill-140" sketch:type="MSShapeGroup"></path>
        </g>
    </g>
</svg>