<?xml version="1.0" encoding="UTF-8" standalone="no"?>
<svg width="35px" height="35px" viewBox="0 0 35 35" version="1.1" xmlns="http://www.w3.org/2000/svg" xmlns:xlink="http://www.w3.org/1999/xlink" xmlns:sketch="http://www.bohemiancoding.com/sketch/ns">
    <!-- Generator: Sketch 3.3.3 (12081) - http://www.bohemiancoding.com/sketch -->
    <title>Fill 3115 + Fill 3116</title>
    <desc>Created with Sketch.</desc>
    <defs></defs>
    <g id="UI" stroke="none" stroke-width="1" fill="none" fill-rule="evenodd" sketch:type="MSPage">
        <g id="4.1-Gallery-view---My-collection---My-canvas---Edit" sketch:type="MSArtboardGroup" transform="translate(-531.000000, -1319.000000)" fill="#CBCBCB">
            <g id="Fill-3115-+-Fill-3116" sketch:type="MSLayerGroup" transform="translate(531.000000, 1319.000000)">
                <path d="M17.3156098,21.4325203 C17.2177236,21.4325203 17.1209756,21.4108943 17.0333333,21.3539837 L7.07398374,15.6629268 C6.80081301,15.5149593 6.70634146,15.1609756 6.86227642,14.8878049 C7.01821138,14.6146341 7.36650407,14.5247154 7.63853659,14.6829268 L17.3156098,20.203252 L26.9926829,14.6829268 C27.2658537,14.5247154 27.6130081,14.6146341 27.7689431,14.8878049 C27.924878,15.1609756 27.8304065,15.5149593 27.5572358,15.6629268 L17.5978862,21.3539837 C17.5102439,21.4108943 17.4123577,21.4325203 17.3156098,21.4325203" id="Fill-3115" sketch:type="MSShapeGroup"></path>
                <path d="M17.3156098,0.227642276 C7.88780488,0.227642276 0.242439024,7.87642276 0.242439024,17.300813 C0.242439024,26.7365854 7.88780488,34.3739837 17.3156098,34.3739837 C26.7445528,34.3739837 34.3887805,26.7365854 34.3887805,17.300813 C34.3887805,7.87642276 26.7445528,0.227642276 17.3156098,0.227642276 L17.3156098,0.227642276 Z M17.3156098,1.36585366 C26.1026016,1.36585366 33.2505691,8.51382114 33.2505691,17.300813 C33.2505691,26.0878049 26.1026016,33.2357724 17.3156098,33.2357724 C8.52861789,33.2357724 1.38065041,26.0878049 1.38065041,17.300813 C1.38065041,8.51382114 8.52861789,1.36585366 17.3156098,1.36585366 L17.3156098,1.36585366 Z" id="Fill-3116" sketch:type="MSShapeGroup"></path>
            </g>
        </g>
    </g>
</svg>