<svg xmlns="http://www.w3.org/2000/svg" width="48" height="48" viewBox="-4 -4 48 48"><path d="M32.787 25.855c-2.184 0-4.142.96-5.466 2.467l-10.464-7.246c.818-1.336 1.296-2.892 1.296-4.56 0-1.113-.22-2.173-.6-3.157l9.757-4.386c1.055 1.815 3.044 3.044 5.323 3.044 3.38 0 6.13-2.698 6.13-6.013C38.76 2.697 36.01 0 32.63 0S26.5 2.696 26.5 6.01c0 .586.09 1.154.252 1.693l-9.805 4.405C15.38 9.432 12.442 7.62 9.075 7.62 4.07 7.62 0 11.61 0 16.518s4.07 8.9 9.074 8.9c2.798 0 5.302-1.25 6.968-3.206l10.465 7.245c-.593 1.027-.937 2.21-.937 3.472 0 3.9 3.238 7.072 7.218 7.072C36.765 40 40 36.828 40 32.927c0-3.9-3.235-7.07-7.213-7.07zm-.156-24.47c2.604 0 4.72 2.073 4.72 4.624 0 2.55-2.116 4.623-4.72 4.623S27.916 8.56 27.916 6.01s2.117-4.625 4.718-4.625zM9.077 24.03c-4.225 0-7.66-3.37-7.66-7.513 0-4.14 3.435-7.51 7.66-7.51 4.226 0 7.663 3.368 7.663 7.51 0 4.143-3.438 7.513-7.664 7.513zM32.79 38.615c-3.2 0-5.806-2.552-5.806-5.688 0-3.135 2.604-5.686 5.805-5.686 3.197 0 5.8 2.554 5.8 5.69 0 3.135-2.603 5.687-5.8 5.687z"/></svg>