<?xml version="1.0" encoding="UTF-8" standalone="no"?>
<svg width="35px" height="36px" viewBox="0 0 35 36" version="1.1" xmlns="http://www.w3.org/2000/svg" xmlns:xlink="http://www.w3.org/1999/xlink" xmlns:sketch="http://www.bohemiancoding.com/sketch/ns">
    <!-- Generator: Sketch 3.4.1 (15681) - http://www.bohemiancoding.com/sketch -->
    <title>Group</title>
    <desc>Created with Sketch.</desc>
    <defs></defs>
    <g id="Add-a-Story" stroke="none" stroke-width="1" fill="none" fill-rule="evenodd" sketch:type="MSPage">
        <g id="Main-Copy-3" sketch:type="MSArtboardGroup" transform="translate(-37.000000, -37.000000)">
            <g id="Nav" sketch:type="MSLayerGroup">
                <g id="Solomon-Logo" transform="translate(37.000000, 37.500000)" sketch:type="MSShapeGroup">
                    <g id="Fill-11-+-Fill-12-+-Fill-13">
                        <g id="Group">
                            <path d="M32.404251,32.254288 L5.91922915,34.9847131 C4.33688124,35.1478358 2.90883466,33.9865989 2.74571197,32.404251 L0.0152869088,5.91922915 C-0.147835779,4.33688124 1.01340109,2.90883466 2.595749,2.74571197 L29.0807708,0.0152869088 C30.6631188,-0.147835779 32.0911653,1.01340109 32.254288,2.595749 L34.9847131,29.0807708 C35.1478358,30.6631188 33.9865989,32.0911653 32.404251,32.254288" id="Fill-11" fill="#DF4B63"></path>
                            <path d="M27.6894819,3.16956146 C27.6083801,2.38296933 28.18021,1.67953749 28.9668022,1.59857284 C29.7533943,1.51747096 30.4566889,2.08930094 30.5377908,2.87589308 C30.6188927,3.66248522 30.0470627,4.36577983 29.2604706,4.4468817 C28.4738784,4.52798358 27.7705838,3.9561536 27.6894819,3.16956146" id="Fill-12" fill="#FFFFFF"></path>
                            <path d="M28.0474544,11.7034427 C27.277037,10.3197355 26.2580562,9.11271152 25.0186892,8.11572352 C23.7794659,7.11859175 22.3821051,6.38181259 20.8655661,5.92551267 C19.2951166,5.45296767 17.6652936,5.30374294 16.0216695,5.48186379 C14.3780454,5.65998465 12.8180905,6.15466896 11.3852206,6.95254689 C10.0016609,7.72296631 8.7944964,8.74209363 7.79751109,9.98132025 C6.80052578,11.2206906 6.06360484,12.6180552 5.60730616,14.1345983 C5.1349062,15.7050521 4.98553811,17.3347357 5.16365848,18.9783643 C5.34177886,20.6221365 5.83660559,22.181952 6.6343376,23.6148257 C7.40475495,24.9985329 8.42387951,26.2057007 9.66310278,27.2026887 C10.9024698,28.1996767 12.2998306,28.9365996 13.8163696,29.3927557 C14.2145887,29.5126531 14.6165456,29.6115612 15.0216652,29.6896238 C15.2897802,29.7413781 15.5593328,29.7839316 15.8298918,29.8174281 C16.7629033,29.932725 17.7091408,29.9394818 18.6602662,29.8364046 C19.7107308,29.722689 20.7268364,29.4793003 21.6976571,29.1102638 C22.1009078,28.9570138 22.4963954,28.7821994 22.8831136,28.5856771 C23.0221309,28.5152338 23.1599981,28.4419153 23.2965714,28.3657215 C24.6802749,27.5953021 25.8874393,26.5763185 26.8844246,25.3369482 C27.88141,24.0977215 28.6183309,22.700357 29.0746296,21.1836701 C29.5470295,19.6132163 29.6962539,17.9835327 29.5181335,16.3399042 C29.3401569,14.6962756 28.8453301,13.1363165 28.0474544,11.7034427 L28.0474544,11.7034427 Z M24.3307909,8.97081864 C25.2544579,9.71377956 26.0434205,10.584976 26.684165,11.5671565 C26.1088319,11.9025528 25.9226609,12.6123047 24.6736618,13.1460923 C23.7333185,13.5479065 22.6880294,13.1725444 22.1247722,12.8781203 C21.6910441,12.6514079 21.7436607,11.9551696 20.7202233,11.4305828 C20.1305141,11.128108 21.2166315,10.7694224 21.9988372,9.93776043 C22.7190818,9.17179762 22.7770177,8.41057895 22.7236822,7.89116761 C23.2863643,8.20212435 23.8231694,8.5623914 24.3307909,8.97081864 L24.3307909,8.97081864 Z M20.8526276,20.6342125 C20.3592385,20.6876919 20.1338206,20.1290336 19.0188072,20.2089652 C18.363974,20.2558315 17.7846155,20.7525285 17.7002276,20.7597166 C17.6187149,20.7666171 16.7443581,20.2588505 16.1384038,20.4250391 C15.6930309,20.5470929 15.5735652,20.6386692 15.0051326,21.0036803 C14.8905548,21.0774301 14.0245361,20.0745479 13.9503552,19.9789463 C13.1872697,18.9951844 12.6776356,17.9094954 12.9305119,16.633322 C12.9931918,16.3163272 13.269645,15.8883484 13.543223,15.7969159 C14.1888554,15.5811294 14.8891172,15.5052232 15.5735652,15.4464246 C15.7465102,15.4316172 16.0797491,15.6035563 16.1287717,15.8275371 C16.1428604,15.8915111 16.1582428,15.9314769 16.1453043,15.984525 C15.5371936,16.018309 14.8130674,16.0414547 14.2097008,16.1143419 C14.0134665,16.1380626 13.6769211,16.2279137 13.6523379,16.444419 C13.625167,16.6820572 13.9959276,16.9291837 14.1606782,16.9244396 C14.8951552,16.9037379 15.6270445,16.7911724 16.4180197,16.7054904 C16.4578416,16.8009482 16.5295785,16.9727435 16.6123851,17.1708473 C17.0889541,15.9668423 16.2874843,14.890354 15.0900956,15.0589866 C14.5645039,15.1330239 14.0368996,15.2093614 13.5078577,15.234376 C13.0683791,15.2550777 12.8392234,15.0083825 12.7769747,14.5533764 C12.5511255,12.8995408 13.9030577,11.6690836 15.4785389,12.2172473 C16.4995324,12.5724827 17.2992771,12.4833504 18.247671,11.9192292 C20.1525096,10.7862425 21.3353784,12.374954 21.5068857,13.8764021 C21.5702845,14.4313227 21.1558204,14.6028305 20.7259738,14.6509907 C20.2172022,14.7079203 19.6995174,14.694263 19.1855704,14.6955568 C18.2987063,14.6977132 17.9845877,14.9791988 17.9851627,15.8488139 C17.9853065,16.2118124 18.0573309,16.5748109 18.0965778,16.9376657 C18.1447379,16.9395346 18.1928979,16.9414035 18.241058,16.9431286 C18.2692352,16.7740648 18.2975562,16.6050009 18.3283212,16.4196919 C18.8694391,16.3952524 19.4142948,16.3761321 19.9582879,16.3432107 C20.1351144,16.3324285 20.3428497,16.334585 20.4768353,16.2432962 C20.6460425,16.1277118 20.9344278,15.9652609 20.8888555,15.7562313 C20.842708,15.5456203 20.4933678,15.4689952 20.3109346,15.4861029 C19.6890228,15.5447577 19.0740115,15.6768748 18.4365735,15.7844086 C18.3547733,15.3039567 18.5951423,15.1604824 18.9209057,15.1356117 C19.5320354,15.0891766 20.1458965,15.0446104 20.7581763,15.050936 C21.2985754,15.0568302 21.7143334,15.3249459 21.8776464,15.8618962 C22.2193672,16.9853946 22.163444,18.0904915 21.6161444,19.1419652 C21.5481452,19.2726446 20.9475101,20.6238617 20.8526276,20.6342125 L20.8526276,20.6342125 Z M22.2274179,23.6136756 C22.2328808,23.6073501 20.8810923,22.8390871 20.6996655,22.7608807 C20.0550393,22.4829891 19.6171421,23.1074903 18.9364319,22.8147913 C18.7246713,22.7237901 18.679099,22.6756299 18.5609271,22.5882228 C18.5324624,22.5670898 18.5047164,22.5446629 18.4753891,22.5246801 C18.3830943,22.4614249 18.2849052,22.4090956 18.1801032,22.3695611 C18.1168481,22.3456966 18.0520118,22.3278702 17.9847314,22.3196757 C17.951235,22.3155067 17.9177386,22.3149316 17.884386,22.3173756 C17.8792105,22.3178068 17.8741789,22.3183819 17.8691473,22.3189569 C17.8641156,22.3193882 17.859084,22.3199633 17.8540523,22.3206821 C17.8208434,22.3254262 17.7883533,22.3331894 17.7564383,22.3444028 C17.6924645,22.3668296 17.6329473,22.3980259 17.5763053,22.4349727 C17.4824291,22.4960715 17.3977536,22.5682399 17.320985,22.6497528 C17.2966894,22.6754862 17.2744063,22.703376 17.251117,22.7301157 C17.1545093,22.8406685 17.1201504,22.8975981 16.9328293,23.0318716 C16.3306127,23.4635883 15.7690807,22.9473397 15.198923,23.3569171 C15.0384853,23.4720702 13.8826436,24.512043 13.8894004,24.5169309 C13.8288769,24.5855053 14.2332777,22.6404083 15.3014249,21.676198 C15.6440083,21.3669664 16.3934365,20.901897 17.3544814,21.2600076 C17.452958,21.3119056 17.5441027,21.3745857 17.629497,21.4460354 C17.6868578,21.493908 17.7406246,21.5453748 17.7912286,21.6000042 C17.8290378,21.5357427 17.8705849,21.4740689 17.916301,21.4149828 C17.9843001,21.3268568 18.0600624,21.2460627 18.1450254,21.1743256 C19.0071625,20.6186863 19.8388222,20.9125354 20.239629,21.1411166 C21.4894906,21.8541751 22.3011675,23.6675863 22.2274179,23.6136756 L22.2274179,23.6136756 Z M11.3257034,8.26638587 C11.51935,8.14231945 11.7171657,8.02385974 11.9191504,7.91143802 C13.2230663,7.18544099 14.6429977,6.73517906 16.1398414,6.57301577 C17.6366851,6.41085247 19.1203027,6.5465636 20.549291,6.97641135 C21.0232724,7.11902304 21.4844589,7.29182471 21.9314131,7.49381002 C22.0445534,7.90540002 21.9144493,8.37909512 21.6572601,8.88571166 C21.2032616,9.78005375 19.8451477,10.8852944 19.2284113,10.9521436 C18.3232895,11.0501891 18.0215343,11.5520616 17.3759019,11.6266739 C17.0530138,11.664052 16.7130181,11.6575827 16.5853579,11.6705213 C15.9388629,11.7357891 15.5258364,11.3831414 14.4976549,11.4767304 C13.9500677,11.526472 12.4513551,10.6863281 11.816361,9.9100144 C11.3596311,9.35164362 11.1146616,8.80132349 11.3257034,8.26638587 L11.3257034,8.26638587 Z M8.6526039,10.6692204 C9.1892652,10.0021657 9.79277556,9.40526676 10.4566657,8.88369899 C10.4878619,9.402104 10.6471496,10.2385101 11.6182578,10.9032646 C12.5603263,11.5483237 13.8202512,11.6679336 13.2181784,12.0362513 C12.2370069,12.6366005 12.4240405,13.417227 12.048967,13.7314903 C11.5619033,14.13963 11.1014356,14.6077184 9.97937786,14.603693 C8.54722679,14.5983738 7.96384303,13.475163 7.01688669,13.4373536 C7.42344393,12.4438159 7.97131862,11.5161211 8.6526039,10.6692204 L8.6526039,10.6692204 Z M7.37643395,22.6714608 C6.77709267,21.4816883 6.40015028,20.2017771 6.25480751,18.8601921 C6.09264465,17.3633443 6.22835541,15.8797227 6.65834576,14.4507305 C6.68278519,14.3693613 6.70823096,14.2884234 6.7345393,14.2077731 C7.97462514,14.124535 8.44458115,15.7927468 10.4645726,15.3572923 C11.8379252,15.0612868 11.9322327,13.8506688 12.3129129,15.1219543 C12.7531103,16.5924936 12.0445104,17.0587131 12.5854845,18.5242208 C13.1289026,19.9967728 12.5620514,20.7456279 9.50539652,20.8847893 C8.47548985,20.9316557 7.84840263,21.993049 7.37643395,22.6714608 L7.37643395,22.6714608 Z M12.9192985,24.7413431 C12.6001482,26.0144975 13.0801675,27.3168355 13.0897995,27.9709517 C12.1073341,27.5656872 11.1895613,27.0221238 10.3511448,26.3475935 C9.55901952,25.7102975 8.86608958,24.9789813 8.28069316,24.1641395 C8.22405116,23.4727891 8.33805395,22.5922481 9.62673114,22.0044061 C11.1879799,21.292354 12.310469,21.7456349 13.2476495,20.1925763 C13.2476495,20.1925763 14.4824162,21.186114 14.1891429,21.5741271 C13.8730116,21.9923302 13.1267462,23.9144253 12.9192985,24.7413431 L12.9192985,24.7413431 Z M23.2200903,27.1378521 C23.0701472,27.230866 22.9176163,27.3205733 22.7626415,27.4069742 C21.4588694,28.1328274 20.0387943,28.5832331 18.5419506,28.7453964 C17.0451069,28.9075597 15.561633,28.7717048 14.1325009,28.3418571 C14.0843409,28.3273371 14.036037,28.3123859 13.9880207,28.2972909 C13.6056154,27.1913315 13.9602748,26.0498629 14.1678662,25.6418669 C14.3987471,25.188586 15.2466518,24.2593098 15.7662055,24.1546512 C16.2769897,24.051574 16.6566636,24.1780844 17.0233989,24.018365 C17.3899905,23.8586457 17.2373159,23.2281065 18.052443,23.1389742 C18.7912329,23.0583238 18.5760221,23.5862171 19.237612,23.6345211 C19.899202,23.682825 20.3690142,23.3898385 20.735462,23.6806686 C21.8207169,24.542233 22.578627,24.4397308 22.9255232,25.5203882 C23.1515161,26.224821 23.228141,26.7268371 23.2200903,27.1378521 L23.2200903,27.1378521 Z M26.0293318,24.649048 C25.4120204,25.4164484 24.7062957,26.090835 23.9219335,26.6644445 C23.8391269,25.9562739 23.9206396,24.6776566 23.3882912,23.6072063 C23.0084735,22.8438312 22.090557,21.3456896 21.6923379,21.0049742 C21.3228711,20.6886983 22.2410752,19.3856414 22.2410752,19.3856414 C23.4890679,20.7020681 24.3408542,19.8673872 26.0182622,20.2286605 C27.1822983,20.4792373 27.5797985,21.1097765 27.7318981,21.7127135 C27.3194466,22.7699377 26.7488576,23.7547059 26.0293318,24.649048 L26.0293318,24.649048 Z M28.1695078,20.3350443 C27.692795,19.9059153 26.9722629,19.0674966 25.923811,19.2821329 C23.0743163,19.8653745 22.3698854,19.2026326 22.5855275,17.6477051 C22.8000195,16.1005408 22.0078942,15.7969159 22.1230471,14.2661404 C22.2226737,12.9428131 22.5993286,14.0458973 24.0027274,14.1146154 C25.8632874,14.2057604 26.485343,12.6483889 27.1007856,12.2595133 C27.8195926,13.557251 28.2658279,14.9697105 28.4271282,16.4580763 C28.5691645,17.7699027 28.4824764,19.0713781 28.1695078,20.3350443 L28.1695078,20.3350443 Z" id="Fill-13" fill="#FFFFFF"></path>
                            <path d="M16.8636364,19.3061006 C16.9171477,19.9243748 17.6994115,19.6793848 17.6994115,19.6793848 C17.6994115,19.6793848 18.5055058,19.7091833 18.4519945,19.0909091 L17.6577441,19.1985049 L16.8636364,19.3061006" id="Fill-14" fill="#FFFFFF"></path>
                        </g>
                    </g>
                </g>
            </g>
        </g>
    </g>
</svg>