<svg width="32" height="38" viewBox="0 0 32 38" xmlns="http://www.w3.org/2000/svg"><title>Group</title><g fill="#0A0B09" fill-rule="evenodd"><path d="M20.84 28.64l-1.56 3.95 3.952-1.55 5.37-5.377-2.393-2.388-5.37 5.366zm-2.652 5.663c-.16 0-.316-.063-.434-.186-.174-.172-.228-.43-.138-.65l2.126-5.393c.03-.074.077-.147.136-.208l5.896-5.896c.23-.233.64-.233.87 0l3.265 3.26c.115.125.18.272.18.433 0 .17-.065.32-.18.442L24.01 32c-.06.062-.13.098-.21.135l-5.387 2.13c-.074.024-.15.038-.227.038z"/><path d="M29.364 26.646l-.87-.874 1.568-1.563c.55-.555.32-1.81-.13-2.265-.45-.456-1.715-.677-2.266-.123L26.1 23.385l-.87-.873 1.566-1.563c1.125-1.122 3.173-.703 4.006.122.832.836 1.253 2.88.13 4.01l-1.568 1.564M23.49 31.175c-.157 0-.315-.06-.435-.172l-2.175-2.178c-.24-.247-.24-.627 0-.874.24-.232.63-.232.87 0l2.175 2.18c.24.234.24.627 0 .873-.12.112-.277.172-.435.172M26.752 27.915c-.158 0-.315-.063-.434-.186l-2.176-2.166c-.24-.247-.24-.64 0-.874.24-.247.63-.247.87 0l2.176 2.18c.24.233.24.627 0 .86-.12.122-.278.185-.436.185"/><path d="M16 37.33H.615c-.34 0-.615-.272-.615-.616V9.612c0-.158.06-.306.17-.43L8.307.602c.117-.12.278-.195.446-.195h18.938c.34 0 .616.27.616.616v16.615c0 .344-.276.614-.616.614-.34 0-.615-.27-.615-.614v-16H9.02l-7.79 8.22V36.1H16c.34 0 .615.27.615.614s-.275.616-.615.616M9.23 10.254h-8c-.34 0-.615-.272-.615-.616s.276-.616.616-.616h7.385V1.637c0-.345.276-.614.616-.614.34 0 .616.27.616.614v8c0 .345-.276.617-.615.617"/></g></svg>