<svg width="43" height="33" viewBox="0 0 43 33" xmlns="http://www.w3.org/2000/svg"><title>Group</title><g fill="#000" fill-rule="evenodd"><path d="M4.3 1.906c-1.58 0-2.867 1.29-2.867 2.868v22.932c0 1.578 1.286 2.868 2.867 2.868h34.4c1.58 0 2.867-1.29 2.867-2.868V4.774c0-1.578-1.286-2.868-2.867-2.868H4.3zm34.4 30.1H4.3c-2.37 0-4.3-1.935-4.3-4.3V4.774C0 2.41 1.93.474 4.3.474h34.4c2.37 0 4.3 1.935 4.3 4.3v22.932c0 2.365-1.93 4.3-4.3 4.3z"/><path d="M21.843 21.314c-1.766 0-3.418-.744-4.653-2.08L6.07 7.07c-.268-.288-.246-.747.045-1.02.29-.256.745-.243 1.013.058L18.246 18.26c1.915 2.08 5.275 2.08 7.193 0l11.1-12.138c.267-.3.72-.317 1.012-.045.29.258.312.717.044 1.004l-11.1 12.14c-1.236 1.35-2.888 2.094-4.653 2.094"/><path d="M6.6 27.02c-.196 0-.39-.088-.53-.23-.268-.302-.246-.746.045-1.02l9.778-8.928c.294-.27.745-.243 1.013.043.267.286.247.745-.046 1.017l-9.778 8.93c-.138.13-.31.188-.483.188M37.092 27.02c-.174 0-.346-.058-.483-.188l-9.784-8.93c-.292-.272-.314-.73-.046-1.017.267-.286.72-.314 1.012-.043l9.783 8.93c.292.272.314.716.046 1.017-.14.142-.335.23-.528.23"/></g></svg>