<svg width="30" height="36" viewBox="0 0 30 36" xmlns="http://www.w3.org/2000/svg"><title>Licensing-icn</title><g fill="#FFF" fill-rule="evenodd"><path d="M1.18 34.62h27.148V1.57H1.18v33.05zm27.738 1.18H.59c-.33 0-.59-.26-.59-.59V.98C0 .65.26.39.59.39h28.328c.33 0 .59.26.59.59v34.23c0 .33-.26.59-.59.59z"/><path d="M15.037 18.543c-2.112 0-3.836 1.713-3.836 3.836 0 2.11 1.726 3.834 3.838 3.834 2.113 0 3.836-1.723 3.836-3.836 0-2.124-1.723-3.837-3.836-3.837zm0 8.852c-2.773 0-5.016-2.254-5.016-5.016 0-2.776 2.245-5.018 5.018-5.018 2.762 0 5.017 2.242 5.017 5.016 0 2.76-2.255 5.015-5.017 5.015z"/><path d="M13.562 33.297c-.153 0-.307-.07-.425-.176l-2.69-2.69-4.073 1.358c-.236.082-.496 0-.65-.188-.153-.202-.176-.463-.047-.675l4.427-7.376c.165-.287.53-.368.814-.204.272.166.366.53.2.803l-3.61 6.006 2.914-.967c.213-.07.45-.01.602.14l2.22 2.22 1.215-4.898c.08-.308.4-.51.72-.426.317.083.506.402.423.72L14.13 32.85c-.05.2-.214.366-.415.423-.047.013-.106.024-.153.024"/><path d="M16.513 33.297c-.06 0-.106-.01-.165-.024-.2-.057-.355-.224-.414-.423l-1.475-5.903c-.073-.318.116-.637.435-.72.307-.083.637.118.708.426l1.227 4.897 2.21-2.218c.164-.153.4-.213.612-.142l2.904.967-3.6-6.007c-.165-.272-.083-.637.2-.803.284-.164.638-.083.815.202l4.428 7.374c.118.212.107.473-.047.674-.152.187-.412.27-.65.187l-4.082-1.358-2.69 2.69c-.107.106-.26.177-.414.177M21.246 7.47H9.443c-.33 0-.59-.258-.59-.59 0-.33.26-.588.59-.588h11.803c.33 0 .59.26.59.59 0 .33-.26.59-.59.59m0 7.08H9.443c-.33 0-.59-.26-.59-.59 0-.33.26-.59.59-.59h11.803c.33 0 .59.26.59.59 0 .33-.26.59-.59.59m3.54-3.54H4.72c-.33 0-.59-.26-.59-.59 0-.33.26-.59.59-.59h20.067c.33 0 .59.26.59.59 0 .33-.26.59-.59.59"/></g></svg>