<svg width="41" height="41" viewBox="0 0 41 41" xmlns="http://www.w3.org/2000/svg"><title>Fill 9539 + Fill 9540 + Fill 9541</title><g fill="#0A0B09" fill-rule="evenodd"><path d="M20.32 40.16c-7.973 0-19.84-1.32-19.84-4.933 0-3.44 10.6-4.467 13.84-4.706.36-.027.693.253.72.613.027.374-.253.695-.627.72-8.586.615-12.6 2.388-12.6 3.374 0 1.253 6.36 3.6 18.507 3.6 12.147 0 18.493-2.347 18.493-3.6 0-1.027-4.133-2.814-13.026-3.414-.374-.012-.654-.333-.627-.705.027-.36.347-.64.707-.615 3.36.215 14.28 1.228 14.28 4.734 0 3.613-11.854 4.934-19.827 4.934M20.32 1.84c-7.333 0-13.08 5.8-13.08 13.213 0 10.894 11.093 17.575 13.08 18.695 1.987-1.12 13.08-7.813 13.08-18.695C33.4 7.64 27.653 1.84 20.32 1.84zm0 33.333c-.107 0-.213-.026-.307-.078C19.44 34.8 5.907 27.76 5.907 15.053c0-8.16 6.32-14.546 14.413-14.546 8.08 0 14.413 6.386 14.413 14.546 0 12.707-13.533 19.748-14.12 20.042-.093.052-.186.078-.293.078z"/><path d="M20.32 8.108c-2.667 0-4.84 2.172-4.84 4.84 0 2.652 2.173 4.825 4.84 4.825s4.827-2.173 4.827-4.826c0-2.667-2.16-4.84-4.827-4.84zm0 11c-3.4 0-6.173-2.76-6.173-6.16 0-3.415 2.773-6.175 6.173-6.175s6.16 2.76 6.16 6.174c0 3.4-2.76 6.16-6.16 6.16z"/></g></svg>