<svg width="32" height="36" viewBox="0 0 32 36" xmlns="http://www.w3.org/2000/svg"><title>Group Copy 2</title><g fill="#FFF" fill-rule="evenodd"><path d="M16.145 5.07c-1.853 0-3.36 1.496-3.36 3.352 0 1.856 1.507 3.367 3.36 3.367s3.36-1.512 3.36-3.368c0-1.856-1.507-3.353-3.36-3.353zm0 8c-2.56 0-4.64-2.086-4.64-4.648 0-2.56 2.08-4.633 4.64-4.633 2.558 0 4.64 2.072 4.64 4.632 0 2.562-2.082 4.647-4.64 4.647zM16.145 22.67c-3.116 0-6.077-.998-8.56-2.867-.283-.218-.34-.616-.126-.896.21-.282.613-.347.895-.13 2.26 1.703 4.953 2.612 7.79 2.612 7.146 0 12.96-5.825 12.96-12.968 0-.357.286-.64.64-.64.354 0 .64.283.64.64 0 7.847-6.388 14.247-14.24 14.247M16.64 4.264c-.353 0-.64-.283-.64-.642v-2.56c0-.358.287-.638.64-.638.353 0 .64.28.64.638v2.56c0 .36-.287.642-.64.642"/><path d="M.945 35.47c-.086 0-.172-.027-.256-.065-.325-.14-.474-.51-.332-.845l11.2-25.6c.142-.32.52-.474.843-.32.324.14.473.512.33.845l-11.2 25.6c-.104.23-.338.384-.585.384M31.346 35.47c-.247 0-.483-.155-.588-.385l-11.2-25.6c-.142-.333.007-.704.33-.845.323-.154.7 0 .843.32l11.2 25.6c.143.334-.006.704-.33.845-.083.038-.168.064-.254.064"/></g></svg>