<svg width="46" height="21" viewBox="0 0 46 21" xmlns="http://www.w3.org/2000/svg"><title>Group</title><g fill="#0A0B09" fill-rule="evenodd"><path d="M.505 14.415C.505 7.035 11.108.54 23.185.54c11.895 0 22.32 6.495 22.32 13.875 0 .42-.332.75-.75.75-.42 0-.75-.33-.75-.75 0-6.585-9.722-12.375-20.82-12.375-11.087 0-21.18 5.91-21.18 12.375 0 .42-.332.75-.75.75-.42 0-.75-.33-.75-.75"/><path d="M14.005 14.415c0-3.885 3.928-8.25 9.18-8.25 5.205 0 8.82 4.35 8.82 8.25 0 .42-.332.75-.75.75-.42 0-.75-.33-.75-.75 0-3.195-3-6.75-7.32-6.75s-7.68 3.63-7.68 6.75c0 .42-.33.75-.75.75s-.75-.33-.75-.75"/><path d="M2.005 15v2.235c0 1.095 1.245 2.265 2.43 2.265h7.5c1.08 0 2.07-1.08 2.07-2.265V15h-12zm-1.5 2.235V14.25c0-.42.33-.75.75-.75h13.5c.418 0 .75.33.75.75v2.985c0 2.04-1.635 3.765-3.57 3.765h-7.5c-2.012 0-3.93-1.83-3.93-3.765zM32.005 15v2.235c0 1.095 1.245 2.265 2.43 2.265h7.498c1.082 0 2.072-1.08 2.072-2.265V15h-12zm-1.5 2.235V14.25c0-.42.33-.75.75-.75h13.5c.418 0 .75.33.75.75v2.985c0 2.04-1.635 3.765-3.57 3.765h-7.5c-2.027 0-3.93-1.83-3.93-3.765z"/></g></svg>