<svg xmlns="http://www.w3.org/2000/svg" width="48" height="48" viewBox="692.232 40.662 48 48"><path d="M706.416 59.783l5.146 5.146c.146.144.338.22.53.22s.384-.076.53-.22c.294-.296.294-.77 0-1.06l-5.495-5.5c-.218-.217-.544-.28-.83-.157-2.505 1.088-5.24.68-6.968-1.04-1.46-1.464-1.975-3.672-1.42-5.85l3.58 3.577c.21.208.516.274.79.173l3.32-1.228c.202-.076.364-.237.44-.443l1.224-3.307c.102-.274.034-.583-.173-.79l-3.58-3.585c2.18-.556 4.388-.043 5.853 1.422 1.72 1.72 2.128 4.454 1.04 6.968-.123.282-.06.61.157.828l5.497 5.495c.293.293.767.293 1.06 0 .294-.293.294-.768 0-1.06l-5.146-5.146c1.086-2.95.5-6.1-1.545-8.146-2.146-2.144-5.52-2.682-8.588-1.37-.228.1-.394.306-.44.55s.028.496.204.673l4.094 4.096-.938 2.532-2.543.94-4.092-4.087c-.176-.176-.432-.254-.67-.206-.246.047-.45.213-.55.442-1.31 3.07-.77 6.44 1.37 8.585 2.05 2.047 5.203 2.63 8.147 1.548zm3.73 11.424l17.63-17.63.596.595c.14.142.332.22.53.22h.02c.203-.005.4-.093.536-.245l4.29-4.712c.27-.297.26-.753-.023-1.036l-1.83-1.828c-.283-.285-.738-.294-1.035-.025l-4.71 4.288c-.154.138-.242.332-.247.537-.005.206.076.403.22.548l.593.595-17.63 17.63-2.67-2.67c-.282-.28-.78-.28-1.06 0l-9.154 9.155c-1.602 1.603-1.603 4.212-.002 5.816l1.678 1.674c.772.775 1.805 1.202 2.906 1.202 1.103 0 2.136-.428 2.908-1.202l9.155-9.154c.14-.14.22-.332.22-.53 0-.2-.08-.39-.22-.53l-2.7-2.7zM731.34 48.14l.817.815-3.28 3.6-1.137-1.137 3.6-3.278zm-28.71 34.922c-.98.982-2.71.982-3.69 0l-1.678-1.675c-1.018-1.018-1.017-2.676 0-3.694l5.663-5.663 5.346 5.393-5.64 5.64zm6.7-6.7l-5.346-5.393 1.902-1.904 5.37 5.37-1.925 1.925zm26.053-5.32c-2.046-2.047-5.192-2.63-8.146-1.55l-6.314-6.316c-.293-.293-.768-.293-1.06 0-.294.293-.294.768 0 1.06l6.664 6.665c.218.22.547.28.828.16 2.514-1.085 5.25-.68 6.966 1.044 1.47 1.467 1.984 3.676 1.424 5.852l-3.58-3.582c-.208-.207-.517-.274-.792-.172l-3.302 1.227c-.204.074-.367.235-.443.44l-1.236 3.31c-.104.276-.035.585.173.793l3.584 3.583c-2.182.556-4.39.044-5.854-1.42-1.72-1.72-2.127-4.456-1.04-6.967.12-.283.06-.61-.16-.83l-6.663-6.665c-.294-.293-.77-.293-1.06 0-.295.292-.295.768 0 1.06l6.313 6.317c-1.08 2.946-.496 6.097 1.55 8.144 1.365 1.366 3.227 2.08 5.193 2.08 1.122 0 2.28-.233 3.396-.71.228-.1.394-.304.44-.548.048-.245-.03-.497-.206-.673l-4.092-4.09.947-2.54 2.53-.938 4.09 4.09c.178.175.43.254.675.206.243-.046.45-.21.548-.44 1.32-3.07.782-6.44-1.367-8.59z"/></svg>