<svg width="29" height="18" viewBox="0 0 29 18" xmlns="http://www.w3.org/2000/svg"><title>retweet</title><path d="M14.35 13.115H7.867v-3.96h2.01c1.146 0 1.827-1.234 1.184-2.145L6.977 1.228c-.567-.802-1.8-.802-2.368 0L.524 7.01c-.643.91.036 2.144 1.184 2.144h1.857v6.026c0 1.14.963 2.064 2.15 2.064h8.632c1.187 0 2.15-.925 2.15-2.064 0-1.14-.963-2.065-2.15-2.065zm.037-7.93h6.48v3.96H18.86c-1.148 0-1.828 1.234-1.184 2.145l4.084 5.782c.568.802 1.8.802 2.368 0l4.083-5.782c.646-.91-.035-2.144-1.182-2.144h-1.86V3.12c0-1.14-.96-2.064-2.15-2.064h-8.63c-1.19 0-2.15.925-2.15 2.065s.96 2.065 2.15 2.065z" fill="#AAB8C2" fill-rule="evenodd"/></svg>