<?xml version="1.0" encoding="UTF-8" standalone="no"?>
<svg width="310px" height="63px" viewBox="0 0 310 63" version="1.1" xmlns="http://www.w3.org/2000/svg" xmlns:xlink="http://www.w3.org/1999/xlink" xmlns:sketch="http://www.bohemiancoding.com/sketch/ns">
    <!-- Generator: Sketch 3.4.3 (16044) - http://www.bohemiancoding.com/sketch -->
    <title>Group</title>
    <desc>Created with Sketch.</desc>
    <defs></defs>
    <g id="Page-1" stroke="none" stroke-width="1" fill="none" fill-rule="evenodd" sketch:type="MSPage">
        <g id="YorkshireWater" sketch:type="MSLayerGroup" transform="translate(-5.000000, -110.000000)">
            <g id="Group" sketch:type="MSShapeGroup">
                <g id="Shape">
                    <g transform="translate(5.000000, 110.000000)">
                        <g>
                            <path d="M302.328782,62.4818653 C302.328782,62.4818653 309.717383,62.4818653 309.717383,55.0932642 L309.717383,36.4611399 C290.764015,34.2124352 253.499766,30.357513 228.442772,30.357513 C185.556761,30.357513 113.276968,9.6373057 19.4738597,9.6373057 C14.3339633,9.6373057 7.74847107,9.95854922 0.0386265083,10.6010363 L0.0386265083,55.0932642 C-0.121995253,55.253886 0.0386265015,62.4818677 5.66038817,62.4818653 L302.328782,62.4818653 Z" fill="#00B5EF"></path>
                            <path d="M16.0621762,32.2849741 C79.6683938,32.2849741 130.585492,27.4663212 136.689119,27.4663212 C173.953368,27.4663212 266.310881,38.8704663 309.839378,41.119171 L309.839378,6.42487047 L304.378238,6.42487047 C257.797927,6.42487047 149.378238,26.5025907 137.492228,26.5025907 C118.860104,26.5025907 62.9637306,9.15544041 12.6891192,9.15544041 C8.67357513,9.15544041 4.49740933,9.31606218 0,9.47668394 L0,31.9637306 C6.42487047,32.1243523 12.6891192,32.2849741 16.0621762,32.2849741" fill="#A2DCED"></path>
                            <path d="M15.0984456,48.3471503 C125.606218,48.3471503 180.699482,31.1606218 224.870466,17.1865285 C252.658031,8.51295337 274.663212,1.60621762 302.450777,1.60621762 L309.678756,1.60621762 L309.678756,3.55271368e-15 L302.450777,3.55271368e-15 C274.341969,3.55271368e-15 252.176166,6.90673575 224.227979,15.7409326 C180.217617,29.5544041 125.284974,46.7409326 15.0984456,46.7409326 L0,46.7409326 L0,48.3471503 L15.0984456,48.3471503" fill="#FFFFFF"></path>
                            <path d="M17.0259067,1.12435233 C28.4300518,1.12435233 51.7202073,2.73056995 78.865285,12.3678756 C79.3471503,12.5284974 127.051813,31 159.497409,35.015544 C160.621762,35.1761658 239.647668,45.9378238 303.896373,46.9015544 L309.678756,46.9015544 L309.678756,45.4559585 L303.896373,45.2953368 C249.445596,45.9378238 160.782383,34.2124352 159.658031,34.0518135 C127.373057,30.0362694 79.8290155,11.5647668 79.3471503,11.4041451 C51.880829,1.60621762 28.5906736,0.160621762 17.1865285,-3.55271368e-15 L0,-3.55271368e-15 L0,0.96373057 L17.0259067,0.96373057 L17.0259067,1.12435233 Z" fill="#FFFFFF"></path>
                        </g>
                    </g>
                </g>
            </g>
        </g>
    </g>
</svg>