<?xml version="1.0" encoding="UTF-8" standalone="no"?>
<svg width="194px" height="75px" viewBox="0 0 194 75" version="1.1" xmlns="http://www.w3.org/2000/svg" xmlns:xlink="http://www.w3.org/1999/xlink" xmlns:sketch="http://www.bohemiancoding.com/sketch/ns">
    <!-- Generator: Sketch 3.4.3 (16044) - http://www.bohemiancoding.com/sketch -->
    <title>Group</title>
    <desc>Created with Sketch.</desc>
    <defs></defs>
    <g id="Page-1" stroke="none" stroke-width="1" fill="none" fill-rule="evenodd" sketch:type="MSPage">
        <g id="YorkshireWater" sketch:type="MSLayerGroup">
            <g id="Group" sketch:type="MSShapeGroup">
                <path d="M88.9,55.3 C89.7,55.3 90.3,54.7 90.3,54 C90.3,53.2 89.7,52.7 88.9,52.7 C88.1,52.7 87.5,53.3 87.5,54 C87.5,54.7 88.1,55.3 88.9,55.3" id="Shape" fill="#004C6C"></path>
                <path d="M88.9,55.3 C89.7,55.3 90.3,54.7 90.3,54 C90.3,53.2 89.7,52.7 88.9,52.7 C88.1,52.7 87.5,53.3 87.5,54 C87.5,54.7 88.1,55.3 88.9,55.3" id="Shape" fill="#004C6C"></path>
                <path d="M29.1,66.2 C29.1,61.6 26.3,58.2 21.7,58.2 C17.2,58.2 14.2,61.6 14.2,66.2 C14.2,70.8 17,74.2 21.6,74.2 C26.1,74.2 29.1,70.8 29.1,66.2 M26.4,66.2 C26.4,70.1 24.5,72.5 21.6,72.5 C18.8,72.5 16.8,70.1 16.8,66.2 C16.8,62.2 18.7,59.9 21.6,59.9 C24.5,59.9 26.4,62.2 26.4,66.2" id="Shape" fill="#004C6C"></path>
                <path d="M88.9,58.6 C88.2,58.6 87.6,59.2 87.6,59.9 L87.6,72.5 C87.6,73.2 88.2,73.8 88.9,73.8 C89.6,73.8 90.2,73.2 90.2,72.5 L90.2,59.9 C90.2,59.2 89.6,58.6 88.9,58.6" id="Shape" fill="#004C6C"></path>
                <path d="M82.5,60.2 C81.8,59 80.4,58.2 78.6,58.2 C76.3,58.2 74.7,59.4 73.4,60.9 L73.3,60.9 L73.3,53.6 C73.3,52.9 72.7,52.3 72,52.3 C71.3,52.3 70.7,52.9 70.7,53.6 L70.7,72.5 C70.7,73.2 71.3,73.8 72,73.8 C72.7,73.8 73.3,73.2 73.3,72.5 L73.3,62.4 C74.4,61.2 76,60.2 77.6,60.2 C78.7,60.2 79.7,60.6 80.3,61.6 C80.6,62.2 80.8,63 80.8,64.1 L80.8,72.5 C80.8,73.2 81.4,73.8 82.1,73.8 C82.8,73.8 83.4,73.2 83.4,72.5 L83.4,63.8 C83.4,62.2 83.1,61.1 82.5,60.2" id="Shape" fill="#004C6C"></path>
                <path d="M59.9,62.2 C59.9,60.8 61.1,60.1 63,60.1 C64.4,60.1 65,60.3 65.9,60.4 C66.6,60.6 66.9,60.1 67,59.9 C67.1,59.5 66.9,59 66.4,58.9 C65.7,58.6 64.4,58.2 62.6,58.2 C59.7,58.2 57.4,59.7 57.4,62.4 C57.4,67.6 64.9,66 64.9,69.8 C64.9,71.1 64,72.4 61.2,72.4 C59.6,72.4 59.1,72.2 58.4,72.1 C57.8,71.9 57.5,72.3 57.4,72.6 C57.3,72.9 57.3,73.3 57.9,73.6 C58.6,73.9 60.2,74.3 61.7,74.3 C64.7,74.3 67.6,72.9 67.6,69.6 C67.4,64.1 59.9,65.6 59.9,62.2" id="Shape" fill="#004C6C"></path>
                <path d="M39.6,58.2 C36,58.2 32.2,59 32.2,65.3 L32.2,72.5 C32.2,73.2 32.8,73.8 33.5,73.8 C34.2,73.8 34.8,73.2 34.8,72.5 L34.8,65 C34.8,63.1 34.8,61.8 35.2,61.4 C35.7,60.8 37,60.9 39.6,60.9 C40.3,60.9 40.9,60.3 40.9,59.6 C41,58.8 40.4,58.2 39.6,58.2" id="Shape" fill="#004C6C"></path>
                <path d="M101.8,58.2 C98.3,58.2 94.4,59 94.4,65.3 L94.4,72.5 C94.4,73.2 95,73.8 95.7,73.8 C96.4,73.8 97,73.2 97,72.5 L97,65 C97,63.1 97,61.8 97.4,61.4 C98,60.8 99.2,60.9 101.8,60.9 C102.5,60.9 103.1,60.3 103.1,59.6 C103.1,58.8 102.5,58.2 101.8,58.2" id="Shape" fill="#004C6C"></path>
                <path d="M191.8,58.2 C188.3,58.2 184.4,59 184.4,65.3 L184.4,72.5 C184.4,73.2 185,73.8 185.7,73.8 C186.4,73.8 187,73.2 187,72.5 L187,65 C187,63.1 187,61.8 187.4,61.4 C187.9,60.8 189.2,60.9 191.8,60.9 C192.5,60.9 193.1,60.3 193.1,59.6 C193.1,58.8 192.5,58.2 191.8,58.2" id="Shape" fill="#004C6C"></path>
                <path d="M14.4,52.5 C13.7,52.2 12.9,52.5 12.6,53.1 C12.4,53.6 7.7,62.9 7.7,62.9 L7.6,62.9 C7.6,62.9 2.8,53.5 2.6,53.1 C2.4,52.7 1.6,52.1 0.7,52.6 C-4.4408921e-16,53 -0.1,53.9 0.2,54.5 C0.4,54.8 6.3,65.2 6.3,65.2 L6.3,72.6 C6.3,73 6.6,73.9 7.6,73.9 C8.5,73.9 8.9,73.1 8.9,72.6 L8.9,65 C8.9,65 14.8,54.5 15,54.2 C15.3,53.7 15.1,52.8 14.4,52.5" id="Shape" fill="#004C6C"></path>
                <path d="M54.2,71.8 C53.7,71.3 48.5,65.7 48.5,65.7 L48.5,65.7 C48.5,65.7 53.8,60.9 54,60.7 C54.2,60.5 54.6,59.7 53.9,59.1 C53.5,58.7 52.8,58.6 52.3,59.2 C52.1,59.4 46.5,65.3 46.5,65.3 L46.5,65.3 L46.5,53.6 C46.5,52.9 45.9,52.3 45.2,52.3 C44.5,52.3 43.9,52.9 43.9,53.6 L43.9,72.5 C43.9,73.2 44.5,73.8 45.2,73.8 C45.9,73.8 46.5,73.2 46.5,72.5 L46.5,66.2 L46.5,66.2 C46.5,66.2 52,73 52.4,73.4 C52.8,73.9 53.7,74 54.2,73.5 C54.7,73 54.7,72.2 54.2,71.8" id="Shape" fill="#004C6C"></path>
                <path d="M113.3,64.9 L106.7,65.3 C106.7,61.6 108.4,59.9 110.5,59.9 C112.8,59.9 113.8,61.9 114,64.2 C114,64.7 114,64.9 113.3,64.9 M116.7,65.4 C116.7,62.1 115,58.1 110.7,58.1 C106.7,58.1 104.1,61.4 104.1,66.4 C104.1,71.8 107.4,74.2 111.6,74.2 C113.9,74.2 115.2,73.6 115.7,73.4 C116.2,73.2 116.3,72.8 116.2,72.4 C116.1,72 115.7,71.8 115.2,71.9 C114.6,72.1 114,72.3 112.3,72.3 C108.8,72.3 106.9,70.5 106.8,66.5 L115.6,66.5 C116.6,66.5 116.7,65.9 116.7,65.4" id="Shape" fill="#004C6C"></path>
                <path d="M178,64.9 L171.4,65.3 C171.4,61.6 173.1,59.9 175.2,59.9 C177.5,59.9 178.5,61.9 178.7,64.2 C178.7,64.7 178.7,64.9 178,64.9 M181.3,65.4 C181.3,62.1 179.6,58.1 175.3,58.1 C171.3,58.1 168.7,61.4 168.7,66.4 C168.7,71.8 172,74.2 176.2,74.2 C178.5,74.2 179.8,73.6 180.3,73.4 C180.8,73.2 180.9,72.8 180.8,72.4 C180.7,72 180.3,71.8 179.8,71.9 C179.2,72.1 178.6,72.3 176.8,72.3 C173.3,72.3 171.4,70.5 171.4,66.5 L180.2,66.5 C181.3,66.5 181.3,65.9 181.3,65.4" id="Shape" fill="#004C6C"></path>
                <path d="M152.2,66.5 C150.8,66.5 146.1,66.6 146.1,69.9 C146.1,71.4 147,72.6 148.5,72.6 C152.8,72.6 152.2,71.3 152.2,66.5 M145.3,59.4 C146.2,58.9 147.5,58.3 149.8,58.3 C152.3,58.3 154.9,60.4 154.9,64.5 L154.9,68.2 C154.9,72.6 154.7,74.4 147.7,74.4 C145.5,74.4 143.4,73.2 143.4,70.3 C143.4,66.5 146.8,65.5 152.3,65.4 L152.3,64.6 C152.3,60.9 150.1,60.4 149.3,60.4 C147.9,60.4 147.2,60.5 146,61 C144.8,61.3 144.4,60 145.3,59.4" id="Shape" fill="#004C6C"></path>
                <path d="M166.8,72.5 C166.7,72.1 166.4,72 166.1,72.1 C165.6,72.2 165.3,72.3 164.6,72.3 C163.4,72.3 162.4,71.9 162.4,70.2 L162.4,60.7 L165.9,60.7 C166.4,60.7 166.9,60.3 166.9,59.7 C166.9,59.2 166.5,58.7 165.9,58.7 L162.4,58.7 L162.4,55.7 C162.4,55 161.8,54.4 161.1,54.4 C160.4,54.4 159.8,55 159.8,55.7 L159.8,58.7 L157.3,58.7 C156.6,58.7 156.5,60 157.3,60.1 C157.8,60.2 159.9,60.6 159.9,60.6 L159.9,70.4 C159.9,73.3 161.6,74.1 163.8,74.1 C165,74.1 165.8,73.9 166.5,73.6 C166.8,73.3 166.9,72.9 166.8,72.5" id="Shape" fill="#004C6C"></path>
                <path d="M142.4,53.1 C141.8,53 141,53.2 140.7,54.1 C140.4,55.2 136.2,69.9 136.2,69.9 L136.1,69.9 C136.1,69.9 132.3,55.4 132,54.2 C131.7,52.8 129.5,52.7 129.2,54.2 C128.8,55.8 125.4,70 125.4,70 L125.3,70 C125.3,70 120.7,54.4 120.6,54.1 C120.3,53.2 119.5,53 119,53.1 C118.1,53.3 117.9,54.3 118,54.7 C118.3,55.5 123.1,70 124,72.6 C124.6,74.4 126.4,73.9 126.8,72.6 C127.1,71.3 130.6,56.8 130.6,56.8 L130.7,56.8 C130.7,56.8 134.8,72.3 134.9,72.6 C135.3,73.9 137.1,74.2 137.6,72.6 C137.7,72.3 143.4,54.8 143.5,54.7 C143.5,54.3 143.2,53.4 142.4,53.1" id="Shape" fill="#004C6C"></path>
                <path d="M29.1,66.2 C29.1,61.6 26.3,58.2 21.7,58.2 C17.2,58.2 14.2,61.6 14.2,66.2 C14.2,70.8 17,74.2 21.6,74.2 C26.1,74.2 29.1,70.8 29.1,66.2 M26.4,66.2 C26.4,70.1 24.5,72.5 21.6,72.5 C18.8,72.5 16.8,70.1 16.8,66.2 C16.8,62.2 18.7,59.9 21.6,59.9 C24.5,59.9 26.4,62.2 26.4,66.2" id="Shape" fill="#004C6C"></path>
                <path d="M88.9,58.6 C88.2,58.6 87.6,59.2 87.6,59.9 L87.6,72.5 C87.6,73.2 88.2,73.8 88.9,73.8 C89.6,73.8 90.2,73.2 90.2,72.5 L90.2,59.9 C90.2,59.2 89.6,58.6 88.9,58.6" id="Shape" fill="#004C6C"></path>
                <path d="M82.5,60.2 C81.8,59 80.4,58.2 78.6,58.2 C76.3,58.2 74.7,59.4 73.4,60.9 L73.3,60.9 L73.3,53.6 C73.3,52.9 72.7,52.3 72,52.3 C71.3,52.3 70.7,52.9 70.7,53.6 L70.7,72.5 C70.7,73.2 71.3,73.8 72,73.8 C72.7,73.8 73.3,73.2 73.3,72.5 L73.3,62.4 C74.4,61.2 76,60.2 77.6,60.2 C78.7,60.2 79.7,60.6 80.3,61.6 C80.6,62.2 80.8,63 80.8,64.1 L80.8,72.5 C80.8,73.2 81.4,73.8 82.1,73.8 C82.8,73.8 83.4,73.2 83.4,72.5 L83.4,63.8 C83.4,62.2 83.1,61.1 82.5,60.2" id="Shape" fill="#004C6C"></path>
                <path d="M59.9,62.2 C59.9,60.8 61.1,60.1 63,60.1 C64.4,60.1 65,60.3 65.9,60.4 C66.6,60.6 66.9,60.1 67,59.9 C67.1,59.5 66.9,59 66.4,58.9 C65.7,58.6 64.4,58.2 62.6,58.2 C59.7,58.2 57.4,59.7 57.4,62.4 C57.4,67.6 64.9,66 64.9,69.8 C64.9,71.1 64,72.4 61.2,72.4 C59.6,72.4 59.1,72.2 58.4,72.1 C57.8,71.9 57.5,72.3 57.4,72.6 C57.3,72.9 57.3,73.3 57.9,73.6 C58.6,73.9 60.2,74.3 61.7,74.3 C64.7,74.3 67.6,72.9 67.6,69.6 C67.4,64.1 59.9,65.6 59.9,62.2" id="Shape" fill="#004C6C"></path>
                <path d="M39.6,58.2 C36,58.2 32.2,59 32.2,65.3 L32.2,72.5 C32.2,73.2 32.8,73.8 33.5,73.8 C34.2,73.8 34.8,73.2 34.8,72.5 L34.8,65 C34.8,63.1 34.8,61.8 35.2,61.4 C35.7,60.8 37,60.9 39.6,60.9 C40.3,60.9 40.9,60.3 40.9,59.6 C41,58.8 40.4,58.2 39.6,58.2" id="Shape" fill="#004C6C"></path>
                <path d="M101.8,58.2 C98.3,58.2 94.4,59 94.4,65.3 L94.4,72.5 C94.4,73.2 95,73.8 95.7,73.8 C96.4,73.8 97,73.2 97,72.5 L97,65 C97,63.1 97,61.8 97.4,61.4 C98,60.8 99.2,60.9 101.8,60.9 C102.5,60.9 103.1,60.3 103.1,59.6 C103.1,58.8 102.5,58.2 101.8,58.2" id="Shape" fill="#004C6C"></path>
                <path d="M191.8,58.2 C188.3,58.2 184.4,59 184.4,65.3 L184.4,72.5 C184.4,73.2 185,73.8 185.7,73.8 C186.4,73.8 187,73.2 187,72.5 L187,65 C187,63.1 187,61.8 187.4,61.4 C187.9,60.8 189.2,60.9 191.8,60.9 C192.5,60.9 193.1,60.3 193.1,59.6 C193.1,58.8 192.5,58.2 191.8,58.2" id="Shape" fill="#004C6C"></path>
                <path d="M14.4,52.5 C13.7,52.2 12.9,52.5 12.6,53.1 C12.4,53.6 7.7,62.9 7.7,62.9 L7.6,62.9 C7.6,62.9 2.8,53.5 2.6,53.1 C2.4,52.7 1.6,52.1 0.7,52.6 C-4.4408921e-16,53 -0.1,53.9 0.2,54.5 C0.4,54.8 6.3,65.2 6.3,65.2 L6.3,72.6 C6.3,73 6.6,73.9 7.6,73.9 C8.5,73.9 8.9,73.1 8.9,72.6 L8.9,65 C8.9,65 14.8,54.5 15,54.2 C15.3,53.7 15.1,52.8 14.4,52.5" id="Shape" fill="#004C6C"></path>
                <path d="M54.2,71.8 C53.7,71.3 48.5,65.7 48.5,65.7 L48.5,65.7 C48.5,65.7 53.8,60.9 54,60.7 C54.2,60.5 54.6,59.7 53.9,59.1 C53.5,58.7 52.8,58.6 52.3,59.2 C52.1,59.4 46.5,65.3 46.5,65.3 L46.5,65.3 L46.5,53.6 C46.5,52.9 45.9,52.3 45.2,52.3 C44.5,52.3 43.9,52.9 43.9,53.6 L43.9,72.5 C43.9,73.2 44.5,73.8 45.2,73.8 C45.9,73.8 46.5,73.2 46.5,72.5 L46.5,66.2 L46.5,66.2 C46.5,66.2 52,73 52.4,73.4 C52.8,73.9 53.7,74 54.2,73.5 C54.7,73 54.7,72.2 54.2,71.8" id="Shape" fill="#004C6C"></path>
                <path d="M113.3,64.9 L106.7,65.3 C106.7,61.6 108.4,59.9 110.5,59.9 C112.8,59.9 113.8,61.9 114,64.2 C114,64.7 114,64.9 113.3,64.9 M116.7,65.4 C116.7,62.1 115,58.1 110.7,58.1 C106.7,58.1 104.1,61.4 104.1,66.4 C104.1,71.8 107.4,74.2 111.6,74.2 C113.9,74.2 115.2,73.6 115.7,73.4 C116.2,73.2 116.3,72.8 116.2,72.4 C116.1,72 115.7,71.8 115.2,71.9 C114.6,72.1 114,72.3 112.3,72.3 C108.8,72.3 106.9,70.5 106.8,66.5 L115.6,66.5 C116.6,66.5 116.7,65.9 116.7,65.4" id="Shape" fill="#004C6C"></path>
                <path d="M178,64.9 L171.4,65.3 C171.4,61.6 173.1,59.9 175.2,59.9 C177.5,59.9 178.5,61.9 178.7,64.2 C178.7,64.7 178.7,64.9 178,64.9 M181.3,65.4 C181.3,62.1 179.6,58.1 175.3,58.1 C171.3,58.1 168.7,61.4 168.7,66.4 C168.7,71.8 172,74.2 176.2,74.2 C178.5,74.2 179.8,73.6 180.3,73.4 C180.8,73.2 180.9,72.8 180.8,72.4 C180.7,72 180.3,71.8 179.8,71.9 C179.2,72.1 178.6,72.3 176.8,72.3 C173.3,72.3 171.4,70.5 171.4,66.5 L180.2,66.5 C181.3,66.5 181.3,65.9 181.3,65.4" id="Shape" fill="#004C6C"></path>
                <path d="M152.2,66.5 C150.8,66.5 146.1,66.6 146.1,69.9 C146.1,71.4 147,72.6 148.5,72.6 C152.8,72.6 152.2,71.3 152.2,66.5 M145.3,59.4 C146.2,58.9 147.5,58.3 149.8,58.3 C152.3,58.3 154.9,60.4 154.9,64.5 L154.9,68.2 C154.9,72.6 154.7,74.4 147.7,74.4 C145.5,74.4 143.4,73.2 143.4,70.3 C143.4,66.5 146.8,65.5 152.3,65.4 L152.3,64.6 C152.3,60.9 150.1,60.4 149.3,60.4 C147.9,60.4 147.2,60.5 146,61 C144.8,61.3 144.4,60 145.3,59.4" id="Shape" fill="#004C6C"></path>
                <path d="M166.8,72.5 C166.7,72.1 166.4,72 166.1,72.1 C165.6,72.2 165.3,72.3 164.6,72.3 C163.4,72.3 162.4,71.9 162.4,70.2 L162.4,60.7 L165.9,60.7 C166.4,60.7 166.9,60.3 166.9,59.7 C166.9,59.2 166.5,58.7 165.9,58.7 L162.4,58.7 L162.4,55.7 C162.4,55 161.8,54.4 161.1,54.4 C160.4,54.4 159.8,55 159.8,55.7 L159.8,58.7 L157.3,58.7 C156.6,58.7 156.5,60 157.3,60.1 C157.8,60.2 159.9,60.6 159.9,60.6 L159.9,70.4 C159.9,73.3 161.6,74.1 163.8,74.1 C165,74.1 165.8,73.9 166.5,73.6 C166.8,73.3 166.9,72.9 166.8,72.5" id="Shape" fill="#004C6C"></path>
                <path d="M142.4,53.1 C141.8,53 141,53.2 140.7,54.1 C140.4,55.2 136.2,69.9 136.2,69.9 L136.1,69.9 C136.1,69.9 132.3,55.4 132,54.2 C131.7,52.8 129.5,52.7 129.2,54.2 C128.8,55.8 125.4,70 125.4,70 L125.3,70 C125.3,70 120.7,54.4 120.6,54.1 C120.3,53.2 119.5,53 119,53.1 C118.1,53.3 117.9,54.3 118,54.7 C118.3,55.5 123.1,70 124,72.6 C124.6,74.4 126.4,73.9 126.8,72.6 C127.1,71.3 130.6,56.8 130.6,56.8 L130.7,56.8 C130.7,56.8 134.8,72.3 134.9,72.6 C135.3,73.9 137.1,74.2 137.6,72.6 C137.7,72.3 143.4,54.8 143.5,54.7 C143.5,54.3 143.2,53.4 142.4,53.1" id="Shape" fill="#004C6C"></path>
                <path d="M188.3,45.6 C188.3,45.6 192.9,45.6 192.9,41 L192.9,4.6 C192.9,4.6 192.9,0 188.3,0 L4.6,0 C4.6,0 0,0 0,4.6 L0,41.1 C0,41.1 0,45.7 4.6,45.7 L188.3,45.7 L188.3,45.6 Z" id="Shape" fill="#A2DCED"></path>
                <path d="M4.6,45.6 L188.3,45.6 C188.3,45.6 192.9,45.6 192.9,41 L192.9,29.4 C181.1,28 157.9,25.6 142.3,25.6 C115.6,25.6 70.6,12.7 12.2,12.7 C9,12.7 4.9,12.9 0.1,13.3 L0.1,41 C6.66133815e-16,41.1 6.66133815e-16,45.6 4.6,45.6" id="Shape" fill="#00B5EF"></path>
                <path d="M10,27.2 C49.6,27.2 81.3,24.2 85.1,24.2 C108.3,24.2 165.8,31.3 192.9,32.7 L192.9,11.1 L189.5,11.1 C160.5,11.1 93,23.6 85.6,23.6 C74,23.6 39.2,12.8 7.9,12.8 C5.4,12.8 2.8,12.9 0,13 L0,27 C4,27.1 7.9,27.2 10,27.2" id="Shape" fill="#004C6C"></path>
                <path d="M9.4,36.8 C78.2,36.8 112.5,26.1 140,17.4 C157.3,12 171,7.7 188.3,7.7 L192.8,7.7 L192.8,6.7 L188.3,6.7 C170.8,6.7 157,11 139.6,16.5 C112.2,25.1 78,35.8 9.4,35.8 L0,35.8 L0,36.8 L9.4,36.8" id="Shape" fill="#FFFFFF"></path>
                <path d="M10.6,7.5 C17.7,7.5 32.2,8.5 49.1,14.5 C49.4,14.6 79.1,26.1 99.3,28.6 C100,28.7 149.2,35.4 189.2,36 L192.8,36 L192.8,35.1 L189.2,35 C155.3,35.4 100.1,28.1 99.4,28 C79.3,25.5 49.7,14 49.4,13.9 C32.3,7.8 17.8,6.9 10.7,6.8 L0,6.8 L0,7.4 L10.6,7.4 L10.6,7.5 Z" id="Shape" fill="#FFFFFF"></path>
            </g>
        </g>
    </g>
</svg>